<svg width="1440" height="256" viewBox="0 0 1440 256" fill="none" xmlns="http://www.w3.org/2000/svg">
<path d="M0.00012207 255.797C0.000126032 204.272 45.8043 154.857 127.336 118.423C208.868 81.9893 319.449 61.521 434.753 61.5211C550.057 61.5211 660.638 81.9894 742.17 118.423C823.702 154.857 869.506 204.272 869.506 255.797L0.00012207 255.797Z" fill="url(#paint0_linear_5017_13193)"/>
<path d="M570.494 313C570.494 261.475 616.298 212.06 697.83 175.626C779.362 139.192 889.943 118.724 1005.25 118.724C1120.55 118.724 1231.13 139.192 1312.66 175.626C1394.2 212.06 1440 261.475 1440 313L570.494 313Z" fill="url(#paint1_linear_5017_13193)"/>
<path d="M65.5911 144.237C108.028 149.682 105.906 154.447 105.906 212.305V256.876H133.489C133.489 256.876 128.169 195.479 145.69 176.002C161.085 158.888 172.213 169.762 189.718 155.582C207.223 141.401 193.431 71.0639 189.718 54.6141C186.004 38.1644 166.378 34.761 163.195 54.6141C160.012 74.4673 172.743 111.337 163.195 128.354C153.647 145.371 139.855 137.997 133.489 128.354C127.124 118.711 133.489 17.1768 123.941 6.96659C114.393 -3.24358 104.491 -1.35283 100.601 6.96659C96.7111 15.286 100.601 128.354 100.601 128.354C65.5911 128.354 83.6266 60.8537 65.5911 63.6899C47.5557 66.5262 45.4338 141.65 65.5911 144.237Z" fill="#00BCE4"/>
<path d="M134.178 198.705C160.461 202.092 159.147 205.055 159.147 241.033V268.75H176.231C176.231 268.75 172.936 230.57 183.788 218.458C193.323 207.816 200.215 214.578 211.057 205.76C221.898 196.942 213.356 153.203 211.057 142.973C208.757 132.744 196.601 130.628 194.63 142.973C192.658 155.319 200.543 178.247 194.63 188.829C188.716 199.411 180.174 194.825 176.231 188.829C172.289 182.832 176.231 119.693 170.318 113.344C164.404 106.995 158.271 108.17 155.862 113.344C153.453 118.517 155.862 188.829 155.862 188.829C134.178 188.829 145.349 146.854 134.178 148.617C123.008 150.381 121.694 197.097 134.178 198.705Z" fill="#E71939"/>
<path d="M356.62 42.779C347.311 43.9459 347.776 44.9669 347.776 57.365V66.9159H341.726C341.726 66.9159 342.893 53.7594 339.05 49.5858C335.673 45.9184 333.232 48.2488 329.392 45.21C325.552 42.1712 328.577 27.0991 329.392 23.5741C330.206 20.0492 334.512 19.3199 335.21 23.5741C335.908 27.8284 333.115 35.7291 335.21 39.3756C337.304 43.0221 340.329 41.442 341.726 39.3756C343.122 37.3093 341.726 15.5518 343.82 13.3639C345.915 11.176 348.087 11.5812 348.94 13.3639C349.793 15.1467 348.94 39.3756 348.94 39.3756C356.62 39.3756 352.663 24.9112 356.62 25.5189C360.576 26.1267 361.041 42.2248 356.62 42.779Z" fill="#E71939"/>
<path d="M1231.15 205.289C1211.44 207.783 1212.43 209.965 1212.43 236.463V256.875H1199.61C1199.61 256.875 1202.09 228.757 1193.95 219.836C1186.8 211.998 1181.63 216.979 1173.5 210.484C1165.36 203.99 1171.77 171.777 1173.5 164.243C1175.22 156.709 1184.34 155.15 1185.82 164.243C1187.29 173.335 1181.38 190.221 1185.82 198.015C1190.25 205.808 1196.66 202.431 1199.61 198.015C1202.57 193.598 1199.61 147.097 1204.05 142.421C1208.49 137.745 1213.08 138.611 1214.89 142.421C1216.7 146.231 1214.89 198.015 1214.89 198.015C1231.15 198.015 1222.78 167.1 1231.15 168.399C1239.53 169.698 1240.52 204.104 1231.15 205.289Z" fill="#00BCE4"/>
<path d="M997.503 48.4487C1035.39 55.0265 1038.01 62.0669 1040.61 67.4406C1041.74 68.7045 1045.23 72.4008 1046.45 68.8444C1047.18 66.6981 1046.35 60.5276 1030.93 53.4165C1024.94 51.4249 980.397 45.479 997.503 48.4487Z" fill="#B3EBF7"/>
<path d="M1049.55 92.303C1051.68 112.027 1049.26 114.133 1047.48 116.047C1047.13 116.756 1046.12 118.918 1047.66 119.128C1048.59 119.254 1050.9 118.14 1051.76 109.609C1051.79 106.381 1048.59 83.3982 1049.55 92.303Z" fill="#B3EBF7"/>
<path d="M934.234 73.3023C972.868 71.5371 966.108 73.3023 971.363 73.3023C976.617 73.3023 979.558 77.4513 978.162 73.3023C976.766 69.1533 970.435 70.7958 968.232 70.796C962.025 69.9943 916.792 74.0992 934.234 73.3023Z" fill="#B3EBF7"/>
<path d="M1040.47 85.1417C1039.38 80.595 1037.59 76.6656 1035.27 73.3535M1035.27 73.3535C1020.55 52.2679 984.822 56.1973 977.182 85.1417C981.485 104.502 995.48 137.712 1017.03 115.666C1038.59 93.6198 1030.41 75.9818 1023.63 69.9185C1015.43 69.4405 1004 70.4096 995.775 74.7834M1035.27 73.3535C1050.01 76.7885 1034.71 115.666 1026.29 127.923C1017.88 140.179 1003.77 138.774 988.268 102.863C981.859 88.0212 986.985 79.4578 995.775 74.7834M1014.79 62.9705C996.968 77.0747 965.83 109.03 983.847 124.019C1006.37 142.756 1000.62 92.4513 995.775 74.7834M1001.53 65.9371C971.92 62.9705 961.228 126.361 983.847 133.856C1009.46 147.674 1042.46 117.154 1035.27 97.4764C1035.37 82.0368 1029.72 53.5202 1006.37 62.9705" stroke="#00BCE4" stroke-width="3"/>
<path d="M1029.06 129.986C1032.57 127.369 1035.33 124.207 1037.4 120.699M1037.4 120.699C1050.55 98.3675 1035.63 62.0313 1008.55 63.3694C993.482 74.1736 969.782 99.6678 995.511 115.211C1021.24 130.754 1033.59 116.432 1036.54 107.327C1034.29 98.5449 1029.76 86.824 1023.38 79.5838M1037.4 120.699C1039.25 137.321 1001.24 133.822 988.092 128.932C974.943 124.042 971.567 108.741 997.074 80.7815C1007.62 69.2258 1016.56 71.8457 1023.38 79.5838M1039.59 95.7699C1021.82 81.5819 984.559 59.1617 977.654 82.9851C969.023 112.764 1009.93 90.4056 1023.38 79.5838M1032.77 82.7729C1025.69 50.645 968.332 59.9335 969.291 86.1729C965.842 117.608 1002.49 142.456 1016.89 128.517C1030.05 123.612 1052.46 108.423 1036.86 86.9074" stroke="#00BCE4" stroke-width="3"/>
<defs>
<linearGradient id="paint0_linear_5017_13193" x1="447.568" y1="282.78" x2="447.568" y2="61.521" gradientUnits="userSpaceOnUse">
<stop stop-color="#E0F7FC" stop-opacity="0"/>
<stop offset="0.298951" stop-color="#E0F7FC"/>
<stop offset="0.914859" stop-color="#B9EDF8"/>
</linearGradient>
<linearGradient id="paint1_linear_5017_13193" x1="1018.06" y1="339.983" x2="1018.06" y2="118.724" gradientUnits="userSpaceOnUse">
<stop offset="0.236968" stop-color="#E0F7FC" stop-opacity="0"/>
<stop offset="0.509432" stop-color="#E0F7FC"/>
<stop offset="0.914859" stop-color="#B9EDF8"/>
</linearGradient>
</defs>
</svg>
