<svg width="100" height="100" viewBox="0 0 100 100" fill="none" xmlns="http://www.w3.org/2000/svg">
<path d="M60.788 12.2233C60.884 12.3193 60.836 12.3673 60.692 12.2713C60.4521 12.1273 60.1641 11.9354 59.8761 11.7914C59.7321 11.6954 59.5401 11.5514 59.4441 11.4074C59.3002 11.1674 59.1562 10.9754 59.0122 10.7835C58.9162 10.6875 58.9642 10.6875 59.1562 10.7355C59.3962 10.8794 59.6841 11.0714 59.9241 11.2154C60.0201 11.3114 60.2121 11.4554 60.3081 11.5514C60.4521 11.7914 60.644 11.9833 60.788 12.2233ZM59.5881 12.0793C59.4921 11.9354 59.3482 11.7434 59.1562 11.6954C58.8202 11.5514 58.4842 11.4554 58.1003 11.3114C57.9083 11.2634 57.7643 11.3114 57.8603 11.4554C57.9563 11.7434 58.1003 12.0793 58.1963 12.4153C58.2443 12.6073 58.4842 12.7993 58.6762 12.8473C59.0602 12.9433 59.4441 13.0872 59.7801 13.1832C59.9721 13.2312 60.0681 13.1352 59.9721 12.9913C59.8761 12.6553 59.7321 12.3673 59.5881 12.0793ZM40.8699 13.8072C40.9179 13.6152 40.8219 13.5192 40.6299 13.5672C40.294 13.7112 39.958 13.8072 39.67 13.9512C39.526 13.9992 39.334 14.1911 39.286 14.4311C39.1421 14.7671 39.0461 15.151 38.9501 15.535C38.9021 15.727 38.9501 15.871 39.1421 15.823C39.478 15.727 39.766 15.631 40.15 15.535C40.3419 15.487 40.5339 15.247 40.5819 15.0551C40.6779 14.5751 40.7739 14.1911 40.8699 13.8072ZM63.9077 17.5028C63.8597 17.3108 63.7637 17.1189 63.6678 17.0229C63.4758 16.9269 63.2838 16.7829 63.0918 16.6869C62.9478 16.6389 62.8998 16.7349 62.9478 16.9749C63.0438 17.4068 63.1398 17.7908 63.1878 18.2228C63.2358 18.4627 63.3798 18.6547 63.4758 18.7027C63.7158 18.7987 63.9077 18.8467 64.0517 18.9427C64.1477 18.9907 64.1957 18.8467 64.1477 18.6067C64.0997 18.2708 64.0037 17.8868 63.9077 17.5028ZM36.4063 22.3024C36.4063 22.0624 36.3583 21.8704 36.2623 21.8704C36.1183 21.8704 35.9744 21.9184 35.8304 21.9184C35.7824 21.9184 35.7344 22.1104 35.7344 22.3024C35.7344 22.7343 35.7344 23.1183 35.7344 23.5023C35.7344 23.7422 35.7824 23.8862 35.8304 23.9342C35.9264 23.9342 36.0703 23.9822 36.2623 23.9822C36.3583 23.9822 36.4063 23.8382 36.4063 23.5983C36.3583 23.1663 36.3583 22.7343 36.4063 22.3024ZM37.7502 22.2064C37.7502 21.9184 37.6542 21.7264 37.5102 21.7744C37.2222 21.7744 36.9823 21.8224 36.7903 21.8224C36.6943 21.8224 36.5983 22.0144 36.5983 22.2544C36.5983 22.7343 36.5983 23.1663 36.5983 23.5983C36.5983 23.8382 36.6943 24.0302 36.7903 24.0302C37.0303 24.0302 37.2222 24.0782 37.5102 24.0782C37.6542 24.0782 37.7502 23.8862 37.7502 23.6462C37.7502 23.2143 37.7502 22.7343 37.7502 22.2064ZM63.2838 25.0381C63.2838 24.7982 63.1878 24.6062 63.0438 24.6062C62.7558 24.6542 62.4679 24.6542 62.1319 24.7022C61.9399 24.7022 61.7959 24.9421 61.7959 25.2301C61.7479 25.7581 61.6999 26.238 61.6519 26.718C61.6039 27.0059 61.7479 27.1499 61.9399 27.1499C62.2759 27.1019 62.5639 27.0059 62.8518 26.9579C62.9958 26.91 63.1398 26.718 63.1878 26.478C63.1878 25.95 63.2358 25.5181 63.2838 25.0381ZM43.0297 31.4215C42.9817 31.1815 42.7417 30.9896 42.5017 30.9416C42.0698 30.8456 41.6378 30.7496 41.2059 30.6536C41.0139 30.6056 40.8699 30.7496 40.9179 30.9896C41.0139 31.4215 41.1099 31.8055 41.2539 32.1895C41.3019 32.3814 41.5418 32.5734 41.7338 32.6694C42.1178 32.7654 42.5497 32.8614 42.9337 33.0054C43.1737 33.0534 43.3177 32.9574 43.2697 32.7174C43.1737 32.2854 43.0777 31.9015 43.0297 31.4215ZM55.1725 34.0613C55.2205 33.8693 55.0286 33.7733 54.7886 33.7733C54.3086 33.8213 53.7807 33.9173 53.2527 33.9173C52.9648 33.9653 52.7248 34.1093 52.7248 34.3013C52.6768 34.6372 52.6768 34.9732 52.6288 35.2612C52.6288 35.4051 52.7728 35.5011 53.0607 35.5011C53.5407 35.4531 54.0207 35.4052 54.4526 35.3572C54.6926 35.3092 54.9326 35.1652 54.9806 35.0212C55.0286 34.7332 55.0766 34.4452 55.1725 34.0613ZM59.1562 22.1104C59.1562 21.8224 58.9642 21.5344 58.6762 21.5344C58.1963 21.5344 57.7163 21.4865 57.1884 21.4865C56.9004 21.4865 56.7084 21.7264 56.7084 22.0624C56.7084 22.6863 56.7084 23.2623 56.7084 23.8862C56.7084 24.2222 56.9484 24.4622 57.1884 24.4622C57.7163 24.4622 58.1963 24.4142 58.6762 24.4142C58.9162 24.4142 59.1562 24.1742 59.1562 23.8382C59.1562 23.2623 59.1562 22.6863 59.1562 22.1104ZM61.556 22.1584C61.556 21.8704 61.364 21.6304 61.172 21.6304C60.788 21.6304 60.4041 21.5824 59.9721 21.5824C59.7321 21.5824 59.5881 21.8224 59.5401 22.1104C59.5401 22.6863 59.5401 23.2623 59.5401 23.7902C59.5401 24.0782 59.7321 24.3182 59.9241 24.3182C60.3561 24.3182 60.788 24.2702 61.124 24.2702C61.316 24.2702 61.46 24.0302 61.508 23.7422C61.556 23.2143 61.556 22.6863 61.556 22.1584ZM39.766 25.2781C39.718 24.9901 39.574 24.7502 39.382 24.7502C38.9981 24.7022 38.6621 24.7022 38.3741 24.6542C38.1821 24.6542 38.0862 24.8461 38.0862 25.0861C38.1341 25.5661 38.1822 26.046 38.2301 26.526C38.2781 26.766 38.4221 27.0059 38.5661 27.0539C38.9021 27.1019 39.1901 27.1979 39.574 27.2459C39.766 27.2939 39.91 27.1019 39.862 26.814C39.862 26.334 39.814 25.8541 39.766 25.2781ZM56.1325 25.6141C56.1325 25.2781 55.9405 25.0381 55.6045 25.0381C55.0286 25.0381 54.4526 25.0861 53.8287 25.0861C53.4927 25.0861 53.2527 25.3741 53.2047 25.7101C53.2047 26.334 53.1567 26.9099 53.1567 27.4859C53.1567 27.8219 53.3967 28.0138 53.6847 28.0138C54.3086 27.9658 54.8366 27.9659 55.4125 27.9179C55.7005 27.8699 55.9885 27.6299 55.9885 27.3419C56.0365 26.766 56.0845 26.238 56.1325 25.6141ZM49.2691 10.4955C49.2691 10.3515 49.0771 10.2075 48.8372 10.2555C48.3572 10.3035 47.8772 10.3035 47.3973 10.3515C47.1573 10.3995 46.9173 10.5435 46.8693 10.6875C46.8213 10.9754 46.7733 11.3114 46.7253 11.6474C46.6773 11.8394 46.8693 11.9833 47.1573 11.9354C47.6853 11.8874 48.1652 11.8394 48.7412 11.8394C49.0291 11.8394 49.2691 11.6474 49.2691 11.4554C49.2211 11.1194 49.2211 10.7835 49.2691 10.4955ZM43.2697 13.2312C43.3177 13.0393 43.1737 12.8953 42.9337 12.9433C42.5017 13.0392 42.1178 13.1352 41.7338 13.2312C41.5418 13.2792 41.3019 13.4712 41.2539 13.7112C41.1579 14.0952 41.0139 14.4791 40.9659 14.9111C40.9179 15.1511 41.0139 15.295 41.2539 15.247C41.6858 15.151 42.0698 15.0551 42.5497 14.9591C42.7897 14.9111 43.0297 14.6711 43.0777 14.4311C43.0777 13.9992 43.1737 13.6152 43.2697 13.2312Z" fill="white"/>
<path d="M44.7101 9.29587C44.6621 9.39186 44.4701 9.48785 44.2781 9.53585C43.8942 9.63184 43.6062 9.77583 43.2702 9.91982C43.0783 9.96782 43.0303 9.96782 43.0783 9.91982C43.2222 9.77583 43.3662 9.63184 43.5102 9.53585C43.6062 9.48785 43.7502 9.39186 43.9422 9.29587C44.2301 9.15188 44.5661 9.0559 44.9021 8.91191C45.0941 8.86392 45.19 8.86392 45.0941 8.91191C44.9021 9.0079 44.8061 9.10389 44.7101 9.29587ZM47.1579 8.38396C47.2059 8.33596 47.0619 8.33596 46.8699 8.38396C46.4859 8.43195 46.15 8.52794 45.766 8.62394C45.574 8.67193 45.382 8.76792 45.334 8.81591C45.238 8.91191 45.142 9.0559 45.0461 9.19989C44.9981 9.29588 45.0941 9.29587 45.334 9.24787C45.718 9.15188 46.102 9.05589 46.5339 9.00789C46.7739 8.9599 46.9659 8.86391 47.0139 8.76792C47.0139 8.62393 47.1099 8.47995 47.1579 8.38396ZM49.4616 8.14398C49.4616 8.09599 49.3177 8.04799 49.0777 8.09598C48.6937 8.14398 48.3097 8.19198 47.9258 8.19198C47.7338 8.23997 47.5418 8.28796 47.4938 8.33596C47.4458 8.43195 47.3978 8.57595 47.3019 8.71993C47.2539 8.81592 47.3978 8.86391 47.6378 8.81591C48.0698 8.76792 48.5017 8.71993 48.9337 8.71993C49.1737 8.71993 49.3657 8.62393 49.3657 8.52794C49.4136 8.33596 49.4616 8.23997 49.4616 8.14398ZM51.8134 8.14398C51.8134 8.09599 51.6214 8.04798 51.3815 8.04798C50.9975 8.04798 50.5655 8 50.1816 8C49.9896 8 49.7976 8.04799 49.7976 8.09598C49.7976 8.19197 49.7976 8.33597 49.7496 8.47995C49.7496 8.57595 49.9416 8.62394 50.1816 8.62394C50.6135 8.62394 51.0455 8.62394 51.4775 8.67193C51.7174 8.67193 51.9094 8.62393 51.8614 8.52794C51.9094 8.38395 51.8614 8.23997 51.8134 8.14398ZM54.1172 8.47995C54.0692 8.43196 53.8772 8.33596 53.6852 8.33596C53.3013 8.23997 52.9173 8.19198 52.5334 8.14398C52.3414 8.14398 52.1974 8.14398 52.1974 8.19198C52.2454 8.28797 52.2934 8.43195 52.2934 8.57594C52.2934 8.67193 52.5334 8.71992 52.7253 8.76792C53.1573 8.81591 53.5893 8.86392 53.9732 8.95991C54.2132 9.00791 54.3092 8.9599 54.3092 8.86391C54.2612 8.71993 54.1652 8.57595 54.1172 8.47995ZM56.181 9.05589C56.133 9.0079 55.941 8.91191 55.7491 8.86391C55.4131 8.76792 55.0771 8.62393 54.6932 8.57594C54.5012 8.52794 54.4052 8.52794 54.4052 8.57594C54.5012 8.67193 54.5492 8.81592 54.6452 8.95991C54.6931 9.0559 54.8851 9.15189 55.1251 9.19989C55.5091 9.29588 55.893 9.39186 56.277 9.48785C56.469 9.53584 56.565 9.53586 56.517 9.43986C56.421 9.29588 56.277 9.15188 56.181 9.05589ZM57.9569 9.87182C57.8609 9.82383 57.7169 9.72783 57.5729 9.63184C57.2849 9.48786 56.9969 9.34387 56.709 9.19989C56.565 9.15189 56.469 9.10389 56.517 9.15189C56.661 9.24788 56.757 9.39186 56.9009 9.53585C56.9489 9.63184 57.1889 9.72783 57.3329 9.82382C57.6689 9.96781 57.9568 10.0638 58.2928 10.2558C58.4368 10.3518 58.5328 10.3038 58.4368 10.2558C58.2448 10.0638 58.1008 9.96781 57.9569 9.87182ZM40.7265 11.4077C40.8225 11.3117 40.7745 11.3117 40.6785 11.4077C40.5825 11.5037 40.4865 11.5996 40.3425 11.6476C40.2465 11.7436 39.5746 12.4156 39.4786 12.5116C39.3826 12.6076 39.2866 12.7036 39.2386 12.7995C39.1426 12.8955 39.1426 12.9435 39.2386 12.8475C39.4306 12.6556 39.6226 12.5116 39.8626 12.3676C40.0065 12.2716 40.1505 12.1276 40.2465 11.9836C40.4385 11.7916 40.5825 11.5996 40.7265 11.4077ZM42.3583 10.4958C42.4543 10.3998 42.3583 10.3998 42.2143 10.4478C41.9264 10.5917 41.6384 10.7357 41.3984 10.9277C41.2544 11.0237 41.1104 11.1677 41.0144 11.2637C40.8705 11.4557 40.6785 11.6476 40.5345 11.8876C40.4385 11.9836 40.4865 12.0316 40.6305 11.9836C40.9185 11.8396 41.2064 11.6956 41.5424 11.5517C41.7344 11.4557 41.9264 11.3117 41.9743 11.1677C42.0703 10.8797 42.2143 10.6877 42.3583 10.4958ZM44.4221 9.77582C44.4701 9.67983 44.3741 9.63185 44.1821 9.67984C43.7982 9.77583 43.4622 9.91981 43.1262 10.0638C42.9343 10.1118 42.7423 10.2558 42.6943 10.3518C42.5503 10.5438 42.4543 10.7837 42.3103 11.0237C42.2623 11.1677 42.3103 11.2157 42.5023 11.1197C42.8383 10.9757 43.2222 10.8797 43.6542 10.7837C43.8462 10.7357 44.0862 10.5917 44.1341 10.4478C44.1821 10.2078 44.2781 9.96781 44.4221 9.77582ZM46.7739 9.24787C46.8219 9.15188 46.6779 9.10389 46.4379 9.15189C46.006 9.24788 45.622 9.29588 45.2381 9.39187C45.0461 9.43986 44.8061 9.58385 44.7581 9.67984C44.6621 9.87182 44.5661 10.1118 44.4701 10.3518C44.4221 10.4958 44.5661 10.5438 44.7581 10.4958C45.1901 10.3998 45.622 10.3038 46.054 10.2558C46.2939 10.2078 46.5339 10.0638 46.5339 9.91982C46.6299 9.67984 46.7259 9.48785 46.7739 9.24787ZM49.3657 9.00789C49.3657 8.9119 49.1737 8.81592 48.9337 8.86391C48.5017 8.91191 48.0698 8.91191 47.6378 8.95991C47.3978 9.00791 47.2059 9.1039 47.1579 9.19989C47.1099 9.39187 47.0619 9.63184 46.9659 9.87182C46.9179 10.0158 47.1099 10.1118 47.3498 10.0638C47.8298 10.0158 48.3098 9.9678 48.7897 9.9678C49.0297 9.91981 49.2697 9.82383 49.2697 9.67984C49.3177 9.43986 49.3177 9.19988 49.3657 9.00789ZM52.0054 9.05589C52.0054 8.9599 51.8134 8.86391 51.5734 8.86391C51.1415 8.81592 50.7095 8.86391 50.2296 8.81591C49.9896 8.81591 49.7976 8.9119 49.7976 9.00789C49.7976 9.19988 49.7976 9.43986 49.7496 9.67984C49.7496 9.82383 49.9416 9.91982 50.2296 9.91982C50.7095 9.91982 51.1895 9.91981 51.6694 9.9678C51.9094 9.9678 52.1014 9.87181 52.1014 9.72783C52.0534 9.48785 52.0534 9.24787 52.0054 9.05589ZM54.5492 9.34387C54.5012 9.24788 54.3092 9.10389 54.0692 9.10389C53.6373 9.05589 53.2533 8.95991 52.7733 8.91191C52.5334 8.91191 52.3894 8.9599 52.3894 9.05589C52.4374 9.24787 52.4854 9.48785 52.4854 9.72783C52.5334 9.87181 52.7253 10.0158 52.9653 10.0158C53.4453 10.0638 53.9252 10.1118 54.3572 10.2078C54.5972 10.2558 54.7412 10.1598 54.7412 10.0158C54.6932 9.77582 54.6452 9.58385 54.5492 9.34387ZM56.853 9.91982C56.805 9.82383 56.565 9.67984 56.373 9.63184C55.989 9.53585 55.6051 9.43986 55.2211 9.34387C54.9811 9.29587 54.8851 9.34387 54.9331 9.43986C55.0291 9.63185 55.0771 9.87182 55.1731 10.1118C55.2211 10.2558 55.4611 10.3998 55.6531 10.4478C56.085 10.5437 56.517 10.6397 56.9009 10.7357C57.1409 10.7837 57.2369 10.7357 57.1889 10.5918C57.0929 10.3518 56.9489 10.1118 56.853 9.91982ZM58.8208 10.6877C58.7248 10.5917 58.5328 10.4478 58.3888 10.3518C58.0528 10.2078 57.7649 10.0638 57.4289 9.9678C57.2369 9.91981 57.1409 9.91981 57.1889 10.0158C57.3329 10.2078 57.4289 10.4478 57.5249 10.6877C57.5729 10.8317 57.8129 10.9757 58.0048 11.0237C58.3888 11.1677 58.7248 11.2637 59.0607 11.4077C59.2527 11.5037 59.3007 11.4557 59.2527 11.3117C59.0607 11.0717 58.9648 10.8797 58.8208 10.6877ZM39.8146 12.7036C39.9105 12.5596 39.8626 12.5116 39.7186 12.6076C39.4786 12.7515 39.2866 12.9435 39.0466 13.0875C38.9506 13.1835 38.8067 13.3755 38.7107 13.4715C38.5667 13.7115 38.3747 13.9994 38.2307 14.2874C38.1347 14.4314 38.1827 14.5274 38.2787 14.4314C38.4707 14.2874 38.7107 14.1434 38.9506 13.9994C39.0946 13.9034 39.2386 13.7115 39.3346 13.5675C39.5266 13.2795 39.6706 12.9915 39.8146 12.7036ZM41.5904 11.8876C41.6864 11.7436 41.5424 11.6956 41.3984 11.7436C41.0624 11.8876 40.7745 12.0316 40.4865 12.1756C40.3425 12.2716 40.1505 12.4156 40.1025 12.5596C39.9585 12.8475 39.8146 13.1355 39.6706 13.4235C39.6226 13.5675 39.6706 13.6635 39.8146 13.6155C40.1025 13.4715 40.4385 13.3755 40.7745 13.2315C40.9664 13.1355 41.1584 12.9915 41.2064 12.7995C41.3504 12.4636 41.4464 12.1756 41.5904 11.8876ZM43.7982 11.2157C43.8462 11.0717 43.7022 10.9757 43.5102 11.0237C43.1262 11.1197 42.7423 11.2637 42.3583 11.3597C42.1663 11.4557 41.9744 11.5997 41.8784 11.7436C41.7344 12.0316 41.6384 12.3196 41.4944 12.6556C41.4464 12.8475 41.5424 12.9435 41.7344 12.8955C42.1183 12.7995 42.5023 12.6556 42.9343 12.5596C43.1742 12.5116 43.3662 12.3196 43.4622 12.1276C43.6062 11.8396 43.7022 11.5037 43.7982 11.2157ZM46.3899 10.7357C46.4379 10.5917 46.2459 10.4958 46.006 10.4958C45.526 10.5917 45.0941 10.6397 44.6621 10.7357C44.4221 10.7837 44.2301 10.9277 44.1821 11.1197C44.0862 11.4077 43.9902 11.7436 43.8942 12.0796C43.8462 12.2716 43.9902 12.3676 44.2301 12.3196C44.7101 12.2236 45.1421 12.1276 45.67 12.0796C45.958 12.0316 46.15 11.8396 46.198 11.6476C46.294 11.3597 46.3419 11.0237 46.3899 10.7357ZM52.1974 10.5438C52.1974 10.3998 51.9574 10.2558 51.7174 10.2558C51.2375 10.2078 50.7575 10.2078 50.2296 10.2078C49.9416 10.2078 49.7496 10.3038 49.7496 10.4958C49.7496 10.7837 49.7496 11.1197 49.7016 11.5037C49.7016 11.6956 49.9416 11.8396 50.2296 11.8396C50.7575 11.8396 51.2855 11.8396 51.8134 11.8876C52.1014 11.8876 52.2934 11.7436 52.2934 11.5517C52.2454 11.1677 52.1974 10.8317 52.1974 10.5438ZM54.9811 10.8317C54.9331 10.6877 54.7411 10.5438 54.4532 10.4958C53.9732 10.4478 53.5413 10.3998 53.0613 10.3518C52.8213 10.3518 52.6294 10.4478 52.6294 10.5918C52.6773 10.8797 52.7253 11.2157 52.7253 11.5997C52.7733 11.7916 52.9653 11.9836 53.2533 11.9836C53.7812 12.0316 54.2612 12.0796 54.7892 12.1276C55.0771 12.1756 55.2211 12.0316 55.1731 11.8396C55.1251 11.4557 55.0771 11.1197 54.9811 10.8317ZM57.5249 11.3597C57.4769 11.2157 57.2369 11.0237 57.0449 10.9757C56.613 10.8797 56.229 10.7837 55.7971 10.6877C55.5571 10.6397 55.4131 10.7357 55.4611 10.8797C55.5571 11.1677 55.6051 11.5037 55.7011 11.8396C55.7491 12.0316 55.989 12.2236 56.229 12.2716C56.709 12.3676 57.1409 12.4156 57.5729 12.5596C57.8129 12.6076 57.9569 12.5116 57.8609 12.3196C57.7169 11.9836 57.6209 11.6477 57.5249 11.3597ZM61.2205 12.9435C61.1246 12.7995 60.9806 12.6076 60.8366 12.5596C60.5966 12.4156 60.3086 12.2716 60.0207 12.1276C59.8767 12.0316 59.7807 12.1276 59.8767 12.2716C60.0207 12.5596 60.1166 12.8475 60.2606 13.1835C60.3086 13.3755 60.5006 13.5675 60.6926 13.6155C60.9806 13.7594 61.2685 13.9034 61.5565 13.9994C61.7005 14.0954 61.7485 13.9994 61.6525 13.8074C61.5565 13.4715 61.4125 13.1835 61.2205 12.9435ZM62.3724 13.8554C62.2764 13.7115 62.1325 13.5675 62.0845 13.4715C61.9405 13.2795 61.7485 13.1355 61.5565 12.9915C61.4605 12.8955 61.4125 12.9435 61.5085 13.0875C61.6525 13.3755 61.7965 13.6155 61.9405 13.9514C62.0365 14.0954 62.1805 14.2874 62.2764 14.3834C62.5164 14.5274 62.6604 14.6714 62.8524 14.8154C62.9484 14.9113 62.9484 14.8154 62.8524 14.6714C62.6604 14.3354 62.5164 14.0954 62.3724 13.8554ZM37.7508 15.2953C37.8467 15.1033 37.7987 15.0553 37.7028 15.1513C37.5588 15.2953 37.4148 15.4393 37.3188 15.5833C37.2708 15.6793 37.1748 15.8233 37.0788 16.0152C36.9348 16.3032 36.7908 16.5912 36.6948 16.9271C36.6468 17.1191 36.5989 17.2151 36.6948 17.1191C36.7908 17.0232 36.9348 16.8792 37.1268 16.7832C37.2228 16.7352 37.3188 16.4952 37.4148 16.3512C37.4628 15.9672 37.6068 15.6313 37.7508 15.2953ZM39.0466 14.5274C39.0946 14.3354 39.0466 14.2874 38.9026 14.3354C38.6627 14.4794 38.4227 14.6234 38.2307 14.7674C38.1347 14.8633 37.9907 15.0553 37.8947 15.1993C37.7507 15.5353 37.6548 15.8712 37.5108 16.2072C37.4628 16.3992 37.4628 16.4952 37.6068 16.4472C37.7987 16.3512 38.0387 16.2072 38.3267 16.1112C38.4707 16.0632 38.6147 15.8233 38.7107 15.6313C38.8067 15.2473 38.9026 14.8633 39.0466 14.5274ZM46.054 12.7995C46.102 12.5596 45.91 12.4636 45.622 12.4636C45.1421 12.5116 44.6621 12.6076 44.1821 12.7036C43.9422 12.7515 43.7022 12.9435 43.6542 13.1355C43.5582 13.5195 43.5102 13.9514 43.4142 14.3834C43.3662 14.6234 43.5582 14.7674 43.7982 14.7194C44.2781 14.6234 44.8061 14.5754 45.334 14.5274C45.622 14.4794 45.862 14.2874 45.91 14.0474C45.958 13.5675 46.006 13.1835 46.054 12.7995ZM49.1737 12.5596C49.1737 12.3196 48.9817 12.1756 48.6937 12.1756C48.1658 12.1756 47.6378 12.2236 47.1099 12.2716C46.8219 12.3196 46.5819 12.5116 46.5819 12.7036C46.5339 13.1355 46.4859 13.5195 46.4379 13.9994C46.4379 14.2394 46.6299 14.4314 46.9179 14.3834C47.4938 14.3354 48.0218 14.2874 48.5977 14.2874C48.8857 14.2874 49.1737 14.0954 49.1737 13.8074C49.1257 13.3755 49.1257 12.9435 49.1737 12.5596ZM52.3414 12.5596C52.3414 12.3676 52.1014 12.1756 51.8134 12.1756C51.2855 12.1276 50.7575 12.1276 50.1816 12.1276C49.8936 12.1276 49.6536 12.2716 49.6536 12.5116C49.6536 12.9435 49.6536 13.3275 49.6056 13.8074C49.6056 14.0474 49.8456 14.2394 50.1336 14.2394C50.7095 14.2394 51.2855 14.2394 51.8614 14.2874C52.1494 14.2874 52.3894 14.0954 52.3894 13.8554C52.3894 13.4235 52.3894 12.9915 52.3414 12.5596ZM55.3651 12.8475C55.3171 12.6556 55.0771 12.4636 54.8371 12.4156C54.3092 12.3676 53.8292 12.3196 53.3013 12.2716C53.0133 12.2716 52.8213 12.4156 52.8213 12.6076C52.8693 13.0395 52.8693 13.4235 52.9173 13.9034C52.9173 14.1434 53.2053 14.3834 53.4933 14.3834C54.0692 14.4314 54.5972 14.4794 55.1251 14.5274C55.4131 14.5754 55.6051 14.3834 55.5571 14.1434C55.5091 13.6635 55.4611 13.2795 55.3651 12.8475ZM58.1008 13.3275C58.0528 13.1355 57.8129 12.9435 57.5729 12.8475C57.1409 12.7515 56.709 12.6556 56.229 12.6076C55.989 12.5596 55.797 12.7035 55.845 12.8955C55.941 13.2795 55.989 13.7115 56.037 14.1434C56.085 14.3834 56.325 14.6234 56.565 14.6234C57.0929 14.6714 57.5249 14.7674 58.0048 14.8633C58.2448 14.9113 58.3888 14.7674 58.3408 14.5274C58.2928 14.1434 58.1968 13.7594 58.1008 13.3275ZM60.3566 13.9994C60.3086 13.8075 60.1166 13.6155 59.9247 13.5195C59.5887 13.3755 59.2047 13.2795 58.8208 13.1835C58.6288 13.1355 58.4848 13.2315 58.5328 13.4235C58.6288 13.8074 58.7248 14.1914 58.8208 14.6234C58.8688 14.8633 59.1087 15.0553 59.3007 15.1513C59.7327 15.2473 60.1166 15.3433 60.4526 15.4393C60.6446 15.4873 60.7406 15.3433 60.6926 15.1513C60.5486 14.7194 60.4526 14.3354 60.3566 13.9994ZM62.0845 14.7194C61.9885 14.5274 61.8445 14.3354 61.7005 14.2874C61.4125 14.1434 61.1726 14.0474 60.8366 13.9034C60.6446 13.8554 60.5966 13.9514 60.6446 14.1434C60.7406 14.5274 60.8846 14.9113 60.9806 15.2953C61.0286 15.5353 61.2205 15.7273 61.4125 15.7753C61.7485 15.8713 62.0365 15.9672 62.2764 16.1112C62.4204 16.1592 62.4684 16.0632 62.4204 15.8233C62.3244 15.3913 62.1804 15.0553 62.0845 14.7194ZM63.2364 15.4873C63.1404 15.2953 63.0444 15.1033 62.9484 15.0553C62.7564 14.9113 62.6124 14.7674 62.3724 14.6234C62.2764 14.5274 62.2285 14.6234 62.2764 14.8154C62.4204 15.1513 62.5164 15.4873 62.6604 15.8713C62.7084 16.0632 62.8524 16.3032 62.9964 16.3512C63.2364 16.4472 63.4283 16.5912 63.5723 16.6872C63.6683 16.7352 63.6683 16.6392 63.6203 16.4472C63.4763 16.1112 63.3803 15.8233 63.2364 15.4873ZM63.5243 15.6793C63.4763 15.5833 63.4283 15.5353 63.3803 15.4393C63.3323 15.3433 63.3323 15.4393 63.3803 15.5833C63.5243 15.9193 63.6683 16.2072 63.7643 16.5432C63.8603 16.7352 63.9563 16.9272 64.0043 16.9751C64.1483 17.0711 64.2443 17.2151 64.2922 17.3111C64.3402 17.3591 64.2922 17.3111 64.2443 17.1191C64.1003 16.8792 63.5723 15.7753 63.5243 15.6793ZM37.0308 17.3591C37.0788 17.1671 37.0308 17.0232 36.9828 17.1191C36.7908 17.2151 36.6949 17.3111 36.5509 17.4551C36.5029 17.5031 36.4069 17.6951 36.3589 17.8871C36.2629 18.223 36.1669 18.607 36.0709 18.991C36.0229 19.1829 36.0709 19.3269 36.1189 19.2789C36.2629 19.1829 36.3589 19.135 36.5509 19.039C36.6469 18.991 36.7428 18.799 36.7908 18.559C36.8388 18.127 36.9348 17.7431 37.0308 17.3591ZM38.3747 16.7832C38.4227 16.5432 38.3267 16.4472 38.2307 16.4952C37.9427 16.5912 37.7508 16.6872 37.5108 16.8312C37.3668 16.8792 37.2708 17.1191 37.2228 17.3111C37.1268 17.6951 37.0308 18.0791 36.9348 18.511C36.8868 18.751 36.9348 18.895 37.0788 18.847C37.2708 18.799 37.5108 18.703 37.7988 18.655C37.9427 18.607 38.0867 18.415 38.1347 18.127C38.1827 17.6471 38.3267 17.2151 38.3747 16.7832ZM40.2945 16.2552C40.3425 16.0152 40.1985 15.8713 40.0065 15.9193C39.6226 16.0152 39.3346 16.1112 38.9986 16.2072C38.8547 16.2552 38.6627 16.4952 38.6147 16.6872C38.5187 17.1191 38.4227 17.5511 38.3747 18.0311C38.3267 18.271 38.4227 18.415 38.6147 18.415C38.9506 18.319 39.2866 18.271 39.6226 18.223C39.8146 18.175 40.0065 17.9351 40.0545 17.6951C40.1505 17.1671 40.1985 16.6872 40.2945 16.2552ZM42.7903 15.7753C42.8383 15.5353 42.6463 15.3433 42.4063 15.3913C41.9264 15.4873 41.5424 15.5353 41.1104 15.6313C40.8705 15.6793 40.6785 15.9193 40.6305 16.1592C40.5345 16.6392 40.4865 17.0711 40.3905 17.5991C40.3425 17.8391 40.4865 18.0311 40.7265 18.0311C41.1584 17.9831 41.5904 17.8871 42.0223 17.8391C42.2623 17.7911 42.5023 17.5511 42.5503 17.2631C42.6463 16.7352 42.6943 16.2552 42.7903 15.7753ZM45.718 15.3913C45.718 15.1033 45.526 14.9593 45.2381 14.9593C44.7101 15.0073 44.1821 15.0553 43.7022 15.1513C43.4142 15.1993 43.2222 15.3913 43.1742 15.6793C43.1262 16.1592 43.0303 16.6392 42.9823 17.1671C42.9343 17.4551 43.1262 17.6471 43.4142 17.5991C43.9422 17.5511 44.4221 17.5031 44.9981 17.4551C45.286 17.4071 45.526 17.1671 45.574 16.8792C45.622 16.3992 45.67 15.8713 45.718 15.3913ZM49.0777 15.1993C49.0777 14.9114 48.8377 14.7194 48.5497 14.7674C47.9738 14.7674 47.3978 14.8154 46.8219 14.8633C46.5339 14.9113 46.2939 15.1033 46.2459 15.3913C46.1979 15.8713 46.15 16.3992 46.102 16.9271C46.102 17.2151 46.2939 17.4071 46.6299 17.4071C47.2059 17.3591 47.7818 17.3591 48.4057 17.3111C48.7417 17.3111 48.9817 17.0711 48.9817 16.7832C49.0297 16.2072 49.0297 15.7273 49.0777 15.1993ZM52.4854 15.1993C52.4854 14.9114 52.1974 14.7194 51.9094 14.7194C51.3335 14.7194 50.7575 14.6714 50.1816 14.6714C49.8456 14.6714 49.6056 14.8634 49.6056 15.1513C49.6056 15.6793 49.6056 16.1592 49.5576 16.7352C49.5576 17.0231 49.7976 17.2631 50.1336 17.2631C50.7575 17.2631 51.3815 17.2631 51.9574 17.2631C52.2934 17.2631 52.5334 17.0711 52.5334 16.7352C52.5334 16.2552 52.5334 15.7273 52.4854 15.1993ZM55.7491 15.4873C55.7011 15.1993 55.4611 15.0073 55.1731 14.9593C54.6452 14.9114 54.1172 14.8633 53.5413 14.8154C53.2533 14.8154 53.0133 15.0073 53.0133 15.2473C53.0613 15.7753 53.0613 16.2552 53.1093 16.8312C53.1573 17.1191 53.3973 17.3591 53.6852 17.4071C54.3092 17.4551 54.8371 17.4551 55.4131 17.5031C55.7011 17.5031 55.941 17.3111 55.893 17.0231C55.845 16.4472 55.7971 15.9672 55.7491 15.4873ZM58.5808 15.8713C58.5328 15.6313 58.2928 15.3913 58.0528 15.3433C57.5729 15.2473 57.0929 15.1993 56.613 15.1033C56.325 15.0553 56.181 15.2473 56.181 15.4873C56.229 15.9672 56.277 16.4952 56.325 17.0231C56.373 17.3111 56.613 17.5511 56.9009 17.5991C57.4289 17.6471 57.9089 17.6951 58.3888 17.7431C58.6288 17.7911 58.8208 17.5511 58.7728 17.3111C58.7728 16.8312 58.6768 16.3512 58.5808 15.8713ZM60.9326 16.3512C60.8846 16.1112 60.6926 15.8713 60.5006 15.8233C60.1166 15.7273 59.7327 15.6313 59.3487 15.5353C59.1087 15.4873 58.9648 15.6313 59.0127 15.9193C59.1087 16.3992 59.1567 16.8792 59.2527 17.3591C59.3007 17.6471 59.4927 17.8871 59.7327 17.8871C60.1646 17.9351 60.5486 18.0311 60.9326 18.0791C61.1245 18.127 61.2685 17.9351 61.2205 17.6951C61.1246 17.2631 61.0286 16.8312 60.9326 16.3512ZM62.7084 16.9271C62.6604 16.6872 62.5164 16.4952 62.3724 16.4472C62.0845 16.3512 61.7965 16.2552 61.5085 16.1592C61.3165 16.1112 61.2205 16.2552 61.2685 16.4952C61.3645 16.9272 61.4605 17.3591 61.5085 17.8871C61.5565 18.127 61.7485 18.367 61.8925 18.415C62.2284 18.511 62.5164 18.559 62.8044 18.607C62.9484 18.655 63.0444 18.511 62.9964 18.271C62.9004 17.7431 62.8044 17.3111 62.7084 16.9271ZM64.5322 18.127C64.4842 17.9351 64.3882 17.7911 64.3882 17.6951C64.2923 17.5991 64.2443 17.4551 64.1003 17.3591C64.0523 17.3111 64.0043 17.4071 64.0523 17.5991C64.1483 17.9831 64.2443 18.367 64.3402 18.751C64.3882 18.991 64.4842 19.1349 64.5322 19.1829C64.6762 19.2789 64.7242 19.3269 64.8202 19.4229C64.8682 19.4709 64.8682 19.3269 64.8202 19.1349C64.7242 18.799 64.6762 18.463 64.5322 18.127ZM35.8309 20.0949C35.8789 19.9029 35.8789 19.7589 35.8309 19.8069C35.7829 19.8549 35.7349 19.9509 35.6869 19.9989C35.6869 20.0469 35.447 21.5827 35.447 21.6787C35.447 21.7267 35.447 21.6787 35.447 21.7267C35.399 21.7267 35.447 21.7747 35.447 21.7267C35.447 21.6787 35.495 21.6787 35.591 21.6307C35.639 21.6307 35.6869 21.4387 35.6869 21.2467C35.7349 20.8148 35.7829 20.4788 35.8309 20.0949ZM36.5989 19.7109C36.6469 19.4709 36.5989 19.3269 36.5029 19.3749C36.3589 19.4229 36.2149 19.5189 36.0709 19.5669C36.0229 19.6149 35.9269 19.8069 35.9269 19.9989C35.8789 20.3828 35.8309 20.7668 35.7829 21.1988C35.7829 21.3907 35.7829 21.5827 35.8789 21.5347C36.0229 21.5347 36.1189 21.4867 36.3109 21.4387C36.4069 21.4387 36.5029 21.1987 36.5029 21.0068C36.5029 20.5748 36.5509 20.1429 36.5989 19.7109ZM37.9427 19.3749C37.9907 19.1349 37.8947 18.943 37.7508 18.991C37.4628 19.039 37.2228 19.1349 37.0308 19.1829C36.9348 19.2309 36.7908 19.4229 36.7908 19.6629C36.7428 20.0949 36.6948 20.5268 36.6468 21.0068C36.6468 21.2467 36.6949 21.4387 36.8388 21.3907C37.0308 21.3427 37.2708 21.3427 37.5588 21.2947C37.7028 21.2947 37.8467 21.0548 37.8467 20.8148C37.8467 20.3348 37.8947 19.8549 37.9427 19.3749ZM39.9105 19.0869C39.9585 18.799 39.8146 18.607 39.6226 18.655C39.2386 18.703 38.9026 18.799 38.6147 18.847C38.4707 18.895 38.2787 19.0869 38.2787 19.3749C38.2307 19.8549 38.1827 20.3348 38.1347 20.8148C38.1347 21.1028 38.2307 21.2947 38.4227 21.2467C38.7587 21.1987 39.0946 21.1988 39.4306 21.1508C39.6226 21.1508 39.8146 20.9108 39.8146 20.6228C39.8146 20.0949 39.8626 19.5669 39.9105 19.0869ZM42.4063 18.751C42.4063 18.463 42.2623 18.271 42.0223 18.271C41.5424 18.319 41.1104 18.367 40.7265 18.463C40.4865 18.511 40.3425 18.751 40.2945 18.991C40.2465 19.5189 40.1985 20.0469 40.1505 20.5748C40.1505 20.8628 40.2945 21.1028 40.5345 21.0548C40.9664 21.0548 41.3984 21.0068 41.8784 21.0068C42.1183 21.0068 42.3583 20.7668 42.3583 20.4308C42.3103 19.8549 42.3583 19.3269 42.4063 18.751ZM45.478 18.511C45.478 18.223 45.286 17.9831 44.9981 17.9831C44.4221 18.0311 43.9422 18.079 43.4142 18.127C43.1262 18.175 42.9343 18.415 42.8863 18.703C42.8383 19.2789 42.7903 19.8069 42.7903 20.3828C42.7903 20.7188 42.9823 20.9108 43.2702 20.9108C43.7982 20.9108 44.3261 20.8628 44.9021 20.8628C45.19 20.8628 45.43 20.5748 45.478 20.2388C45.43 19.6629 45.43 19.135 45.478 18.511ZM48.9817 18.367C48.9817 18.079 48.7417 17.7911 48.4057 17.8391C47.7818 17.8391 47.2059 17.8871 46.6299 17.9351C46.2939 17.9351 46.054 18.175 46.054 18.511C46.006 19.087 46.006 19.6629 45.958 20.2868C45.958 20.6228 46.1979 20.8628 46.4859 20.8628C47.1099 20.8628 47.6858 20.8148 48.3098 20.8148C48.6457 20.8148 48.9337 20.5268 48.9337 20.1909C48.9337 19.5669 48.9817 18.991 48.9817 18.367ZM52.6294 18.415C52.6294 18.079 52.3414 17.8391 52.0054 17.8391C51.3815 17.8391 50.7575 17.7911 50.1336 17.8391C49.7976 17.8391 49.5576 18.079 49.5096 18.415C49.5096 18.991 49.5096 19.6149 49.5096 20.2388C49.5096 20.5748 49.7976 20.8628 50.1336 20.8628C50.8055 20.8628 51.4295 20.8628 52.0534 20.8628C52.3894 20.8628 52.6294 20.6228 52.6294 20.2868C52.6773 19.5669 52.6294 18.991 52.6294 18.415ZM56.037 18.559C55.989 18.271 55.7971 17.9831 55.4611 17.9831C54.8851 17.9351 54.3572 17.8871 53.7332 17.8871C53.3973 17.8871 53.1573 18.079 53.1573 18.415C53.2053 18.991 53.2053 19.6149 53.2053 20.2388C53.2053 20.5748 53.4933 20.8628 53.8292 20.8628C54.4532 20.8628 55.0291 20.9108 55.6051 20.9108C55.893 20.9108 56.133 20.6708 56.133 20.3348C56.085 19.7109 56.085 19.135 56.037 18.559ZM58.9647 18.847C58.9168 18.559 58.7248 18.319 58.4848 18.271C58.0048 18.223 57.5249 18.175 56.9969 18.127C56.709 18.127 56.517 18.319 56.517 18.607C56.565 19.1829 56.613 19.7589 56.613 20.3348C56.613 20.6708 56.853 20.9108 57.1409 20.9108C57.6689 20.9108 58.1488 20.9588 58.6288 20.9588C58.8688 20.9588 59.0607 20.7188 59.0607 20.4308C59.0607 19.9029 59.0127 19.3749 58.9647 18.847ZM61.3645 19.1349C61.3165 18.847 61.1725 18.655 60.9326 18.607C60.5486 18.559 60.1646 18.511 59.7327 18.415C59.4927 18.367 59.3487 18.559 59.3487 18.847C59.3967 19.3749 59.4447 19.9029 59.4447 20.4788C59.4447 20.7668 59.6367 21.0068 59.8767 21.0548C60.3086 21.1028 60.6926 21.1028 61.0766 21.1508C61.2685 21.1508 61.4125 20.9588 61.4125 20.6708C61.4605 20.1429 61.4125 19.6629 61.3645 19.1349ZM63.1884 19.4709C63.1404 19.2309 63.0444 18.991 62.8524 18.991C62.5644 18.943 62.2764 18.847 61.9405 18.799C61.7485 18.751 61.6525 18.943 61.6525 19.2309C61.7005 19.7589 61.7485 20.2388 61.7965 20.7668C61.8445 21.0548 61.9885 21.2947 62.1325 21.2947C62.4684 21.3427 62.7564 21.3427 63.0444 21.3907C63.1884 21.3907 63.2843 21.1988 63.2843 20.9588C63.2843 20.3828 63.2364 19.9509 63.1884 19.4709ZM64.3882 19.8069C64.3403 19.5669 64.2443 19.3749 64.1483 19.3269C63.9563 19.2789 63.7643 19.1829 63.5243 19.1349C63.4283 19.0869 63.3323 19.2789 63.3803 19.5189C63.4283 19.9989 63.4763 20.4308 63.5243 20.9108C63.5723 21.1508 63.6683 21.3907 63.7643 21.3907C64.0043 21.4387 64.1963 21.4387 64.3882 21.4867C64.4842 21.4867 64.5322 21.3427 64.5322 21.1028C64.4842 20.6228 64.4362 20.2388 64.3882 19.8069ZM65.0122 20.1429C64.9642 19.9509 64.9162 19.7589 64.8682 19.7109C64.8202 19.6629 64.6762 19.5669 64.5802 19.5189C64.5322 19.4709 64.4842 19.6149 64.5322 19.8549C64.5802 20.2868 64.6282 20.6708 64.6762 21.1028C64.6762 21.3427 64.7722 21.5347 64.8202 21.5347C64.9642 21.5827 65.0602 21.5827 65.1082 21.6307C65.1562 21.6307 65.1562 21.4867 65.1562 21.2947C65.1082 20.9108 65.1082 20.5268 65.0122 20.1429ZM39.7186 22.1587C39.7186 21.8707 39.5746 21.6307 39.3826 21.6787C38.9986 21.6787 38.6627 21.7267 38.3747 21.7267C38.1827 21.7267 38.0867 21.9667 38.0867 22.2067C38.0867 22.7346 38.0867 23.2146 38.0867 23.6945C38.0867 23.9825 38.2307 24.1745 38.4227 24.1745C38.7587 24.1745 39.0946 24.2225 39.4306 24.2225C39.6226 24.2225 39.7666 24.0305 39.7666 23.7425C39.7186 23.2146 39.6706 22.6866 39.7186 22.1587ZM42.2623 22.1107C42.2623 21.7747 42.0703 21.5827 41.8304 21.5827C41.3504 21.5827 40.9184 21.6307 40.4865 21.6307C40.2465 21.6307 40.1025 21.8707 40.0545 22.1587C40.0545 22.7346 40.0545 23.2626 40.0545 23.7905C40.0545 24.0785 40.2465 24.3185 40.4865 24.3185C40.9184 24.3185 41.3504 24.3665 41.8304 24.3665C42.0703 24.3665 42.2623 24.1265 42.2623 23.8385C42.2143 23.2626 42.2623 22.6866 42.2623 22.1107ZM45.334 22.0627C45.334 21.7267 45.0941 21.4867 44.8061 21.4867C44.2301 21.4867 43.7022 21.5347 43.1742 21.5347C42.8863 21.5347 42.6943 21.7747 42.6943 22.1107C42.6943 22.6866 42.6943 23.2626 42.6943 23.8865C42.6943 24.2225 42.9343 24.4624 43.1742 24.4624C43.7022 24.4624 44.2301 24.5104 44.8061 24.5104C45.0941 24.5104 45.334 24.2705 45.334 23.9345C45.334 23.2626 45.334 22.6866 45.334 22.0627ZM48.9337 22.0147C48.9337 21.6787 48.6937 21.3907 48.3098 21.3907C47.6858 21.3907 47.0619 21.3907 46.4379 21.4387C46.102 21.4387 45.862 21.7267 45.862 22.0627C45.862 22.6866 45.862 23.3106 45.862 23.9345C45.862 24.2705 46.15 24.5104 46.4379 24.5584C47.0619 24.5584 47.6378 24.6064 48.3098 24.6064C48.6457 24.6064 48.9337 24.3185 48.9337 23.9825C48.9337 23.3106 48.9337 22.6386 48.9337 22.0147ZM52.7253 22.0147C52.7253 21.6787 52.4374 21.3907 52.1014 21.3907C51.4295 21.3907 50.8055 21.3907 50.1336 21.3907C49.7976 21.3907 49.5096 21.6787 49.5096 22.0147C49.5096 22.6866 49.5096 23.3106 49.5096 23.9825C49.5096 24.3185 49.7976 24.6064 50.1336 24.6064C50.8055 24.6064 51.4295 24.6064 52.1014 24.6064C52.4374 24.6064 52.7253 24.3185 52.7253 23.9825C52.7253 23.3106 52.7253 22.6386 52.7253 22.0147ZM56.181 22.0627C56.181 21.7267 55.941 21.4867 55.6531 21.4387C55.0771 21.4387 54.5012 21.4387 53.8772 21.3907C53.5413 21.3907 53.3013 21.6307 53.3013 22.0147C53.3013 22.6866 53.3013 23.3106 53.3013 23.9345C53.3013 24.2705 53.5413 24.5584 53.8772 24.5104C54.5012 24.5104 55.0771 24.4624 55.6531 24.4624C55.941 24.4624 56.181 24.1745 56.229 23.8385C56.181 23.2626 56.181 22.6866 56.181 22.0627ZM63.3803 22.2547C63.3803 22.0147 63.2363 21.7747 63.0924 21.7747C62.8044 21.7747 62.5164 21.7267 62.1805 21.7267C61.9885 21.7267 61.8445 21.9187 61.8925 22.2067C61.8925 22.7346 61.8925 23.2626 61.8925 23.7905C61.8925 24.0785 62.0365 24.2705 62.1805 24.2705C62.5164 24.2705 62.8044 24.2225 63.0924 24.2225C63.2363 24.2225 63.3803 23.9825 63.3803 23.7425C63.3803 23.2146 63.3803 22.7346 63.3803 22.2547ZM64.5802 22.3027C64.5802 22.0627 64.4842 21.8707 64.3882 21.8707C64.1963 21.8707 64.0043 21.8227 63.7643 21.8227C63.6203 21.8227 63.5723 22.0147 63.5723 22.2547C63.5723 22.7346 63.5723 23.2146 63.5723 23.6945C63.5723 23.9345 63.6683 24.1265 63.7643 24.1265C64.0043 24.1265 64.1963 24.0785 64.3882 24.0785C64.4842 24.0785 64.5802 23.8865 64.5802 23.6465C64.5802 23.1666 64.5802 22.7346 64.5802 22.3027ZM65.2522 22.3506C65.2522 22.1587 65.2042 21.9667 65.1562 21.9667C65.0602 21.9667 65.0122 21.9187 64.8682 21.9187C64.8202 21.9187 64.7242 22.0627 64.7722 22.3027C64.7722 22.7346 64.7722 23.1666 64.7722 23.5985C64.7722 23.8385 64.8202 23.9825 64.8682 23.9825C65.0122 23.9825 65.1082 23.9345 65.1562 23.9345C65.2042 23.9345 65.2522 23.7425 65.2522 23.5505C65.2522 23.1186 65.2522 22.7346 65.2522 22.3506ZM35.6869 24.6544C35.6389 24.4624 35.591 24.2705 35.591 24.2705C35.543 24.2225 35.495 24.2225 35.447 24.1745C35.351 24.1265 35.447 24.2225 35.447 24.2705C35.447 24.3185 35.6869 25.8543 35.6869 25.9023C35.6869 25.9503 35.7349 26.0463 35.8309 26.0943C35.8789 26.1423 35.8789 25.9983 35.8309 25.8063C35.7829 25.4224 35.7349 25.0384 35.6869 24.6544ZM36.4549 24.8944C36.4069 24.6544 36.3589 24.4624 36.2629 24.4624C36.0709 24.4145 35.9749 24.4144 35.8309 24.3665C35.7829 24.3665 35.7349 24.5104 35.7829 24.7024C35.8309 25.0864 35.8789 25.4704 35.9269 25.8543C35.9749 26.0463 36.0229 26.2383 36.0709 26.2863C36.1669 26.3823 36.3109 26.4303 36.5029 26.4783C36.5989 26.5263 36.6469 26.3823 36.5989 26.1423C36.5509 25.7103 36.5029 25.3264 36.4549 24.8944ZM37.7988 25.0864C37.7988 24.8464 37.6548 24.6064 37.5108 24.6064C37.2228 24.5584 37.0308 24.5584 36.7908 24.5104C36.6949 24.5104 36.5989 24.6544 36.6468 24.8944C36.6948 25.3744 36.7428 25.7583 36.7908 26.1903C36.8388 26.4303 36.9348 26.6222 37.0308 26.6702C37.2708 26.7182 37.5108 26.8142 37.7508 26.8622C37.8947 26.9102 37.9907 26.7182 37.9427 26.4783C37.8947 26.0463 37.8467 25.5663 37.7988 25.0864ZM42.3103 25.4704C42.3103 25.1824 42.0703 24.8944 41.8304 24.8944C41.3504 24.8944 40.9184 24.8464 40.4865 24.7984C40.2465 24.7984 40.1025 24.9904 40.1025 25.2784C40.1505 25.8063 40.1505 26.3343 40.2465 26.8622C40.2945 27.1502 40.4865 27.3902 40.6785 27.3902C41.1104 27.4382 41.5424 27.4862 41.9743 27.5822C42.2143 27.5822 42.4063 27.3902 42.3583 27.1022C42.3583 26.6222 42.3583 26.0463 42.3103 25.4704ZM45.382 25.6623C45.382 25.3264 45.0941 25.0864 44.8061 25.0384C44.2301 25.0384 43.7022 24.9904 43.1742 24.9904C42.8863 24.9904 42.6943 25.2304 42.6943 25.5184C42.7423 26.0943 42.7423 26.6702 42.7903 27.1982C42.8383 27.4862 43.0303 27.7261 43.3182 27.7741C43.8462 27.8221 44.3261 27.8701 44.9021 27.9181C45.19 27.9181 45.43 27.7261 45.382 27.3902C45.478 26.8142 45.43 26.2383 45.382 25.6623ZM48.9337 25.7583C48.9337 25.4224 48.6457 25.1344 48.3098 25.1344C47.6858 25.1344 47.0619 25.0864 46.4859 25.0864C46.15 25.0864 45.958 25.3264 45.958 25.6623C45.958 26.2863 46.006 26.8622 46.054 27.4382C46.054 27.7741 46.3419 28.0141 46.6299 28.0141C47.2059 28.0621 47.8298 28.0621 48.4057 28.1101C48.7417 28.1101 48.9817 27.8701 48.9817 27.5822C48.9817 26.9582 48.9337 26.3823 48.9337 25.7583ZM52.6774 25.7583C52.6774 25.4224 52.4374 25.1824 52.1014 25.1824C51.4775 25.1824 50.8055 25.1824 50.1816 25.1824C49.8456 25.1824 49.5576 25.4704 49.5576 25.7583C49.5576 26.3823 49.5576 26.9582 49.5576 27.5822C49.5576 27.9181 49.8456 28.1581 50.1816 28.1581C50.8055 28.1581 51.4295 28.1581 52.0534 28.1581C52.3894 28.1581 52.6294 27.9181 52.6774 27.5822C52.6294 26.9582 52.6774 26.3823 52.6774 25.7583ZM59.0607 25.4224C59.0607 25.1344 58.8688 24.8944 58.6288 24.8944C58.1488 24.9424 57.6689 24.9424 57.1409 24.9424C56.853 24.9424 56.613 25.2304 56.613 25.5184C56.565 26.0943 56.565 26.6702 56.517 27.2462C56.517 27.5342 56.709 27.7741 56.9969 27.7261C57.5249 27.6781 58.0048 27.6301 58.4848 27.5822C58.7248 27.5342 58.9647 27.2942 58.9647 27.0062C59.0127 26.5262 59.0607 25.9983 59.0607 25.4224ZM61.4605 25.2304C61.4605 24.9424 61.3165 24.7504 61.1245 24.7504C60.7406 24.7984 60.3566 24.7984 59.9247 24.8464C59.6847 24.8464 59.4927 25.0864 59.4927 25.4224C59.4447 25.9983 59.4447 26.5263 59.3487 27.0542C59.3007 27.3422 59.4927 27.5342 59.7327 27.4862C60.1646 27.4382 60.5486 27.3902 60.9326 27.2942C61.1245 27.2462 61.3165 27.0062 61.3645 26.7662C61.4125 26.2863 61.4605 25.7583 61.4605 25.2304ZM64.5322 24.7984C64.5322 24.5584 64.4842 24.4144 64.3882 24.4144C64.1963 24.4624 64.0043 24.4625 63.7643 24.5104C63.6203 24.5104 63.5243 24.7504 63.5243 24.9904C63.4763 25.4704 63.4283 25.9023 63.3803 26.3823C63.3323 26.6222 63.4283 26.7662 63.5243 26.7662C63.7643 26.7182 63.9563 26.6222 64.1483 26.5742C64.2443 26.5263 64.3403 26.3343 64.3882 26.0943C64.4362 25.6623 64.4842 25.2304 64.5322 24.7984ZM65.1562 24.6064C65.1562 24.4144 65.1562 24.2705 65.1082 24.2705C65.0122 24.3185 64.9162 24.3185 64.8202 24.3665C64.7722 24.3665 64.6762 24.5584 64.6762 24.7984C64.6282 25.2304 64.5802 25.6143 64.5322 26.0463C64.4842 26.2863 64.5322 26.3823 64.5802 26.3823C64.7242 26.3343 64.8202 26.2383 64.8682 26.1903C64.9162 26.1423 64.9642 25.9503 65.0122 25.7583C65.0602 25.3264 65.1082 24.9904 65.1562 24.6064ZM36.7908 27.3422C36.7428 27.1022 36.6469 26.9102 36.5509 26.8622C36.4069 26.7662 36.2629 26.7182 36.1189 26.6222C36.0709 26.5742 36.0709 26.7182 36.0709 26.9102C36.1669 27.2942 36.2629 27.6301 36.3589 27.9661C36.4069 28.1581 36.5029 28.3501 36.5509 28.3981C36.6469 28.4941 36.7908 28.6381 36.9828 28.734C37.0788 28.782 37.0788 28.686 37.0308 28.4941C36.9828 28.1581 36.8868 27.7741 36.7908 27.3422ZM38.1347 27.8221C38.0867 27.5822 37.9427 27.3422 37.7988 27.2942C37.5108 27.1982 37.2708 27.1502 37.0788 27.0542C36.9828 27.0062 36.9348 27.1502 36.9348 27.3902C37.0308 27.8221 37.1268 28.2061 37.2228 28.5901C37.2708 28.782 37.4148 29.022 37.5108 29.07C37.7028 29.166 37.9427 29.262 38.2307 29.406C38.3747 29.454 38.4707 29.31 38.3747 29.118C38.3267 28.6861 38.2307 28.2541 38.1347 27.8221ZM40.1025 28.2541C40.0545 27.9661 39.8626 27.7741 39.6706 27.7261C39.2866 27.6781 38.9506 27.5822 38.6627 27.5342C38.4707 27.4862 38.4227 27.6782 38.4227 27.9181C38.5187 28.3981 38.5667 28.782 38.6627 29.214C38.7107 29.454 38.9026 29.646 39.0466 29.694C39.3346 29.7899 39.6706 29.8859 40.0545 29.9819C40.2465 30.0299 40.3425 29.8859 40.3425 29.646C40.2465 29.214 40.1505 28.734 40.1025 28.2541ZM42.5983 28.686C42.5503 28.3981 42.3583 28.1581 42.0703 28.1101C41.5904 28.0621 41.1584 27.9661 40.7745 27.9181C40.5345 27.8701 40.3905 28.0621 40.4385 28.3501C40.5345 28.83 40.5825 29.31 40.6785 29.742C40.7265 29.9819 40.9185 30.2219 41.1584 30.2699C41.5904 30.3659 41.9743 30.4619 42.4543 30.5099C42.6943 30.5579 42.8383 30.4139 42.8383 30.1259C42.6943 29.694 42.6463 29.214 42.5983 28.686ZM45.622 28.974C45.574 28.686 45.334 28.4461 45.0461 28.3981C44.4701 28.3501 43.9902 28.3021 43.4622 28.2541C43.1742 28.2061 43.0303 28.3981 43.0303 28.686C43.0783 29.214 43.1742 29.694 43.2222 30.1739C43.2702 30.4139 43.5102 30.6539 43.7502 30.7019C44.2301 30.7979 44.7581 30.8458 45.286 30.8938C45.574 30.9418 45.766 30.7499 45.766 30.4619C45.67 30.0299 45.67 29.502 45.622 28.974ZM49.0297 29.166C49.0297 28.878 48.7417 28.6381 48.4537 28.6381C47.8298 28.6381 47.2539 28.5901 46.6779 28.5421C46.3419 28.5421 46.15 28.734 46.15 29.022C46.198 29.55 46.2459 30.0779 46.2939 30.5579C46.3419 30.8459 46.5819 31.0378 46.8699 31.0858C47.4458 31.1338 47.9738 31.1818 48.5497 31.1818C48.8377 31.1818 49.0777 30.9898 49.0777 30.7499C49.0297 30.2219 49.0297 29.694 49.0297 29.166ZM52.5334 29.118C52.5334 28.83 52.2934 28.6381 51.9574 28.5901C51.3335 28.6381 50.7575 28.5901 50.1336 28.5901C49.7976 28.5901 49.5576 28.83 49.5576 29.118C49.5576 29.646 49.5576 30.1739 49.6056 30.6539C49.6056 30.8938 49.8456 31.1338 50.1816 31.1338C50.7575 31.1338 51.3335 31.1338 51.9094 31.0858C52.2454 31.0858 52.4854 30.8458 52.4854 30.6059C52.5334 30.1739 52.5334 29.694 52.5334 29.118ZM55.893 28.926C55.893 28.638 55.7011 28.4461 55.4131 28.4461C54.8371 28.4941 54.3092 28.5421 53.6852 28.5421C53.3493 28.5421 53.1093 28.83 53.1093 29.118C53.0613 29.694 53.0613 30.1739 53.0133 30.6539C53.0133 30.9418 53.2053 31.0858 53.5413 31.0858C54.1172 31.0378 54.6452 30.9898 55.1731 30.9418C55.4611 30.8938 55.7011 30.7019 55.7491 30.4139C55.7971 29.9339 55.845 29.454 55.893 28.926ZM58.7728 28.5901C58.8208 28.3021 58.6288 28.1101 58.3888 28.1581C57.9089 28.2061 57.4289 28.2541 56.9009 28.3021C56.613 28.3501 56.373 28.5901 56.325 28.878C56.277 29.406 56.229 29.9339 56.133 30.4139C56.133 30.7019 56.277 30.8459 56.565 30.7979C57.0929 30.7499 57.5249 30.6539 58.0048 30.5579C58.2448 30.5099 58.4848 30.2699 58.5328 30.0299C58.6768 29.55 58.7248 29.07 58.7728 28.5901ZM61.1725 28.1581C61.2205 27.9181 61.0765 27.7261 60.8846 27.7741C60.5006 27.8221 60.1166 27.9181 59.6847 27.9661C59.4447 28.0141 59.2527 28.2541 59.2047 28.4941C59.1567 29.022 59.0607 29.454 58.9647 29.9339C58.9168 30.1739 59.0607 30.3179 59.3007 30.2699C59.7327 30.1739 60.1166 30.0779 60.4526 29.9819C60.6446 29.9339 60.8366 29.694 60.8846 29.454C61.0286 29.07 61.0766 28.6381 61.1725 28.1581ZM62.9484 27.7261C62.9964 27.4862 62.9004 27.3422 62.7564 27.3902C62.4684 27.4862 62.1804 27.5342 61.8445 27.5822C61.6525 27.6301 61.5085 27.8701 61.4605 28.1101C61.3645 28.5901 61.3165 29.022 61.2205 29.454C61.1725 29.694 61.2685 29.8379 61.4605 29.7899C61.7965 29.694 62.0845 29.598 62.3244 29.502C62.4684 29.454 62.6124 29.262 62.6604 29.022C62.8044 28.5421 62.8524 28.1581 62.9484 27.7261ZM64.1483 27.2462C64.1963 27.0542 64.1483 26.9102 64.0523 26.9582C63.8603 27.0542 63.6683 27.1022 63.4763 27.1982C63.3803 27.2462 63.2364 27.4382 63.1884 27.6782C63.0924 28.1101 63.0444 28.5421 62.9004 28.926C62.8524 29.166 62.9004 29.262 63.0444 29.214C63.2843 29.118 63.4763 29.022 63.6203 28.878C63.7163 28.83 63.8123 28.6381 63.8603 28.3981C64.0043 28.0141 64.1003 27.6301 64.1483 27.2462ZM64.8202 26.7662C64.8682 26.5742 64.8682 26.4783 64.8202 26.4783C64.7242 26.5743 64.6282 26.6222 64.5322 26.7182C64.4842 26.7662 64.3882 26.9582 64.3402 27.1502C64.2443 27.5342 64.1483 27.9181 64.0523 28.3021C64.0043 28.4941 64.0043 28.5901 64.1003 28.5421C64.2443 28.4461 64.3403 28.3021 64.3882 28.2061C64.4362 28.1581 64.4842 27.9661 64.5322 27.7741C64.6282 27.4382 64.7242 27.1022 64.8202 26.7662ZM37.3668 29.55C37.3188 29.358 37.1748 29.166 37.0788 29.118C36.9348 28.974 36.7908 28.878 36.6468 28.782C36.5989 28.734 36.5989 28.83 36.6468 28.974C36.7908 29.31 36.8868 29.598 37.0308 29.8859C37.1268 30.0299 37.2228 30.2219 37.2708 30.3179C37.3668 30.4619 37.5108 30.6059 37.6548 30.7499C37.7507 30.8458 37.7507 30.7499 37.7028 30.6059C37.6548 30.2699 37.5108 29.9339 37.3668 29.55ZM38.7107 30.2699C38.6627 30.0779 38.5187 29.8379 38.3267 29.7899C38.0867 29.694 37.8467 29.55 37.6068 29.454C37.5108 29.406 37.4628 29.502 37.5108 29.694C37.6068 30.0779 37.7507 30.3659 37.8947 30.7019C37.9907 30.8938 38.0867 31.0858 38.2307 31.1338C38.4227 31.2778 38.6627 31.4218 38.9026 31.5658C39.0466 31.6138 39.0946 31.5658 39.0466 31.3738C38.9506 30.9898 38.8067 30.6539 38.7107 30.2699ZM40.5825 30.8938C40.5345 30.6539 40.3425 30.4619 40.1505 30.4139C39.7666 30.3179 39.4786 30.2219 39.1426 30.1259C38.9986 30.0779 38.9026 30.1739 38.9506 30.4139C39.0466 30.7978 39.1906 31.1818 39.2866 31.5178C39.3346 31.7098 39.5266 31.9018 39.6706 31.9977C39.9585 32.1417 40.2945 32.2377 40.6305 32.3817C40.8225 32.4297 40.9185 32.3337 40.8705 32.1417C40.8225 31.6618 40.7265 31.3258 40.5825 30.8938ZM45.91 31.8538C45.862 31.6138 45.622 31.3738 45.334 31.3738C44.8061 31.3258 44.3261 31.2298 43.7982 31.1818C43.5582 31.1338 43.3662 31.2778 43.4142 31.5178C43.5102 31.9497 43.5582 32.3817 43.6542 32.7657C43.7022 32.9576 43.9422 33.1496 44.1821 33.1976C44.6621 33.2936 45.0941 33.3416 45.622 33.4376C45.91 33.4856 46.054 33.3416 46.054 33.1016C46.006 32.7177 45.958 32.2857 45.91 31.8538ZM49.1257 32.0457C49.1257 31.8058 48.8857 31.6138 48.5497 31.5658C47.9738 31.5178 47.4458 31.5178 46.8699 31.4698C46.5819 31.4698 46.3419 31.6138 46.3899 31.8538C46.4379 32.2857 46.4859 32.7177 46.5339 33.1016C46.5819 33.2936 46.8219 33.4856 47.0619 33.5336C47.5898 33.5816 48.1178 33.6296 48.6457 33.6296C48.9337 33.6296 49.1737 33.4856 49.1257 33.2936C49.1257 32.9097 49.1257 32.5257 49.1257 32.0457ZM52.4374 32.0457C52.4374 31.8058 52.1974 31.6138 51.9094 31.6138C51.3335 31.6138 50.7575 31.6138 50.1816 31.6618C49.8936 31.6618 49.6536 31.8538 49.6536 32.0937C49.6536 32.5737 49.6536 32.9577 49.7016 33.3896C49.7016 33.5816 49.9416 33.7736 50.2296 33.7736C50.7575 33.7736 51.2855 33.7736 51.8614 33.7256C52.1494 33.6776 52.3894 33.5336 52.3894 33.3416C52.3414 32.9097 52.3894 32.4777 52.4374 32.0457ZM55.5571 31.7578C55.6051 31.5178 55.4131 31.3738 55.1251 31.3738C54.5972 31.4218 54.0692 31.4698 53.4933 31.5178C53.2053 31.5658 52.9653 31.7578 52.9173 31.9977C52.8693 32.4297 52.8693 32.8617 52.8213 33.2456C52.8213 33.4376 53.0133 33.5816 53.3013 33.5816C53.8292 33.5336 54.3092 33.4856 54.8371 33.4376C55.1251 33.3896 55.3171 33.1976 55.3651 33.0056C55.4611 32.6217 55.5091 32.2377 55.5571 31.7578ZM58.3408 31.3258C58.3888 31.0858 58.2448 30.9418 58.0048 30.9898C57.5249 31.0858 57.0929 31.1338 56.565 31.2298C56.277 31.2778 56.037 31.4698 56.037 31.7098C55.989 32.1417 55.893 32.5737 55.845 32.9577C55.797 33.1496 55.989 33.2936 56.229 33.2456C56.709 33.1496 57.1409 33.0536 57.5729 32.9577C57.8129 32.9097 58.0528 32.7177 58.1008 32.4777C58.1488 32.1417 58.2448 31.7578 58.3408 31.3258ZM60.6446 30.7499C60.6926 30.5099 60.5966 30.4139 60.4046 30.4619C60.0206 30.5579 59.6367 30.6539 59.2527 30.7499C59.0127 30.7979 58.8208 31.0378 58.7728 31.2778C58.6768 31.7098 58.5808 32.0937 58.4848 32.4777C58.4368 32.6697 58.5808 32.7657 58.7728 32.7177C59.2047 32.6217 59.5407 32.4777 59.8767 32.3817C60.0687 32.2857 60.2606 32.0937 60.3086 31.9017C60.4046 31.5178 60.5486 31.1818 60.6446 30.7499ZM62.3724 30.0779C62.4204 29.8859 62.3724 29.742 62.2285 29.8379C61.9405 29.9339 61.6525 30.0299 61.3645 30.1739C61.1725 30.2219 61.0286 30.4619 60.9326 30.6539C60.8366 31.0858 60.6926 31.4218 60.5966 31.8058C60.5486 31.9977 60.5966 32.0937 60.7886 32.0457C61.0766 31.9017 61.3645 31.8058 61.6525 31.6618C61.7965 31.5658 61.9405 31.4218 62.0365 31.2298C62.1805 30.8458 62.2764 30.4619 62.3724 30.0779ZM63.5723 29.406C63.6203 29.214 63.6203 29.118 63.5243 29.166C63.3323 29.262 63.1404 29.406 62.9484 29.502C62.8524 29.55 62.7084 29.7899 62.6124 29.9819C62.5164 30.3659 62.3724 30.7019 62.2285 31.0378C62.1805 31.2298 62.1804 31.2778 62.3244 31.2298C62.5644 31.0858 62.7084 30.9418 62.9004 30.7979C62.9964 30.7019 63.0924 30.5099 63.1884 30.3659C63.3323 30.0779 63.4763 29.7419 63.5723 29.406ZM64.1963 28.686C64.2443 28.4941 64.2922 28.4461 64.2443 28.4941C64.1483 28.5901 64.0523 28.734 63.9563 28.83C63.9083 28.878 63.7643 29.07 63.7163 29.262C63.5723 29.598 63.4763 29.9339 63.3323 30.2219C63.2363 30.3659 63.2363 30.4619 63.3323 30.3659C63.3803 30.2699 63.4283 30.2219 63.4763 30.1259C63.5243 30.0779 63.5243 30.0779 63.5243 30.0299C63.5723 30.0299 64.1483 28.83 64.1963 28.686ZM38.1827 31.4218C38.0867 31.2778 37.9907 31.0858 37.8947 30.9898C37.7507 30.8458 37.6068 30.7019 37.5108 30.5579C37.4628 30.4619 37.5108 30.5099 37.5108 30.7019C37.5108 30.7019 38.6147 32.2377 38.6627 32.2857C38.7587 32.3817 38.7587 32.3337 38.6627 32.2377C38.4707 31.9497 38.3267 31.7098 38.1827 31.4218ZM39.4306 32.2857C39.3346 32.1417 39.1906 31.9497 39.0466 31.8538C38.8066 31.7098 38.5667 31.5658 38.3747 31.4218C38.2787 31.3258 38.2307 31.4218 38.3267 31.5658C38.4707 31.8537 38.6147 32.1417 38.8066 32.3817C38.9026 32.5257 39.0466 32.6697 39.1426 32.7657C39.3346 32.9096 39.5266 33.1016 39.7666 33.2456C39.9105 33.3416 39.9585 33.2936 39.8626 33.1496C39.7186 32.8617 39.5746 32.5737 39.4306 32.2857ZM41.2544 33.0536C41.1584 32.8617 41.0144 32.6697 40.8225 32.6217C40.4865 32.4777 40.1505 32.3817 39.8626 32.2377C39.7186 32.1897 39.6226 32.2377 39.7186 32.4297C39.8626 32.7657 40.0065 33.0056 40.1505 33.2936C40.2465 33.4376 40.3905 33.6296 40.5345 33.6776C40.8225 33.8216 41.1104 33.9656 41.4464 34.1095C41.6384 34.2055 41.6864 34.1095 41.6384 33.9655C41.4944 33.6776 41.3504 33.3896 41.2544 33.0536ZM43.5582 33.6776C43.5102 33.4856 43.2702 33.2936 43.0303 33.2456C42.5983 33.1496 42.2143 33.0536 41.8304 32.9097C41.6384 32.8617 41.5424 32.9576 41.5904 33.1016C41.7344 33.4376 41.8304 33.7256 41.9743 34.0135C42.0223 34.1575 42.2143 34.3495 42.4543 34.3975C42.8383 34.5415 43.1742 34.6375 43.6062 34.7335C43.7982 34.7815 43.9422 34.7335 43.8942 34.5415C43.7022 34.3495 43.6062 34.0616 43.5582 33.6776ZM46.2459 34.1575C46.1979 33.9656 45.958 33.7736 45.718 33.7736C45.2381 33.7256 44.7581 33.6296 44.2781 33.5336C44.0382 33.4856 43.8942 33.6296 43.9422 33.7736C44.0382 34.1095 44.1342 34.4455 44.2301 34.7335C44.2781 34.8775 44.5181 35.0215 44.7101 35.1175C45.1421 35.2134 45.574 35.3094 46.054 35.3574C46.2939 35.4054 46.4379 35.3094 46.4379 35.1654C46.3419 34.8295 46.2939 34.5415 46.2459 34.1575ZM49.2217 34.3975C49.2217 34.2055 48.9817 34.0615 48.6937 34.0135C48.1658 34.0135 47.6378 33.9656 47.1579 33.9176C46.8699 33.9176 46.6779 34.0135 46.7259 34.2055C46.7739 34.5415 46.8219 34.8775 46.8699 35.1654C46.9179 35.3094 47.1099 35.4534 47.3978 35.5014C47.8778 35.5494 48.3578 35.5974 48.8377 35.5974C49.1257 35.5974 49.3177 35.5014 49.2697 35.3574C49.2217 35.0695 49.2217 34.7335 49.2217 34.3975ZM52.2454 34.3495C52.2454 34.1575 52.0534 34.0135 51.7654 34.0135C51.2375 34.0135 50.7095 34.0615 50.1816 34.0615C49.8936 34.0615 49.6536 34.2055 49.7016 34.3975C49.7016 34.7815 49.7016 35.0695 49.7496 35.3574C49.7496 35.5014 49.9896 35.6454 50.2296 35.6454C50.7575 35.6454 51.1895 35.6454 51.7174 35.5974C52.0054 35.5974 52.1974 35.4534 52.1974 35.3094C52.1974 35.0215 52.2454 34.7335 52.2454 34.3495ZM57.7649 33.5816C57.8129 33.3896 57.6689 33.2936 57.4769 33.3416C57.0449 33.4376 56.613 33.5336 56.133 33.6296C55.893 33.6776 55.6531 33.8696 55.6051 34.0615C55.5091 34.3975 55.4611 34.7335 55.3651 35.0215C55.3171 35.1654 55.4611 35.2614 55.7011 35.2134C56.133 35.1174 56.565 35.0214 56.9489 34.9255C57.1889 34.8775 57.3809 34.7335 57.4289 34.5415C57.5729 34.2055 57.6689 33.9176 57.7649 33.5816ZM59.9727 32.8617C60.0207 32.6697 59.9727 32.6217 59.7807 32.6697C59.4447 32.8137 59.0608 32.9096 58.6768 33.0056C58.4368 33.0536 58.2448 33.2456 58.1968 33.4376C58.1008 33.7736 58.0048 34.1095 57.8609 34.3495C57.8129 34.4935 57.9089 34.5895 58.1008 34.4935C58.4848 34.3495 58.8208 34.2535 59.1567 34.1095C59.3487 34.0136 59.5407 33.8696 59.5887 33.7256C59.7327 33.4856 59.8287 33.1976 59.9727 32.8617ZM61.6525 32.0937C61.7005 31.9497 61.7005 31.8538 61.5565 31.9497C61.3165 32.0937 61.0286 32.1897 60.6926 32.3337C60.5006 32.4297 60.3566 32.6217 60.2606 32.7657C60.1166 33.1016 60.0207 33.3896 59.8767 33.6776C59.7807 33.8216 59.8767 33.8696 60.0207 33.7736C60.3086 33.6296 60.5966 33.4856 60.8366 33.3416C60.9806 33.2456 61.1246 33.1016 61.2205 32.9577C61.3645 32.6697 61.5085 32.3817 61.6525 32.0937ZM62.8044 31.2298C62.9004 31.0858 62.9004 31.0378 62.8044 31.0858C62.6124 31.2298 62.4684 31.3738 62.2285 31.5178C62.1325 31.6138 61.9405 31.8058 61.8925 31.9497C61.7485 32.2377 61.6045 32.5257 61.4605 32.7657C61.3645 32.9096 61.4125 32.9576 61.5085 32.8617C61.7005 32.7177 61.8925 32.5257 62.0365 32.3817C62.1325 32.2857 62.2284 32.1417 62.3244 31.9977C62.4684 31.7578 62.6124 31.4698 62.8044 31.2298ZM40.2945 33.8216C40.1985 33.6776 40.0545 33.5336 39.9105 33.4376C39.6706 33.2936 39.4786 33.1016 39.2866 32.9577C39.1906 32.8617 39.1906 32.8617 39.2866 33.0056C39.3826 33.1016 39.4786 33.1976 39.5266 33.2936C39.6226 33.3896 40.4865 34.2535 40.7265 34.3975C40.8225 34.4935 40.8705 34.4935 40.7745 34.3975C40.6305 34.2535 40.4865 34.0615 40.2945 33.8216ZM41.9743 34.6855C41.9264 34.5415 41.6864 34.3975 41.5424 34.3015C41.2064 34.1575 40.9185 34.0136 40.6305 33.8696C40.4865 33.7736 40.4385 33.8216 40.5345 33.9655C40.6785 34.2055 40.8225 34.3975 41.0144 34.5895C41.1104 34.6855 41.2544 34.8295 41.3984 34.9255C41.6384 35.0694 41.9264 35.2614 42.2143 35.4054C42.3583 35.5014 42.4543 35.4534 42.3583 35.3574C42.2623 35.1654 42.1183 34.9255 41.9743 34.6855ZM44.1341 35.4054C44.0862 35.2614 43.8462 35.1174 43.6542 35.0695C43.2702 34.9735 42.8863 34.8295 42.5503 34.7335C42.3583 34.6855 42.2623 34.7335 42.3583 34.8295C42.5023 35.0695 42.5983 35.2614 42.7423 35.4534C42.8383 35.5494 42.9823 35.6934 43.1742 35.7414C43.5102 35.8854 43.8462 35.9814 44.2301 36.1253C44.4221 36.1733 44.5181 36.1733 44.4701 36.0294C44.3261 35.8854 44.2301 35.6454 44.1341 35.4054ZM46.5819 35.8854C46.5339 35.7414 46.3419 35.5974 46.102 35.5494C45.622 35.4534 45.238 35.4054 44.8061 35.3094C44.5661 35.2614 44.4701 35.3094 44.5181 35.4534C44.6141 35.6934 44.7101 35.9334 44.8061 36.1253C44.8541 36.2213 45.0941 36.3653 45.286 36.4133C45.67 36.5093 46.054 36.6053 46.4859 36.6533C46.7259 36.7013 46.8699 36.6533 46.8219 36.5573C46.7259 36.3653 46.6779 36.1733 46.5819 35.8854ZM49.3177 36.1733C49.3177 36.0294 49.0777 35.9334 48.8377 35.8854C48.3578 35.8374 47.8778 35.8374 47.3978 35.7894C47.1579 35.7894 46.9659 35.8374 47.0139 35.9814C47.0619 36.2213 47.1099 36.4613 47.2059 36.6533C47.2538 36.7493 47.4458 36.8453 47.6858 36.8933C48.1178 36.9413 48.5497 36.9893 48.9817 36.9893C49.2217 36.9893 49.3657 36.9413 49.3657 36.8453C49.3177 36.6053 49.3177 36.4133 49.3177 36.1733ZM52.1014 36.1253C52.1014 35.9814 51.9094 35.8854 51.6694 35.8854C51.1895 35.8854 50.7095 35.9334 50.2296 35.9334C49.9896 35.9334 49.7496 36.0294 49.7496 36.1733C49.7496 36.4133 49.7496 36.6533 49.7976 36.8453C49.7976 36.9413 49.9896 37.0373 50.2296 37.0373C50.6615 37.0373 51.0935 37.0373 51.5734 36.9893C51.8134 36.9893 52.0054 36.8933 52.0054 36.7973C52.0054 36.6053 52.0534 36.3653 52.1014 36.1253ZM54.7412 35.7894C54.7891 35.6454 54.6452 35.5974 54.3572 35.5974C53.8772 35.6454 53.4453 35.6934 52.9653 35.7894C52.7253 35.8374 52.4854 35.9334 52.4854 36.0774C52.4374 36.3173 52.3894 36.5573 52.3894 36.7493C52.3894 36.8453 52.5334 36.8933 52.7733 36.8933C53.2053 36.8453 53.6373 36.7973 54.0692 36.7013C54.3092 36.6533 54.5012 36.5573 54.5492 36.4613C54.5972 36.2693 54.6932 36.0774 54.7412 35.7894ZM57.1409 35.2614C57.1889 35.1174 57.0929 35.0695 56.853 35.1175C56.469 35.2134 56.037 35.3094 55.6051 35.4054C55.3651 35.4534 55.1251 35.5974 55.1251 35.7414C55.0291 35.9814 54.9811 36.2213 54.8851 36.4133C54.8371 36.5093 54.9811 36.5573 55.1731 36.5093C55.5571 36.4133 55.941 36.3173 56.325 36.2213C56.517 36.1733 56.709 36.0294 56.805 35.9334C56.9489 35.6934 57.0449 35.5014 57.1409 35.2614ZM59.2047 34.4935C59.2527 34.3495 59.2047 34.3015 59.0127 34.3975C58.6768 34.5415 58.3408 34.6855 57.9569 34.7815C57.7649 34.8775 57.5729 35.0215 57.4769 35.1175C57.3809 35.3574 57.2369 35.5974 57.1409 35.7894C57.0929 35.8854 57.1889 35.9334 57.3329 35.8374C57.6689 35.6934 58.0048 35.5494 58.2928 35.4534C58.4368 35.3574 58.6288 35.2614 58.7248 35.1175C58.9168 34.9255 59.0607 34.7335 59.2047 34.4935ZM60.7406 33.6296C60.8366 33.5336 60.7886 33.4856 60.6446 33.5816C60.4046 33.7256 60.1166 33.8696 59.8287 34.0615C59.6847 34.1575 59.4927 34.3015 59.3967 34.4455C59.2527 34.6855 59.1087 34.8775 58.9647 35.0695C58.8688 35.1654 58.9168 35.1654 59.0607 35.0695C59.3487 34.9255 59.5887 34.7335 59.7807 34.5895C59.9247 34.4935 60.0686 34.3495 60.1646 34.2535C60.4526 34.0135 60.5966 33.8216 60.7406 33.6296ZM44.7101 36.5573C44.6621 36.4613 44.4701 36.3653 44.2781 36.3173C43.9422 36.2213 43.6062 36.0774 43.2702 35.9334C43.0783 35.8854 43.0303 35.8854 43.0783 35.9334C43.2222 36.0774 43.3662 36.1733 43.5102 36.2693C43.6062 36.3173 43.7502 36.4133 43.9422 36.5093C44.2301 36.6533 44.5661 36.7493 44.8541 36.8933C45.0461 36.9413 45.142 36.9893 45.0461 36.8933C44.9501 36.7973 44.8541 36.7013 44.7101 36.5573ZM46.9659 37.0853C46.9179 36.9893 46.7259 36.9413 46.4859 36.8453C46.054 36.7493 45.67 36.7013 45.286 36.6053C45.0941 36.5573 44.9501 36.6053 44.9981 36.6533C45.0941 36.7973 45.19 36.8933 45.286 37.0373C45.334 37.0853 45.526 37.1813 45.718 37.2292C46.054 37.3252 46.4379 37.4212 46.7739 37.4692C46.9659 37.5172 47.1099 37.5172 47.0619 37.4692C47.1099 37.3252 47.0139 37.2292 46.9659 37.0853ZM49.4136 37.3252C49.4136 37.2292 49.2217 37.1812 48.9817 37.1333C48.5497 37.0853 48.1178 37.0853 47.6858 37.0373C47.4458 37.0373 47.3019 37.0373 47.3498 37.1333C47.3978 37.2772 47.4458 37.4212 47.5418 37.5172C47.5898 37.5652 47.7818 37.6132 47.9738 37.6612C48.3577 37.7092 48.7417 37.7572 49.1257 37.7572C49.3657 37.7572 49.5096 37.7572 49.5096 37.7092C49.4616 37.5652 49.4136 37.4692 49.4136 37.3252ZM51.9094 37.2772C51.9094 37.1813 51.7654 37.1333 51.5254 37.1333C51.0935 37.1812 50.6615 37.1813 50.2296 37.1813C49.9896 37.1813 49.7976 37.2292 49.7976 37.3252C49.7976 37.4692 49.8456 37.6132 49.8456 37.7092C49.8456 37.7572 50.0376 37.8052 50.2296 37.8052C50.6135 37.8052 50.9975 37.8052 51.4295 37.7572C51.6214 37.7572 51.8134 37.7092 51.8134 37.6612C51.8614 37.5652 51.8614 37.4212 51.9094 37.2772ZM54.3092 36.9413C54.3572 36.8453 54.2132 36.8453 53.9732 36.8453C53.5413 36.8933 53.1573 36.9893 52.7253 37.0373C52.4854 37.0853 52.2934 37.1333 52.2934 37.2292C52.2454 37.3732 52.1974 37.5172 52.1974 37.6132C52.1974 37.6612 52.3414 37.7092 52.5334 37.6612C52.9173 37.6132 53.3013 37.5652 53.6852 37.4692C53.8772 37.4212 54.0692 37.3732 54.1172 37.3252C54.1652 37.2292 54.2612 37.1333 54.3092 36.9413ZM56.517 36.4133C56.565 36.3173 56.469 36.3173 56.277 36.3653C55.893 36.4613 55.5571 36.6053 55.1251 36.6533C54.9331 36.7013 54.6931 36.7973 54.6452 36.8933C54.5492 37.0373 54.5012 37.1813 54.4052 37.2772C54.3572 37.3252 54.5012 37.3252 54.6932 37.2772C55.0291 37.1813 55.3651 37.0853 55.7011 36.9893C55.893 36.9413 56.085 36.8453 56.133 36.7973C56.277 36.6533 56.373 36.5573 56.517 36.4133ZM58.3408 35.5974C58.4368 35.5014 58.3408 35.5014 58.1968 35.5974C57.9089 35.7414 57.5729 35.8854 57.2369 36.0294C57.0449 36.1254 56.8529 36.2213 56.805 36.3173C56.661 36.4613 56.565 36.6053 56.421 36.7013C56.373 36.7493 56.421 36.7493 56.613 36.6533C56.9489 36.5093 57.8129 36.0294 57.8609 35.9814C58.0528 35.8374 58.1968 35.7414 58.3408 35.5974Z" fill="#00447C"/>
<path d="M45.8711 44.3755V42.7436H47.311V42.0237C47.311 41.7357 47.311 41.5437 47.311 41.4478C47.311 39.8639 48.2229 39 49.9987 39C50.3347 39 50.6227 39.048 50.9586 39.144V40.7758C50.8146 40.7758 50.6706 40.7278 50.4787 40.7278C49.4228 40.7278 49.2788 41.1118 49.2788 42.1197V42.7436H55.2782V44.3755H49.2788V51.9588H47.311V44.3755H45.8711Z" fill="#787C82"/>
<path d="M43.7115 51.094C43.0395 51.7659 42.2716 52.0539 41.2157 52.0539C39.3439 52.0539 38 50.854 38 49.2222C38 47.2543 39.2479 46.6304 41.8396 46.2464C43.0395 46.0544 43.7115 45.9585 43.7115 45.1425C43.7115 44.5666 43.1835 44.1346 42.0796 44.1346C40.9757 44.1346 40.3518 44.6146 40.3038 45.4785H38.384C38.6239 43.4147 39.8238 42.5508 42.1756 42.5508C44.7194 42.5508 45.5833 43.4147 45.5833 45.2865V49.8941C45.5833 50.758 45.5833 51.4299 45.8713 52.0059H44.0954C43.9034 51.7179 43.7115 51.4779 43.7115 51.094ZM40.2078 49.0782C40.2078 49.7981 40.7357 50.2781 41.6476 50.2781C43.2315 50.2781 43.8074 49.5101 43.8074 47.9263C43.8074 47.6863 43.8074 47.4463 43.8074 47.2063C41.7436 47.8783 40.2078 47.6383 40.2078 49.0782Z" fill="#787C82"/>
<path d="M53.6464 44.3749V48.9345C53.6464 49.8944 53.7904 50.3263 54.8463 50.3263C55.0383 50.3263 55.2302 50.3263 55.3742 50.2783V51.9582C55.0383 52.0542 54.7023 52.1022 54.3663 52.1022C51.9665 52.1022 51.7266 51.0943 51.7266 49.0785V44.3749V42.743V39.5273H53.6944V42.743V44.3749H53.6464Z" fill="#787C82"/>
<path d="M61.086 51.0943C60.414 51.7662 59.6461 52.0542 58.5902 52.0542C56.7184 52.0542 55.3745 50.8543 55.3745 49.2224C55.3745 47.2546 56.6224 46.6307 59.2142 46.1987C60.414 46.0068 61.086 45.9108 61.086 45.0948C61.086 44.5189 60.558 44.0869 59.5021 44.0869C58.3982 44.0869 57.7743 44.5669 57.7263 45.3828H55.8065C56.0464 43.319 57.2463 42.4551 59.5981 42.4551C62.1419 42.4551 63.0058 43.319 63.0058 45.1908V49.7984C63.0058 50.6623 63.0058 51.3342 63.2938 51.9102H61.5179C61.278 51.7182 61.086 51.4782 61.086 51.0943ZM57.5823 49.0785C57.5823 49.7984 58.1103 50.2784 59.0222 50.2784C60.606 50.2784 61.182 49.5104 61.182 47.9266C61.182 47.6866 61.182 47.4466 61.182 47.2066C59.1182 47.8786 57.5823 47.6386 57.5823 49.0785Z" fill="#787C82"/>
<path d="M79.6985 54.123H21V55.6589H79.6985V54.123Z" fill="#807F83"/>
<path d="M24.264 57.8672L25.6079 61.6108V57.8672H26.6158V63.3387H25.3679L24.024 59.499V63.3387H23.0161V57.8672H24.264Z" fill="#00447C"/>
<path d="M28.4877 57.8672H29.8316L31.2715 63.3387H30.1196L29.8796 62.1868H28.4397L28.1997 63.3387H27.0479L28.4877 57.8672ZM28.6317 61.2749H29.6876L29.1597 58.8271L28.6317 61.2749Z" fill="#00447C"/>
<path d="M34.4871 57.8672V58.7791H33.2872V63.3387H32.1833V58.7791H30.9834V57.8672H34.4871Z" fill="#00447C"/>
<path d="M35.0151 63.3387V57.8672H36.119V63.3387H35.0151Z" fill="#00447C"/>
<path d="M38.6628 57.7715C40.3427 57.7715 40.5347 58.9714 40.5347 60.6032C40.5347 62.2831 40.3427 63.435 38.6628 63.435C36.983 63.435 36.791 62.2351 36.791 60.6032C36.839 58.9234 37.031 57.7715 38.6628 57.7715ZM38.6628 62.619C39.3348 62.619 39.4308 62.0431 39.4308 60.6032C39.4308 59.1154 39.3348 58.5874 38.6628 58.5874C37.9909 58.5874 37.8949 59.1634 37.8949 60.6032C37.9429 62.0911 38.0389 62.619 38.6628 62.619Z" fill="#00447C"/>
<path d="M42.4544 57.8672L43.7983 61.6108V57.8672H44.8062V63.3387H43.5583L42.2145 59.499V63.3387H41.2065V57.8672H42.4544Z" fill="#00447C"/>
<path d="M46.6781 57.8672H48.022L49.4619 63.3387H48.31L48.07 62.1868H46.6301L46.3902 63.3387H45.2383L46.6781 57.8672ZM46.8221 61.2749H47.878L47.3501 58.8271L46.8221 61.2749Z" fill="#00447C"/>
<path d="M49.8936 63.3387V57.8672H50.9975V62.4268H52.9653V63.3387H49.8936Z" fill="#00447C"/>
<path d="M58.4851 57.8672V58.7791H57.2852V63.3387H56.1813V58.7791H54.9814V57.8672H58.4851Z" fill="#00447C"/>
<path d="M58.965 57.8672H61.0288C61.9407 57.8672 62.4687 58.3471 62.4687 59.2591C62.4687 59.979 62.1807 60.4589 61.5567 60.6029C62.3247 60.6989 62.4207 61.1309 62.4207 62.2828C62.4207 62.8587 62.4687 63.1467 62.6606 63.2427V63.2907H61.4607C61.3648 63.1467 61.3168 62.9067 61.3168 62.7147L61.2688 61.6588C61.2688 61.2269 61.0768 60.9869 60.5968 60.9869H60.0209V63.2907H58.917V57.8672H58.965ZM60.0689 60.267H60.5488C61.0768 60.267 61.3648 60.027 61.3648 59.451C61.3648 58.9231 61.0768 58.6831 60.5968 58.6831H60.0689V60.267Z" fill="#00447C"/>
<path d="M64.2924 57.8672H65.6363L67.0762 63.3387H65.9242L65.6843 62.1868H64.2444L64.0044 63.3387H62.8525L64.2924 57.8672ZM64.4364 61.2749H65.4923L64.9643 58.8271L64.4364 61.2749Z" fill="#00447C"/>
<path d="M68.2282 57.8672L68.9961 61.9468L69.8121 57.8672H70.9639L69.7161 63.3387H68.2762L67.0283 57.8672H68.2282Z" fill="#00447C"/>
<path d="M74.4672 57.8672V58.7791H72.4994V60.075H74.3232V60.9869H72.4994V62.4748H74.5152V63.3867H71.3955V57.9152H74.4672V57.8672Z" fill="#00447C"/>
<path d="M75.0913 63.3387V57.8672H76.1952V62.4268H78.163V63.3387H75.0913Z" fill="#00447C"/>
<path d="M21.1924 70.5379V65.0664H22.2963V70.5379H21.1924Z" fill="#00447C"/>
<path d="M24.408 65.0664L25.7519 68.81V65.0664H26.7598V70.5379H25.5119L24.1681 66.6982V70.5379H23.1602V65.0664H24.408Z" fill="#00447C"/>
<path d="M27.5757 65.0664H29.3995C30.9354 65.0664 31.2233 66.1223 31.2233 67.7542C31.2233 69.674 30.7914 70.5859 29.3515 70.5859H27.6237V65.0664H27.5757ZM28.6796 69.722H29.1595C29.9275 69.722 30.0715 69.242 30.0715 67.7542C30.0715 66.5063 29.9755 65.8823 29.1115 65.8823H28.6316V69.722H28.6796Z" fill="#00447C"/>
<path d="M32.9511 65.0664V68.906C32.9511 69.434 33.0951 69.866 33.575 69.866C34.103 69.866 34.199 69.482 34.199 68.906V65.0664H35.3028V68.906C35.3028 70.2979 34.4389 70.6819 33.575 70.6819C32.6631 70.6819 31.8472 70.3939 31.8472 68.906V65.0664H32.9511Z" fill="#00447C"/>
<path d="M36.9348 68.8106V68.9546C36.9348 69.4826 37.0788 69.8185 37.6547 69.8185C37.9907 69.8185 38.3267 69.6266 38.3267 69.1466C38.3267 68.6666 38.0867 68.4747 37.3668 68.1867C36.4068 67.8507 35.9269 67.4188 35.9269 66.5068C35.9269 65.4509 36.5988 64.875 37.6067 64.875C38.5666 64.875 39.2866 65.3069 39.2866 66.3628V66.5068H38.2307C38.2307 65.9789 38.0387 65.6909 37.6547 65.6909C37.1748 65.6909 37.0308 66.0269 37.0308 66.3149C37.0308 66.6508 37.1268 66.8428 37.6067 67.0828L38.4707 67.4668C39.2866 67.8507 39.5266 68.2347 39.5266 68.9066C39.5266 70.0585 38.8066 70.5865 37.6067 70.5865C36.3588 70.5865 35.8789 70.0105 35.8789 69.0026V68.7626H36.9348V68.8106Z" fill="#00447C"/>
<path d="M43.2703 65.0664V65.9783H42.0704V70.5379H40.9665V65.9783H39.7666V65.0664H43.2703Z" fill="#00447C"/>
<path d="M43.7501 65.0664H45.8139C46.7259 65.0664 47.2538 65.5464 47.2538 66.4583C47.2538 67.1782 46.9658 67.6582 46.3419 67.8021C47.1098 67.8981 47.2058 68.3301 47.2058 69.482C47.2058 70.0579 47.2538 70.3459 47.4458 70.4419V70.4899H46.2459C46.1499 70.3459 46.1019 70.1059 46.1019 69.914L46.0539 68.858C46.0539 68.4261 45.8619 68.1861 45.382 68.1861H44.806V70.4899H43.7021V65.0664H43.7501ZM44.854 67.4662H45.334C45.8619 67.4662 46.1499 67.2262 46.1499 66.6503C46.1499 66.1223 45.8619 65.8823 45.382 65.8823H44.854V67.4662Z" fill="#00447C"/>
<path d="M48.7417 65.0664L49.4616 67.1782L50.2295 65.0664H51.4294L49.9896 68.3781V70.5379H48.8857V68.3781L47.4458 65.0664H48.7417Z" fill="#00447C"/>
<path d="M54.789 65.0664H56.1329L57.5727 70.5379H56.4208L56.1809 69.386H54.741L54.501 70.5379H53.3491L54.789 65.0664ZM54.933 68.4741H55.9889L55.4609 66.0263L54.933 68.4741Z" fill="#00447C"/>
<path d="M57.5728 65.0664H58.6287L59.2526 69.146L59.8765 65.0664H60.9324L61.5564 69.146L62.1803 65.0664H63.2362L62.2283 70.5379H60.9804L60.3565 66.5543L59.7326 70.5379H58.4847L57.5728 65.0664Z" fill="#00447C"/>
<path d="M64.6762 65.0664H66.0201L67.4599 70.5379H66.308L66.0681 69.386H64.6282L64.3882 70.5379H63.2363L64.6762 65.0664ZM64.8202 68.4741H65.8761L65.3481 66.0263L64.8202 68.4741Z" fill="#00447C"/>
<path d="M67.8917 65.0664H69.9556C70.8675 65.0664 71.3954 65.5464 71.3954 66.4583C71.3954 67.1782 71.1074 67.6582 70.4835 67.8021C71.2514 67.8981 71.3474 68.3301 71.3474 69.482C71.3474 70.0579 71.3954 70.3459 71.5874 70.4419V70.4899H70.3875C70.2915 70.3459 70.2435 70.1059 70.2435 69.914L70.1955 68.858C70.1955 68.4261 70.0035 68.1861 69.5236 68.1861H68.9477V70.4899H67.8438V65.0664H67.8917ZM68.9957 67.4662H69.4756C70.0036 67.4662 70.2915 67.2262 70.2915 66.6503C70.2915 66.1223 70.0035 65.8823 69.5236 65.8823H68.9957V67.4662Z" fill="#00447C"/>
<path d="M72.2114 65.0664H74.0353C75.5711 65.0664 75.8591 66.1223 75.8591 67.7542C75.8591 69.674 75.4271 70.5859 73.9873 70.5859H72.2594V65.0664H72.2114ZM73.3153 69.722H73.7953C74.5632 69.722 74.7072 69.242 74.7072 67.7542C74.7072 66.5063 74.6112 65.8823 73.7473 65.8823H73.2673V69.722H73.3153Z" fill="#00447C"/>
<path d="M77.4431 68.8106V68.9546C77.4431 69.4826 77.5871 69.8185 78.163 69.8185C78.499 69.8185 78.835 69.6266 78.835 69.1466C78.835 68.6666 78.595 68.4747 77.8751 68.1867C76.9152 67.8507 76.4352 67.4188 76.4352 66.5068C76.4352 65.4509 77.1071 64.875 78.115 64.875C79.075 64.875 79.7949 65.3069 79.7949 66.3628V66.5068H78.739C78.739 65.9789 78.547 65.6909 78.163 65.6909C77.6831 65.6909 77.5391 66.0269 77.5391 66.3149C77.5391 66.6508 77.6351 66.8428 78.115 67.0828L78.979 67.4668C79.7949 67.8507 80.0349 68.2347 80.0349 68.9066C80.0349 70.0585 79.3149 70.5865 78.115 70.5865C76.8672 70.5865 76.3872 70.0105 76.3872 69.0026V68.7626H77.4431V68.8106Z" fill="#00447C"/>
<path d="M79.7947 72.7461H21.0962V74.2819H79.7947V72.7461Z" fill="#807F83"/>
<path d="M79.7947 91.4648H21.0962V93.0007H79.7947V91.4648Z" fill="#807F83"/>
<path d="M25.146 80.2812H26.2499L27.0178 83.257L27.9777 80.2812H28.9376L29.8975 83.353L30.6655 80.2812H31.7214L30.3775 84.9368H29.4656L28.4577 81.7211L27.4498 84.9368H26.5859L25.146 80.2812Z" fill="#807F83" stroke="#807F83" stroke-width="0.25" stroke-miterlimit="10"/>
<path d="M32.729 80.2812H33.7369V84.9368H32.729V80.2812Z" fill="#807F83" stroke="#807F83" stroke-width="0.25" stroke-miterlimit="10"/>
<path d="M35.1772 80.2812H36.5691L38.5369 83.545V80.2812H39.5448V84.9368H38.201L36.1851 81.6251V84.9368H35.1772V80.2812Z" fill="#807F83" stroke="#807F83" stroke-width="0.25" stroke-miterlimit="10"/>
<path d="M41.0806 80.2812H42.4724L44.4403 83.545V80.2812H45.4482V84.9368H44.1043L42.0885 81.6251V84.9368H41.0806V80.2812Z" fill="#807F83" stroke="#807F83" stroke-width="0.25" stroke-miterlimit="10"/>
<path d="M46.984 80.2812H50.1517V81.2412H47.9919V82.1051H50.0077V83.065H47.9919V84.0249H50.2477V84.9848H46.936V80.2812H46.984Z" fill="#807F83" stroke="#807F83" stroke-width="0.25" stroke-miterlimit="10"/>
<path d="M51.5913 80.2812H53.4151C53.6551 80.2812 53.8951 80.2813 54.0871 80.3292C54.2791 80.3772 54.471 80.4732 54.663 80.5692C54.807 80.6652 54.951 80.8092 55.047 81.0012C55.143 81.1932 55.191 81.4332 55.191 81.6731C55.191 82.0091 55.095 82.2971 54.951 82.537C54.807 82.777 54.519 82.921 54.1831 82.969L55.3829 84.9368H54.1351L53.1752 83.065H52.6472V84.9368H51.6393V80.2812H51.5913ZM52.5992 82.2011H53.2232C53.3191 82.2011 53.4151 82.2011 53.5111 82.2011C53.6071 82.2011 53.7031 82.1531 53.7991 82.1531C53.8951 82.1051 53.9431 82.0571 53.9911 82.0091C54.0391 81.9611 54.0871 81.8171 54.0871 81.7211C54.0871 81.6251 54.0391 81.5291 53.9911 81.4332C53.9431 81.3852 53.8951 81.2892 53.7991 81.2892C53.7031 81.2412 53.6551 81.2412 53.5591 81.1932C53.4631 81.1932 53.3671 81.1932 53.2712 81.1932H52.5992V82.2011Z" fill="#807F83" stroke="#807F83" stroke-width="0.25" stroke-miterlimit="10"/>
<path d="M58.6468 83.8804L60.4706 82.2485C60.5666 82.1525 60.6626 82.0565 60.7586 81.9605C60.8546 81.8646 60.9026 81.7206 60.9026 81.5766C60.9026 81.4326 60.8546 81.2886 60.7106 81.1926C60.6146 81.0966 60.4706 81.0486 60.3266 81.0486C60.1346 81.0486 59.9907 81.0966 59.8947 81.2406C59.7987 81.3846 59.7507 81.4806 59.7027 81.6726L58.6948 81.5766C58.6948 81.3366 58.7428 81.1446 58.8388 80.9526C58.9347 80.7607 59.0307 80.6167 59.1747 80.5207C59.3187 80.4247 59.5107 80.3287 59.7027 80.2327C59.8947 80.1847 60.1346 80.1367 60.3266 80.1367C60.5186 80.1367 60.7586 80.1847 60.9026 80.2327C61.0945 80.2807 61.2385 80.3767 61.3825 80.4727C61.5265 80.5687 61.6225 80.7127 61.7185 80.9046C61.8145 81.0966 61.8145 81.2886 61.8145 81.5286C61.8145 81.6726 61.8145 81.8166 61.7665 81.9126C61.7185 82.0085 61.6705 82.1525 61.6225 82.2485C61.5745 82.3445 61.5265 82.4405 61.4305 82.5365C61.3345 82.6325 61.2865 82.6805 61.1905 82.7765L59.7507 83.9764H61.8145V84.8403H58.5508V83.8804H58.6468Z" fill="#807F83"/>
<path d="M62.9185 82.5845C62.9185 82.2965 62.9665 82.0085 63.0145 81.7206C63.0624 81.4326 63.1584 81.1926 63.3024 80.9526C63.4464 80.7127 63.5904 80.5207 63.8304 80.3767C64.0703 80.2327 64.3583 80.1367 64.6943 80.1367C65.0303 80.1367 65.3182 80.2327 65.5582 80.3767C65.7982 80.5207 65.9422 80.7127 66.0862 80.9526C66.2301 81.1926 66.3261 81.4326 66.3741 81.7206C66.4221 82.0085 66.4701 82.2965 66.4701 82.5845C66.4701 82.8725 66.4221 83.1604 66.3741 83.4484C66.3261 83.7364 66.2301 83.9764 66.0862 84.2163C65.9422 84.4563 65.7982 84.6483 65.5582 84.7923C65.3182 84.9363 65.0303 85.0323 64.6943 85.0323C64.3583 85.0323 64.0703 84.9363 63.8304 84.7923C63.5904 84.6483 63.4464 84.4563 63.3024 84.2163C63.1584 83.9764 63.0624 83.7364 63.0145 83.4484C62.9665 83.1604 62.9185 82.8725 62.9185 82.5845ZM63.9264 82.5845C63.9264 82.7285 63.9264 82.8725 63.9264 83.0164C63.9264 83.1604 63.9744 83.3524 64.0223 83.4964C64.0703 83.6404 64.1663 83.7844 64.2623 83.8804C64.3583 83.9764 64.5023 84.0244 64.6943 84.0244C64.8863 84.0244 65.0303 83.9764 65.1263 83.8804C65.2222 83.7844 65.3182 83.6404 65.3662 83.4964C65.4142 83.3524 65.4622 83.1604 65.4622 83.0164C65.4622 82.8245 65.4622 82.6805 65.4622 82.5845C65.4622 82.4405 65.4622 82.2965 65.4622 82.1525C65.4622 81.9606 65.4142 81.8166 65.3662 81.6726C65.3182 81.5286 65.2222 81.3846 65.1263 81.2886C65.0303 81.1926 64.8863 81.1446 64.6943 81.1446C64.5023 81.1446 64.3583 81.1926 64.2623 81.2886C64.1663 81.3846 64.0703 81.5286 64.0223 81.6726C63.9744 81.8166 63.9264 82.0085 63.9264 82.1525C63.9264 82.2965 63.9264 82.4885 63.9264 82.5845Z" fill="#807F83"/>
<path d="M68.8698 81.3852L67.9099 82.2011L67.334 81.5771L68.8698 80.2812H69.7817V84.9368H68.8218V81.3852H68.8698Z" fill="#807F83"/>
<path d="M73.5255 81.1932H71.2217V80.2812H74.6294V81.1452L72.7575 84.9368H71.6057L73.5255 81.1932Z" fill="#807F83"/>
</svg>
