<svg xmlns="http://www.w3.org/2000/svg" width="46" height="46" viewBox="0 0 46 46" fill="none">
  <path d="M43.9036 27.2355V27.2051H41.3518C40.2885 27.2051 39.6506 27.8447 39.6506 28.7584C39.6506 29.6721 40.2582 30.2204 41.1999 30.2204H42.3239C42.5973 30.2204 42.81 30.4031 42.81 30.6772C42.81 30.9513 42.5973 31.1341 42.3239 31.1341H39.8025V32.2001H42.2935C43.1138 32.2001 43.6606 31.8041 43.9036 31.195C43.9644 31.0123 43.9948 30.8295 43.9948 30.6163C43.9948 30.4031 43.9644 30.1899 43.9036 30.0072C43.691 29.4894 43.2049 29.1848 42.4758 29.1848H41.3214C41.048 29.1848 40.8354 29.0021 40.8354 28.7279C40.8354 28.4538 41.0176 28.2711 41.3214 28.2711H43.4479L43.9036 27.2355ZM36.3089 28.7279C36.3089 28.4538 36.4912 28.2711 36.795 28.2711H38.9215L39.3772 27.2051H36.8253C35.7621 27.2051 35.1241 27.8447 35.1241 28.7584C35.1241 29.6721 35.7317 30.2204 36.6735 30.2204H37.7975C38.0709 30.2204 38.2835 30.4031 38.2835 30.6772C38.2835 30.9513 38.0709 31.1341 37.7975 31.1341H35.276V32.2001H37.7671C38.8304 32.2001 39.4683 31.5605 39.4683 30.6163C39.4683 29.7026 38.8911 29.1848 37.919 29.1848H36.7646C36.4912 29.1544 36.3089 28.9716 36.3089 28.7279ZM30.6584 32.1696H34.6077V31.1036H31.8432V30.1899H34.5469V29.1544H31.8432V28.2711H34.6077V27.2051H30.6584V32.1696ZM30.3547 32.1696L28.7142 30.3422C29.5344 30.1899 30.0509 29.5808 30.0509 28.7889C30.0509 27.8751 29.3825 27.2051 28.3497 27.2051H25.6763V32.1696H26.8611V30.4031H27.4079L28.8661 32.1696H30.3547ZM28.2281 29.3676H26.8611V28.2711H28.2281C28.6231 28.2711 28.8357 28.5147 28.8357 28.8193C28.8661 29.1239 28.6534 29.3676 28.2281 29.3676ZM25.0384 28.8802C25.0384 27.9056 24.37 27.2355 23.3372 27.2355H20.6031V32.1696H21.8182V30.5249H23.3068C24.37 30.5249 25.0384 29.8244 25.0384 28.8802ZM23.8536 28.8802C23.8536 29.2153 23.6409 29.4894 23.246 29.4894H21.8182V28.2711H23.246C23.6409 28.2711 23.8536 28.5452 23.8536 28.8802ZM20.3904 32.1696L18.4158 29.6721L20.3904 27.2051H18.9322L17.7171 28.7889L16.5019 27.2051H15.0134L16.988 29.6721L15.0134 32.1392H16.4715L17.6867 30.5554L18.9018 32.1392H20.3904V32.1696ZM10.8818 32.1696H14.8311V31.1036H12.097V30.1899H14.8007V29.1544H12.097V28.2711H14.8615V27.2051H10.8818V32.1696Z" fill="#0079C1"/>
  <path d="M40.3798 22.8192V17.8547H39.2254V20.474V21.0527L38.8912 20.5045L37.1596 17.8242H35.7014V22.7888H36.8558V20.0476V19.4689L37.19 20.0172L39.0127 22.8192H40.3798ZM34.0914 22.8192H35.428L33.3319 17.8547H31.7522L29.6257 22.8192H30.9016L31.3269 21.7837H33.6661L34.0914 22.8192ZM33.3015 20.809H31.7218L32.1775 19.6517L32.4813 18.8598L32.7851 19.6517L33.3015 20.809ZM29.1396 18.9511H30.4155V17.8547H29.0485C27.5295 17.8547 26.6789 18.8902 26.6789 20.2913V20.3826C26.6789 21.8751 27.5295 22.8192 28.9573 22.8192H29.0181L29.5042 21.7532H29.1396C28.3498 21.7532 27.8637 21.2659 27.8637 20.3826V20.2913C27.8941 19.5298 28.3194 18.9511 29.1396 18.9511ZM24.7955 22.8192H25.9802V20.3522V17.8547H24.7955V20.3217V22.8192ZM24.522 22.8192L22.8816 20.9918C23.7018 20.8395 24.2183 20.2304 24.2183 19.4385C24.2183 18.5247 23.5499 17.8547 22.517 17.8547H19.8437V22.8192H21.0285V21.0527H21.5753L23.0335 22.8192H24.522ZM22.3955 20.0172H20.9981V18.9207H22.3955C22.7904 18.9207 23.0031 19.1643 23.0031 19.4689C23.0031 19.7735 22.7904 20.0172 22.3955 20.0172ZM15.0742 22.8192H19.0235V21.7532H16.259V20.8395H18.9627V19.8039H16.259V18.9207H19.0235V17.8547H15.0742V22.8192ZM12.9781 22.8192H14.1325V17.8547H12.1882L11.2161 20.7177L11.0642 21.2659L10.9123 20.7177L9.97059 17.8547H8.05672V22.8192H9.21112V19.5603L9.18074 18.7989L9.42377 19.5603L10.5478 22.8192H11.6414L12.7654 19.5603L13.0085 18.7989L12.9781 19.5603V22.8192ZM6.44664 22.8192H7.78331L5.68717 17.8547H4.10747L1.98096 22.8192H3.28725L3.71255 21.7837H6.02134L6.44664 22.8192ZM5.65679 20.809H4.07709L4.53278 19.6517L4.83657 18.8598L5.14035 19.6517L5.65679 20.809Z" fill="#0079C1"/>
</svg>