<svg xmlns="http://www.w3.org/2000/svg" width="87" height="88" viewBox="0 0 87 88" fill="none">
  <path d="M8.7002 45.2816V36.2012H10.7018L13.0983 43.4066H13.127L15.4552 36.2012H17.4921V45.2816H16.0223V38.5137H15.9738C15.8392 38.7972 15.72 39.0874 15.6163 39.3865C15.5126 39.6856 15.4066 39.9958 15.2941 40.3173L13.5816 45.2816H12.2884L10.6201 40.3641C10.5671 40.2012 10.5186 40.0494 10.4745 39.911C10.4303 39.7726 10.3884 39.632 10.3465 39.4891C10.3045 39.3463 10.2648 39.19 10.2229 39.0249C10.1832 38.8597 10.1412 38.6655 10.0949 38.4467H10.0662V45.2816H8.7002Z" fill="#00175A"/>
  <path d="M18.7056 42.0302C18.7056 41.6194 18.7497 41.2489 18.838 40.923C18.9262 40.5949 19.0476 40.3069 19.2021 40.0547C19.3566 39.8025 19.5353 39.5882 19.7383 39.4118C19.9414 39.2355 20.1576 39.0882 20.3827 38.9743C20.61 38.8605 20.8417 38.7779 21.0823 38.7266C21.3206 38.6752 21.5501 38.6484 21.773 38.6484C22.0135 38.6484 22.2497 38.6752 22.4836 38.7266C22.7153 38.7779 22.9382 38.8605 23.1478 38.9721C23.3575 39.0837 23.5495 39.231 23.7282 39.4118C23.907 39.5949 24.0592 39.8159 24.1872 40.077C24.3152 40.3382 24.4167 40.6418 24.4896 40.9877C24.5624 41.3337 24.5999 41.7266 24.5999 42.1708V42.5235H20.1996C20.215 42.8203 20.2702 43.0748 20.3629 43.2891C20.4556 43.5034 20.5769 43.6797 20.7292 43.8181C20.8815 43.9565 21.058 44.0592 21.2632 44.1239C21.4663 44.1909 21.6869 44.2221 21.9231 44.2221C22.1327 44.2221 22.3203 44.2043 22.488 44.1708C22.6557 44.1373 22.8124 44.086 22.9558 44.0212C23.0993 43.9543 23.2339 43.8761 23.3575 43.7802C23.4811 43.6864 23.6046 43.5793 23.7282 43.4587L24.516 44.2467C24.1806 44.6195 23.79 44.9096 23.3464 45.1128C22.9029 45.3181 22.3909 45.4208 21.8105 45.4208C21.4089 45.4208 21.0205 45.3561 20.6475 45.2288C20.2746 45.1016 19.9436 44.8985 19.6567 44.6239C19.3676 44.3494 19.1381 43.9967 18.966 43.5703C18.7916 43.1418 18.7056 42.6284 18.7056 42.0302ZM20.2216 41.394H23.2295C23.1854 40.9029 23.0441 40.5301 22.8036 40.2779C22.563 40.0234 22.2144 39.8984 21.762 39.8984C21.581 39.8984 21.4045 39.9252 21.2345 39.9788C21.0646 40.0324 20.9102 40.1194 20.7733 40.2377C20.6343 40.3583 20.5173 40.5123 20.4202 40.7043C20.3231 40.8918 20.2569 41.1239 20.2216 41.394Z" fill="#00175A"/>
  <path d="M25.7256 45.2824V38.7712H27.2174V39.6641C27.3388 39.5279 27.4778 39.3984 27.6323 39.2757C27.7867 39.1529 27.9544 39.0435 28.1376 38.9498C28.3208 38.856 28.5194 38.7824 28.7356 38.7288C28.9497 38.6752 29.1814 38.6484 29.4264 38.6484C29.6956 38.6484 29.9251 38.6752 30.1193 38.7266C30.3135 38.7779 30.4768 38.8516 30.6136 38.9453C30.7505 39.0391 30.863 39.1507 30.9535 39.2801C31.044 39.4096 31.1212 39.5547 31.1852 39.7154C31.311 39.5748 31.4544 39.4409 31.6155 39.3114C31.7744 39.1819 31.9487 39.0681 32.1363 38.9699C32.3239 38.8717 32.5269 38.7935 32.7454 38.7355C32.9639 38.6775 33.1956 38.6484 33.4405 38.6484C33.7671 38.6484 34.0496 38.6953 34.2879 38.7913C34.5241 38.8873 34.7183 39.0212 34.8705 39.1931C35.0228 39.365 35.1353 39.5726 35.2082 39.8136C35.281 40.0547 35.3185 40.3226 35.3185 40.6127V45.2824H33.8267V40.9877C33.8267 40.8069 33.8135 40.6507 33.7848 40.5168C33.7561 40.3828 33.7076 40.2734 33.6391 40.1864C33.5707 40.1016 33.478 40.0368 33.3611 39.9944C33.2441 39.952 33.0985 39.9319 32.9197 39.9319C32.6152 39.9319 32.3327 40.0101 32.0723 40.1663C31.8119 40.3226 31.5427 40.5257 31.2668 40.7779V45.2824H29.775V40.9877C29.775 40.8069 29.7618 40.6507 29.7331 40.5168C29.7044 40.3828 29.6559 40.2734 29.5875 40.1864C29.5191 40.1016 29.4264 40.0368 29.3094 39.9944C29.1925 39.952 29.0468 39.9319 28.8681 39.9319C28.718 39.9319 28.5746 39.952 28.4355 39.9922C28.2965 40.0324 28.1619 40.0904 28.0273 40.1663C27.8927 40.2422 27.758 40.3315 27.6256 40.4364C27.491 40.5413 27.3542 40.6551 27.2174 40.7779V45.2824H25.7256Z" fill="#00175A"/>
  <path d="M36.6626 45.2816V36.2012H38.1544V39.6275C38.2603 39.5003 38.3839 39.3753 38.5207 39.257C38.6597 39.1365 38.812 39.0315 38.9819 38.9423C39.1519 38.853 39.3372 38.7815 39.5425 38.7257C39.7455 38.6722 39.9662 38.6454 40.2023 38.6454C40.5708 38.6454 40.9107 38.7146 41.224 38.8552C41.5374 38.9958 41.8066 39.2057 42.0317 39.4847C42.2568 39.7637 42.4334 40.1164 42.5636 40.5383C42.6916 40.9624 42.7556 41.4557 42.7556 42.0182C42.7556 42.5807 42.6893 43.074 42.5569 43.4936C42.4245 43.9155 42.237 44.266 41.9964 44.545C41.7559 44.824 41.4646 45.0338 41.1269 45.17C40.7893 45.3084 40.4141 45.3776 40.0015 45.3776C39.655 45.3776 39.3174 45.3084 38.9952 45.17C38.6708 45.0316 38.3905 44.8285 38.1544 44.5561V45.2816H36.6626ZM38.1544 43.3709C38.3552 43.6343 38.5913 43.8352 38.8628 43.9735C39.132 44.1119 39.4034 44.1811 39.6705 44.1811C40.2354 44.1811 40.6414 44.0048 40.8908 43.6521C41.1402 43.2994 41.2638 42.7593 41.2638 42.0316C41.2638 41.3418 41.1269 40.8195 40.8511 40.4646C40.5774 40.1119 40.1979 39.9356 39.7168 39.9356C39.5623 39.9356 39.4123 39.9579 39.2644 40.0048C39.1166 40.0516 38.9753 40.1119 38.8385 40.1878C38.7017 40.2637 38.5759 40.3508 38.4589 40.449C38.342 40.5472 38.2405 40.6499 38.1544 40.757V43.3709Z" fill="#00175A"/>
  <path d="M43.5522 42.0302C43.5522 41.6194 43.5964 41.2489 43.6847 40.923C43.7729 40.5949 43.8943 40.3069 44.0488 40.0547C44.2032 39.8025 44.382 39.5882 44.585 39.4118C44.7881 39.2355 45.0043 39.0882 45.2294 38.9743C45.4567 38.8605 45.6884 38.7779 45.929 38.7266C46.1673 38.6752 46.3968 38.6484 46.6197 38.6484C46.8602 38.6484 47.0964 38.6752 47.3303 38.7266C47.562 38.7779 47.7849 38.8605 47.9945 38.9721C48.2042 39.0837 48.3962 39.231 48.5749 39.4118C48.7537 39.5949 48.9059 39.8159 49.0339 40.077C49.1619 40.3382 49.2634 40.6418 49.3362 40.9877C49.4091 41.3337 49.4466 41.7266 49.4466 42.1708V42.5235H45.0462C45.0617 42.8203 45.1169 43.0748 45.2095 43.2891C45.3022 43.5034 45.4236 43.6797 45.5759 43.8181C45.7281 43.9565 45.9047 44.0592 46.1099 44.1239C46.3129 44.1909 46.5336 44.2221 46.7697 44.2221C46.9794 44.2221 47.167 44.2043 47.3347 44.1708C47.5024 44.1373 47.6591 44.086 47.8025 44.0212C47.946 43.9543 48.0806 43.8761 48.2042 43.7802C48.3277 43.6864 48.4513 43.5793 48.5749 43.4587L49.3627 44.2467C49.0273 44.6195 48.6367 44.9096 48.1931 45.1128C47.7496 45.3181 47.2376 45.4208 46.6572 45.4208C46.2556 45.4208 45.8672 45.3561 45.4942 45.2288C45.1213 45.1016 44.7903 44.8985 44.5034 44.6239C44.2143 44.3494 43.9848 43.9967 43.8126 43.5703C43.6383 43.1418 43.5522 42.6284 43.5522 42.0302ZM45.0683 41.394H48.0762C48.032 40.9029 47.8908 40.5301 47.6503 40.2779C47.4097 40.0234 47.061 39.8984 46.6087 39.8984C46.4277 39.8984 46.2512 39.9252 46.0812 39.9788C45.9113 40.0324 45.7568 40.1194 45.62 40.2377C45.481 40.3583 45.364 40.5123 45.2669 40.7043C45.1698 40.8918 45.1036 41.1239 45.0683 41.394Z" fill="#00175A"/>
  <path d="M50.5718 45.2807V38.7695H52.0636V39.8365H52.0878C52.1872 39.6736 52.3063 39.5195 52.4453 39.3744C52.5844 39.2316 52.7499 39.1044 52.9375 38.9972C53.125 38.8901 53.3391 38.803 53.5818 38.7405C53.8246 38.6758 54.0982 38.6445 54.4028 38.6445H54.5043L54.4579 40.0285C54.4381 40.024 54.4116 40.0218 54.3741 40.0195C54.3388 40.0173 54.2991 40.0151 54.2593 40.0128C54.2174 40.0106 54.1777 40.0084 54.1402 40.0061C54.1026 40.0039 54.074 40.0039 54.0541 40.0039C53.8136 40.0039 53.5951 40.0307 53.3965 40.0843C53.1979 40.1378 53.0191 40.216 52.858 40.3186C52.6969 40.4213 52.5491 40.5419 52.4189 40.6847C52.2887 40.8276 52.1695 40.9861 52.0636 41.1602V45.2807H50.5718Z" fill="#00175A"/>
  <path d="M55.0361 44.3926L55.8526 43.4774C55.974 43.5823 56.1108 43.6806 56.2587 43.7743C56.4065 43.8681 56.5676 43.9506 56.7376 44.0198C56.9097 44.089 57.0907 44.1471 57.2804 44.1873C57.4702 44.2297 57.6688 44.2498 57.8785 44.2498C58.2779 44.2498 58.5913 44.1917 58.8208 44.0779C59.0503 43.9618 59.165 43.7676 59.165 43.4931C59.165 43.3591 59.1275 43.2475 59.0503 43.1582C58.973 43.0667 58.8693 42.9908 58.7391 42.9261C58.6089 42.8614 58.4589 42.8078 58.2889 42.7654C58.119 42.723 57.9425 42.6783 57.7549 42.6314C57.5717 42.5846 57.3908 42.5399 57.2076 42.493C57.0245 42.4462 56.8347 42.3881 56.6361 42.3122C56.4374 42.2386 56.2587 42.1538 56.102 42.0578C55.9431 41.9618 55.8063 41.8457 55.6871 41.7096C55.568 41.5712 55.4753 41.4105 55.4069 41.223C55.3385 41.0355 55.3032 40.8167 55.3032 40.5667C55.3032 40.2787 55.3605 40.0154 55.4775 39.7787C55.5945 39.5421 55.7555 39.339 55.9652 39.1716C56.1748 39.0042 56.4264 38.8725 56.7199 38.781C57.0134 38.6895 57.3378 38.6426 57.6931 38.6426C58.0021 38.6426 58.2823 38.6627 58.5317 38.7051C58.7833 38.7475 59.015 38.8078 59.2268 38.8881C59.4387 38.9685 59.6351 39.0645 59.816 39.1805C59.9992 39.2944 60.1713 39.4238 60.339 39.5689L59.6263 40.5466C59.5071 40.4506 59.3725 40.3591 59.2224 40.2743C59.0724 40.1872 58.9157 40.1136 58.7546 40.0488C58.5935 39.9841 58.4302 39.935 58.2647 39.8948C58.1014 39.8569 57.9447 39.839 57.799 39.839C57.5938 39.839 57.4217 39.8569 57.2804 39.8904C57.1392 39.9238 57.0267 39.9729 56.9428 40.0332C56.8567 40.0935 56.7972 40.1649 56.7618 40.2453C56.7265 40.3256 56.7089 40.4127 56.7089 40.5064C56.7089 40.6404 56.7486 40.752 56.8303 40.8413C56.9119 40.9328 57.02 41.0087 57.1569 41.0734C57.2937 41.1381 57.4393 41.1895 57.5938 41.2252C57.7461 41.2631 57.9226 41.3055 58.1234 41.3546C58.2845 41.3948 58.4589 41.4372 58.6464 41.4819C58.8362 41.5265 59.0282 41.5846 59.2224 41.6515C59.4188 41.7185 59.5976 41.8011 59.7587 41.8971C59.9198 41.993 60.061 42.1114 60.1824 42.2497C60.3037 42.3881 60.3986 42.5533 60.467 42.7453C60.5377 42.9372 60.5708 43.1582 60.5708 43.4127C60.5708 43.7542 60.5001 44.0511 60.3567 44.3011C60.2133 44.5511 60.0213 44.7587 59.7741 44.9239C59.5292 45.089 59.2423 45.2118 58.9157 45.2944C58.5891 45.3748 58.2426 45.4172 57.8741 45.4172C57.5784 45.4172 57.2915 45.3904 57.0134 45.339C56.7354 45.2877 56.4728 45.2163 56.2278 45.1248C55.9828 45.0332 55.76 44.9261 55.5547 44.8011C55.3561 44.6806 55.1818 44.5422 55.0361 44.3926Z" fill="#00175A"/>
  <path d="M61.5972 45.2816V36.2012H63.089V39.6521C63.1927 39.5405 63.3185 39.4266 63.4685 39.3083C63.6186 39.19 63.7929 39.0829 63.9871 38.9847C64.1835 38.8865 64.402 38.8061 64.647 38.7414C64.8897 38.6766 65.1589 38.6454 65.4502 38.6454C65.7283 38.6454 65.9821 38.6878 66.2094 38.7704C66.4367 38.8552 66.6309 38.9802 66.792 39.1454C66.9531 39.3106 67.0766 39.5159 67.1627 39.7592C67.2488 40.0025 67.2929 40.286 67.2929 40.6097V45.2816H65.8011V40.9869C65.8011 40.6231 65.7239 40.3574 65.5694 40.1878C65.4149 40.0182 65.1722 39.9333 64.8389 39.9333C64.5101 39.9333 64.2056 40.0115 63.9231 40.1677C63.6407 40.324 63.3626 40.5271 63.089 40.7793V45.2816H61.5972Z" fill="#00175A"/>
  <path d="M68.9038 37.6395V36.3516H70.4199V37.6395H68.9038ZM68.9148 45.2824V38.7712H70.4066V45.2824H68.9148Z" fill="#00175A"/>
  <path d="M72.207 47.7361V38.7695H73.6988V39.6267C73.8048 39.4994 73.9283 39.3744 74.0652 39.2561C74.2042 39.1356 74.3564 39.0307 74.5264 38.9414C74.6963 38.8521 74.8817 38.7807 75.0869 38.7249C75.2899 38.6713 75.5106 38.6445 75.7467 38.6445C76.1153 38.6445 76.4551 38.7137 76.7685 38.8544C77.0818 38.995 77.3511 39.2048 77.5762 39.4838C77.8013 39.7628 77.9778 40.1155 78.108 40.5374C78.236 40.9615 78.3 41.4548 78.3 42.0173C78.3 42.5798 78.2338 43.0731 78.1014 43.4928C77.969 43.9147 77.7814 44.2651 77.5409 44.5441C77.3003 44.8231 77.009 45.033 76.6714 45.1691C76.3337 45.3075 75.9586 45.3767 75.5459 45.3767C75.1994 45.3767 74.8618 45.3075 74.5396 45.1691C74.2152 45.0307 73.935 44.8276 73.6988 44.5553V47.7361H72.207ZM73.701 43.37C73.9019 43.6334 74.138 43.8343 74.4094 43.9727C74.6786 44.1111 74.9501 44.1803 75.2171 44.1803C75.782 44.1803 76.1881 44.0039 76.4375 43.6513C76.6868 43.2986 76.8104 42.7584 76.8104 42.0307C76.8104 41.341 76.6736 40.8187 76.3977 40.4637C76.1241 40.1111 75.7445 39.9347 75.2634 39.9347C75.109 39.9347 74.9589 39.957 74.811 40.0039C74.6632 40.0508 74.522 40.1111 74.3851 40.187C74.2483 40.2628 74.1225 40.3499 74.0056 40.4481C73.8886 40.5463 73.7871 40.649 73.701 40.7562V43.37Z" fill="#00175A"/>
  <path d="M19.9395 56.7816V47.7012H22.9363C23.4372 47.7012 23.8808 47.7547 24.267 47.8597C24.6532 47.9646 24.9776 48.1208 25.2424 48.3284C25.5072 48.536 25.708 48.7927 25.8448 49.0963C25.9839 49.4021 26.0523 49.7525 26.0523 50.1521C26.0523 50.5204 26.0015 50.8441 25.8978 51.1231C25.7963 51.4021 25.6506 51.6432 25.4631 51.8441C25.2755 52.045 25.0504 52.2079 24.7856 52.3329C24.5208 52.4601 24.2272 52.5517 23.9051 52.6119L26.1758 56.7816H25.2049L23.0113 52.7079H20.7736V56.7816H19.9395ZM20.7736 51.9356H22.8723C23.243 51.9356 23.5718 51.9066 23.8587 51.8485C24.1456 51.7905 24.3883 51.6945 24.5847 51.5583C24.7834 51.4222 24.9334 51.2414 25.0349 51.0182C25.1364 50.7949 25.1894 50.5182 25.1894 50.19C25.1894 49.8775 25.1387 49.6141 25.0393 49.3976C24.9378 49.1811 24.79 49.007 24.5914 48.8731C24.3928 48.7391 24.15 48.6431 23.8587 48.5851C23.5674 48.5271 23.2342 48.4981 22.859 48.4981H20.7714V51.9356H20.7736Z" fill="#00175A"/>
  <path d="M26.8579 53.5396C26.8579 52.9637 26.9418 52.4682 27.1073 52.0486C27.2728 51.6289 27.4891 51.2829 27.7561 51.0061C28.0231 50.7316 28.3232 50.5262 28.6564 50.3923C28.9897 50.2584 29.3251 50.1914 29.6605 50.1914C30.0313 50.1914 30.3777 50.2628 30.6977 50.4079C31.0177 50.553 31.2936 50.7651 31.5275 51.0463C31.7592 51.3276 31.9424 51.678 32.0748 52.0977C32.2072 52.5173 32.2734 53.0017 32.2734 53.553V53.7138H27.6965C27.7009 54.1155 27.7561 54.4705 27.862 54.783C27.9679 55.0932 28.1136 55.3566 28.2945 55.5687C28.4755 55.7807 28.6873 55.9437 28.9301 56.0531C29.1728 56.1624 29.4332 56.2182 29.7091 56.2182C29.9452 56.2182 30.1593 56.1914 30.3513 56.1401C30.5433 56.0888 30.7176 56.0106 30.8787 55.9124C31.0376 55.812 31.1854 55.6892 31.3178 55.5419C31.4502 55.3946 31.5782 55.2249 31.6996 55.033L32.2204 55.4548C32.0792 55.6803 31.9225 55.8856 31.7526 56.0664C31.5827 56.2472 31.3929 56.4013 31.1832 56.5285C30.9736 56.6557 30.7419 56.7517 30.4903 56.8209C30.2365 56.8879 29.9585 56.9214 29.6561 56.9214C29.2854 56.9214 28.9301 56.8499 28.5924 56.7048C28.2548 56.5598 27.9569 56.3455 27.6987 56.062C27.4405 55.7763 27.2375 55.4236 27.0852 55.0017C26.9329 54.5776 26.8579 54.091 26.8579 53.5396ZM27.7053 53.0374H31.4547C31.4304 52.7316 31.3774 52.4481 31.2958 52.1847C31.2119 51.9213 31.0972 51.6936 30.9471 51.5039C30.797 51.3142 30.6139 51.1646 30.3954 51.0553C30.1791 50.9481 29.9276 50.8923 29.6429 50.8923C29.4134 50.8923 29.1905 50.9347 28.9742 51.0218C28.758 51.1088 28.5616 51.2405 28.3872 51.4169C28.2129 51.5932 28.0672 51.8164 27.9459 52.0865C27.8245 52.3544 27.745 52.6713 27.7053 53.0374Z" fill="#00175A"/>
  <path d="M32.8604 50.3186H33.7364L34.6214 53.5196C34.6765 53.7227 34.7295 53.9146 34.7781 54.091C34.8266 54.2673 34.8752 54.4414 34.9237 54.6155C34.9723 54.7897 35.0186 54.9638 35.0693 55.1401C35.1179 55.3164 35.1709 55.5084 35.2282 55.716H35.2547C35.3165 55.4861 35.3717 55.2807 35.4202 55.0999C35.4688 54.9213 35.5151 54.7495 35.5593 54.5821C35.6034 54.4169 35.6497 54.2495 35.6939 54.0798C35.7402 53.9102 35.791 53.7227 35.8461 53.5196L36.709 50.3186H37.4946L38.3619 53.5776C38.4171 53.7829 38.4656 53.9682 38.5097 54.1356C38.5539 54.303 38.598 54.4682 38.6421 54.6289C38.6841 54.7896 38.7304 54.9593 38.7768 55.1334C38.8231 55.3097 38.8739 55.4995 38.929 55.7093H38.9533C39.0107 55.4905 39.0636 55.2941 39.1078 55.12C39.1519 54.9459 39.1983 54.7807 39.2424 54.62C39.2865 54.4615 39.3329 54.3008 39.377 54.1379C39.4211 53.9771 39.4741 53.7986 39.5315 53.6021L40.4495 50.3164H41.2616L39.302 56.7785H38.5252L37.0797 51.466L37.0202 51.457L35.5526 56.7785H34.8178L32.8604 50.3186Z" fill="#00175A"/>
  <path d="M41.6787 55.269C41.6787 54.9498 41.7515 54.6529 41.8972 54.3784C42.0428 54.1038 42.2856 53.8516 42.6254 53.6261C42.9653 53.3985 43.411 53.1953 43.9605 53.019C44.5122 52.8427 45.1919 52.6886 46.0062 52.5614V52.2288C46.0062 51.7779 45.8959 51.4431 45.6752 51.2243C45.4545 51.0056 45.1323 50.8962 44.7108 50.8962C44.4593 50.8962 44.2231 50.923 44.0069 50.9743C43.7906 51.0257 43.5854 51.0971 43.3912 51.1886C43.197 51.2801 43.0138 51.3873 42.8373 51.5123C42.6629 51.6373 42.4908 51.7734 42.3253 51.923L41.8729 51.3917C42.0627 51.2132 42.2613 51.0502 42.4709 50.9029C42.6806 50.7556 42.9035 50.6306 43.144 50.5257C43.3824 50.4208 43.6383 50.3382 43.9076 50.2824C44.179 50.2243 44.4703 50.1953 44.7881 50.1953C45.1434 50.1953 45.4523 50.2422 45.7105 50.3359C45.9687 50.4297 46.1828 50.5658 46.3505 50.7422C46.5182 50.9208 46.6418 51.1351 46.7212 51.3895C46.8007 51.6417 46.8404 51.9319 46.8404 52.2534V55.1864C46.8404 55.5837 46.8536 55.9074 46.8779 56.1574C46.9044 56.4074 46.9507 56.6172 47.0169 56.7846H46.1563C46.1122 56.6485 46.0768 56.5056 46.0482 56.3605C46.0195 56.2132 46.0062 56.0458 46.0062 55.8583C45.6355 56.1998 45.2427 56.4565 44.83 56.6329C44.4151 56.807 43.9694 56.894 43.4883 56.894C42.9145 56.894 42.4687 56.7512 42.1532 56.4654C41.8376 56.1797 41.6787 55.7779 41.6787 55.269ZM42.5129 55.1619C42.5129 55.5011 42.6166 55.7556 42.824 55.9297C43.0315 56.1016 43.3139 56.1887 43.6736 56.1887C44.126 56.1887 44.5475 56.0994 44.9359 55.9208C45.3243 55.74 45.6818 55.4922 46.0084 55.173V53.1641C45.3265 53.2802 44.7616 53.4096 44.3114 53.5525C43.8612 53.6953 43.5037 53.8516 43.2389 54.019C42.9741 54.1864 42.7865 54.365 42.6784 54.5569C42.5703 54.7489 42.5129 54.9498 42.5129 55.1619Z" fill="#00175A"/>
  <path d="M48.7622 56.7824V50.3203H49.5964V51.5971H49.6206C49.742 51.3984 49.8855 51.2132 50.0466 51.0435C50.2077 50.8739 50.393 50.7266 50.6005 50.5993C50.8079 50.4743 51.0396 50.3739 51.2956 50.3025C51.5516 50.231 51.8385 50.1953 52.154 50.1953H52.3019L52.218 50.981C52.1739 50.981 52.1342 50.9788 52.0989 50.9743C52.068 50.9743 52.0393 50.9743 52.0128 50.9721C51.9863 50.9699 51.9709 50.9699 51.9621 50.9699C51.4324 50.9699 50.969 51.1105 50.5674 51.3917C50.1657 51.673 49.8413 52.0703 49.5942 52.5815V56.7869H48.7622V56.7824Z" fill="#00175A"/>
  <path d="M52.834 53.545C52.834 52.9825 52.9024 52.4936 53.0414 52.0717C53.1805 51.6521 53.3702 51.3039 53.613 51.0271C53.8557 50.7503 54.1404 50.5427 54.4714 50.4021C54.8002 50.2637 55.1555 50.1923 55.5395 50.1923C55.7447 50.1923 55.9434 50.219 56.1376 50.2704C56.3317 50.3217 56.5171 50.3909 56.6915 50.4802C56.868 50.5695 57.0313 50.6744 57.1836 50.7972C57.3358 50.9199 57.4749 51.0494 57.6029 51.1878V47.7012H58.437V55.1878C58.437 55.5829 58.4503 55.9066 58.479 56.1544C58.5054 56.4044 58.5562 56.6119 58.6268 56.7794H57.7485C57.7132 56.6677 57.6801 56.5249 57.6492 56.3508C57.6183 56.1789 57.6029 56.0026 57.6029 55.8262C57.4727 55.9713 57.3336 56.1075 57.1836 56.2369C57.0357 56.3664 56.8746 56.478 56.7003 56.574C56.5259 56.67 56.3384 56.7459 56.1331 56.8039C55.9301 56.8597 55.7072 56.8887 55.4667 56.8887C55.1004 56.8887 54.7561 56.8195 54.4383 56.6834C54.1183 56.5472 53.8403 56.3419 53.602 56.0651C53.3636 55.7883 53.176 55.4401 53.0392 55.0204C52.9024 54.6008 52.834 54.1097 52.834 53.545ZM53.6704 53.5561C53.6704 54.0003 53.7211 54.3865 53.8248 54.7146C53.9286 55.0427 54.0654 55.3151 54.2397 55.5293C54.414 55.7459 54.6193 55.9044 54.8532 56.0093C55.0893 56.1119 55.3409 56.1655 55.6101 56.1655C55.8087 56.1655 55.9941 56.141 56.1707 56.0896C56.3472 56.0405 56.5149 55.9691 56.6782 55.8776C56.8393 55.786 56.9982 55.6744 57.1505 55.545C57.3027 55.4155 57.455 55.2682 57.6051 55.1052V51.9624C57.2895 51.6141 56.9695 51.3508 56.6495 51.1677C56.3295 50.9847 55.9831 50.8954 55.6123 50.8954C55.3321 50.8954 55.0717 50.949 54.8355 51.0539C54.5972 51.161 54.3942 51.3217 54.2221 51.5405C54.0499 51.7592 53.9153 52.036 53.8182 52.3708C53.7167 52.7057 53.6704 53.1008 53.6704 53.5561Z" fill="#00175A"/>
  <path d="M59.8667 55.7578L60.4007 55.2668C60.6457 55.5503 60.9282 55.7779 61.2482 55.9476C61.5681 56.1172 61.9477 56.202 62.3913 56.202C62.9408 56.202 63.3534 56.1038 63.6359 55.9074C63.9162 55.711 64.0574 55.4297 64.0574 55.0659C64.0574 54.8851 64.0243 54.7311 63.9603 54.6038C63.8941 54.4766 63.7926 54.3627 63.6491 54.2645C63.5079 54.1663 63.3247 54.0815 63.0996 54.0123C62.8746 53.9431 62.6097 53.8627 62.303 53.7712C61.9411 53.6552 61.6211 53.5525 61.3408 53.4654C61.0606 53.3784 60.8267 53.2623 60.6391 53.1194C60.4515 52.9766 60.3103 52.8069 60.2176 52.6105C60.1249 52.4141 60.0785 52.1752 60.0785 51.8918C60.0785 51.6596 60.1271 51.4409 60.2242 51.2355C60.3213 51.0301 60.4603 50.8493 60.6457 50.6953C60.8289 50.5413 61.0562 50.4185 61.3276 50.3292C61.5968 50.24 61.9058 50.1953 62.2478 50.1953C62.5193 50.1953 62.7708 50.2176 63.0003 50.2623C63.2298 50.3069 63.4395 50.3694 63.6315 50.452C63.8235 50.5346 64 50.6328 64.1611 50.7489C64.3222 50.865 64.4745 50.9922 64.6179 51.1328L64.1435 51.6953C63.8985 51.4476 63.6249 51.2534 63.3203 51.1105C63.0158 50.9676 62.6693 50.8984 62.2787 50.8984C62.0294 50.8984 61.8175 50.9252 61.6432 50.9788C61.4666 51.0324 61.3232 51.1038 61.2128 51.1931C61.1025 51.2824 61.0209 51.3851 60.9701 51.4989C60.9193 51.6127 60.8929 51.731 60.8929 51.8538C60.8929 52.0101 60.9215 52.144 60.9789 52.2578C61.0363 52.3717 61.1268 52.4721 61.2526 52.5592C61.3784 52.6462 61.5394 52.7221 61.7359 52.7824C61.9345 52.8426 62.1706 52.9163 62.4442 52.9989C62.837 53.1217 63.1879 53.2288 63.4947 53.3248C63.8014 53.4185 64.0574 53.5435 64.2604 53.6998C64.4634 53.8538 64.6157 54.0413 64.7172 54.2578C64.8187 54.4744 64.8717 54.7422 64.8717 55.0614C64.8717 55.3561 64.8099 55.6195 64.6841 55.8471C64.5605 56.077 64.3884 56.269 64.1699 56.4275C63.9515 56.586 63.6889 56.7043 63.3821 56.7869C63.0754 56.8695 62.7444 56.9096 62.3847 56.9096C62.1 56.9096 61.8307 56.8806 61.5792 56.8226C61.3254 56.7645 61.0937 56.6864 60.884 56.5837C60.6722 56.4833 60.4824 56.3628 60.3125 56.2221C60.1359 56.0793 59.9903 55.9253 59.8667 55.7578Z" fill="#00175A"/>
  <path d="M22.2324 30.8496H22.6826L23.861 34.0394H23.3998L23.0909 33.1688H21.7955L21.4711 34.0394H21.0474L22.2324 30.8496ZM22.9584 32.8139L22.634 31.9121L22.4487 31.3809H22.4332L22.2479 31.901L21.919 32.8139H22.9584Z" fill="#888B8D"/>
  <path d="M24.3706 34.0402V30.8594H24.9554L25.9485 33.5022H25.9595L26.9371 30.8594H27.5373V34.038H27.1026V31.4487H27.0982C27.0563 31.6094 26.9812 31.8348 26.9062 32.0402C26.8908 32.1317 26.1736 33.8661 26.136 34.038H25.7388C25.7079 33.8661 24.9907 32.1161 24.9753 32.0357L24.7789 31.4397H24.7744V34.038H24.3706V34.0402Z" fill="#888B8D"/>
  <path d="M28.3013 34.0402V30.8594H30.3823V31.2344H28.747V32.1853H29.9564V32.558H28.747V33.6652H30.4728V34.0402H28.3013Z" fill="#888B8D"/>
  <path d="M31.0332 34.0402V30.8594H32.1962C32.9619 30.8594 33.3967 31.1339 33.3967 31.7567C33.3967 32.2835 33.1098 32.5402 32.642 32.6272L33.443 34.0402H32.9597L32.1851 32.6764H31.4746V34.0402H31.0332ZM31.4746 32.3415H32.1763C32.6795 32.3415 32.9575 32.2076 32.9575 31.7723C32.9575 31.3594 32.6817 31.2254 32.1763 31.2254H31.4746V32.3415Z" fill="#888B8D"/>
  <path d="M34.1118 34.0402V30.8594H34.562V34.038H34.1118V34.0402Z" fill="#888B8D"/>
  <path d="M35.2041 32.4392C35.2041 31.4302 35.8043 30.8008 36.6319 30.8008C37.3535 30.8008 37.7309 31.1981 37.8854 31.7785L37.4661 31.8901C37.3337 31.4347 37.1042 31.1713 36.6275 31.1713C36.0272 31.1713 35.6565 31.6713 35.6565 32.428C35.6565 33.245 36.0339 33.7271 36.6385 33.7271C37.0997 33.7271 37.3822 33.4637 37.5146 32.9637L37.9339 33.0597C37.7684 33.687 37.3491 34.0954 36.6341 34.0954C35.7889 34.0977 35.2041 33.4794 35.2041 32.4392Z" fill="#888B8D"/>
  <path d="M39.3176 30.8496H39.77L40.9484 34.0394H40.4872L40.1783 33.1688H38.8829L38.5585 34.0394H38.1348L39.3176 30.8496ZM40.0436 32.8139L39.7192 31.9121L39.5339 31.3809H39.5184L39.3331 31.901L39.0042 32.8139H40.0436Z" fill="#888B8D"/>
  <path d="M41.4556 34.0405V30.8597H41.9278L43.1857 32.6632L43.6271 33.2905H43.6337V30.8574H44.053V34.036H43.6381L42.2743 32.103L41.8771 31.5382H41.8727V34.036H41.4556V34.0405Z" fill="#888B8D"/>
  <path d="M45.9863 34.0402V30.8594H48.0673V31.2344H46.4321V32.1853H47.6414V32.558H46.4321V33.6652H48.1578V34.0402H45.9863Z" fill="#888B8D"/>
  <path d="M48.4316 34.0402L49.5571 32.3371L48.564 30.8594H49.0694L49.8506 32.0246L50.6097 30.8594H51.0776L50.0911 32.3638L51.2122 34.0402H50.7135L49.8109 32.6808L48.9127 34.0402H48.4316Z" fill="#888B8D"/>
  <path d="M51.6909 34.0402V30.8594H52.8318C53.5535 30.8594 54.0522 31.0737 54.0522 31.7723C54.0522 32.5179 53.5005 32.7165 52.8142 32.7165H52.1301V34.038H51.6909V34.0402ZM52.1301 32.375H52.8362C53.3504 32.375 53.6174 32.2255 53.6174 31.7902C53.6174 31.3705 53.357 31.2254 52.8318 31.2254H52.1301V32.375Z" fill="#888B8D"/>
  <path d="M54.5972 34.0402V30.8594H55.7601C56.5259 30.8594 56.9606 31.1339 56.9606 31.7567C56.9606 32.2835 56.6738 32.5402 56.2059 32.6272L57.007 34.0402H56.5237L55.7491 32.6764H55.0385V34.0402H54.5972ZM55.0385 32.3415H55.7403C56.2434 32.3415 56.5215 32.2076 56.5215 31.7723C56.5215 31.3594 56.2456 31.2254 55.7403 31.2254H55.0385V32.3415Z" fill="#888B8D"/>
  <path d="M57.6338 34.0402V30.8594H59.7148V31.2344H58.0796V32.1853H59.2889V32.558H58.0796V33.6652H59.8053V34.0402H57.6338Z" fill="#888B8D"/>
  <path d="M60.1318 33.2919L60.4938 33.1044C60.6372 33.524 60.9991 33.7383 61.4272 33.7383C61.8951 33.7383 62.1709 33.5553 62.1709 33.2271C62.1709 32.8187 61.8531 32.7383 61.3897 32.6088C60.8049 32.4593 60.2422 32.3298 60.2422 31.6378C60.2422 31.1111 60.6879 30.8008 61.3257 30.8008C61.9679 30.8008 62.3452 31.0954 62.5196 31.4927L62.1864 31.6959C62.0275 31.3298 61.7141 31.1646 61.3323 31.1646C60.9241 31.1646 60.6791 31.3253 60.6791 31.6267C60.6791 32.0463 61.0609 32.1155 61.5442 32.245C62.0584 32.3789 62.6167 32.5128 62.6167 33.2003C62.6167 33.8008 62.0959 34.1021 61.4162 34.1021C60.8115 34.1021 60.3393 33.8142 60.1318 33.2919Z" fill="#888B8D"/>
  <path d="M63.0449 33.2919L63.4068 33.1044C63.5503 33.524 63.9122 33.7383 64.3403 33.7383C64.8081 33.7383 65.084 33.5553 65.084 33.2271C65.084 32.8187 64.7662 32.7383 64.3028 32.6088C63.718 32.4593 63.1553 32.3298 63.1553 31.6378C63.1553 31.1111 63.601 30.8008 64.2388 30.8008C64.881 30.8008 65.2583 31.0954 65.4327 31.4927L65.0994 31.6959C64.9406 31.3298 64.6272 31.1646 64.2454 31.1646C63.8372 31.1646 63.5922 31.3253 63.5922 31.6267C63.5922 32.0463 63.974 32.1155 64.4573 32.245C64.9715 32.3789 65.5298 32.5128 65.5298 33.2003C65.5298 33.8008 65.009 34.1021 64.3293 34.1021C63.7246 34.1021 63.2524 33.8142 63.0449 33.2919Z" fill="#888B8D"/>
</svg>