<svg xmlns="http://www.w3.org/2000/svg" width="87" height="88" viewBox="0 0 87 88" fill="none">
  <path d="M25.0975 45.9433H17.9409L16.6337 49.6268H12.1802L19.6027 31.0098H23.4801L30.9026 49.6268H26.4048L25.0975 45.9433ZM21.5082 35.7139L18.9823 42.9255H24.0119L21.5082 35.7139Z" fill="#00AAA6"/>
  <path d="M37.2834 28.2575V42.9248H33.1845V28.2575H27.3794V24.6406H43.0885V28.2575H37.2834Z" fill="#00AAA6"/>
  <path d="M52.6825 45.9433H45.5259L44.2186 49.6268H39.7651L47.1876 31.0098H51.0651L58.4876 49.6268H54.0341L52.6825 45.9433ZM49.0931 35.7139L46.5673 42.9255H51.5968L49.0931 35.7139Z" fill="#00AAA6"/>
  <path d="M64.204 36.6002C64.204 37.9538 65.2232 38.2422 67.8599 38.4641C73.3326 38.9301 74.9722 40.1062 74.9722 43.9893C74.9722 47.2734 72.8451 49.9139 66.8185 49.9139C65.0017 49.9139 61.7889 49.4479 60.5039 48.8488V45.1654C61.9662 45.7423 64.4034 46.2526 66.8628 46.2526C69.854 46.2526 70.9175 45.476 70.9175 43.9893C70.9175 42.5248 69.9648 42.0588 67.3281 41.8369C61.8554 41.371 60.2158 40.1505 60.2158 36.6002C60.2158 32.9833 62.4758 30.7422 67.882 30.7422C69.6989 30.7422 72.5571 31.075 74.1302 31.7629V35.4464C72.4906 34.8251 70.2528 34.3813 67.8599 34.3813C65.1568 34.4035 64.204 35.0691 64.204 36.6002Z" fill="#00AAA6"/>
  <path d="M39.9426 60.5879C39.012 60.5879 38.303 61.3645 38.303 62.3852C38.303 63.4503 39.012 64.1826 40.0533 64.1826C40.5186 64.1826 40.9396 64.0716 41.2276 63.8497L41.2498 63.8275V63.2284L41.1612 63.295C40.8067 63.5613 40.4965 63.65 40.0533 63.65C39.4773 63.65 38.879 63.2284 38.879 62.4518H41.4049V62.0746C41.4049 61.1648 40.851 60.5879 39.9426 60.5879ZM39.0341 61.9858C39.1671 61.4311 39.5437 61.1204 40.0312 61.1204C40.5851 61.1204 40.8953 61.4089 40.9396 61.9858H39.0341ZM42.0253 64.116H42.6014V58.9902H42.0253V64.116ZM33.5614 60.5879C33.2069 60.5879 32.8303 60.6766 32.4979 60.8542L32.4757 60.8763V61.4311L32.5644 61.3867C32.8303 61.2536 33.1183 61.1204 33.5171 61.1204C33.9381 61.1204 34.1597 61.3423 34.1597 61.7195V62.0746H33.8495C32.7638 62.0746 32.1655 62.4518 32.1655 63.1397C32.1655 63.8275 32.6973 64.1826 33.7165 64.1826C34.0267 64.1826 34.4034 64.1382 34.6693 64.0494L34.7136 64.0273V61.6752C34.7357 60.9651 34.3148 60.5879 33.5614 60.5879ZM34.1597 63.65C34.0267 63.6722 33.8716 63.6944 33.7387 63.6944C33.2734 63.6944 32.7195 63.6057 32.7195 63.1397C32.7195 62.6515 33.4285 62.5627 33.8495 62.5627H34.1375V63.65H34.1597ZM28.9085 63.6944C28.5983 63.6944 28.4875 63.5391 28.4875 63.1619V61.187H29.4181V60.6988H28.4875V59.8778H27.9115V60.6988H27.4019V61.187H27.9115V63.2062C27.9115 63.8497 28.2217 64.2048 28.7977 64.2048C29.0636 64.2048 29.3073 64.1604 29.5511 64.0273L29.5732 64.0051V63.4725L29.4846 63.5169C29.2852 63.6278 29.1079 63.6944 28.9085 63.6944ZM36.6634 63.4725L35.622 60.6544H35.0238L36.3532 64.0716L36.3753 64.116H36.9514L38.303 60.6766H37.7047L36.6634 63.4725ZM31.4344 60.6101C30.9912 60.6101 30.5481 60.7432 30.1714 60.9873L30.1493 61.0095V64.116H30.7254V61.2979C30.9026 61.2092 31.1463 61.1426 31.4122 61.1426C31.5452 61.1426 31.7889 61.1426 31.9883 61.2314L32.0548 61.2536V60.6988H32.0105C31.7889 60.6323 31.6116 60.6101 31.4344 60.6101ZM46.5009 60.5879C46.1464 60.5879 45.7698 60.6766 45.4374 60.8542L45.4153 60.8763V61.4311L45.5039 61.3867C45.7698 61.2536 46.0578 61.1204 46.4566 61.1204C46.8776 61.1204 47.0992 61.3423 47.0992 61.7195V62.0746H46.789C45.7033 62.0746 45.1051 62.4518 45.1051 63.1397C45.1051 63.8275 45.6368 64.1826 46.656 64.1826C46.9662 64.1826 47.3429 64.1382 47.6088 64.0494L47.6531 64.0273V61.6752C47.6531 60.9651 47.2543 60.5879 46.5009 60.5879ZM47.077 63.65C46.9441 63.6722 46.789 63.6944 46.656 63.6944C46.1907 63.6944 45.6368 63.6057 45.6368 63.1397C45.6368 62.6515 46.3458 62.5627 46.7668 62.5627H47.0549V63.65H47.077ZM62.6975 60.721C62.4981 60.6323 62.2322 60.6101 62.0328 60.6101C60.925 60.6101 60.1495 61.3423 60.1495 62.4074C60.1495 63.5169 60.9028 64.2048 62.1436 64.2048C62.5202 64.2048 62.8969 64.1604 63.2514 64.0716H63.2957V59.0124H62.7197V60.721H62.6975ZM62.6975 63.65C62.5424 63.6722 62.3652 63.6722 62.1214 63.6722C61.2573 63.6722 60.7034 63.1841 60.7034 62.3852C60.7034 61.6086 61.213 61.0982 62.0106 61.0982C62.2765 61.0982 62.5202 61.1426 62.6753 61.2314V63.65H62.6975ZM64.3814 59.4118C64.1598 59.4118 63.9826 59.5894 63.9826 59.8112C63.9826 60.0331 64.1598 60.2107 64.3814 60.2107C64.603 60.2107 64.7802 60.0331 64.7802 59.8112C64.7802 59.5894 64.603 59.4118 64.3814 59.4118ZM49.9795 63.65C49.2262 63.65 48.7166 63.1397 48.7166 62.3852C48.7166 61.4977 49.337 61.0982 49.9352 61.0982C50.2233 61.0982 50.5556 61.2092 50.8437 61.4089L50.9323 61.4755V60.8542L50.9101 60.832C50.5999 60.6545 50.2897 60.5657 49.9352 60.5657C49.049 60.5657 48.1627 61.187 48.1627 62.363C48.1627 63.5391 49.0711 64.1604 49.9574 64.1604C50.3119 64.1604 50.6442 64.0716 50.9766 63.8941L50.9988 63.8719V63.2506L50.9101 63.295C50.5778 63.5613 50.2897 63.65 49.9795 63.65ZM69.1451 60.5879C68.2145 60.5879 67.5055 61.3645 67.5055 62.3852C67.5055 63.4503 68.2145 64.1826 69.2559 64.1826C69.7212 64.1826 70.1422 64.0716 70.4302 63.8497L70.4523 63.8275V63.2284L70.3637 63.295C70.0092 63.5613 69.699 63.65 69.2559 63.65C68.6798 63.65 68.0816 63.2284 68.0816 62.4518H70.6074V62.0746C70.6074 61.1648 70.0535 60.5879 69.1451 60.5879ZM68.1259 61.9858C68.2588 61.4311 68.6355 61.1204 69.1229 61.1204C69.6769 61.1204 69.9871 61.4089 70.0314 61.9858H68.1259ZM73.6208 58.9902V60.721C73.4214 60.6323 73.1555 60.6101 72.9561 60.6101C71.8482 60.6101 71.0727 61.3423 71.0727 62.4074C71.0727 63.5169 71.8261 64.2048 73.0668 64.2048C73.4435 64.2048 73.8202 64.1604 74.1747 64.0716H74.219V59.0124H73.6208V58.9902ZM73.6208 63.65C73.4657 63.6722 73.2884 63.6722 73.0447 63.6722C72.1806 63.6722 71.6267 63.1841 71.6267 62.3852C71.6267 61.6086 72.1363 61.0982 72.9339 61.0982C73.1998 61.0982 73.4435 61.1426 73.5986 61.2314V63.65H73.6208ZM66.6414 63.6944C66.3312 63.6944 66.2204 63.5391 66.2204 63.1619V61.187H67.151V60.6988H66.2204V59.8778H65.6443V60.6988H65.1347V61.187H65.6443V63.2062C65.6443 63.8497 65.9545 64.2048 66.5306 64.2048C66.7965 64.2048 67.0402 64.1604 67.2839 64.0273L67.3061 64.0051V63.4725L67.2175 63.5169C66.9959 63.6278 66.8408 63.6944 66.6414 63.6944ZM53.0815 63.65C52.3282 63.65 51.8186 63.1397 51.8186 62.3852C51.8186 61.4977 52.4389 61.0982 53.0372 61.0982C53.3252 61.0982 53.6576 61.2092 53.9456 61.4089L54.0342 61.4755V60.8542L54.0121 60.832C53.7019 60.6545 53.3917 60.5657 53.0372 60.5657C52.1509 60.5657 51.2646 61.187 51.2646 62.363C51.2646 63.5391 52.1731 64.1604 53.0593 64.1604C53.4138 64.1604 53.7462 64.0716 54.0785 63.8941L54.1007 63.8719V63.2506L54.0121 63.295C53.7019 63.5613 53.4138 63.65 53.0815 63.65ZM55.9619 60.6101C55.5187 60.6101 55.0756 60.7432 54.6989 60.9873L54.6768 61.0095V64.116H55.2528V61.2979C55.4301 61.2092 55.6738 61.1426 55.9397 61.1426C56.0726 61.1426 56.3164 61.1426 56.5158 61.2314L56.5823 61.2536V60.6988H56.5379C56.3385 60.6323 56.1613 60.6101 55.9619 60.6101ZM64.0934 64.116H64.6695V60.6766H64.0934V64.116ZM58.2218 60.5879C57.2913 60.5879 56.5823 61.3645 56.5823 62.3852C56.5823 63.4503 57.2913 64.1826 58.3326 64.1826C58.7979 64.1826 59.2189 64.0716 59.5069 63.8497L59.5291 63.8275V63.2284L59.4405 63.295C59.086 63.5613 58.7758 63.65 58.3326 63.65C57.7566 63.65 57.1583 63.2284 57.1583 62.4518H59.6842V62.0746C59.6842 61.1648 59.1303 60.5879 58.2218 60.5879ZM57.2026 61.9858C57.3356 61.4311 57.7122 61.1204 58.1997 61.1204C58.7536 61.1204 59.0638 61.4089 59.1081 61.9858H57.2026Z" fill="#00AAA6"/>
  <path d="M37.8818 52.7538L35.2451 50.1133L32.6085 52.7538H12.3794V55.8604H33.4061H33.6277L35.2451 54.2627L36.8404 55.8604H37.0841H74.1966V52.7538H37.8818Z" fill="#00AAA6"/>
</svg>