<svg width="250" height="34" viewBox="0 0 250 34" fill="none" xmlns="http://www.w3.org/2000/svg">
<g clip-path="url(#clip0_2118_101401)">
<path d="M1.37684 30.2394H0.449464C0.204819 30.2394 0 30.0289 0 29.7671C0 29.5054 0.19913 29.2949 0.443775 29.2949H3.27711C3.52175 29.2949 3.72657 29.5054 3.72657 29.7615C3.72657 30.0175 3.52744 30.2337 3.2828 30.2337H2.34973V33.4823C2.34973 33.7668 2.13353 33.9944 1.86613 33.9944C1.59873 33.9944 1.38253 33.7668 1.38253 33.4823V30.2337L1.37684 30.2394Z" fill="#EE2F42"/>
<path d="M4.49512 29.7611C4.49512 29.4766 4.71132 29.249 4.97872 29.249C5.24612 29.249 5.46232 29.4766 5.46232 29.7611V31.1322H7.25449V29.7611C7.25449 29.4766 7.465 29.249 7.73809 29.249C8.01118 29.249 8.22169 29.4766 8.22169 29.7611V33.482C8.22169 33.7664 8.01118 33.994 7.74378 33.994C7.47069 33.994 7.26018 33.7664 7.26018 33.482V32.0824H5.46801V33.482C5.46801 33.7664 5.2575 33.994 4.98441 33.994C4.71132 33.994 4.50081 33.7664 4.50081 33.482V29.7611H4.49512Z" fill="#EE2F42"/>
<path d="M9.34749 33.4365V29.7952C9.34749 29.5108 9.558 29.2832 9.8254 29.2832H12.2662C12.5051 29.2832 12.6986 29.488 12.6986 29.7384C12.6986 29.9887 12.5051 30.1935 12.2662 30.1935H10.3033V31.1436H11.9817C12.2206 31.1436 12.4141 31.3485 12.4141 31.5988C12.4141 31.8491 12.2206 32.054 11.9817 32.054H10.3033V33.0382H12.3003C12.5393 33.0382 12.7327 33.243 12.7327 33.4934C12.7327 33.7437 12.5393 33.9485 12.3003 33.9485H9.8254C9.55231 33.9485 9.3418 33.7266 9.3418 33.4365" fill="#EE2F42"/>
<path d="M16.6023 30.2169H15.6692C15.4245 30.2169 15.2197 30.0064 15.2197 29.7447C15.2197 29.483 15.4189 29.2725 15.6635 29.2725H18.4968C18.7415 29.2725 18.9463 29.483 18.9463 29.739C18.9463 29.995 18.7472 30.2112 18.4968 30.2112H17.5638V33.4599C17.5638 33.75 17.3476 33.9719 17.0802 33.9719C16.8128 33.9719 16.5966 33.7443 16.5966 33.4599V30.2112L16.6023 30.2169Z" fill="#EE2F42"/>
<path d="M21.6712 31.531C22.1434 31.531 22.4108 31.2636 22.4108 30.871V30.8596C22.4108 30.4216 22.1207 30.194 21.6484 30.194H20.6869V31.5367H21.6712V31.531ZM19.7197 29.7787C19.7197 29.4942 19.9359 29.2666 20.2033 29.2666H21.7338C22.297 29.2666 22.7294 29.4316 23.0196 29.7331C23.2642 29.9948 23.3951 30.359 23.4008 30.7971V30.8084C23.4008 31.5424 23.0537 31.9975 22.5189 32.2308L23.196 33.0956C23.2927 33.2208 23.3553 33.3289 23.3553 33.4882C23.3553 33.7726 23.1277 33.9604 22.8944 33.9604C22.6725 33.9604 22.5303 33.8466 22.4165 33.693L21.4721 32.4299H20.6983V33.454C20.6983 33.7385 20.4821 33.9661 20.2147 33.9661C19.9416 33.9661 19.7311 33.7385 19.7311 33.454V29.773L19.7197 29.7787Z" fill="#EE2F42"/>
<path d="M26.8142 31.9743L26.1997 30.4382L25.591 31.98H26.8142V31.9743ZM24.089 33.2715L25.6194 29.5962C25.7275 29.3401 25.9209 29.1865 26.1827 29.1865H26.2396C26.507 29.1865 26.6947 29.3401 26.8028 29.5905L28.3446 33.2602C28.3788 33.3341 28.3958 33.4024 28.3958 33.465C28.3958 33.7381 28.1967 33.96 27.935 33.96C27.7074 33.96 27.5595 33.8234 27.4685 33.6072L27.1726 32.8733H25.2325L24.9253 33.6413C24.8456 33.8405 24.6807 33.96 24.4758 33.96C24.2255 33.96 24.0264 33.7494 24.0264 33.482C24.0264 33.4081 24.0491 33.3341 24.0833 33.2602" fill="#EE2F42"/>
<path d="M29.642 33.5898L28.2083 29.9714C28.1741 29.8917 28.1514 29.8121 28.1514 29.7267C28.1514 29.4366 28.3676 29.2204 28.635 29.2204C28.8853 29.2204 29.0503 29.374 29.1243 29.5788L30.228 32.5942L31.3374 29.539C31.4 29.374 31.5707 29.2147 31.804 29.209C32.0657 29.209 32.2819 29.4252 32.2819 29.704C32.2819 29.7836 32.2591 29.869 32.2307 29.9315L30.7913 33.5898C30.6889 33.8459 30.5068 33.9995 30.2451 33.9995H30.1825C29.9151 33.9995 29.733 33.8459 29.6363 33.5955" fill="#EE2F42"/>
<path d="M33.0955 33.4023V29.7611C33.0955 29.4766 33.306 29.249 33.5734 29.249H36.0142C36.2532 29.249 36.4466 29.4538 36.4466 29.7042C36.4466 29.9602 36.2532 30.1593 36.0142 30.1593H34.0514V31.1095H35.7297C35.9687 31.1095 36.1621 31.3143 36.1621 31.5646C36.1621 31.815 35.9687 32.0198 35.7297 32.0198H34.0514V33.004H36.0483C36.2873 33.004 36.4807 33.2089 36.4807 33.4592C36.4807 33.7095 36.2873 33.9144 36.0483 33.9144H33.5734C33.3004 33.9144 33.0898 33.6925 33.0898 33.4023" fill="#EE2F42"/>
<path d="M37.374 29.7161C37.374 29.4317 37.5902 29.2041 37.8576 29.2041C38.1307 29.2041 38.3412 29.4317 38.3412 29.7161V32.9762H40.1391C40.3837 32.9762 40.5829 33.181 40.5829 33.4427C40.5829 33.7044 40.3894 33.9093 40.1448 33.9093H37.8633C37.5902 33.9093 37.3797 33.6874 37.3797 33.3972V29.7161H37.374Z" fill="#EE2F42"/>
<path d="M45.0261 31.588C45.5097 31.588 45.7942 31.2808 45.7942 30.8825V30.8711C45.7942 30.4103 45.4926 30.1657 45.0034 30.1657H44.2524V31.5937H45.0204L45.0261 31.588ZM43.2852 29.7503C43.2852 29.4659 43.5014 29.2383 43.7688 29.2383H45.083C46.1356 29.2383 46.7728 29.8926 46.7728 30.8484V30.8598C46.7728 31.9408 45.9819 32.4983 44.992 32.504H44.258V33.4314C44.258 33.7159 44.0418 33.9434 43.7744 33.9434C43.5014 33.9434 43.2908 33.7159 43.2908 33.4314V29.7503H43.2852Z" fill="#EE2F42"/>
<path d="M49.5091 31.4968C49.9813 31.4968 50.2487 31.2294 50.2487 30.8368V30.8255C50.2487 30.3874 49.9586 30.1598 49.4863 30.1598H48.5248V31.5025H49.5091V31.4968ZM47.5576 29.7445C47.5576 29.46 47.7738 29.2324 48.0412 29.2324H49.5717C50.1349 29.2324 50.5673 29.3974 50.8575 29.699C51.1021 29.9607 51.233 30.3248 51.2387 30.7629V30.7743C51.2387 31.5082 50.8916 31.9633 50.3568 32.1966L51.0339 33.0614C51.1306 33.1866 51.1932 33.2947 51.1932 33.454C51.1932 33.7384 50.9656 33.9262 50.7323 33.9262C50.5104 33.9262 50.3682 33.8124 50.2544 33.6588L49.31 32.3957H48.5362V33.4198C48.5362 33.7043 48.32 33.9319 48.0526 33.9319C47.7795 33.9319 47.569 33.7043 47.569 33.4198V29.7388L47.5576 29.7445Z" fill="#EE2F42"/>
<path d="M55.6423 31.565V31.5536C55.6423 30.7514 55.0848 30.0857 54.3053 30.0857C53.5259 30.0857 52.9854 30.74 52.9854 31.5422V31.5536C52.9854 32.3558 53.5429 33.0214 54.3224 33.0158C55.1018 33.0158 55.6423 32.3615 55.6423 31.5593M51.9727 31.5593V31.5479C51.9727 30.2223 52.9569 29.1356 54.3167 29.1299C55.6765 29.1299 56.6551 30.1995 56.6551 31.5251V31.5365C56.6551 32.8621 55.6708 33.9488 54.311 33.9545C52.9512 33.9545 51.9727 32.8849 51.9727 31.5593Z" fill="#EE2F42"/>
<path d="M57.583 29.7269C57.583 29.4424 57.7992 29.2148 58.0666 29.2148H60.5358C60.7805 29.2148 60.9739 29.4197 60.9796 29.6757C60.9796 29.9374 60.7862 30.1422 60.5415 30.1422H58.5559V31.1379H60.257C60.5017 31.1379 60.6951 31.3427 60.6951 31.6044C60.6951 31.8661 60.5017 32.0709 60.257 32.0709H58.5559V33.408C58.5559 33.6924 58.3397 33.92 58.0723 33.92C57.7992 33.92 57.5887 33.6924 57.5887 33.408V29.7269H57.583Z" fill="#EE2F42"/>
<path d="M61.7762 33.3623V29.721C61.7762 29.4366 61.9867 29.209 62.2541 29.209H64.6949C64.9338 29.209 65.1273 29.4138 65.1273 29.6641C65.1273 29.9202 64.9338 30.1193 64.6949 30.1193H62.732V31.0694H64.4104C64.6494 31.0694 64.8428 31.2742 64.8428 31.5246C64.8428 31.7749 64.6494 31.9797 64.4104 31.9797H62.732V32.964H64.729C64.968 32.964 65.1614 33.1688 65.1614 33.4192C65.1614 33.6695 64.968 33.8743 64.729 33.8743H62.2541C61.981 33.8743 61.7705 33.6524 61.7705 33.368" fill="#EE2F42"/>
<path d="M65.9692 33.3802C65.8611 33.3006 65.7871 33.1526 65.7871 32.9933C65.7871 32.7259 65.9862 32.5211 66.2366 32.5211C66.3617 32.5211 66.4528 32.5666 66.5154 32.6122C66.851 32.8739 67.2152 33.0332 67.6419 33.0332C68.0401 33.0332 68.2791 32.8682 68.2791 32.5951V32.5837C68.2791 32.322 68.1255 32.1911 67.3915 31.992C66.504 31.753 65.9293 31.4913 65.9293 30.564V30.5526C65.9293 29.7049 66.5722 29.1473 67.4712 29.1416C68.006 29.1416 68.4725 29.2895 68.8708 29.5512C68.9789 29.6195 69.087 29.7561 69.087 29.9552C69.087 30.2226 68.8878 30.4274 68.6375 30.4274C68.5408 30.4274 68.4668 30.399 68.3929 30.3534C68.0686 30.1543 67.767 30.0405 67.4655 30.0405C67.0957 30.0405 66.8965 30.2226 66.8965 30.4502V30.4615C66.8965 30.7688 67.0843 30.8655 67.8467 31.076C68.7399 31.3207 69.2463 31.662 69.2463 32.4756V32.487C69.2463 33.4144 68.5806 33.9378 67.6305 33.9378C67.0502 33.9378 66.4642 33.7557 65.9749 33.3802" fill="#EE2F42"/>
<path d="M70.0649 33.3744C69.9568 33.2947 69.8828 33.1468 69.8828 32.9875C69.8828 32.7201 70.0819 32.5153 70.3323 32.5153C70.4574 32.5153 70.5485 32.5608 70.6111 32.6063C70.9467 32.868 71.3109 33.0273 71.7376 33.0273C72.1358 33.0273 72.3748 32.8623 72.3748 32.5892V32.5778C72.3748 32.3161 72.2212 32.1853 71.4872 31.9861C70.5997 31.7472 70.025 31.4855 70.025 30.5581V30.5467C70.025 29.699 70.668 29.1414 71.5669 29.1357C72.1017 29.1357 72.5682 29.2837 72.9665 29.5454C73.0746 29.6137 73.1827 29.7502 73.1827 29.9493C73.1827 30.2167 72.9835 30.4216 72.7332 30.4216C72.6365 30.4216 72.5625 30.3931 72.4886 30.3476C72.1643 30.1485 71.8627 30.0347 71.5612 30.0347C71.1914 30.0347 70.9922 30.2167 70.9922 30.4443V30.4557C70.9922 30.7629 71.18 30.8596 71.9424 31.0701C72.8356 31.3148 73.342 31.6562 73.342 32.4697V32.4811C73.342 33.4085 72.6763 33.9319 71.7262 33.9319C71.1459 33.9319 70.5599 33.7499 70.0706 33.3744" fill="#EE2F42"/>
<path d="M74.2812 29.6644C74.2812 29.3799 74.4975 29.1523 74.7649 29.1523C75.0379 29.1523 75.2485 29.3799 75.2485 29.6644V33.3853C75.2485 33.6754 75.0379 33.8973 74.7705 33.8973C74.4974 33.8973 74.2869 33.6697 74.2869 33.3853V29.6644H74.2812Z" fill="#EE2F42"/>
<path d="M79.8914 31.5311V31.5198C79.8914 30.7176 79.3338 30.0519 78.5543 30.0576C77.7749 30.0576 77.2344 30.7119 77.2344 31.5141V31.5254C77.2344 32.3277 77.792 32.9933 78.5714 32.9933C79.3509 32.9933 79.8914 32.339 79.8914 31.5368M76.2217 31.5368V31.5254C76.2217 30.1998 77.2059 29.1131 78.5657 29.1074C79.9255 29.1018 80.9041 30.1771 80.9041 31.5027V31.5141C80.9041 32.8397 79.9198 33.9264 78.56 33.9321C77.2003 33.9321 76.2217 32.8625 76.2217 31.5368Z" fill="#EE2F42"/>
<path d="M81.8311 29.6699C81.8311 29.3854 82.0472 29.1579 82.3147 29.1579H82.4171C82.6503 29.1579 82.7869 29.2773 82.9177 29.4594L84.7896 32.0595V29.6528C84.7896 29.3741 85.0001 29.1465 85.2618 29.1465C85.5292 29.1465 85.7397 29.3741 85.7397 29.6528V33.368C85.7397 33.6525 85.5292 33.8801 85.2618 33.8801H85.2276C84.9944 33.8801 84.8578 33.7606 84.727 33.5785L82.7869 30.8874V33.3851C82.7869 33.6639 82.5764 33.8915 82.3147 33.8915C82.0472 33.8915 81.8367 33.6639 81.8367 33.3851V29.6699H81.8311Z" fill="#EE2F42"/>
<path d="M89.3464 31.8835L88.732 30.3474L88.1232 31.8892H89.3464V31.8835ZM86.6212 33.1807L88.1516 29.5053C88.2597 29.2493 88.4532 29.0957 88.7149 29.0957H88.7718C89.0392 29.0957 89.2269 29.2493 89.335 29.4997L90.8769 33.1693C90.9053 33.2433 90.9281 33.3116 90.9281 33.3741C90.9281 33.6472 90.7289 33.8691 90.4672 33.8691C90.2396 33.8691 90.0917 33.7326 90.0007 33.5164L89.7048 32.7824H87.7647L87.4575 33.5505C87.3779 33.7497 87.2129 33.8691 87.0081 33.8691C86.7577 33.8691 86.5586 33.6586 86.5586 33.3912C86.5586 33.3173 86.5814 33.2433 86.6155 33.1693" fill="#EE2F42"/>
<path d="M91.7529 29.6419C91.7529 29.3575 91.9691 29.1299 92.2365 29.1299C92.5039 29.1299 92.7201 29.3575 92.7201 29.6419V32.902H94.518C94.7626 32.902 94.9561 33.1068 94.9618 33.3685C94.9618 33.6302 94.7683 33.835 94.5237 33.835H92.2422C91.9691 33.835 91.7586 33.6131 91.7586 33.323V29.6419H91.7529Z" fill="#EE2F42"/>
<path d="M95.6274 33.3343C95.5193 33.2547 95.4453 33.1067 95.4453 32.9474C95.4453 32.68 95.6444 32.4752 95.9005 32.4752C96.0256 32.4752 96.1167 32.5207 96.1793 32.5663C96.5149 32.828 96.879 32.9873 97.3058 32.9816C97.704 32.9816 97.943 32.8166 97.943 32.5435V32.5321C97.943 32.2704 97.7894 32.1395 97.0554 31.9404C96.1679 31.7015 95.5932 31.4397 95.5932 30.5124V30.501C95.5932 29.6533 96.2361 29.0957 97.1351 29.0957C97.6699 29.0957 98.1364 29.2379 98.5347 29.5053C98.6428 29.5736 98.7509 29.7102 98.7509 29.9093C98.7509 30.1767 98.5517 30.3815 98.3014 30.3815C98.2047 30.3815 98.1307 30.3531 98.0568 30.3076C97.7325 30.1084 97.4309 29.9946 97.1294 29.9946C96.7596 29.9946 96.5604 30.1767 96.5661 30.4043V30.4156C96.5661 30.7229 96.7539 30.8196 97.5163 31.0301C98.4095 31.2748 98.9159 31.6161 98.9159 32.4297V32.4411C98.9159 33.3685 98.2502 33.8862 97.3001 33.8919C96.7197 33.8919 96.1337 33.7098 95.6444 33.3343" fill="#EE2F42"/>
<path d="M98.2848 27.0189H0.648594C0.290161 27.0189 0 26.7117 0 26.3419V18.7181C0 18.3426 0.290161 18.041 0.648594 18.041H98.2848C98.6432 18.041 98.9334 18.3426 98.9334 18.7181V26.3419C98.9334 26.7174 98.6432 27.0189 98.2848 27.0189Z" fill="#EE2F42"/>
<path d="M68.5692 21.0167H67.528C67.2549 21.0167 67.0273 20.7835 67.0273 20.499C67.0273 20.2145 67.2492 19.9756 67.528 19.9756H70.697C70.9701 19.9756 71.1977 20.2032 71.1977 20.4933C71.1977 20.7778 70.9758 21.0167 70.697 21.0167H69.6559V24.5954C69.6559 24.914 69.4169 25.1587 69.1154 25.1643C68.8138 25.1643 68.5749 24.914 68.5749 24.6011V21.0224L68.5692 21.0167Z" fill="white"/>
<path d="M74.1164 22.4676C74.6455 22.4676 74.947 22.1717 74.947 21.7393V21.7222C74.947 21.2386 74.6227 20.9883 74.0936 20.9883H73.0183V22.4676H74.1164ZM71.9316 20.5388C71.9316 20.2259 72.1706 19.9756 72.4721 19.9756H74.1846C74.8105 19.9756 75.2998 20.1576 75.6184 20.4933C75.8915 20.7778 76.0394 21.1817 76.0451 21.6653V21.6767C76.0451 22.4846 75.6582 22.9853 75.0608 23.2413L75.8175 24.1971C75.9199 24.3337 75.9939 24.4532 75.9939 24.6295C75.9939 24.9481 75.7435 25.153 75.4818 25.153C75.2372 25.153 75.0722 25.0278 74.947 24.8628L73.8888 23.4689H73.024V24.5954C73.024 24.9083 72.7851 25.1587 72.4835 25.1587C72.182 25.1587 71.943 24.9083 71.943 24.5954V20.5445L71.9316 20.5388Z" fill="white"/>
<path d="M79.7488 22.9512L79.0661 21.2557L78.3834 22.9512H79.7488ZM76.705 24.3792L78.4175 20.3284C78.537 20.0496 78.7532 19.8789 79.049 19.8789H79.1116C79.4075 19.8789 79.618 20.0496 79.7375 20.3284L81.4614 24.3736C81.4955 24.4532 81.5182 24.5272 81.5182 24.6011C81.5182 24.9027 81.2964 25.1473 81.0062 25.1473C80.7502 25.1473 80.5852 24.9937 80.4828 24.7604L80.1528 23.9525H77.9851L77.6381 24.8003C77.547 25.0221 77.365 25.153 77.1374 25.153C76.8586 25.153 76.6367 24.9197 76.6367 24.6239C76.6367 24.5442 76.6652 24.4646 76.6993 24.3792" fill="white"/>
<path d="M82.9287 24.732L81.3243 20.7437C81.2902 20.6584 81.2617 20.5674 81.2617 20.4706C81.2617 20.1577 81.5007 19.9131 81.8022 19.9131C82.081 19.9131 82.2687 20.0781 82.3541 20.3057L83.5887 23.634L84.829 20.2715C84.8973 20.0895 85.0907 19.9131 85.3467 19.9131C85.6426 19.9131 85.8815 20.1464 85.8815 20.4536C85.8815 20.5389 85.8531 20.6356 85.8246 20.7039L84.2202 24.732C84.1064 25.0108 83.9016 25.1815 83.6115 25.1815H83.5432C83.2473 25.1815 83.0425 25.0108 82.9287 24.732Z" fill="white"/>
<path d="M86.6729 24.5273V20.5162C86.6729 20.2033 86.9061 19.953 87.2077 19.9473H89.9386C90.206 19.9473 90.4222 20.1692 90.4279 20.4479C90.4279 20.7267 90.2117 20.9486 89.9443 20.9486H87.7482V21.9955H89.6257C89.8931 21.9955 90.1093 22.2173 90.115 22.4961C90.115 22.7749 89.8988 22.9968 89.6313 22.9968H87.7538V24.0778H89.9841C90.2515 24.0778 90.4734 24.2997 90.4734 24.5785C90.4734 24.8572 90.2572 25.0791 89.9898 25.0791H87.2247C86.9232 25.0791 86.6842 24.8345 86.6842 24.5159" fill="white"/>
<path d="M91.332 20.4646C91.332 20.1517 91.571 19.9014 91.8725 19.9014C92.1741 19.9014 92.413 20.1517 92.413 20.4646V24.0546H94.4214C94.6945 24.0546 94.9164 24.2822 94.9164 24.5667C94.9164 24.8512 94.7002 25.0787 94.4271 25.0787H91.8782C91.5767 25.0787 91.3377 24.8341 91.3377 24.5155V20.4646H91.332Z" fill="white"/>
<path d="M7.55556 3.81794C6.08199 3.81794 4.7336 4.42671 3.71519 5.42236V1.01306C3.7095 0.461183 3.2828 0.0117188 2.74799 0.0117188H0.955823C0.432396 0.0117187 0 0.461183 0 1.01306C0 1.56493 0.432396 2.0144 0.961513 2.0144H1.79786L1.80924 10.082V15.339C1.81493 15.8909 2.24732 16.3404 2.77644 16.3404C3.30556 16.3404 3.73226 15.8909 3.73226 15.339V10.082C3.72088 7.73796 5.44478 5.82631 7.56124 5.82062C9.67771 5.82062 11.4016 7.72658 11.4073 10.0706V15.3276C11.413 15.8795 11.8454 16.329 12.3745 16.329C12.9036 16.329 13.336 15.8795 13.3303 15.3276V10.0706C13.3189 6.61714 10.7359 3.81225 7.55556 3.81794Z" fill="#00BCE4"/>
<path d="M26.2342 10.0534C26.2342 6.56007 23.5033 3.72674 20.1579 3.73243C16.8125 3.73812 14.093 6.58283 14.0986 10.0704C14.0986 13.5638 16.8296 16.3971 20.1749 16.3971C22.0866 16.3971 24.1006 15.4413 25.3011 13.9677C25.6425 13.5467 25.5913 12.9152 25.1873 12.5567C24.7834 12.1983 24.1803 12.2495 23.8332 12.6705C22.9855 13.7174 21.5461 14.3944 20.1749 14.3944C17.8821 14.3944 16.0217 12.4657 16.0217 10.0704C16.0217 7.68089 17.8707 5.7408 20.1636 5.73511C22.1207 5.73511 23.7707 7.15177 24.2031 9.05773L16.8239 9.06911C16.7385 9.38772 16.6873 9.7234 16.693 10.0704C16.693 10.4175 16.7442 10.7532 16.8296 11.0718L25.2784 11.0604C25.8075 11.0604 26.2399 10.6109 26.2399 10.0591" fill="#00BCE4"/>
<path d="M27.9298 16.3119C27.4006 16.3119 26.9682 15.8568 26.9682 15.2935L26.9512 1.03013C26.9512 0.466873 27.3836 0.0117188 27.9127 0.0117188C28.4418 0.0117188 28.8742 0.466873 28.8742 1.03013L28.8913 15.2935C28.8913 15.8568 28.4589 16.3119 27.9354 16.3119" fill="#00BCE4"/>
<path d="M31.1036 16.3061C30.5745 16.3061 30.1421 15.8509 30.1421 15.2877L30.125 1.02427C30.125 0.461013 30.5517 0.00585938 31.0808 0.00585938C31.6099 0.00585938 32.0423 0.461013 32.0423 1.02427L32.0594 15.2877C32.0594 15.8509 31.6327 16.3061 31.1036 16.3061Z" fill="#00BCE4"/>
<path d="M39.0579 5.70678C36.7708 5.70678 34.9103 7.65256 34.9103 10.0421C34.9103 12.4317 36.7765 14.3661 39.0636 14.3661C41.3508 14.3661 43.2112 12.4203 43.2055 10.0307C43.2055 7.64687 41.3394 5.70678 39.0522 5.70678M39.0636 16.3688C35.7182 16.3688 32.9873 13.5354 32.9873 10.0421C32.9873 6.54881 35.7012 3.7041 39.0522 3.7041C42.3976 3.7041 45.1228 6.53744 45.1285 10.0251C45.1285 13.5184 42.4147 16.3631 39.0693 16.3631" fill="#00BCE4"/>
<path d="M91.0989 14.343C88.8118 14.343 86.9514 12.42 86.9457 10.0532C86.9457 7.68641 88.8004 5.7577 91.0876 5.75201C93.3747 5.75201 95.2408 7.67503 95.2408 10.0418C95.2408 12.4086 93.3861 14.3373 91.0989 14.343ZM97.9263 0H96.191C95.6619 0 95.2295 0.449465 95.2352 0.995649V5.46185C94.1542 4.4093 92.692 3.76071 91.0876 3.7664C87.7422 3.7664 85.0226 6.59404 85.0283 10.0532C85.0283 13.5181 87.7593 16.3343 91.1046 16.3286C94.45 16.3286 97.1639 13.5067 97.1639 10.0475V10.0361L97.1525 1.98561H97.9319C98.4668 1.98561 98.8935 1.54183 98.8935 0.98996C98.8935 0.438086 98.4611 0 97.9263 0Z" fill="#00BCE4"/>
<path d="M67.6302 14.3602C65.343 14.3602 63.4769 12.4258 63.4769 10.0363C63.4769 7.64671 65.3317 5.70662 67.6188 5.70093C69.906 5.70093 71.7721 7.63533 71.7778 10.0249C71.7778 12.4144 69.923 14.3545 67.6302 14.3602ZM67.6188 3.69825C64.2734 3.69825 61.5539 6.54865 61.5596 10.0363C61.5596 13.5296 64.2905 16.3629 67.6359 16.3629C70.9813 16.3629 73.7008 13.5125 73.7008 10.0192C73.7008 6.5259 70.9699 3.69256 67.6245 3.69825" fill="#00BCE4"/>
<path d="M80.4879 3.68066C77.1426 3.68066 74.423 6.53107 74.4287 10.0187V15.2757C74.4344 15.8276 74.8668 16.2771 75.3959 16.2771C75.925 16.2771 76.3517 15.8276 76.3517 15.2757V10.0187C76.3404 7.62913 78.2008 5.68903 80.4879 5.68334C81.0171 5.68334 81.4495 5.23388 81.4495 4.682C81.4495 4.12444 81.0171 3.68066 80.4879 3.68066Z" fill="#00BCE4"/>
<path d="M59.7961 3.9938C59.267 3.9938 58.8346 4.44327 58.8403 4.99514V12.0557C58.8517 12.8522 58.4477 13.5634 57.8389 13.956C57.5886 14.1267 57.3041 14.2291 57.0083 14.2746H56.9969C56.9571 14.2803 56.9173 14.286 56.8774 14.2917H56.8433C56.7978 14.2973 56.7523 14.2973 56.7011 14.2973H56.5247C56.4792 14.2973 56.4337 14.2973 56.3881 14.2973H56.354C56.3142 14.2917 56.2687 14.286 56.2288 14.2803H56.2175C55.9216 14.2348 55.6371 14.1324 55.3811 13.9617C54.7723 13.5634 54.3684 12.8636 54.3684 12.0614V7.25953C54.3627 6.70766 53.9303 6.25819 53.4012 6.25819C52.8721 6.25819 52.4397 6.70766 52.4454 7.25953V12.0614C52.4511 13.9901 53.6913 15.6173 55.3811 16.1293H55.4039C55.4721 16.1578 55.5404 16.1749 55.603 16.1919C55.6258 16.1919 55.6428 16.2033 55.6656 16.209C55.694 16.2147 55.7282 16.2204 55.7566 16.2261C55.7851 16.2318 55.8192 16.2374 55.8476 16.2431C55.8761 16.2431 55.8988 16.2545 55.9273 16.2545C55.9842 16.2602 56.0411 16.2716 56.0923 16.2773C56.1094 16.2773 56.1321 16.2773 56.1492 16.2773C56.1947 16.2773 56.2402 16.283 56.2857 16.2886C56.3085 16.2886 56.3256 16.2886 56.3426 16.2886C56.4052 16.2886 56.4621 16.2943 56.5247 16.2943H56.7067C56.7693 16.2943 56.8319 16.2943 56.8888 16.2886C56.9116 16.2886 56.9286 16.2886 56.9457 16.2886C56.9912 16.2886 57.0367 16.283 57.0822 16.2773C57.0993 16.2773 57.1164 16.2773 57.1335 16.2773C57.1903 16.2716 57.2416 16.2659 57.2984 16.2545C57.3212 16.2545 57.3496 16.2431 57.3781 16.2431C57.4065 16.2374 57.4407 16.2318 57.4691 16.2261C57.4976 16.2261 57.5317 16.2147 57.5602 16.2033C57.5829 16.2033 57.6057 16.1919 57.6227 16.1862C57.691 16.1692 57.7536 16.1521 57.8219 16.1293H57.8446C59.5287 15.6002 60.7633 13.9731 60.7633 12.0443V4.98376C60.7519 4.43189 60.3252 3.98242 59.7961 3.98242" fill="#00BCE4"/>
<path d="M52.7463 15.0539C52.3992 14.576 52.1375 14.0469 51.9782 13.4893C51.8303 13.6771 51.6539 13.8364 51.4604 13.9672C51.2101 14.1379 50.9256 14.2403 50.6298 14.2858H50.6184C50.5786 14.2915 50.5331 14.2972 50.4932 14.3029H50.4591C50.4136 14.3086 50.3681 14.3086 50.3226 14.3086H50.1405C50.095 14.3086 50.0495 14.3086 49.9983 14.3086H49.9698C49.93 14.3029 49.8845 14.2972 49.8446 14.2915H49.8333C49.5317 14.246 49.2529 14.1436 48.9969 13.9729C48.3882 13.5804 47.9842 12.8749 47.9842 12.0727V5.01208C47.9728 4.46021 47.5461 4.01074 47.0113 4.01074C46.4822 4.01074 46.0498 4.46021 46.0498 5.01208L46.0612 12.0727C46.0612 14.0014 47.3015 15.6285 48.9912 16.1406H49.014C49.0823 16.169 49.1448 16.1861 49.2131 16.2032C49.2359 16.2032 49.2529 16.2146 49.2757 16.2202C49.3042 16.2259 49.3383 16.2316 49.3667 16.2373C49.3952 16.243 49.4293 16.2487 49.4578 16.2544C49.4805 16.2544 49.509 16.2658 49.5374 16.2658C49.5943 16.2715 49.6455 16.2828 49.7024 16.2885C49.7195 16.2885 49.7365 16.2885 49.7536 16.2885C49.7991 16.2885 49.8446 16.2942 49.8902 16.2999C49.9072 16.2999 49.93 16.2999 49.9471 16.2999C50.0096 16.2999 50.0665 16.3056 50.1291 16.2999H50.3112C50.3738 16.2999 50.4307 16.2999 50.4932 16.2942C50.5103 16.2942 50.5331 16.2942 50.5501 16.2942C50.5957 16.2942 50.6412 16.2885 50.6867 16.2828C50.7037 16.2828 50.7208 16.2828 50.7379 16.2828C50.7948 16.2828 50.846 16.2715 50.9029 16.2601C50.9313 16.2601 50.9541 16.2487 50.9825 16.2487C51.011 16.243 51.0451 16.2373 51.0736 16.2316C51.102 16.2316 51.1361 16.2202 51.1646 16.2146C51.1874 16.2146 51.2101 16.2032 51.2272 16.1975C51.2955 16.1804 51.3637 16.1634 51.432 16.1406H51.4548C52.0009 15.9642 52.5073 15.6741 52.934 15.2986C52.8657 15.2189 52.7975 15.1336 52.7349 15.0482" fill="#00BCE4"/>
<path d="M83.128 16.391C82.5989 16.391 82.1665 15.9359 82.1665 15.3726L82.1494 1.10923C82.1494 0.545974 82.5761 0.0908203 83.1052 0.0908203C83.6344 0.0908203 84.0667 0.545974 84.0667 1.10923L84.0838 15.3726C84.0838 15.9359 83.6571 16.391 83.128 16.391Z" fill="#00BCE4"/>
</g>
<path d="M112.516 17.25C112.516 16.0767 112.626 14.9693 112.846 13.928C113.066 12.8867 113.433 11.9773 113.946 11.2C114.474 10.408 115.164 9.78467 116.014 9.33C116.88 8.87533 117.95 8.648 119.226 8.648C120.194 8.648 121.074 8.72867 121.866 8.89C122.673 9.03667 123.355 9.23467 123.912 9.484V12.63C123.399 12.4247 122.93 12.256 122.504 12.124C122.079 11.9773 121.676 11.8673 121.294 11.794C120.928 11.706 120.576 11.6473 120.238 11.618C119.901 11.5887 119.564 11.574 119.226 11.574C118.566 11.574 118.002 11.7207 117.532 12.014C117.078 12.3073 116.711 12.7107 116.432 13.224C116.154 13.7373 115.948 14.3387 115.816 15.028C115.699 15.7173 115.64 16.458 115.64 17.25C115.64 18.042 115.699 18.7827 115.816 19.472C115.948 20.1613 116.154 20.7627 116.432 21.276C116.711 21.7893 117.078 22.1927 117.532 22.486C118.002 22.7793 118.566 22.926 119.226 22.926C119.564 22.926 119.901 22.9113 120.238 22.882C120.576 22.8527 120.928 22.8013 121.294 22.728C121.676 22.64 122.079 22.53 122.504 22.398C122.93 22.2513 123.399 22.0753 123.912 21.87V25.016C123.355 25.2653 122.673 25.4633 121.866 25.61C121.074 25.7713 120.194 25.852 119.226 25.852C117.95 25.852 116.88 25.6247 116.014 25.17C115.164 24.7153 114.474 24.0993 113.946 23.322C113.433 22.53 113.066 21.6133 112.846 20.572C112.626 19.5307 112.516 18.4233 112.516 17.25ZM129.499 25.852H128.707C127.753 25.852 127.035 25.6393 126.551 25.214C126.067 24.7887 125.825 24.0407 125.825 22.97V14.5H128.707V22.486C128.707 22.6913 128.765 22.8453 128.883 22.948C129 23.0507 129.205 23.102 129.499 23.102V25.852ZM125.517 11.024C125.517 10.5253 125.685 10.1 126.023 9.748C126.375 9.396 126.8 9.22 127.299 9.22C127.797 9.22 128.223 9.396 128.575 9.748C128.927 10.1 129.103 10.5253 129.103 11.024C129.103 11.5227 128.927 11.948 128.575 12.3C128.223 12.6373 127.797 12.806 127.299 12.806C126.8 12.806 126.375 12.6373 126.023 12.3C125.685 11.948 125.517 11.5227 125.517 11.024ZM138.185 14.39V17.272C137.95 17.1693 137.657 17.0813 137.305 17.008C136.953 16.9347 136.608 16.898 136.271 16.898C135.845 16.898 135.464 16.942 135.127 17.03C134.789 17.118 134.518 17.2133 134.313 17.316V25.5H131.387V14.5H133.455L133.609 14.874C134.005 14.6393 134.43 14.4633 134.885 14.346C135.354 14.214 135.816 14.148 136.271 14.148C136.799 14.148 137.224 14.1773 137.547 14.236C137.869 14.2947 138.082 14.346 138.185 14.39ZM142.234 20C142.234 20.4107 142.256 20.8067 142.3 21.188C142.359 21.5547 142.461 21.8847 142.608 22.178C142.755 22.4567 142.96 22.684 143.224 22.86C143.488 23.0213 143.833 23.102 144.258 23.102C144.874 23.102 145.468 23.0433 146.04 22.926C146.627 22.8087 147.235 22.6327 147.866 22.398V25.17C147.25 25.4633 146.612 25.6467 145.952 25.72C145.307 25.808 144.742 25.852 144.258 25.852C143.319 25.852 142.527 25.7127 141.882 25.434C141.251 25.1407 140.745 24.7373 140.364 24.224C139.983 23.7107 139.704 23.0947 139.528 22.376C139.367 21.6573 139.286 20.8653 139.286 20C139.286 19.1347 139.367 18.3427 139.528 17.624C139.704 16.9053 139.983 16.2893 140.364 15.776C140.745 15.2627 141.251 14.8667 141.882 14.588C142.527 14.2947 143.319 14.148 144.258 14.148C144.742 14.148 145.307 14.192 145.952 14.28C146.612 14.3533 147.25 14.5367 147.866 14.83V17.602C147.235 17.3673 146.627 17.1913 146.04 17.074C145.468 16.9567 144.874 16.898 144.258 16.898C143.833 16.898 143.488 16.986 143.224 17.162C142.96 17.3233 142.755 17.5507 142.608 17.844C142.461 18.1227 142.359 18.4527 142.3 18.834C142.256 19.2007 142.234 19.5893 142.234 20ZM152.337 14.5V21.76C152.337 22.156 152.454 22.4787 152.689 22.728C152.924 22.9773 153.298 23.102 153.811 23.102C154.046 23.102 154.28 23.0873 154.515 23.058C154.75 23.014 154.97 22.97 155.175 22.926C155.395 22.8673 155.578 22.8087 155.725 22.75C155.886 22.6913 156.011 22.6473 156.099 22.618V14.5H159.025V25.5H156.979L156.803 25.148C156.627 25.2213 156.414 25.302 156.165 25.39C155.93 25.478 155.674 25.5513 155.395 25.61C155.131 25.6833 154.86 25.742 154.581 25.786C154.317 25.83 154.06 25.852 153.811 25.852C152.99 25.852 152.293 25.7567 151.721 25.566C151.164 25.39 150.709 25.1333 150.357 24.796C150.02 24.444 149.778 24.0187 149.631 23.52C149.484 23.0067 149.411 22.42 149.411 21.76V14.5H152.337ZM164.823 25.852H164.031C163.077 25.852 162.359 25.6393 161.875 25.214C161.391 24.7887 161.149 24.0407 161.149 22.97V9H164.031V22.486C164.031 22.6913 164.089 22.8453 164.207 22.948C164.324 23.0507 164.529 23.102 164.823 23.102V25.852ZM170.538 18.174L172.496 18.042C172.496 17.6607 172.379 17.3747 172.144 17.184C171.924 16.9933 171.55 16.898 171.022 16.898C170.465 16.898 169.827 16.964 169.108 17.096C168.404 17.228 167.752 17.3967 167.15 17.602V14.808C167.796 14.5293 168.47 14.3533 169.174 14.28C169.893 14.192 170.509 14.148 171.022 14.148C171.888 14.148 172.599 14.2433 173.156 14.434C173.728 14.6247 174.176 14.896 174.498 15.248C174.836 15.6 175.07 16.0253 175.202 16.524C175.334 17.0227 175.4 17.5727 175.4 18.174V25.5H173.354L173.178 25.17C172.782 25.3753 172.342 25.5367 171.858 25.654C171.374 25.786 170.934 25.852 170.538 25.852C169.746 25.852 169.086 25.742 168.558 25.522C168.03 25.302 167.605 25.016 167.282 24.664C166.96 24.2973 166.725 23.8793 166.578 23.41C166.446 22.926 166.38 22.4273 166.38 21.914C166.38 21.43 166.454 20.9753 166.6 20.55C166.747 20.1247 166.982 19.7433 167.304 19.406C167.627 19.0687 168.052 18.79 168.58 18.57C169.123 18.35 169.776 18.218 170.538 18.174ZM172.496 20.572L170.604 20.726C170.091 20.77 169.746 20.9093 169.57 21.144C169.394 21.3787 169.306 21.6353 169.306 21.914C169.306 22.046 169.321 22.1853 169.35 22.332C169.38 22.464 169.438 22.5887 169.526 22.706C169.614 22.8233 169.739 22.9187 169.9 22.992C170.076 23.0653 170.304 23.102 170.582 23.102C170.89 23.102 171.228 23.0433 171.594 22.926C171.976 22.8087 172.276 22.6913 172.496 22.574V20.572ZM184.058 14.39V17.272C183.823 17.1693 183.53 17.0813 183.178 17.008C182.826 16.9347 182.481 16.898 182.144 16.898C181.719 16.898 181.337 16.942 181 17.03C180.663 17.118 180.391 17.2133 180.186 17.316V25.5H177.26V14.5H179.328L179.482 14.874C179.878 14.6393 180.303 14.4633 180.758 14.346C181.227 14.214 181.689 14.148 182.144 14.148C182.672 14.148 183.097 14.1773 183.42 14.236C183.743 14.2947 183.955 14.346 184.058 14.39ZM201.598 17.25C201.598 17.998 201.568 18.7313 201.51 19.45C201.451 20.1687 201.334 20.858 201.158 21.518C200.982 22.1633 200.732 22.7573 200.41 23.3C200.102 23.8427 199.691 24.3047 199.178 24.686V24.708L203.798 25.5V28.36L193.084 25.61C192.16 25.3753 191.412 24.9867 190.84 24.444C190.282 23.8867 189.85 23.234 189.542 22.486C189.234 21.7233 189.028 20.8947 188.926 20C188.838 19.0907 188.794 18.174 188.794 17.25C188.794 16.1647 188.86 15.1087 188.992 14.082C189.138 13.0553 189.432 12.1387 189.872 11.332C190.326 10.5253 190.972 9.88 191.808 9.396C192.658 8.89733 193.788 8.648 195.196 8.648C196.604 8.648 197.726 8.89733 198.562 9.396C199.412 9.88 200.058 10.5253 200.498 11.332C200.952 12.1387 201.246 13.0553 201.378 14.082C201.524 15.1087 201.598 16.1647 201.598 17.25ZM198.474 17.25C198.474 16.502 198.437 15.7833 198.364 15.094C198.29 14.4047 198.136 13.8033 197.902 13.29C197.682 12.762 197.352 12.344 196.912 12.036C196.486 11.728 195.914 11.574 195.196 11.574C194.477 11.574 193.905 11.728 193.48 12.036C193.054 12.344 192.724 12.762 192.49 13.29C192.255 13.8033 192.101 14.4047 192.028 15.094C191.954 15.7833 191.918 16.502 191.918 17.25C191.918 17.998 191.954 18.7167 192.028 19.406C192.101 20.0953 192.255 20.704 192.49 21.232C192.724 21.7453 193.054 22.156 193.48 22.464C193.905 22.772 194.477 22.926 195.196 22.926C195.914 22.926 196.486 22.772 196.912 22.464C197.352 22.156 197.682 21.7453 197.902 21.232C198.136 20.704 198.29 20.0953 198.364 19.406C198.437 18.7167 198.474 17.998 198.474 17.25ZM206.182 14.5V21.76C206.182 22.156 206.299 22.4787 206.534 22.728C206.769 22.9773 207.143 23.102 207.656 23.102C207.891 23.102 208.125 23.0873 208.36 23.058C208.595 23.014 208.815 22.97 209.02 22.926C209.24 22.8673 209.423 22.8087 209.57 22.75C209.731 22.6913 209.856 22.6473 209.944 22.618V14.5H212.87V25.5H210.824L210.648 25.148C210.472 25.2213 210.259 25.302 210.01 25.39C209.775 25.478 209.519 25.5513 209.24 25.61C208.976 25.6833 208.705 25.742 208.426 25.786C208.162 25.83 207.905 25.852 207.656 25.852C206.835 25.852 206.138 25.7567 205.566 25.566C205.009 25.39 204.554 25.1333 204.202 24.796C203.865 24.444 203.623 24.0187 203.476 23.52C203.329 23.0067 203.256 22.42 203.256 21.76V14.5H206.182ZM218.668 18.174L220.626 18.042C220.626 17.6607 220.508 17.3747 220.274 17.184C220.054 16.9933 219.68 16.898 219.152 16.898C218.594 16.898 217.956 16.964 217.238 17.096C216.534 17.228 215.881 17.3967 215.28 17.602V14.808C215.925 14.5293 216.6 14.3533 217.304 14.28C218.022 14.192 218.638 14.148 219.152 14.148C220.017 14.148 220.728 14.2433 221.286 14.434C221.858 14.6247 222.305 14.896 222.628 15.248C222.965 15.6 223.2 16.0253 223.332 16.524C223.464 17.0227 223.53 17.5727 223.53 18.174V25.5H221.484L221.308 25.17C220.912 25.3753 220.472 25.5367 219.988 25.654C219.504 25.786 219.064 25.852 218.668 25.852C217.876 25.852 217.216 25.742 216.688 25.522C216.16 25.302 215.734 25.016 215.412 24.664C215.089 24.2973 214.854 23.8793 214.708 23.41C214.576 22.926 214.51 22.4273 214.51 21.914C214.51 21.43 214.583 20.9753 214.73 20.55C214.876 20.1247 215.111 19.7433 215.434 19.406C215.756 19.0687 216.182 18.79 216.71 18.57C217.252 18.35 217.905 18.218 218.668 18.174ZM220.626 20.572L218.734 20.726C218.22 20.77 217.876 20.9093 217.7 21.144C217.524 21.3787 217.436 21.6353 217.436 21.914C217.436 22.046 217.45 22.1853 217.48 22.332C217.509 22.464 217.568 22.5887 217.656 22.706C217.744 22.8233 217.868 22.9187 218.03 22.992C218.206 23.0653 218.433 23.102 218.712 23.102C219.02 23.102 219.357 23.0433 219.724 22.926C220.105 22.8087 220.406 22.6913 220.626 22.574V20.572ZM224.399 14.5H227.655L229.767 21.034L231.879 14.5H235.113L228.777 31H225.565L228.337 24.642L224.399 14.5Z" fill="#00BCE4"/>
<defs>
<clipPath id="clip0_2118_101401">
<rect width="98.9334" height="34" fill="white"/>
</clipPath>
</defs>
</svg>
