<svg width="140" height="50" viewBox="0 0 140 50" fill="none" xmlns="http://www.w3.org/2000/svg">
<g clip-path="url(#clip0_4057_72290)">
<path d="M1.94836 43.7349H0.636034C0.289838 43.7349 0 43.437 0 43.0667C0 42.6963 0.281787 42.3984 0.627983 42.3984H4.63741C4.98361 42.3984 5.27345 42.6963 5.27345 43.0586C5.27345 43.4209 4.99166 43.7269 4.64547 43.7269H3.32509V48.324C3.32509 48.7266 3.01915 49.0486 2.64075 49.0486C2.26235 49.0486 1.95641 48.7266 1.95641 48.324V43.7269L1.94836 43.7349Z" fill="#EE2F42"/>
<path d="M6.36035 43.0583C6.36035 42.6558 6.66629 42.3337 7.04469 42.3337C7.42309 42.3337 7.72903 42.6558 7.72903 43.0583V44.9986H10.2651V43.0583C10.2651 42.6558 10.563 42.3337 10.9495 42.3337C11.3359 42.3337 11.6338 42.6558 11.6338 43.0583V48.3237C11.6338 48.7263 11.3359 49.0483 10.9575 49.0483C10.5711 49.0483 10.2732 48.7263 10.2732 48.3237V46.3432H7.73708V48.3237C7.73708 48.7263 7.43919 49.0483 7.05274 49.0483C6.66629 49.0483 6.3684 48.7263 6.3684 48.3237V43.0583H6.36035Z" fill="#EE2F42"/>
<path d="M13.228 48.2596V43.1069C13.228 42.7044 13.5259 42.3823 13.9043 42.3823H17.3582C17.6964 42.3823 17.9701 42.6722 17.9701 43.0264C17.9701 43.3807 17.6964 43.6705 17.3582 43.6705H14.5806V45.015H16.9557C17.2938 45.015 17.5675 45.3049 17.5675 45.6591C17.5675 46.0134 17.2938 46.3032 16.9557 46.3032H14.5806V47.696H17.4065C17.7447 47.696 18.0184 47.9859 18.0184 48.3401C18.0184 48.6944 17.7447 48.9842 17.4065 48.9842H13.9043C13.5179 48.9842 13.22 48.6702 13.22 48.2596" fill="#EE2F42"/>
<path d="M23.493 43.7027H22.1727C21.8265 43.7027 21.5366 43.4048 21.5366 43.0344C21.5366 42.6641 21.8184 42.3662 22.1646 42.3662H26.174C26.5202 42.3662 26.8101 42.6641 26.8101 43.0264C26.8101 43.3887 26.5283 43.6946 26.174 43.6946H24.8537V48.2918C24.8537 48.7024 24.5477 49.0164 24.1693 49.0164C23.7909 49.0164 23.485 48.6944 23.485 48.2918V43.6946L23.493 43.7027Z" fill="#EE2F42"/>
<path d="M30.6665 45.5625C31.3348 45.5625 31.7132 45.1841 31.7132 44.6286V44.6125C31.7132 43.9925 31.3026 43.6705 30.6343 43.6705H29.2737V45.5705H30.6665V45.5625ZM27.905 43.0828C27.905 42.6802 28.211 42.3582 28.5894 42.3582H30.7551C31.5522 42.3582 32.164 42.5916 32.5746 43.0183C32.9208 43.3887 33.106 43.904 33.1141 44.5239V44.54C33.1141 45.5786 32.623 46.2227 31.8662 46.5528L32.8242 47.7765C32.9611 47.9536 33.0497 48.1066 33.0497 48.332C33.0497 48.7346 32.7276 49.0003 32.3975 49.0003C32.0835 49.0003 31.8823 48.8393 31.7212 48.6219L30.3848 46.8345H29.2898V48.2837C29.2898 48.6863 28.9839 49.0083 28.6055 49.0083C28.219 49.0083 27.9211 48.6863 27.9211 48.2837V43.0747L27.905 43.0828Z" fill="#EE2F42"/>
<path d="M37.9445 46.1904L37.075 44.0166L36.2136 46.1984H37.9445V46.1904ZM34.0881 48.026L36.2538 42.825C36.4068 42.4627 36.6805 42.2454 37.0509 42.2454H37.1314C37.5098 42.2454 37.7755 42.4627 37.9284 42.817L40.1103 48.0099C40.1586 48.1146 40.1827 48.2112 40.1827 48.2998C40.1827 48.6862 39.9009 49.0002 39.5306 49.0002C39.2085 49.0002 38.9992 48.807 38.8704 48.501L38.4517 47.4625H35.7063L35.2716 48.5493C35.1589 48.8311 34.9254 49.0002 34.6355 49.0002C34.2813 49.0002 33.9995 48.7023 33.9995 48.3239C33.9995 48.2193 34.0317 48.1146 34.08 48.0099" fill="#EE2F42"/>
<path d="M41.946 48.4767L39.9172 43.3562C39.8689 43.2435 39.8367 43.1308 39.8367 43.01C39.8367 42.5994 40.1426 42.2934 40.521 42.2934C40.8753 42.2934 41.1087 42.5108 41.2134 42.8007L42.7753 47.0677L44.3453 42.7443C44.4338 42.5108 44.6754 42.2854 45.0055 42.2773C45.3758 42.2773 45.6817 42.5833 45.6817 42.9778C45.6817 43.0905 45.6495 43.2113 45.6093 43.2998L43.5724 48.4767C43.4274 48.839 43.1698 49.0563 42.7995 49.0563H42.7109C42.3325 49.0563 42.0749 48.839 41.938 48.4847" fill="#EE2F42"/>
<path d="M46.833 48.211V43.0583C46.833 42.6558 47.1309 42.3337 47.5093 42.3337H50.9632C51.3013 42.3337 51.5751 42.6236 51.5751 42.9778C51.5751 43.3401 51.3013 43.6219 50.9632 43.6219H48.1856V44.9664H50.5606C50.8988 44.9664 51.1725 45.2563 51.1725 45.6105C51.1725 45.9648 50.8988 46.2546 50.5606 46.2546H48.1856V47.6474H51.0115C51.3497 47.6474 51.6234 47.9373 51.6234 48.2915C51.6234 48.6458 51.3497 48.9356 51.0115 48.9356H47.5093C47.1228 48.9356 46.825 48.6216 46.825 48.211" fill="#EE2F42"/>
<path d="M52.8875 42.9941C52.8875 42.5916 53.1934 42.2695 53.5718 42.2695C53.9582 42.2695 54.2561 42.5916 54.2561 42.9941V47.6074H56.8003C57.1465 47.6074 57.4282 47.8972 57.4282 48.2676C57.4282 48.6379 57.1545 48.9278 56.8083 48.9278H53.5798C53.1934 48.9278 52.8955 48.6138 52.8955 48.2032V42.9941H52.8875Z" fill="#EE2F42"/>
<path d="M63.7161 45.643C64.4004 45.643 64.803 45.2082 64.803 44.6446V44.6285C64.803 43.9764 64.3763 43.6302 63.6839 43.6302H62.6211V45.651H63.708L63.7161 45.643ZM61.2524 43.0425C61.2524 42.6399 61.5584 42.3179 61.9368 42.3179H63.7966C65.286 42.3179 66.1877 43.2437 66.1877 44.5963V44.6124C66.1877 46.1421 65.0686 46.9311 63.6678 46.9392H62.6292V48.2515C62.6292 48.6541 62.3232 48.9761 61.9448 48.9761C61.5584 48.9761 61.2605 48.6541 61.2605 48.2515V43.0425H61.2524Z" fill="#EE2F42"/>
<path d="M70.0603 45.5141C70.7286 45.5141 71.107 45.1357 71.107 44.5802V44.5641C71.107 43.9442 70.6964 43.6221 70.0281 43.6221H68.6675V45.5222H70.0603V45.5141ZM67.2988 43.0344C67.2988 42.6319 67.6048 42.3098 67.9832 42.3098H70.1489C70.946 42.3098 71.5578 42.5433 71.9684 42.97C72.3146 43.3404 72.4998 43.8556 72.5079 44.4756V44.4917C72.5079 45.5302 72.0168 46.1743 71.26 46.5044L72.218 47.7282C72.3549 47.9053 72.4435 48.0583 72.4435 48.2837C72.4435 48.6863 72.1214 48.9519 71.7913 48.9519C71.4773 48.9519 71.2761 48.7909 71.115 48.5735L69.7786 46.7862H68.6836V48.2354C68.6836 48.638 68.3777 48.96 67.9993 48.96C67.6128 48.96 67.3149 48.638 67.3149 48.2354V43.0264L67.2988 43.0344Z" fill="#EE2F42"/>
<path d="M78.7393 45.6109V45.5948C78.7393 44.4596 77.9503 43.5176 76.8473 43.5176C75.7443 43.5176 74.9795 44.4435 74.9795 45.5787V45.5948C74.9795 46.73 75.7685 47.672 76.8715 47.6639C77.9745 47.6639 78.7393 46.738 78.7393 45.6028M73.5464 45.6028V45.5867C73.5464 43.7108 74.9392 42.1731 76.8634 42.165C78.7876 42.165 80.1724 43.6786 80.1724 45.5545V45.5706C80.1724 47.4465 78.7796 48.9843 76.8554 48.9923C74.9312 48.9923 73.5464 47.4787 73.5464 45.6028Z" fill="#EE2F42"/>
<path d="M81.485 43.0102C81.485 42.6077 81.7909 42.2856 82.1693 42.2856H85.6635C86.0097 42.2856 86.2834 42.5755 86.2915 42.9378C86.2915 43.3081 86.0177 43.598 85.6715 43.598H82.8617V45.0069H85.269C85.6152 45.0069 85.8889 45.2967 85.8889 45.6671C85.8889 46.0374 85.6152 46.3273 85.269 46.3273H82.8617V48.2193C82.8617 48.6218 82.5558 48.9439 82.1774 48.9439C81.7909 48.9439 81.493 48.6218 81.493 48.2193V43.0102H81.485Z" fill="#EE2F42"/>
<path d="M87.4185 48.1546V43.0019C87.4185 42.5994 87.7163 42.2773 88.0947 42.2773H91.5486C91.8868 42.2773 92.1605 42.5672 92.1605 42.9214C92.1605 43.2837 91.8868 43.5655 91.5486 43.5655H88.771V44.91H91.1461C91.4842 44.91 91.758 45.1999 91.758 45.5541C91.758 45.9084 91.4842 46.1982 91.1461 46.1982H88.771V47.591H91.5969C91.9351 47.591 92.2088 47.8809 92.2088 48.2351C92.2088 48.5894 91.9351 48.8792 91.5969 48.8792H88.0947C87.7083 48.8792 87.4104 48.5652 87.4104 48.1627" fill="#EE2F42"/>
<path d="M93.3521 48.1789C93.1991 48.0662 93.0945 47.8569 93.0945 47.6315C93.0945 47.2531 93.3763 46.9632 93.7305 46.9632C93.9076 46.9632 94.0365 47.0276 94.125 47.0921C94.6 47.4624 95.1153 47.6878 95.7191 47.6878C96.2827 47.6878 96.6209 47.4544 96.6209 47.0679V47.0518C96.6209 46.6815 96.4035 46.4963 95.3649 46.2145C94.1089 45.8763 93.2958 45.506 93.2958 44.1937V44.1776C93.2958 42.978 94.2055 42.189 95.4776 42.1809C96.2344 42.1809 96.8946 42.3902 97.4582 42.7606C97.6111 42.8572 97.7641 43.0504 97.7641 43.3322C97.7641 43.7106 97.4823 44.0004 97.1281 44.0004C96.9912 44.0004 96.8865 43.9602 96.7819 43.8958C96.323 43.614 95.8963 43.453 95.4696 43.453C94.9462 43.453 94.6644 43.7106 94.6644 44.0327V44.0488C94.6644 44.4835 94.9301 44.6204 96.009 44.9183C97.273 45.2645 97.9895 45.7475 97.9895 46.8988V46.9149C97.9895 48.2273 97.0476 48.968 95.703 48.968C94.8818 48.968 94.0526 48.7103 93.3602 48.1789" fill="#EE2F42"/>
<path d="M99.149 48.1709C98.996 48.0582 98.8914 47.8489 98.8914 47.6234C98.8914 47.245 99.1731 46.9552 99.5274 46.9552C99.7045 46.9552 99.8333 47.0196 99.9219 47.084C100.397 47.4544 100.912 47.6798 101.516 47.6798C102.08 47.6798 102.418 47.4463 102.418 47.0599V47.0437C102.418 46.6734 102.2 46.4882 101.162 46.2064C99.9058 45.8683 99.0926 45.4979 99.0926 44.1856V44.1695C99.0926 42.9699 100.002 42.1809 101.274 42.1729C102.031 42.1729 102.691 42.3822 103.255 42.7525C103.408 42.8491 103.561 43.0424 103.561 43.3242C103.561 43.7026 103.279 43.9924 102.925 43.9924C102.788 43.9924 102.683 43.9521 102.579 43.8877C102.12 43.6059 101.693 43.4449 101.266 43.4449C100.743 43.4449 100.461 43.7026 100.461 44.0246V44.0407C100.461 44.4755 100.727 44.6123 101.806 44.9102C103.07 45.2564 103.786 45.7395 103.786 46.8908V46.9069C103.786 48.2192 102.844 48.9599 101.5 48.9599C100.679 48.9599 99.8494 48.7023 99.157 48.1709" fill="#EE2F42"/>
<path d="M105.115 42.9216C105.115 42.5191 105.421 42.197 105.799 42.197C106.186 42.197 106.484 42.5191 106.484 42.9216V48.187C106.484 48.5976 106.186 48.9116 105.807 48.9116C105.421 48.9116 105.123 48.5896 105.123 48.187V42.9216H105.115Z" fill="#EE2F42"/>
<path d="M113.053 45.5624V45.5463C113.053 44.4111 112.264 43.4691 111.161 43.4771C110.058 43.4771 109.293 44.403 109.293 45.5382V45.5543C109.293 46.6895 110.082 47.6315 111.185 47.6315C112.288 47.6315 113.053 46.7056 113.053 45.5704M107.86 45.5704V45.5543C107.86 43.6784 109.253 42.1407 111.177 42.1326C113.101 42.1245 114.486 43.6462 114.486 45.5221V45.5382C114.486 47.4141 113.093 48.9519 111.169 48.9599C109.245 48.9599 107.86 47.4463 107.86 45.5704Z" fill="#EE2F42"/>
<path d="M115.798 42.9297C115.798 42.5271 116.104 42.2051 116.483 42.2051H116.628C116.958 42.2051 117.151 42.3741 117.336 42.6318L119.985 46.3111V42.9055C119.985 42.511 120.283 42.189 120.653 42.189C121.032 42.189 121.33 42.511 121.33 42.9055V48.1629C121.33 48.5654 121.032 48.8875 120.653 48.8875H120.605C120.275 48.8875 120.082 48.7184 119.896 48.4607L117.151 44.6526V48.187C117.151 48.5815 116.853 48.9036 116.483 48.9036C116.104 48.9036 115.807 48.5815 115.807 48.187V42.9297H115.798Z" fill="#EE2F42"/>
<path d="M126.434 46.0615L125.564 43.8877L124.703 46.0695H126.434V46.0615ZM122.577 47.8971L124.743 42.6961C124.896 42.3338 125.17 42.1165 125.54 42.1165H125.621C125.999 42.1165 126.265 42.3338 126.418 42.6881L128.6 47.881C128.64 47.9857 128.672 48.0823 128.672 48.1709C128.672 48.5573 128.39 48.8713 128.02 48.8713C127.698 48.8713 127.489 48.6781 127.36 48.3721L126.941 47.3335H124.196L123.761 48.4204C123.648 48.7022 123.415 48.8713 123.125 48.8713C122.771 48.8713 122.489 48.5734 122.489 48.195C122.489 48.0903 122.521 47.9857 122.569 47.881" fill="#EE2F42"/>
<path d="M129.839 42.8896C129.839 42.4871 130.145 42.165 130.524 42.165C130.902 42.165 131.208 42.4871 131.208 42.8896V47.5029H133.752C134.098 47.5029 134.372 47.7927 134.38 48.1631C134.38 48.5334 134.107 48.8233 133.76 48.8233H130.532C130.145 48.8233 129.848 48.5093 129.848 48.0987V42.8896H129.839Z" fill="#EE2F42"/>
<path d="M135.322 48.1145C135.169 48.0018 135.065 47.7925 135.065 47.567C135.065 47.1886 135.346 46.8988 135.709 46.8988C135.886 46.8988 136.015 46.9632 136.103 47.0276C136.578 47.398 137.093 47.6234 137.697 47.6153C138.261 47.6153 138.599 47.3819 138.599 46.9954V46.9793C138.599 46.609 138.382 46.4238 137.343 46.142C136.087 45.8038 135.274 45.4335 135.274 44.1212V44.1051C135.274 42.9055 136.184 42.1165 137.456 42.1165C138.213 42.1165 138.873 42.3177 139.436 42.6961C139.589 42.7927 139.742 42.986 139.742 43.2678C139.742 43.6462 139.46 43.936 139.106 43.936C138.969 43.936 138.865 43.8957 138.76 43.8313C138.301 43.5495 137.874 43.3885 137.448 43.3885C136.924 43.3885 136.643 43.6462 136.651 43.9682V43.9843C136.651 44.4191 136.916 44.5559 137.995 44.8538C139.259 45.2 139.976 45.6831 139.976 46.8344V46.8505C139.976 48.1628 139.034 48.8955 137.689 48.9035C136.868 48.9035 136.039 48.6459 135.346 48.1145" fill="#EE2F42"/>
<path d="M139.082 39.1777H0.917822C0.410604 39.1777 0 38.743 0 38.2197V27.4312C0 26.8999 0.410604 26.4731 0.917822 26.4731H139.082C139.589 26.4731 140 26.8999 140 27.4312V38.2197C140 38.751 139.589 39.1777 139.082 39.1777Z" fill="#EE2F42"/>
<path d="M97.0316 30.684H95.5582C95.1718 30.684 94.8497 30.3539 94.8497 29.9514C94.8497 29.5488 95.1637 29.2107 95.5582 29.2107H100.043C100.429 29.2107 100.751 29.5327 100.751 29.9433C100.751 30.3459 100.437 30.684 100.043 30.684H98.5693V35.7482C98.5693 36.199 98.2312 36.5452 97.8045 36.5533C97.3778 36.5533 97.0396 36.199 97.0396 35.7562V30.6921L97.0316 30.684Z" fill="white"/>
<path d="M104.881 32.7371C105.63 32.7371 106.057 32.3184 106.057 31.7065V31.6824C106.057 30.998 105.598 30.6438 104.849 30.6438H103.328V32.7371H104.881ZM101.79 30.0077C101.79 29.5649 102.128 29.2107 102.555 29.2107H104.978C105.864 29.2107 106.556 29.4683 107.007 29.9433C107.393 30.3459 107.603 30.9175 107.611 31.6019V31.618C107.611 32.7612 107.063 33.4697 106.218 33.832L107.289 35.1846C107.434 35.3778 107.538 35.5469 107.538 35.7965C107.538 36.2473 107.184 36.5372 106.814 36.5372C106.467 36.5372 106.234 36.36 106.057 36.1266L104.559 34.154H103.336V35.7482C103.336 36.191 102.997 36.5452 102.571 36.5452C102.144 36.5452 101.806 36.191 101.806 35.7482V30.0158L101.79 30.0077Z" fill="white"/>
<path d="M112.852 33.4216L111.886 31.0223L110.92 33.4216H112.852ZM108.544 35.4424L110.968 29.71C111.137 29.3155 111.443 29.074 111.862 29.074H111.95C112.369 29.074 112.667 29.3155 112.836 29.71L115.275 35.4343C115.323 35.547 115.356 35.6517 115.356 35.7564C115.356 36.1831 115.042 36.5293 114.631 36.5293C114.269 36.5293 114.035 36.3119 113.89 35.9818L113.423 34.8385H110.356L109.865 36.0381C109.736 36.3521 109.478 36.5373 109.156 36.5373C108.762 36.5373 108.448 36.2072 108.448 35.7886C108.448 35.6759 108.488 35.5631 108.536 35.4424" fill="white"/>
<path d="M117.352 35.9413L115.082 30.2975C115.034 30.1768 114.993 30.0479 114.993 29.9111C114.993 29.4683 115.331 29.1221 115.758 29.1221C116.153 29.1221 116.418 29.3556 116.539 29.6776L118.286 34.3875L120.041 29.6293C120.138 29.3717 120.412 29.1221 120.774 29.1221C121.193 29.1221 121.531 29.4522 121.531 29.8869C121.531 30.0077 121.49 30.1446 121.45 30.2412L119.18 35.9413C119.019 36.3358 118.729 36.5774 118.318 36.5774H118.222C117.803 36.5774 117.513 36.3358 117.352 35.9413Z" fill="white"/>
<path d="M122.65 35.6515V29.9755C122.65 29.5327 122.98 29.1785 123.407 29.1704H127.271C127.649 29.1704 127.955 29.4844 127.963 29.8789C127.963 30.2734 127.658 30.5874 127.279 30.5874H124.171V32.0688H126.828C127.207 32.0688 127.513 32.3828 127.521 32.7773C127.521 33.1718 127.215 33.4858 126.836 33.4858H124.179V35.0155H127.336C127.714 35.0155 128.028 35.3295 128.028 35.724C128.028 36.1185 127.722 36.4325 127.344 36.4325H123.431C123.004 36.4325 122.666 36.0863 122.666 35.6354" fill="white"/>
<path d="M129.244 29.903C129.244 29.4602 129.582 29.106 130.009 29.106C130.435 29.106 130.773 29.4602 130.773 29.903V34.9832H133.615C134.002 34.9832 134.316 35.3053 134.316 35.7078C134.316 36.1104 134.01 36.4324 133.623 36.4324H130.017C129.59 36.4324 129.252 36.0862 129.252 35.6354V29.903H129.244Z" fill="white"/>
<path d="M10.6918 6.34564C8.60659 6.34564 6.69849 7.2071 5.25735 8.61604V2.37646C5.2493 1.59551 4.64547 0.959473 3.88866 0.959473H1.35258C0.611881 0.959473 0 1.59551 0 2.37646C0 3.15741 0.611881 3.79345 1.36063 3.79345H2.54414L2.56024 15.2099V22.649C2.56829 23.43 3.18017 24.066 3.92892 24.066C4.67767 24.066 5.2815 23.43 5.2815 22.649V15.2099C5.2654 11.8928 7.70487 9.18766 10.6999 9.17961C13.6949 9.17961 16.1343 11.8767 16.1424 15.1938V22.6329C16.1504 23.4139 16.7623 24.0499 17.5111 24.0499C18.2598 24.0499 18.8717 23.4139 18.8636 22.6329V15.1938C18.8475 10.3068 15.1924 6.33759 10.6918 6.34564Z" fill="#00BCE4"/>
<path d="M37.1236 15.1696C37.1236 10.2262 33.2591 6.21681 28.5251 6.22487C23.7911 6.23292 19.9426 10.2585 19.9507 15.1938C19.9507 20.1371 23.8152 24.1465 28.5492 24.1465C31.2544 24.1465 34.1045 22.794 35.8032 20.7087C36.2863 20.113 36.2139 19.2193 35.6422 18.7121C35.0706 18.2049 34.2172 18.2773 33.7261 18.8731C32.5265 20.3545 30.4895 21.3126 28.5492 21.3126C25.3047 21.3126 22.672 18.5833 22.672 15.1938C22.672 11.8123 25.2886 9.06689 28.5331 9.05884C31.3027 9.05884 33.6375 11.0636 34.2494 13.7607L23.8072 13.7768C23.6864 14.2276 23.6139 14.7026 23.622 15.1938C23.622 15.6849 23.6944 16.1599 23.8152 16.6107L35.771 16.5946C36.5198 16.5946 37.1317 15.9586 37.1317 15.1777" fill="#00BCE4"/>
<path d="M39.5227 24.0258C38.774 24.0258 38.1621 23.3817 38.1621 22.5846L38.1379 2.40061C38.1379 1.60356 38.7498 0.959473 39.4986 0.959473C40.2473 0.959473 40.8592 1.60356 40.8592 2.40061L40.8834 22.5846C40.8834 23.3817 40.2715 24.0258 39.5308 24.0258" fill="#00BCE4"/>
<path d="M44.0152 24.0175C43.2664 24.0175 42.6545 23.3734 42.6545 22.5763L42.6304 2.39231C42.6304 1.59526 43.2342 0.951172 43.983 0.951172C44.7317 0.951172 45.3436 1.59526 45.3436 2.39231L45.3677 22.5763C45.3677 23.3734 44.7639 24.0175 44.0152 24.0175Z" fill="#00BCE4"/>
<path d="M55.2707 9.01855C52.0341 9.01855 49.4014 11.772 49.4014 15.1535C49.4014 18.5349 52.0422 21.2723 55.2787 21.2723C58.5152 21.2723 61.1479 18.5188 61.1399 15.1374C61.1399 11.764 58.4991 9.01855 55.2626 9.01855M55.2787 24.1062C50.5447 24.1062 46.6802 20.0968 46.6802 15.1535C46.6802 10.2101 50.5205 6.18457 55.2626 6.18457C59.9966 6.18457 63.8531 10.194 63.8612 15.1293C63.8612 20.0727 60.0208 24.0982 55.2868 24.0982" fill="#00BCE4"/>
<path d="M128.914 21.2401C125.677 21.2401 123.044 18.5188 123.036 15.1696C123.036 11.8204 125.661 9.09104 128.898 9.08299C132.134 9.08299 134.775 11.8042 134.775 15.1535C134.775 18.5027 132.15 21.232 128.914 21.2401ZM138.575 0.943359H136.119C135.371 0.943359 134.759 1.57939 134.767 2.3523V8.67238C133.237 7.18294 131.168 6.26511 128.898 6.27317C124.163 6.27317 120.315 10.2745 120.323 15.1696C120.323 20.0727 124.188 24.058 128.922 24.0499C133.656 24.0499 137.496 20.0566 137.496 15.1615V15.1454L137.48 3.75318H138.583C139.34 3.75318 139.944 3.1252 139.944 2.34425C139.944 1.56329 139.332 0.943359 138.575 0.943359Z" fill="#00BCE4"/>
<path d="M95.7032 21.2645C92.4666 21.2645 89.8259 18.5271 89.8259 15.1457C89.8259 11.7642 92.4505 9.0188 95.6871 9.01075C98.9236 9.01075 101.564 11.7481 101.572 15.1296C101.572 18.511 98.9478 21.2564 95.7032 21.2645ZM95.6871 6.17677C90.953 6.17677 87.1046 10.2104 87.1127 15.1457C87.1127 20.089 90.9772 24.0984 95.7112 24.0984C100.445 24.0984 104.294 20.0649 104.294 15.1215C104.294 10.1782 100.429 6.16872 95.6951 6.17677" fill="#00BCE4"/>
<path d="M113.898 6.15234C109.164 6.15234 105.316 10.1859 105.324 15.1212V22.5604C105.332 23.3414 105.944 23.9774 106.693 23.9774C107.441 23.9774 108.045 23.3414 108.045 22.5604V15.1212C108.029 11.7398 110.662 8.99437 113.898 8.98632C114.647 8.98632 115.259 8.35029 115.259 7.56933C115.259 6.78033 114.647 6.15234 113.898 6.15234Z" fill="#00BCE4"/>
<path d="M84.6165 6.5952C83.8678 6.5952 83.2559 7.23124 83.264 8.01219V18.0036C83.2801 19.1307 82.7084 20.1371 81.847 20.6926C81.4927 20.9342 81.0902 21.0791 80.6715 21.1435H80.6554C80.5991 21.1515 80.5427 21.1596 80.4863 21.1676H80.438C80.3736 21.1757 80.3092 21.1757 80.2368 21.1757H79.9872C79.9228 21.1757 79.8584 21.1757 79.7939 21.1757H79.7456C79.6893 21.1676 79.6249 21.1596 79.5685 21.1515H79.5524C79.1338 21.0871 78.7312 20.9422 78.3689 20.7007C77.5074 20.1371 76.9358 19.1468 76.9358 18.0116V11.2165C76.9278 10.4356 76.3159 9.79953 75.5671 9.79953C74.8184 9.79953 74.2065 10.4356 74.2146 11.2165V18.0116C74.2226 20.7409 75.9777 23.0435 78.3689 23.7681H78.4011C78.4977 23.8084 78.5943 23.8325 78.6829 23.8567C78.7151 23.8567 78.7393 23.8728 78.7715 23.8808C78.8117 23.8889 78.86 23.8969 78.9003 23.905C78.9405 23.913 78.9888 23.9211 79.0291 23.9292C79.0694 23.9292 79.1016 23.9453 79.1418 23.9453C79.2223 23.9533 79.3028 23.9694 79.3753 23.9775C79.3994 23.9775 79.4316 23.9775 79.4558 23.9775C79.5202 23.9775 79.5846 23.9855 79.649 23.9936C79.6812 23.9936 79.7054 23.9936 79.7295 23.9936C79.8181 23.9936 79.8986 24.0016 79.9872 24.0016H80.2448C80.3334 24.0016 80.4219 24.0016 80.5024 23.9936C80.5346 23.9936 80.5588 23.9936 80.5829 23.9936C80.6474 23.9936 80.7118 23.9855 80.7762 23.9775C80.8003 23.9775 80.8245 23.9775 80.8486 23.9775C80.9291 23.9694 81.0016 23.9614 81.0821 23.9453C81.1143 23.9453 81.1546 23.9292 81.1948 23.9292C81.2351 23.9211 81.2834 23.913 81.3236 23.905C81.3639 23.905 81.4122 23.8889 81.4525 23.8728C81.4847 23.8728 81.5169 23.8567 81.541 23.8486C81.6376 23.8245 81.7262 23.8003 81.8228 23.7681H81.855C84.2381 23.0194 85.9852 20.7168 85.9852 17.9875V7.99609C85.9691 7.21514 85.3653 6.5791 84.6165 6.5791" fill="#00BCE4"/>
<path d="M74.6415 22.2465C74.1504 21.5702 73.78 20.8215 73.5546 20.0325C73.3453 20.2981 73.0957 20.5236 72.822 20.7088C72.4677 20.9503 72.0652 21.0952 71.6465 21.1596H71.6304C71.5741 21.1677 71.5096 21.1757 71.4533 21.1838H71.405C71.3406 21.1918 71.2762 21.1918 71.2118 21.1918H70.9541C70.8897 21.1918 70.8253 21.1918 70.7528 21.1918H70.7126C70.6562 21.1838 70.5918 21.1757 70.5355 21.1677H70.5194C70.0927 21.1033 69.6982 20.9583 69.3359 20.7168C68.4744 20.1613 67.9028 19.1629 67.9028 18.0277V8.03637C67.8867 7.25542 67.2828 6.61938 66.526 6.61938C65.7773 6.61938 65.1654 7.25542 65.1654 8.03637L65.1815 18.0277C65.1815 20.7571 66.9366 23.0597 69.3278 23.7843H69.36C69.4566 23.8245 69.5452 23.8487 69.6418 23.8728C69.674 23.8728 69.6982 23.8889 69.7304 23.897C69.7706 23.905 69.8189 23.9131 69.8592 23.9211C69.8994 23.9292 69.9477 23.9372 69.988 23.9453C70.0202 23.9453 70.0605 23.9614 70.1007 23.9614C70.1812 23.9694 70.2537 23.9855 70.3342 23.9936C70.3583 23.9936 70.3825 23.9936 70.4066 23.9936C70.4711 23.9936 70.5355 24.0016 70.5999 24.0097C70.624 24.0097 70.6562 24.0097 70.6804 24.0097C70.7689 24.0097 70.8495 24.0177 70.938 24.0097H71.1957C71.2842 24.0097 71.3647 24.0097 71.4533 24.0016C71.4774 24.0016 71.5096 24.0016 71.5338 24.0016C71.5982 24.0016 71.6626 23.9936 71.727 23.9855C71.7512 23.9855 71.7753 23.9855 71.7995 23.9855C71.88 23.9855 71.9525 23.9694 72.033 23.9533C72.0732 23.9533 72.1054 23.9372 72.1457 23.9372C72.1859 23.9292 72.2342 23.9211 72.2745 23.9131C72.3147 23.9131 72.3631 23.897 72.4033 23.8889C72.4355 23.8889 72.4677 23.8728 72.4919 23.8648C72.5885 23.8406 72.6851 23.8165 72.7817 23.7843H72.8139C73.5868 23.5347 74.3034 23.1241 74.9072 22.5927C74.8106 22.48 74.714 22.3592 74.6254 22.2385" fill="#00BCE4"/>
<path d="M117.634 24.1386C116.885 24.1386 116.273 23.4945 116.273 22.6974L116.249 2.51341C116.249 1.71635 116.853 1.07227 117.602 1.07227C118.351 1.07227 118.962 1.71635 118.962 2.51341L118.987 22.6974C118.987 23.4945 118.383 24.1386 117.634 24.1386Z" fill="#00BCE4"/>
</g>
<defs>
<clipPath id="clip0_4057_72290">
<rect width="140" height="48.1132" fill="white" transform="translate(0 0.943359)"/>
</clipPath>
</defs>
</svg>
