<svg width="87" height="88" viewBox="0 0 87 88" fill="none" xmlns="http://www.w3.org/2000/svg">
<g id="Logo / Footer">
<g id="Group">
<path id="Vector" d="M43.5593 42.5689C44.7664 41.5768 45.8981 40.2795 46.577 38.8297C45.5963 38.5244 44.5401 38.2955 43.5593 38.2955V42.5689ZM42.8049 42.4925C41.5978 41.5768 40.4662 40.2033 39.7117 38.7534C40.6925 38.3718 41.7487 38.2192 42.8049 38.2192V42.4925ZM43.5593 23.3387C44.7664 24.3308 45.8981 25.628 46.577 27.0779C45.5963 27.4595 44.5401 27.6884 43.5593 27.6884V23.3387ZM42.8049 23.3387C41.5978 24.3308 40.4662 25.628 39.7117 27.0779C40.6925 27.3831 41.7487 27.6884 42.8049 27.6884V23.3387ZM43.5593 37.4561V33.259H48.0859C48.0859 34.9379 47.6332 36.6166 46.9543 38.1428C45.8981 37.7613 44.691 37.5324 43.5593 37.4561ZM53.4423 33.259H48.9158C48.8403 35.0905 48.4631 36.7693 47.7087 38.4481C48.6894 38.906 49.5193 39.4401 50.4246 40.1269C52.2352 38.2955 53.3669 35.8536 53.4423 33.259ZM49.8211 40.5848C49.1421 39.9743 48.1613 39.4401 47.3315 39.0586C46.5016 40.5848 45.5208 41.8057 44.2383 42.8741C46.2753 42.6451 48.2368 41.882 49.8211 40.5848ZM42.8049 37.4561V33.259H38.2783C38.2783 34.9379 38.731 36.6166 39.41 38.1428C40.4662 37.7613 41.6733 37.5324 42.8049 37.4561ZM32.9219 33.259H37.4485C37.5239 35.0905 37.9011 36.693 38.6556 38.4481C37.6748 38.906 36.7695 39.4401 35.9396 40.1269C34.129 38.2955 33.0728 35.9299 32.9219 33.259ZM36.5431 40.5848C37.2976 39.9743 38.2029 39.3638 39.0328 39.0586C39.8626 40.5848 40.8434 41.8057 42.1259 42.8741C40.089 42.6451 38.1274 41.882 36.5431 40.5848ZM43.5593 28.3752V32.5722H48.0859C48.0859 30.8934 47.6332 29.2909 46.9543 27.6884C45.8981 28.07 44.691 28.2989 43.5593 28.3752ZM53.4423 32.5722H48.9158C48.8403 30.7408 48.4631 29.062 47.7087 27.4595C48.6894 27.0016 49.5947 26.4675 50.4246 25.7807C52.3107 27.6121 53.3669 30.054 53.4423 32.5722ZM49.8211 25.2465C49.0666 25.857 48.1613 26.4675 47.3315 26.7727C46.5016 25.2465 45.5208 24.0255 44.2383 22.8809C46.2753 23.1861 48.2368 23.9492 49.8211 25.2465ZM42.8049 28.3752V32.5722H38.2783C38.2783 30.8934 38.731 29.2146 39.41 27.6884C40.4662 28.07 41.6733 28.2989 42.8049 28.3752ZM32.9219 32.5722H37.4485C37.5239 30.7408 37.9011 29.1383 38.6556 27.4595C37.6748 27.0016 36.7695 26.4675 35.9396 25.7807C34.129 27.6121 33.0728 29.9777 32.9219 32.5722ZM36.5431 25.2465C37.2976 25.857 38.1274 26.4675 39.0328 26.7727C39.7872 25.2465 40.9188 24.0255 42.1259 22.8809C40.089 23.1861 38.2029 23.9492 36.5431 25.2465ZM10.4399 36.3114H30.8849C31.6394 39.9743 34.2044 43.103 39.41 45.2397C38.8064 46.9948 36.8449 48.5973 34.7325 48.5973H23.6424C21.9827 48.5973 20.6247 47.2238 20.0966 46.0791H31.3376C32.0166 45.9265 32.092 45.3923 31.3376 45.316H20.2475C18.8141 45.316 17.5316 44.0951 16.7771 42.7978H29.6779C30.3568 42.7215 30.3568 42.1873 29.6779 42.0347H16.7017C15.4192 42.0347 14.2121 40.5085 13.684 39.5165H28.0181C28.6971 39.4402 28.6971 38.7534 28.0181 38.7534H13.4577C12.326 38.7534 11.2698 37.5324 10.4399 36.3114ZM75.9243 36.3114H55.4793C54.7249 39.9743 52.1598 43.103 46.9543 45.2397C47.5578 46.9948 49.5193 48.5973 51.6317 48.5973H62.7218C64.3815 48.5973 65.7395 47.2238 66.2676 46.0791H54.9512C54.2722 45.9265 54.1968 45.3923 54.9512 45.316H66.0413C67.4747 45.316 68.7572 44.0951 69.5116 42.7978H56.6864C56.0074 42.7215 56.0074 42.1873 56.6864 42.0347H69.6625C70.9451 42.0347 72.1521 40.5085 72.6802 39.5165H58.4216C57.7426 39.4402 57.7426 38.7534 58.4216 38.7534H72.982C74.0382 38.7534 75.1699 37.5324 75.9243 36.3114ZM52.9142 64.2409L59.4777 51.1155H63.778L66.4939 64.2409H62.42L62.1937 62.7147H57.8935L57.2145 64.2409H52.9142ZM58.9497 59.9675H61.741L61.062 55.16L58.9497 59.9675ZM44.3892 64.2409L45.898 54.3969H42.1259L42.8049 51.1155H54.4231L53.7441 54.3969H50.1228L48.6894 64.2409H44.3892ZM26.811 64.2409L33.3746 51.1155H37.6748L40.3907 64.2409H36.3168L36.0905 62.7147H31.7903L31.1113 64.2409H26.811ZM32.9219 59.9675H35.7133L34.9588 55.16L32.9219 59.9675ZM19.7949 64.2409L22.4354 51.1155H26.811L24.1705 64.2409H19.7949Z" fill="#25408F"/>
</g>
</g>
</svg>
