<svg xmlns="http://www.w3.org/2000/svg" width="47" height="46" viewBox="0 0 47 46" fill="none">
  <path d="M14.8204 33.0066V31.6359C14.8437 31.179 14.5169 30.7906 14.0501 30.7678C14.0034 30.7678 13.9801 30.7678 13.9334 30.7678C13.6299 30.7449 13.3265 30.9048 13.1397 31.1561C12.9763 30.9048 12.6962 30.7449 12.3928 30.7678C12.136 30.7449 11.8793 30.882 11.7392 31.0876V30.8134H11.249V33.0066H11.7392V31.7958C11.6925 31.5217 11.9026 31.2475 12.1827 31.2247C12.2061 31.2247 12.2527 31.2247 12.2761 31.2247C12.6029 31.2247 12.7663 31.4303 12.7663 31.7958V33.0066H13.2565V31.7958C13.2098 31.5217 13.4199 31.2475 13.7 31.2247C13.7233 31.2247 13.77 31.2247 13.7933 31.2247C14.1201 31.2247 14.2835 31.4303 14.2835 31.7958V33.0066H14.8204ZM22.0798 30.8134H21.2862V30.1509H20.796V30.8134H20.3525V31.2475H20.796V32.2527C20.796 32.7553 21.0061 33.0523 21.5663 33.0523C21.7764 33.0523 21.9864 32.9838 22.1732 32.8924L22.0331 32.4812C21.8931 32.5497 21.753 32.5954 21.613 32.5954C21.3795 32.5954 21.2862 32.4583 21.2862 32.2299V31.2475H22.0798V30.8134ZM26.2347 30.7678C26.0013 30.7678 25.7679 30.882 25.6512 31.0876V30.8134H25.161V33.0066H25.6512V31.773C25.6512 31.4074 25.8146 31.2018 26.118 31.2018C26.2114 31.2018 26.3281 31.2247 26.4215 31.2475L26.5615 30.7906C26.4682 30.7906 26.3514 30.7678 26.2347 30.7678ZM19.9557 30.9962C19.6756 30.8363 19.3721 30.7678 19.0453 30.7678C18.4851 30.7678 18.1116 31.0419 18.1116 31.476C18.1116 31.8415 18.3917 32.0471 18.8819 32.1156L19.1154 32.1385C19.3721 32.1842 19.5122 32.2527 19.5122 32.3669C19.5122 32.5269 19.3254 32.6411 18.9986 32.6411C18.7419 32.6411 18.4618 32.5726 18.2517 32.4126L18.0183 32.7782C18.2984 32.9609 18.6485 33.0752 18.9753 33.0523C19.6289 33.0523 20.0024 32.7553 20.0024 32.3441C20.0024 31.9557 19.6989 31.7501 19.2321 31.6816L18.9986 31.6587C18.7886 31.6359 18.6252 31.5902 18.6252 31.4531C18.6252 31.2932 18.7886 31.2018 19.0453 31.2018C19.2787 31.2018 19.5355 31.2704 19.7456 31.3846L19.9557 30.9962ZM32.9806 30.7678C32.7472 30.7678 32.5138 30.882 32.3971 31.0876V30.8134H31.9069V33.0066H32.3971V31.773C32.3971 31.4074 32.5605 31.2018 32.8639 31.2018C32.9573 31.2018 33.074 31.2247 33.1674 31.2475L33.3074 30.7906C33.2141 30.7906 33.0973 30.7678 32.9806 30.7678ZM26.7249 31.91C26.7016 32.5269 27.1918 33.0295 27.7987 33.0523C27.8453 33.0523 27.8687 33.0523 27.9154 33.0523C28.1955 33.0752 28.4989 32.9838 28.709 32.801L28.4756 32.4126C28.3122 32.5269 28.1021 32.5954 27.892 32.6182C27.4952 32.5954 27.1918 32.2527 27.2151 31.8872C27.2384 31.5445 27.5186 31.2475 27.892 31.2247C28.1021 31.2247 28.3122 31.2932 28.4756 31.4303L28.709 31.0419C28.4756 30.8591 28.1955 30.7678 27.9154 30.7906C27.2851 30.7449 26.7716 31.2247 26.7249 31.8187C26.7249 31.8415 26.7249 31.8643 26.7249 31.91ZM31.2533 31.91V30.8134H30.7631V31.0876C30.5997 30.882 30.343 30.7678 30.0629 30.7678C29.4093 30.7906 28.9191 31.3389 28.9424 31.9786C28.9658 32.5726 29.456 33.0295 30.0629 33.0752C30.343 33.098 30.5997 32.9609 30.7631 32.7553V33.0295H31.2533V31.91ZM29.456 31.91C29.4793 31.5445 29.8061 31.2704 30.1796 31.2932C30.553 31.316 30.8332 31.6359 30.8098 32.0014C30.7865 32.3441 30.5064 32.6182 30.1329 32.6182C29.7594 32.6182 29.456 32.3441 29.456 31.9786C29.456 31.9329 29.456 31.9329 29.456 31.91ZM23.5971 30.7678C22.9435 30.7906 22.4533 31.3389 22.4766 31.9786C22.5 32.5726 23.0135 33.0523 23.6204 33.0752C23.9472 33.098 24.274 32.9838 24.5307 32.7782L24.2973 32.4355C24.1106 32.5726 23.8772 32.6639 23.6437 32.6639C23.317 32.6868 23.0135 32.4583 22.9668 32.1385H24.6241C24.6241 32.07 24.6241 32.0243 24.6241 31.9557C24.6475 31.2247 24.2273 30.7678 23.5971 30.7678ZM23.5971 31.179C23.9005 31.179 24.1573 31.4074 24.1573 31.7044H22.9902C23.0135 31.4074 23.2703 31.179 23.5971 31.179ZM35.7584 31.91V29.9453H35.2915V31.0876C35.1281 30.882 34.8714 30.7678 34.5912 30.7678C33.9377 30.7906 33.4475 31.3389 33.4708 31.9786C33.4942 32.5726 33.9844 33.0295 34.5912 33.0752C34.8714 33.098 35.1281 32.9609 35.2915 32.7553V33.0295H35.7817V31.91H35.7584ZM36.5753 32.6868C36.5987 32.6868 36.6454 32.6868 36.6687 32.7096C36.692 32.7096 36.7154 32.7325 36.7387 32.7553C36.7621 32.7782 36.7854 32.801 36.7854 32.8239C36.8088 32.8695 36.8088 32.9381 36.7854 32.9838C36.7854 33.0066 36.7621 33.0295 36.7387 33.0523C36.7154 33.0752 36.692 33.098 36.6687 33.098C36.6454 33.1208 36.622 33.1208 36.5753 33.1208C36.482 33.1208 36.4119 33.0752 36.3653 32.9838C36.3419 32.9381 36.3419 32.8695 36.3653 32.8239C36.3653 32.801 36.3886 32.7782 36.4119 32.7553C36.4353 32.7325 36.4586 32.7096 36.482 32.7096C36.5053 32.6868 36.552 32.6868 36.5753 32.6868ZM36.5753 33.0752C36.5987 33.0752 36.622 33.0752 36.6454 33.0523C36.6687 33.0523 36.692 33.0295 36.692 33.0066C36.7621 32.9381 36.7621 32.8239 36.692 32.7782C36.6687 32.7553 36.6687 32.7553 36.6454 32.7325C36.622 32.7325 36.5987 32.7096 36.5753 32.7096C36.552 32.7096 36.5287 32.7096 36.5053 32.7325C36.482 32.7325 36.4586 32.7553 36.4586 32.7782C36.3886 32.8467 36.3886 32.9609 36.4586 33.0066C36.482 33.0295 36.482 33.0295 36.5053 33.0523C36.5287 33.0523 36.552 33.0752 36.5753 33.0752ZM36.5987 32.801C36.622 32.801 36.6454 32.801 36.6687 32.8239C36.692 32.8467 36.692 32.8467 36.692 32.8695C36.692 32.8924 36.692 32.8924 36.6687 32.9152C36.6454 32.9381 36.6454 32.9381 36.622 32.9381L36.692 33.0066H36.6454L36.5753 32.9381H36.552V33.0066H36.5053V32.801H36.5987ZM36.5287 32.8239V32.8695H36.5753H36.5987V32.8467V32.8239H36.5753H36.5287ZM33.961 31.91C33.9844 31.5445 34.3111 31.2704 34.6846 31.2932C35.0581 31.316 35.3382 31.6359 35.3149 32.0014C35.2915 32.3441 35.0114 32.6182 34.6379 32.6182C34.2645 32.6182 33.961 32.3441 33.961 31.9786C33.961 31.9329 33.961 31.9329 33.961 31.91ZM17.5748 31.91V30.8134H17.0846V31.0876C16.9212 30.882 16.6644 30.7678 16.3843 30.7678C15.7307 30.7906 15.2405 31.3389 15.2639 31.9786C15.2872 32.5726 15.7774 33.0295 16.3843 33.0752C16.6644 33.098 16.9212 32.9609 17.0846 32.7553V33.0295H17.5748V31.91ZM15.7541 31.91C15.7774 31.5445 16.1042 31.2704 16.4777 31.2932C16.8512 31.316 17.1313 31.6359 17.1079 32.0014C17.0846 32.3441 16.8045 32.6182 16.431 32.6182C16.0575 32.6182 15.7541 32.3441 15.7541 31.9786C15.7541 31.9329 15.7541 31.9329 15.7541 31.91Z" fill="#231F20"/>
  <path d="M27.1687 14.1816H19.8159V27.1122H27.1687V14.1816Z" fill="#FF5F00"/>
  <path d="M20.2827 20.6462C20.2827 18.1332 21.4731 15.7344 23.4806 14.1809C19.8392 11.3709 14.5405 11.9878 11.6694 15.5745C8.79832 19.1384 9.42856 24.3244 13.0933 27.1344C16.1511 29.4875 20.4227 29.4875 23.4806 27.1344C21.4498 25.5352 20.2593 23.1592 20.2827 20.6462Z" fill="#EB001B"/>
  <path d="M37.0656 20.6462C37.0656 25.1925 33.3075 28.8706 28.6624 28.8706C26.7717 28.8706 24.951 28.2538 23.4805 27.1115C27.1219 24.3015 27.7521 19.1384 24.881 15.5517C24.4608 15.0491 23.994 14.5693 23.4805 14.1809C27.1219 11.3709 32.4205 11.9878 35.2683 15.5745C36.4354 17.0138 37.0656 18.7957 37.0656 20.6462Z" fill="#F79E1B"/>
  <path d="M36.2723 25.7417V25.4676H36.389V25.4219H36.1089V25.4676H36.2256V25.7417H36.2723ZM36.8092 25.7417V25.4219H36.7158L36.6224 25.6503L36.529 25.4219H36.459V25.7417H36.529V25.4904L36.6224 25.696H36.6924L36.7858 25.4904V25.7417H36.8092Z" fill="#F79E1B"/>
</svg>