<svg xmlns="http://www.w3.org/2000/svg" width="47" height="46" viewBox="0 0 47 46" fill="none">
  <path d="M21.3503 28.1061H18.5791L20.3218 17.6484H23.0931L21.3503 28.1061Z" fill="#0066B3"/>
  <path d="M16.2366 17.6484L13.5796 24.8346L13.2653 23.2967L12.3226 18.5991C12.3226 18.5991 12.2083 17.6484 11.0084 17.6484H6.63722L6.58008 17.8162C6.58008 17.8162 7.92285 18.0958 9.49417 19.0186L11.9226 28.1061H14.8081L19.2364 17.6484H16.2366Z" fill="#0066B3"/>
  <path d="M38.1207 28.1061H40.6634L38.4349 17.6484H36.2065C35.178 17.6484 34.9209 18.4314 34.9209 18.4314L30.7783 28.1061H33.6638L34.2352 26.5402H37.7779L38.1207 28.1061ZM35.0637 24.3872L36.5208 20.4726L37.3493 24.3872H35.0637Z" fill="#0066B3"/>
  <path d="M30.9782 20.1648L31.3782 17.9279C31.3782 17.9279 30.1497 17.4805 28.8641 17.4805C27.4927 17.4805 24.2072 18.0677 24.2072 20.9477C24.2072 23.66 28.0641 23.688 28.0641 25.114C28.0641 26.54 24.6072 26.2884 23.4644 25.3936L23.0645 27.7424C23.0645 27.7424 24.2929 28.3296 26.2071 28.3296C28.0927 28.3296 30.9782 27.3789 30.9782 24.7505C30.9782 22.0382 27.0928 21.7866 27.0928 20.5842C27.0928 19.3539 29.8069 19.5217 30.9782 20.1648Z" fill="#0066B3"/>
  <path d="M13.2653 23.2967L12.3226 18.5991C12.3226 18.5991 12.2083 17.6484 11.0084 17.6484H6.63722L6.58008 17.8162C6.58008 17.8162 8.69422 18.2356 10.6941 19.8574C12.6368 21.3673 13.2653 23.2967 13.2653 23.2967Z" fill="#FAA634"/>
</svg>