<?xml version="1.0" encoding="UTF-8"?>
<svg xmlns="http://www.w3.org/2000/svg" style="display: none;">
    <symbol xmlns="http://www.w3.org/2000/svg" viewBox="0 0 18 18" id="earth">
        <svg width="18" height="18" viewBox="0 0 18 18" fill="none" xmlns="http://www.w3.org/2000/svg">
        <path d="M7.48096 1.5C7.28418 1.50009 7.0875 1.57559 6.9375 1.72559L5.85059 2.8125L2.79346 1.93066L2.25 2.47559L4.21875 4.44434L3.51562 5.14746L2.05225 4.65967L1.5 5.21191L4.53516 8.25L5.08887 7.69629L4.60254 6.23438L5.30566 5.53125L7.27295 7.49854L7.81787 6.95508L6.9375 3.89941L8.02441 2.8125C8.32441 2.5125 8.32441 2.02634 8.02441 1.72559C7.87404 1.57521 7.67774 1.49991 7.48096 1.5ZM9.61816 1.53223C9.69916 1.76698 9.75 2.01329 9.75 2.26904C9.75 2.53379 9.69784 2.78851 9.61084 3.03076C10.4756 3.11874 11.2826 3.39632 12 3.81299V6.75C12 7.1625 12.3375 7.5 12.75 7.5H13.5V9H10.5C10.0875 9 9.75 9.3375 9.75 9.75V11.25C9.75 12.075 10.425 12.75 11.25 12.75H12V14.1885C11.1163 14.7015 10.0933 15 9 15C8.4813 15 7.98039 14.9281 7.5 14.8037V14.25C7.5 13.425 6.825 12.75 6 12.75H5.25V11.25C5.25 10.8375 4.9125 10.5 4.5 10.5H3.19629C3.07194 10.0196 3 9.5187 3 9C3 8.9475 3.00729 8.89576 3.00879 8.84326L1.65381 7.48682C1.55331 7.97582 1.5 8.48175 1.5 9C1.5 13.1355 4.8645 16.5 9 16.5C13.1355 16.5 16.5 13.1355 16.5 9C16.5 5.073 13.4649 1.84798 9.61816 1.53223Z" fill="#00BCE4"/>
    </svg>
    </symbol>
    <symbol xmlns="http://www.w3.org/2000/svg" viewBox="0 0 18 18" id="airplane-take-off">
        <svg width="18" height="18" viewBox="0 0 18 18" fill="none" xmlns="http://www.w3.org/2000/svg">
            <path d="M6.06152 2.33496L4.70361 2.74512L7.70215 7.97754L3.88184 8.98535L2.52539 7.8457L1.5 8.15186L3.42188 11.4316L15.5669 8.23389C15.5684 8.2334 15.5698 8.23291 15.5713 8.23242C15.8315 8.18631 16.0672 8.05007 16.237 7.84757C16.4068 7.64508 16.4999 7.38927 16.5 7.125C16.5 6.82663 16.3815 6.54048 16.1705 6.3295C15.9595 6.11853 15.6734 6 15.375 6C15.2771 6.00002 15.1796 6.01282 15.085 6.03809V6.03662L11.1621 7.06934L6.06152 2.33496ZM2.25 13.5V15H15.75V13.5H2.25Z" fill="#00BCE4"/>
        </svg>
    </symbol>

    <symbol xmlns="http://www.w3.org/2000/svg" viewBox="0 0 15 15" id="point-open">
        <svg width="15" height="15" viewBox="0 0 15 15" fill="none" xmlns="http://www.w3.org/2000/svg">
            <circle cx="7.5" cy="7.5" r="3.5" fill="#00BCE4"/>
            <circle opacity="0.2" cx="7.5" cy="7.5" r="7.5" fill="#00BCE4"/>
        </svg>
    </symbol>
    <symbol xmlns="http://www.w3.org/2000/svg" viewBox="0 0 16 17" id="opensite">
        <svg width="16" height="17" viewBox="0 0 16 17" fill="none" xmlns="http://www.w3.org/2000/svg">
            <path d="M3.33333 2.5C2.60462 2.5 2 3.10462 2 3.83333V13.1667C2 13.8954 2.60462 14.5 3.33333 14.5H12.6667C13.3954 14.5 14 13.8954 14 13.1667V8.5H12.6667V13.1667H3.33333V3.83333H8V2.5H3.33333ZM9.33333 2.5V3.83333H11.724L5.52865 10.0286L6.47135 10.9714L12.6667 4.77604V7.16667H14V2.5H9.33333Z" fill="#00BCE4"/>
        </svg>
    </symbol>
    <symbol xmlns="http://www.w3.org/2000/svg" viewBox="0 0 16 17" id="opensitewhite">
        <svg width="16" height="17" viewBox="0 0 16 17" fill="none" xmlns="http://www.w3.org/2000/svg">
            <path d="M3.33333 2.5C2.60462 2.5 2 3.10462 2 3.83333V13.1667C2 13.8954 2.60462 14.5 3.33333 14.5H12.6667C13.3954 14.5 14 13.8954 14 13.1667V8.5H12.6667V13.1667H3.33333V3.83333H8V2.5H3.33333ZM9.33333 2.5V3.83333H11.724L5.52865 10.0286L6.47135 10.9714L12.6667 4.77604V7.16667H14V2.5H9.33333Z" fill="#ffffff"/>
        </svg>
    </symbol>
    <symbol xmlns="http://www.w3.org/2000/svg" viewBox="0 0 24 24" id="map-point">
        <svg width="24" height="24" viewBox="0 0 24 24" fill="none" xmlns="http://www.w3.org/2000/svg">
            <path d="M14.707 2.29297L13.293 3.70703L14.3887 4.80273L8.18945 9.77539L6.70703 8.29297L5.29297 9.70703L9.09375 13.5078L3 19.5996V21H4.40039L10.4922 14.9062L14.293 18.707L15.707 17.293L14.3105 15.8965L19.2148 9.62891L20.293 10.707L21.707 9.29297L14.707 2.29297ZM15.7988 6.23633L17.7793 8.2168L12.9766 14.3594L9.72461 11.1074L15.7988 6.23633Z" fill="#141415"/>
        </svg>
    </symbol>
    <symbol xmlns="http://www.w3.org/2000/svg" viewBox="0 0 24 24" id="sortList">
        <svg width="24" height="24" viewBox="0 0 24 24" fill="none" xmlns="http://www.w3.org/2000/svg">
            <path d="M5 3C3.90694 3 3 3.90694 3 5V9C3 10.0931 3.90694 11 5 11H19C20.0931 11 21 10.0931 21 9V5C21 3.90694 20.0931 3 19 3H5ZM5 5H19V9H5V5ZM5 13C3.90694 13 3 13.9069 3 15V19C3 20.0931 3.90694 21 5 21H19C20.0931 21 21 20.0931 21 19V15C21 13.9069 20.0931 13 19 13H5ZM5 15H19V19H5V15Z" fill="#707070"/>
        </svg>
    </symbol>
    <symbol xmlns="http://www.w3.org/2000/svg" viewBox="0 0 24 24" id="mapPoint">
        <svg width="24" height="24" viewBox="0 0 24 24" fill="none" xmlns="http://www.w3.org/2000/svg">
            <path d="M12 2.00977C8.144 2.00977 5.00781 5.14791 5.00781 9.00391C5.00781 13.4869 10.9745 20.7692 11.2285 21.0762L12 22.0117L12.7715 21.0762C13.0255 20.7682 18.9922 13.4869 18.9922 9.00391C18.9922 5.14691 15.856 2.00977 12 2.00977ZM12 4.00977C14.753 4.00977 16.9922 6.25091 16.9922 9.00391C16.9922 11.7089 13.878 16.3612 12 18.8262C10.122 16.3632 7.00781 11.7129 7.00781 9.00391C7.00781 6.25091 9.247 4.00977 12 4.00977ZM12 6C10.343 6 9 7.343 9 9C9 10.657 10.343 12 12 12C13.657 12 15 10.657 15 9C15 8.695 14.9414 8.40686 14.8574 8.13086C14.6184 8.64286 14.102 9 13.5 9C12.672 9 12 8.328 12 7.5C12 6.898 12.3571 6.38158 12.8691 6.14258C12.5931 6.05858 12.305 6 12 6Z" fill="#707070"/>
        </svg>
    </symbol>
    <symbol xmlns="http://www.w3.org/2000/svg" viewBox="0 0 8 5" id="icon-select-input">
      <svg width="8" height="5" viewBox="0 0 8 5" fill="none" xmlns="http://www.w3.org/2000/svg">
        <path d="M0.706145 1.9141L3.29615 4.5041C3.68615 4.8941 4.31615 4.8941 4.70615 4.5041L7.29614 1.9141C7.92615 1.2841 7.47614 0.204102 6.58614 0.204102H1.40615C0.516145 0.204102 0.0761452 1.2841 0.706145 1.9141Z" fill="#8796AD"/>
      </svg>
    </symbol>
    <symbol xmlns="http://www.w3.org/2000/svg" viewBox="0 0 24 24" id="arrow-back">
        <svg width="24" height="24" viewBox="0 0 24 24" fill="none" xmlns="http://www.w3.org/2000/svg">
            <g id="Arrow_Back">
                <path id="Vector" d="M17.45 12.3711H5.75" stroke="#808080" stroke-miterlimit="10" stroke-linecap="round"/>
                <path id="Vector_2" d="M9.75 8.37109L5.75 12.3711L9.75 16.3711" stroke="#808080" stroke-linecap="round" stroke-linejoin="round"/>
            </g>
        </svg>
    </symbol>
    <symbol xmlns="http://www.w3.org/2000/svg" viewBox="0 0 15 16" id="open-circle">
        <svg xmlns="http://www.w3.org/2000/svg" width="15" height="16" viewBox="0 0 15 16" fill="none">
            <circle cx="7.5" cy="8" r="3.5" fill="#00BCE4"/>
            <circle opacity="0.2" cx="7.5" cy="8" r="7.5" fill="#00BCE4"/>
        </svg>
    </symbol>
    <symbol xmlns="http://www.w3.org/2000/svg" viewBox="0 0 18 18" id="hot">
        <svg width="18" height="18" viewBox="0 0 18 19" fill="none" xmlns="http://www.w3.org/2000/svg">
            <path d="M7.8 1.5C7.64087 1.5 7.48826 1.56078 7.37574 1.66898C7.26321 1.77717 7.2 1.92391 7.2 2.07692C7.2 4.99442 3 7.26923 3 11.3077C3 14.3757 6.4581 16.3592 7.67578 16.4876C7.71663 16.4959 7.75826 16.5 7.8 16.5C7.95913 16.5 8.11174 16.4392 8.22426 16.331C8.33679 16.2228 8.4 16.0761 8.4 15.9231C8.39996 15.8374 8.38005 15.7528 8.34174 15.6754C8.30343 15.598 8.24767 15.5298 8.17852 15.4757V15.4746C7.63252 15.0488 6.6 13.8137 6.6 12.6858C6.6 10.8344 8.4 10.1538 8.4 10.1538C7.3734 12.9462 10.7373 13.2835 11.4141 16.0482H11.4152C11.4448 16.1762 11.5188 16.2907 11.6251 16.3728C11.7314 16.4549 11.8636 16.4998 12 16.5C12.1264 16.4997 12.2494 16.4611 12.3516 16.3896C12.3624 16.382 12.3729 16.3741 12.3832 16.3659C12.4809 16.3049 15 14.7029 15 11.3077C15 9.92157 14.279 7.54067 13.7602 6.4861L13.759 6.48272L13.7578 6.48047C13.7136 6.37285 13.6368 6.28049 13.5373 6.21538C13.4379 6.15028 13.3203 6.11544 13.2 6.11538C13.0599 6.11551 12.9242 6.16279 12.8165 6.24903C12.7089 6.33527 12.636 6.45502 12.6105 6.58751V6.58977C12.6091 6.59607 12.3335 7.7729 11.4 8.42308C11.4 5.70483 9.35902 2.89708 8.28281 1.7355C8.26666 1.71447 8.24904 1.69452 8.23008 1.67578C8.17426 1.62031 8.10744 1.57617 8.03357 1.54597C7.95969 1.51578 7.88027 1.50015 7.8 1.5Z" fill="#ffffff"/>
        </svg>
    </symbol>
    <symbol xmlns="http://www.w3.org/2000/svg" viewBox="0 0 18 18" id="globe">
        <svg width="18" height="18" viewBox="0 0 18 18" fill="none" xmlns="http://www.w3.org/2000/svg">
            <path d="M7.48096 1.5C7.28418 1.50009 7.0875 1.57559 6.9375 1.72559L5.85059 2.8125L2.79346 1.93066L2.25 2.47559L4.21875 4.44434L3.51562 5.14746L2.05225 4.65967L1.5 5.21191L4.53516 8.25L5.08887 7.69629L4.60254 6.23438L5.30566 5.53125L7.27295 7.49854L7.81787 6.95508L6.9375 3.89941L8.02441 2.8125C8.32441 2.5125 8.32441 2.02634 8.02441 1.72559C7.87404 1.57521 7.67774 1.49991 7.48096 1.5ZM9.61816 1.53223C9.69916 1.76698 9.75 2.01329 9.75 2.26904C9.75 2.53379 9.69784 2.78851 9.61084 3.03076C10.4756 3.11874 11.2826 3.39632 12 3.81299V6.75C12 7.1625 12.3375 7.5 12.75 7.5H13.5V9H10.5C10.0875 9 9.75 9.3375 9.75 9.75V11.25C9.75 12.075 10.425 12.75 11.25 12.75H12V14.1885C11.1163 14.7015 10.0933 15 9 15C8.4813 15 7.98039 14.9281 7.5 14.8037V14.25C7.5 13.425 6.825 12.75 6 12.75H5.25V11.25C5.25 10.8375 4.9125 10.5 4.5 10.5H3.19629C3.07194 10.0196 3 9.5187 3 9C3 8.9475 3.00729 8.89576 3.00879 8.84326L1.65381 7.48682C1.55331 7.97582 1.5 8.48175 1.5 9C1.5 13.1355 4.8645 16.5 9 16.5C13.1355 16.5 16.5 13.1355 16.5 9C16.5 5.073 13.4649 1.84798 9.61816 1.53223Z" fill="#00BCE4"/>
        </svg>
    </symbol>
    <symbol xmlns="http://www.w3.org/2000/svg" viewBox="0 0 16 13" id="bed">
        <svg width="16" height="13" viewBox="0 0 16 13" fill="none" xmlns="http://www.w3.org/2000/svg">
            <path d="M2.75 0C1.92125 0 1.25 0.67125 1.25 1.5V4.70801C0.803274 4.96771 0.5 5.44579 0.5 6V12.75H2V11.25H14V12.75H15.5V6C15.5 5.44579 15.1967 4.96771 14.75 4.70801V1.5C14.75 0.67125 14.0787 0 13.25 0H2.75ZM2.75 1.5H13.25V4.5H12.5V4.125C12.5 3.08925 11.6608 2.25 10.625 2.25C9.58925 2.25 8.75 3.08925 8.75 4.125V4.5H7.25V4.125C7.25 3.08925 6.41075 2.25 5.375 2.25C4.33925 2.25 3.5 3.08925 3.5 4.125V4.5H2.75V1.5ZM2 6H14V9.75H2V6Z" fill="#00BCE4"/>
        </svg>
    </symbol>
    <symbol xmlns="http://www.w3.org/2000/svg" viewBox="0 0 18 18" id="meal">
        <svg width="18" height="18" viewBox="0 0 18 18" fill="none" xmlns="http://www.w3.org/2000/svg">
            <path d="M5.34766 -1C5.34766 0.527778 5.01888 1.12728 4.60221 1.96061C4.18555 2.79395 3.68099 3.86111 3.68099 5.66667H5.34766C5.34766 4.13889 5.67643 3.53939 6.0931 2.70605C6.50977 1.87272 7.01432 0.805556 7.01432 -1H5.34766ZM9.51432 -1C9.51432 0.527778 9.21136 0.975881 8.80469 1.63672C8.39802 2.29756 7.84766 3.21627 7.84766 4.83333H9.51432C9.51432 3.53373 9.79729 3.20244 10.224 2.50911C10.6506 1.81579 11.181 0.805556 11.181 -1H9.51432ZM13.681 -1C13.681 0.527778 13.3522 1.12728 12.9355 1.96061C12.5189 2.79395 12.0143 3.86111 12.0143 5.66667H13.681C13.681 4.13889 14.0098 3.53939 14.4264 2.70605C14.8431 1.87272 15.3477 0.805556 15.3477 -1H13.681ZM9.09766 7.33333C8.29128 7.33333 7.62006 7.72828 7.09245 8.26107C6.92622 8.2296 6.77712 8.16667 6.59766 8.16667C5.47481 8.16667 4.63821 8.90108 4.15299 9.83984C4.13336 9.83941 4.11752 9.83333 4.09766 9.83333C2.49667 9.83333 1.18099 11.149 1.18099 12.75C1.18099 12.907 1.29791 13.0163 1.32259 13.1667H-1L1.5 18.1667H15.862L16.0931 17.7061L18.362 13.1667H16.8678C16.8944 13.0146 17.0143 12.9107 17.0143 12.75C17.0143 11.149 15.6986 9.83333 14.0977 9.83333C14.0778 9.83333 14.062 9.83943 14.0423 9.83984C13.5571 8.90109 12.7205 8.16667 11.5977 8.16667C11.4182 8.16667 11.2691 8.2296 11.1029 8.26107C10.5753 7.72828 9.90403 7.33333 9.09766 7.33333ZM9.09766 9C9.54772 9 9.92655 9.23234 10.1507 9.58756L10.5153 10.1654L11.1533 9.92122C11.304 9.86355 11.4498 9.83333 11.5977 9.83333C12.2209 9.83333 12.7196 10.2775 12.8232 10.8636L12.9746 11.7214L13.8242 11.5326C13.9236 11.5105 14.0131 11.5 14.0977 11.5C14.7983 11.5 15.3477 12.0493 15.3477 12.75C15.3477 12.9037 15.2523 13.0302 15.1947 13.1667H2.99089C2.93654 13.0299 2.84766 12.9076 2.84766 12.75C2.84766 12.0493 3.39698 11.5 4.09766 11.5C4.18219 11.5 4.27175 11.5105 4.37109 11.5326L5.2207 11.7214L5.37207 10.8636C5.47567 10.2775 5.97439 9.83333 6.59766 9.83333C6.74552 9.83333 6.89128 9.86355 7.04199 9.92122L7.68001 10.1654L8.0446 9.58756C8.26876 9.23234 8.64759 9 9.09766 9ZM1.69531 14.8333H2.0306H15.6667L14.8333 16.5H2.52865L1.69531 14.8333Z" fill="#00BCE4"/>
        </svg>
    </symbol>
    <symbol xmlns="http://www.w3.org/2000/svg" viewBox="0 0 18 14" id="inclusions">
        <svg width="18" height="14" viewBox="0 0 18 14" fill="none" xmlns="http://www.w3.org/2000/svg">
            <path d="M2.33317 0.333008C1.414 0.333008 0.666504 1.08051 0.666504 1.99967V11.9997C0.666504 12.9188 1.414 13.6663 2.33317 13.6663H15.6665C16.5857 13.6663 17.3332 12.9188 17.3332 11.9997V1.99967C17.3332 1.08051 16.5857 0.333008 15.6665 0.333008H2.33317ZM2.33317 1.99967H6.49984V2.98926C6.23743 2.89462 5.95971 2.83301 5.6665 2.83301C4.2957 2.83301 3.1665 3.9622 3.1665 5.33301C3.1665 5.62621 3.22812 5.90393 3.32275 6.16634H2.33317V1.99967ZM8.1665 1.99967H15.6665V6.16634H11.3436C11.4382 5.90393 11.4998 5.62621 11.4998 5.33301C11.4998 3.9622 10.3706 2.83301 8.99984 2.83301C8.70663 2.83301 8.42891 2.89462 8.1665 2.98926V1.99967ZM5.6665 4.49967C6.13736 4.49967 6.49984 4.86215 6.49984 5.33301V6.16634H5.6665C5.19565 6.16634 4.83317 5.80387 4.83317 5.33301C4.83317 4.86215 5.19565 4.49967 5.6665 4.49967ZM8.99984 4.49967C9.4707 4.49967 9.83317 4.86215 9.83317 5.33301C9.83317 5.80387 9.4707 6.16634 8.99984 6.16634H8.1665V5.33301C8.1665 4.86215 8.52898 4.49967 8.99984 4.49967ZM2.33317 7.83301H5.32145L3.99984 9.15462L5.17822 10.333L6.49984 9.01139V11.9997H2.33317V7.83301ZM9.34489 7.83301H15.6681V11.9997H8.1665V9.01139L9.48812 10.333L10.6665 9.15462L9.34489 7.83301Z" fill="#00BCE4"/>
        </svg>
    </symbol>
    <symbol xmlns="http://www.w3.org/2000/svg" viewBox="0 0 24 24" id="cloud">
        <svg width="24" height="24" viewBox="0 0 24 24" fill="none" xmlns="http://www.w3.org/2000/svg">
            <path d="M20.2219 10.6838C20.2256 10.5919 20.2294 10.5019 20.2294 10.4138C20.2294 6.93379 17.3962 4.10254 13.9162 4.10254C11.5125 4.10254 9.31687 5.49191 8.26312 7.62191C7.7175 7.26191 7.08 7.06691 6.41062 7.06691C4.63312 7.06691 3.1725 8.45254 3.05437 10.2019C1.23937 10.8619 0 12.6038 0 14.5594C0 17.1169 2.08313 19.2 4.6425 19.2H19.7269C22.0837 19.2 24 17.2838 24 14.9269C24 12.7388 22.3463 10.9294 20.2219 10.6838Z" fill="#8796AD"/>
        </svg>
    </symbol>
    <symbol xmlns="http://www.w3.org/2000/svg" viewBox="0 0 25 24" id="world">
        <svg width="25" height="24" viewBox="0 0 25 24" fill="none" xmlns="http://www.w3.org/2000/svg">
            <path d="M12.5 2C9.24107 2 6.34869 3.57739 4.52148 6H4.5V6.02734C3.24995 7.69669 2.5 9.76038 2.5 12C2.5 17.511 6.989 22 12.5 22C18.011 22 22.5 17.511 22.5 12C22.5 6.489 18.011 2 12.5 2ZM15.5 4.58398C18.4351 5.76736 20.5 8.63265 20.5 12C20.5 14.0878 19.7006 15.9783 18.3984 17.4004C18.1426 16.5907 17.3946 16 16.5 16C15.948 16 15.5 15.552 15.5 15V13C15.5 12.448 15.052 12 14.5 12H10.5C9.948 12 9.5 11.552 9.5 11C9.5 10.448 9.948 10 10.5 10C11.052 10 11.5 9.552 11.5 9V8C11.5 7.448 11.948 7 12.5 7H13.5C14.605 7 15.5 6.105 15.5 5V4.58398ZM4.70703 10.207L9.5 15V16C9.5 17.105 10.395 18 11.5 18V19.9316C7.54577 19.4412 4.5 16.0907 4.5 12C4.5 11.3822 4.57552 10.784 4.70703 10.207Z" fill="#8796AD"/>
        </svg>
    </symbol>
    <symbol xmlns="http://www.w3.org/2000/svg" viewBox="0 0 25 24" id="airtakeoff">
        <svg width="25" height="24" viewBox="0 0 25 24" fill="none" xmlns="http://www.w3.org/2000/svg">
            <path d="M8.33203 3.11328L6.52148 3.66016L10.5195 10.6367L5.42578 11.9805L3.61719 10.4609L2.25 10.8691L4.8125 15.2422L21.0059 10.9785C21.0078 10.9779 21.0098 10.9772 21.0117 10.9766C21.3587 10.9151 21.6729 10.7334 21.8993 10.4634C22.1258 10.1934 22.2499 9.85236 22.25 9.5C22.25 9.10218 22.092 8.72064 21.8107 8.43934C21.5294 8.15804 21.1478 8 20.75 8C20.6194 8.00002 20.4894 8.0171 20.3633 8.05078V8.04883L15.1328 9.42578L8.33203 3.11328ZM3.25 18V20H21.25V18H3.25Z" fill="#8796AD"/>
        </svg>
    </symbol>
    <symbol xmlns="http://www.w3.org/2000/svg" viewBox="0 0 24 24" id="calendar">
        <svg width="24" height="24" viewBox="0 0 24 24" fill="none" xmlns="http://www.w3.org/2000/svg">
            <path d="M6 1V3H5C3.9 3 3 3.9 3 5V19C3 20.1 3.9 21 5 21H19C20.1 21 21 20.1 21 19V5C21 3.9 20.1 3 19 3H18V1H16V3H8V1H6ZM5 5H6H8H16H18H19V7H5V5ZM5 9H19V19H5V9Z" fill="#8796AD"/>
        </svg>
    </symbol>
    <symbol xmlns="http://www.w3.org/2000/svg" viewBox="0 0 25 24" id="money">
        <svg width="25" height="24" viewBox="0 0 25 24" fill="none" xmlns="http://www.w3.org/2000/svg">
            <path d="M12.75 1.3623C11.7393 1.3623 10.7292 1.68551 9.92969 2.33301H6.77344L7.91797 8.56152C6.05093 10.2501 2.75 13.8592 2.75 18.333C2.75 20.335 3.35855 21.9256 4.56055 23.0596L4.84961 23.333H20.6504L20.9395 23.0596C22.1405 21.9246 22.75 20.335 22.75 18.333C22.75 13.8635 19.451 10.2538 17.584 8.56348L18.7285 2.33301H15.5703C14.7708 1.68551 13.7607 1.3623 12.75 1.3623ZM12.75 3.35645C13.3855 3.35645 14.0202 3.58635 14.4922 4.04785L14.7852 4.33301H16.3262L15.7754 7.33301H9.72461L9.17383 4.33301H10.7148L11.0078 4.04785C11.4798 3.58635 12.1145 3.35645 12.75 3.35645ZM10.0918 9.33301H15.4102C16.4902 10.194 20.75 13.872 20.75 18.333C20.75 19.616 20.4462 20.602 19.8242 21.333H13.2734V20.4209C13.5824 20.3819 15.3262 20.0957 15.3262 17.9717C15.3262 15.0467 12.1709 15.6065 12.1719 13.8115C12.1719 12.7835 12.6704 12.751 12.8594 12.751C13.1014 12.751 13.6152 12.9472 13.6152 14.2002H15.3398C15.3398 11.8022 13.7002 11.43 13.4082 11.374V10.0459H12.4883V11.3506C12.1793 11.3896 10.4473 11.7147 10.4473 13.8037C10.4473 16.8517 13.6035 15.9494 13.6035 17.9834C13.6035 19.0014 12.9445 19.0264 12.8105 19.0264C12.6885 19.0264 11.8848 19.0902 11.8848 17.5322H10.1602C10.1602 20.1712 12.0744 20.3819 12.3594 20.4209V21.333H5.67383C5.05283 20.602 4.75 19.616 4.75 18.333C4.75 13.885 9.0118 10.196 10.0918 9.33301Z" fill="#8796AD"/>
    <symbol xmlns="http://www.w3.org/2000/svg" viewBox="0 0 18 18" id="chain">
        <svg width="18" height="18" viewBox="0 0 18 18" fill="none" xmlns="http://www.w3.org/2000/svg">
            <path d="M4.5 2.25C3.26624 2.25 2.25 3.26624 2.25 4.5C2.25 5.73376 3.26624 6.75 4.5 6.75C5.46987 6.75 6.29636 6.118 6.60938 5.25H12.75C13.5875 5.25 14.25 5.9125 14.25 6.75C14.25 7.5875 13.5875 8.25 12.75 8.25H5.25C3.602 8.25 2.25 9.602 2.25 11.25V12H2.40234C2.74461 13.2798 3.8673 14.25 5.25 14.25H11.3906C11.7036 15.118 12.5301 15.75 13.5 15.75C14.7338 15.75 15.75 14.7338 15.75 13.5C15.75 12.2662 14.7338 11.25 13.5 11.25C12.5301 11.25 11.7036 11.882 11.3906 12.75H5.25C4.4125 12.75 3.75 12.0875 3.75 11.25C3.75 10.4125 4.4125 9.75 5.25 9.75H12.75C14.1327 9.75 15.2554 8.77977 15.5977 7.5H15.75V6.75C15.75 5.102 14.398 3.75 12.75 3.75H6.60938C6.29636 2.882 5.46987 2.25 4.5 2.25ZM4.5 3.75C4.9231 3.75 5.25 4.0769 5.25 4.5C5.25 4.9231 4.9231 5.25 4.5 5.25C4.0769 5.25 3.75 4.9231 3.75 4.5C3.75 4.0769 4.0769 3.75 4.5 3.75ZM13.5 12.75C13.9231 12.75 14.25 13.0769 14.25 13.5C14.25 13.9231 13.9231 14.25 13.5 14.25C13.0769 14.25 12.75 13.9231 12.75 13.5C12.75 13.0769 13.0769 12.75 13.5 12.75Z" fill="#00BCE4"/>
        </svg>
    </symbol>
    <symbol xmlns="http://www.w3.org/2000/svg" viewBox="0 0 18 18" id="hand">
        <svg width="18" height="18" viewBox="0 0 18 18" fill="none" xmlns="http://www.w3.org/2000/svg">
            <path d="M10.4941 3.00693C10.1614 3.00995 9.83005 3.0827 9.52148 3.2252L8.37012 3.75693C8.33034 3.75128 8.29017 3.74883 8.25 3.74961H1.5V11.2496H2.25L6.80713 15.2369C7.18073 15.5644 7.66176 15.7437 8.15771 15.7437C8.70043 15.7437 9.22334 15.5263 9.60645 15.1432H9.60791L11.9927 12.7496C11.9951 12.7496 11.9976 12.7496 12 12.7496H17.25V3.45957L14.2866 4.44688L11.4712 3.20762C11.1599 3.07061 10.8269 3.00392 10.4941 3.00693ZM10.5073 4.50693C10.6297 4.5056 10.753 4.52968 10.8677 4.58018L14.2134 6.05234L15.75 5.54111V11.2496H13.4868L13.6289 11.1075C14.4775 10.2566 14.4268 8.83775 13.522 8.04746L10.6553 5.54404L8.23389 6.42734H8.23242C7.89183 6.55151 7.52662 6.40792 7.35938 6.08604L7.27148 5.91758L10.1499 4.5875C10.2636 4.535 10.385 4.50826 10.5073 4.50693ZM3 5.24961H5.23389L6.02783 6.77744C6.53709 7.75756 7.70871 8.21486 8.74658 7.83652L10.3359 7.25645L12.5361 9.17686C12.8043 9.41107 12.8178 9.79682 12.5669 10.0484H12.5654L8.5459 14.0826C8.4385 14.19 8.3095 14.2438 8.15771 14.2438C8.02367 14.2438 7.8963 14.197 7.7959 14.109L3 9.91221V5.24961Z" fill="#00BCE4"/>
        </svg>
    </symbol>
    <symbol xmlns="http://www.w3.org/2000/svg" viewBox="0 0 24 24" id="listview">
        <svg width="24" height="24" viewBox="0 0 24 24" fill="none" xmlns="http://www.w3.org/2000/svg">
            <path d="M5 3C3.90694 3 3 3.90694 3 5V9C3 10.0931 3.90694 11 5 11H19C20.0931 11 21 10.0931 21 9V5C21 3.90694 20.0931 3 19 3H5ZM5 5H19V9H5V5ZM5 13C3.90694 13 3 13.9069 3 15V19C3 20.0931 3.90694 21 5 21H19C20.0931 21 21 20.0931 21 19V15C21 13.9069 20.0931 13 19 13H5ZM5 15H19V19H5V15Z" fill="#707070"/>
        </svg>
    </symbol>
    <symbol xmlns="http://www.w3.org/2000/svg" viewBox="0 0 24 24" id="gridview">
        <svg width="24" height="24" viewBox="0 0 24 24" fill="none" xmlns="http://www.w3.org/2000/svg">
            <path d="M5 3C3.90694 3 3 3.90694 3 5V9C3 10.0931 3.90694 11 5 11H9C10.0931 11 11 10.0931 11 9V5C11 3.90694 10.0931 3 9 3H5ZM15 3C13.9069 3 13 3.90694 13 5V9C13 10.0931 13.9069 11 15 11H19C20.0931 11 21 10.0931 21 9V5C21 3.90694 20.0931 3 19 3H15ZM5 5H9V9H5V5ZM15 5H19V9H15V5ZM5 13C3.90694 13 3 13.9069 3 15V19C3 20.0931 3.90694 21 5 21H9C10.0931 21 11 20.0931 11 19V15C11 13.9069 10.0931 13 9 13H5ZM15 13C13.9069 13 13 13.9069 13 15V19C13 20.0931 13.9069 21 15 21H19C20.0931 21 21 20.0931 21 19V15C21 13.9069 20.0931 13 19 13H15ZM5 15H9V19H5V15ZM15 15H19V19H15V15Z" fill="#141415"/>
        </svg>
    </symbol>
     <symbol xmlns="http://www.w3.org/2000/svg" viewBox="0 0 24 24" id="download">
        <svg width="24" height="24" viewBox="0 0 24 24" fill="none" xmlns="http://www.w3.org/2000/svg">
            <path d="M10.9996 2C10.4476 2 9.99959 2.448 9.99959 3V11H6.49959C6.36699 11 6.23981 11.0527 6.14604 11.1464C6.05227 11.2402 5.99959 11.3674 5.99959 11.5C5.99961 11.6326 6.05231 11.7598 6.14608 11.8535C6.15607 11.8637 6.1665 11.8735 6.17733 11.8828L11.2828 16.6973L11.316 16.7285C11.5011 16.9026 11.7455 16.9996 11.9996 17C12.2537 16.9996 12.4981 16.9026 12.6832 16.7285L12.6969 16.7168C12.7001 16.7129 12.7034 16.709 12.7066 16.7051L17.8101 11.8926C17.8203 11.8839 17.83 11.8747 17.8394 11.8652L17.8472 11.8594C17.8492 11.8574 17.8512 11.8555 17.8531 11.8535C17.9469 11.7598 17.9996 11.6326 17.9996 11.5C17.9996 11.3674 17.9469 11.2402 17.8531 11.1464C17.7594 11.0527 17.6322 11 17.4996 11H13.9996V3C13.9996 2.448 13.5516 2 12.9996 2H11.9996H10.9996ZM2.99959 20C2.86708 19.9981 2.73552 20.0226 2.61255 20.072C2.48958 20.1214 2.37766 20.1948 2.28329 20.2878C2.18892 20.3809 2.11399 20.4918 2.06284 20.614C2.01169 20.7363 1.98535 20.8675 1.98535 21C1.98535 21.1325 2.01169 21.2637 2.06284 21.386C2.11399 21.5082 2.18892 21.6191 2.28329 21.7122C2.37766 21.8052 2.48958 21.8786 2.61255 21.928C2.73552 21.9774 2.86708 22.0019 2.99959 22H20.9996C21.1321 22.0019 21.2637 21.9774 21.3866 21.928C21.5096 21.8786 21.6215 21.8052 21.7159 21.7122C21.8103 21.6191 21.8852 21.5082 21.9363 21.386C21.9875 21.2637 22.0138 21.1325 22.0138 21C22.0138 20.8675 21.9875 20.7363 21.9363 20.614C21.8852 20.4918 21.8103 20.3809 21.7159 20.2878C21.6215 20.1948 21.5096 20.1214 21.3866 20.072C21.2637 20.0226 21.1321 19.9981 20.9996 20H2.99959Z" fill="#141415"/>
        </svg>
    </symbol>
    <symbol xmlns="http://www.w3.org/2000/svg" viewBox="0 0 24 24" id="edit">
        <svg width="24" height="24" viewBox="0 0 24 24" fill="none" xmlns="http://www.w3.org/2000/svg">
            <path d="M19.1719 2C18.4481 2 17.7244 2.27562 17.1719 2.82812L16 4L20 8L21.1719 6.82812C22.2759 5.72412 22.2759 3.93313 21.1719 2.82812C20.6194 2.27562 19.8956 2 19.1719 2ZM14.5 5.5L3 17V21H7L18.5 9.5L14.5 5.5Z" fill="#141415"/>
        </svg>
    </symbol>
    <symbol xmlns="http://www.w3.org/2000/svg" viewBox="0 0 25 24" id="visit">
        <svg width="25" height="24" viewBox="0 0 25 24" fill="none" xmlns="http://www.w3.org/2000/svg">
            <path d="M12.25 2.00977C8.394 2.00977 5.25781 5.14791 5.25781 9.00391C5.25781 13.4869 11.2245 20.7692 11.4785 21.0762L12.25 22.0117L13.0215 21.0762C13.2755 20.7682 19.2422 13.4869 19.2422 9.00391C19.2422 5.14691 16.106 2.00977 12.25 2.00977ZM12.25 4.00977C15.003 4.00977 17.2422 6.25091 17.2422 9.00391C17.2422 11.7089 14.128 16.3612 12.25 18.8262C10.372 16.3632 7.25781 11.7129 7.25781 9.00391C7.25781 6.25091 9.497 4.00977 12.25 4.00977ZM12.25 6C10.593 6 9.25 7.343 9.25 9C9.25 10.657 10.593 12 12.25 12C13.907 12 15.25 10.657 15.25 9C15.25 8.695 15.1914 8.40686 15.1074 8.13086C14.8684 8.64286 14.352 9 13.75 9C12.922 9 12.25 8.328 12.25 7.5C12.25 6.898 12.6071 6.38158 13.1191 6.14258C12.8431 6.05858 12.555 6 12.25 6Z" fill="#8796AD"/>
        </svg>
    </symbol>
    <symbol xmlns="http://www.w3.org/2000/svg" viewBox="0 0 25 24" id="airplane-landing">
        <svg width="25" height="24" viewBox="0 0 25 24" fill="none" xmlns="http://www.w3.org/2000/svg">
            <path d="M10.75 2.40039V10.4238L5.83398 9.12891L5.00977 6.91211L3.75 6.62695V11.6797L19.8984 15.9609V15.957C20.0135 15.9852 20.1315 15.9996 20.25 16C20.6478 16 21.0294 15.842 21.3107 15.5607C21.592 15.2794 21.75 14.8978 21.75 14.5C21.7499 14.1514 21.6284 13.8137 21.4063 13.5449C21.1843 13.2762 20.8756 13.0932 20.5332 13.0273L15.5391 11.6914L12.7344 2.8457L10.75 2.40039ZM3.75 19V21H21.75V19H3.75Z" fill="#8796AD"/>
        </svg>
    </symbol>
    <symbol xmlns="http://www.w3.org/2000/svg" viewBox="0 0 25 24" id="return">
        <svg width="24" height="24" viewBox="0 0 24 24" fill="none" xmlns="http://www.w3.org/2000/svg">
            <path d="M7 2L1 8L7 14V9H16.5C18.9795 9 21 11.0205 21 13.5C21 15.9795 18.9795 18 16.5 18H15V20H16.5C20.0705 20 23 17.0705 23 13.5C23 9.92955 20.0705 7 16.5 7H7V2ZM3 18V20H5V18H3ZM7 18V20H9V18H7ZM11 18V20H13V18H11Z" fill="#00BCE4"/>
    <symbol xmlns="http://www.w3.org/2000/svg" viewBox="0 0 15 14" id="star">
        <svg width="15" height="14" viewBox="0 0 15 14" fill="none" xmlns="http://www.w3.org/2000/svg">
            <path d="M7.5 0L9.18386 5.18237H14.6329L10.2245 8.38525L11.9084 13.5676L7.5 10.3647L3.09161 13.5676L4.77547 8.38525L0.367076 5.18237H5.81614L7.5 0Z" fill="#00BCE4"/>
        </svg>
    </symbol>
    <symbol xmlns="http://www.w3.org/2000/svg" viewBox="0 0 24 24" id="arrowTo">
        <svg width="24" height="24" viewBox="0 0 24 24" fill="none" xmlns="http://www.w3.org/2000/svg">
            <path d="M5.20874 12.9997H16.3787L11.4987 17.8797C11.1087 18.2697 11.1087 18.9097 11.4987 19.2997C11.8887 19.6897 12.5187 19.6897 12.9087 19.2997L19.4987 12.7097C19.8887 12.3197 19.8887 11.6897 19.4987 11.2997L12.9187 4.69971C12.7319 4.51246 12.4783 4.40723 12.2137 4.40723C11.9492 4.40723 11.6956 4.51246 11.5087 4.69971C11.1187 5.08971 11.1187 5.71971 11.5087 6.10971L16.3787 10.9997H5.20874C4.65874 10.9997 4.20874 11.4497 4.20874 11.9997C4.20874 12.5497 4.65874 12.9997 5.20874 12.9997Z" fill="#8796AD"/>
        </svg>
    </symbol>
    <symbol xmlns="http://www.w3.org/2000/svg" viewBox="0 0 18 18" id="island">
        <svg width="18" height="18" viewBox="0 0 18 18" fill="none" xmlns="http://www.w3.org/2000/svg">
            <path d="M12.1927 1.54758C11.4551 1.55857 10.7735 1.6978 10.1859 1.89914C9.05839 2.28543 8.23172 2.87749 7.84701 3.18495C7.34933 3.22282 6.31779 3.35814 5.21191 3.86854C3.68058 4.57531 1.97184 6.09707 1.51074 8.86366L3.15462 9.1371C3.52686 6.90369 4.73478 5.92545 5.91178 5.38221C5.9592 5.36033 6.00147 5.35193 6.0485 5.33176C5.40828 6.50456 4.83268 8.22628 4.83268 10.667H6.49935C6.49935 8.30593 7.08119 6.80234 7.63053 5.88677C7.79369 5.61485 7.94188 5.41429 8.07812 5.24549C8.3471 5.65054 8.69459 6.25172 9.06771 7.1384C9.85555 9.0106 10.666 12.0179 10.666 16.5004H12.3327C12.3327 11.8162 11.4797 8.57671 10.6025 6.49224C10.3116 5.80081 10.0236 5.27243 9.7513 4.81743C9.94962 4.84132 10.1493 4.86471 10.3747 4.91672C11.5585 5.18992 12.9859 5.8746 14.1182 7.76177L15.5472 6.90565C14.269 4.77526 12.5244 3.78551 11.0566 3.37701C12.2069 3.05329 13.5976 3.04598 15.1696 4.21197L16.1624 2.87245C15.0776 2.06783 13.975 1.69096 12.9479 1.58176C12.6911 1.55446 12.4386 1.54391 12.1927 1.54758ZM1.49935 14.8337C1.27834 14.8337 1.06637 14.9215 0.910093 15.0778C0.753813 15.2341 0.666016 15.446 0.666016 15.667C0.666016 15.8881 0.753813 16.1 0.910093 16.2563C1.06637 16.4126 1.27834 16.5004 1.49935 16.5004C1.72036 16.5004 1.93232 16.4126 2.0886 16.2563C2.24488 16.1 2.33268 15.8881 2.33268 15.667C2.33268 15.446 2.24488 15.2341 2.0886 15.0778C1.93232 14.9215 1.72036 14.8337 1.49935 14.8337ZM3.99935 14.8337C3.77834 14.8337 3.56637 14.9215 3.41009 15.0778C3.25381 15.2341 3.16602 15.446 3.16602 15.667C3.16602 15.8881 3.25381 16.1 3.41009 16.2563C3.56637 16.4126 3.77834 16.5004 3.99935 16.5004C4.22036 16.5004 4.43232 16.4126 4.5886 16.2563C4.74488 16.1 4.83268 15.8881 4.83268 15.667C4.83268 15.446 4.74488 15.2341 4.5886 15.0778C4.43232 14.9215 4.22036 14.8337 3.99935 14.8337ZM6.49935 14.8337C6.27834 14.8337 6.06637 14.9215 5.91009 15.0778C5.75381 15.2341 5.66602 15.446 5.66602 15.667C5.66602 15.8881 5.75381 16.1 5.91009 16.2563C6.06637 16.4126 6.27834 16.5004 6.49935 16.5004C6.72036 16.5004 6.93232 16.4126 7.0886 16.2563C7.24488 16.1 7.33268 15.8881 7.33268 15.667C7.33268 15.446 7.24488 15.2341 7.0886 15.0778C6.93232 14.9215 6.72036 14.8337 6.49935 14.8337ZM8.99935 14.8337C8.77833 14.8337 8.56637 14.9215 8.41009 15.0778C8.25381 15.2341 8.16602 15.446 8.16602 15.667C8.16602 15.8881 8.25381 16.1 8.41009 16.2563C8.56637 16.4126 8.77833 16.5004 8.99935 16.5004C9.22036 16.5004 9.43232 16.4126 9.5886 16.2563C9.74488 16.1 9.83268 15.8881 9.83268 15.667C9.83268 15.446 9.74488 15.2341 9.5886 15.0778C9.43232 14.9215 9.22036 14.8337 8.99935 14.8337ZM13.9993 14.8337C13.7783 14.8337 13.5664 14.9215 13.4101 15.0778C13.2538 15.2341 13.166 15.446 13.166 15.667C13.166 15.8881 13.2538 16.1 13.4101 16.2563C13.5664 16.4126 13.7783 16.5004 13.9993 16.5004C14.2204 16.5004 14.4323 16.4126 14.5886 16.2563C14.7449 16.1 14.8327 15.8881 14.8327 15.667C14.8327 15.446 14.7449 15.2341 14.5886 15.0778C14.4323 14.9215 14.2204 14.8337 13.9993 14.8337ZM16.4993 14.8337C16.2783 14.8337 16.0664 14.9215 15.9101 15.0778C15.7538 15.2341 15.666 15.446 15.666 15.667C15.666 15.8881 15.7538 16.1 15.9101 16.2563C16.0664 16.4126 16.2783 16.5004 16.4993 16.5004C16.7204 16.5004 16.9323 16.4126 17.0886 16.2563C17.2449 16.1 17.3327 15.8881 17.3327 15.667C17.3327 15.446 17.2449 15.2341 17.0886 15.0778C16.9323 14.9215 16.7204 14.8337 16.4993 14.8337Z" fill="#00BCE4"/>
        </svg>
    </symbol>
    <symbol xmlns="http://www.w3.org/2000/svg" viewBox="0 0 18 18" id="travel">
        <svg width="18" height="18" viewBox="0 0 18 18" fill="none" xmlns="http://www.w3.org/2000/svg">
            <path d="M3.16602 1.5C2.94501 1.50002 2.73306 1.58783 2.57678 1.7441C2.42051 1.90038 2.3327 2.11233 2.33268 2.33333V4.58105L0.80599 6.87109C0.714731 7.00798 0.666027 7.16882 0.666016 7.33333V8.16667C0.666038 8.38767 0.753842 8.59962 0.910118 8.7559C1.06639 8.91217 1.27834 8.99998 1.49935 9V15.6667C1.49937 15.8877 1.58718 16.0996 1.74345 16.2559C1.89973 16.4122 2.11168 16.5 2.33268 16.5H15.666C15.887 16.5 16.099 16.4122 16.2552 16.2559C16.4115 16.0996 16.4993 15.8877 16.4993 15.6667V9C16.7204 8.99998 16.9323 8.91217 17.0886 8.7559C17.2449 8.59962 17.3327 8.38767 17.3327 8.16667V7.33333C17.3327 7.16882 17.284 7.00798 17.1927 6.87109L15.666 4.58105V2.33333C15.666 2.11233 15.5782 1.90038 15.4219 1.7441C15.2656 1.58783 15.0537 1.50002 14.8327 1.5H3.16602ZM3.99935 3.16667H13.9993V4.83333C13.9994 4.99785 14.0481 5.15869 14.1393 5.29557L15.4984 7.33333H2.50033L3.85938 5.29557C3.95063 5.15869 3.99934 4.99785 3.99935 4.83333V3.16667ZM5.66602 4C5.445 4 5.23304 4.0878 5.07676 4.24408C4.92048 4.40036 4.83268 4.61232 4.83268 4.83333C4.83268 5.05435 4.92048 5.26631 5.07676 5.42259C5.23304 5.57887 5.445 5.66667 5.66602 5.66667C5.88703 5.66667 6.09899 5.57887 6.25527 5.42259C6.41155 5.26631 6.49935 5.05435 6.49935 4.83333C6.49935 4.61232 6.41155 4.40036 6.25527 4.24408C6.09899 4.0878 5.88703 4 5.66602 4ZM8.16602 4C7.945 4 7.73304 4.0878 7.57676 4.24408C7.42048 4.40036 7.33268 4.61232 7.33268 4.83333C7.33268 5.05435 7.42048 5.26631 7.57676 5.42259C7.73304 5.57887 7.945 5.66667 8.16602 5.66667C8.38703 5.66667 8.59899 5.57887 8.75527 5.42259C8.91155 5.26631 8.99935 5.05435 8.99935 4.83333C8.99935 4.61232 8.91155 4.40036 8.75527 4.24408C8.59899 4.0878 8.38703 4 8.16602 4ZM3.16602 9H14.8327V14.8333H3.16602V9ZM7.33268 9.83333L7.74935 11.5H6.49935L5.66602 10.6667H4.83268L5.66602 13.1667H12.3327C12.7927 13.1667 13.166 12.7933 13.166 12.3333C13.166 11.8733 12.7927 11.5 12.3327 11.5H9.83268L8.16602 9.83333H7.33268Z" fill="#00BCE4"/>
        </svg>
    </symbol>
    <symbol xmlns="http://www.w3.org/2000/svg" viewBox="0 0 18 19" id="traveller">
        <svg width="18" height="19" viewBox="0 0 18 19" fill="none" xmlns="http://www.w3.org/2000/svg">
            <path d="M12 2.38867C11.6022 2.38867 11.2207 2.54671 10.9394 2.82801C10.6581 3.10932 10.5 3.49085 10.5 3.88867C10.5 4.2865 10.6581 4.66803 10.9394 4.94933C11.2207 5.23064 11.6022 5.38867 12 5.38867C12.3979 5.38867 12.7794 5.23064 13.0607 4.94933C13.342 4.66803 13.5 4.2865 13.5 3.88867C13.5 3.49085 13.342 3.10932 13.0607 2.82801C12.7794 2.54671 12.3979 2.38867 12 2.38867ZM10.3228 6.13867L6.88774 7.85693L6.5142 8.97607L6.51274 8.97461L5.46831 12.0317L3.87163 11.418C3.48313 11.2747 3.05172 11.474 2.90922 11.8633L1.54545 15.4653C1.4022 15.8538 1.60152 16.2852 1.99077 16.4277L2.25883 16.5552C2.30383 15.3514 3.28579 14.3887 4.50004 14.3887C5.04604 14.3887 5.54048 14.5913 5.92973 14.9146L7.66996 10.1289L7.67143 10.126L8.11235 8.92041L9.44389 8.25537L7.70219 16.4849C7.60394 16.9506 7.95911 17.3887 8.43461 17.3887H8.43754C8.79154 17.3887 9.09721 17.1412 9.16996 16.7954L10.0796 12.4932C10.4389 12.9199 10.9876 13.6116 11.2486 13.8906V16.6416C11.2493 17.0541 11.5853 17.3887 11.9986 17.3887H12.0015C12.4148 17.3887 12.75 17.0534 12.75 16.6401V13.4116L11.8697 12.0918L12.4937 9.46973C12.7067 9.84773 12.9628 10.1739 13.2613 10.4409C13.7143 10.8459 14.2374 11.126 14.8081 11.2715C15.2844 11.3937 15.75 11.0347 15.75 10.5435C15.75 10.1902 15.4966 9.90396 15.1553 9.81396C14.8276 9.72772 14.5325 9.56549 14.2618 9.32324C13.8815 8.98349 13.6001 8.457 13.4268 7.76025C13.1058 6.477 11.8628 6.13867 11.25 6.13867H10.3228ZM4.50004 15.8887C4.30113 15.8887 4.11037 15.9677 3.96971 16.1083C3.82906 16.249 3.75004 16.4398 3.75004 16.6387C3.75004 16.8376 3.82906 17.0283 3.96971 17.169C4.11037 17.3097 4.30113 17.3887 4.50004 17.3887C4.69896 17.3887 4.88972 17.3097 5.03037 17.169C5.17103 17.0283 5.25004 16.8376 5.25004 16.6387C5.25004 16.4398 5.17103 16.249 5.03037 16.1083C4.88972 15.9677 4.69896 15.8887 4.50004 15.8887Z" fill="#774695"/>
        </svg>
    </symbol>
            <symbol xmlns="http://www.w3.org/2000/svg" viewBox="0 0 18 18" id="map">
        <svg width="18" height="18" viewBox="0 0 18 18" fill="none" xmlns="http://www.w3.org/2000/svg">
            <path d="M6.72656 2.20166L2.72168 3.8042C2.43668 3.9182 2.25 4.19325 2.25 4.5V15C2.25 15.5302 2.78557 15.8931 3.27832 15.6958L6.77344 14.2983L11.2734 15.7983L15.2783 14.1958C15.5633 14.0818 15.75 13.8068 15.75 13.5V3C15.75 2.46975 15.2144 2.10695 14.7217 2.3042L11.2266 3.70166L6.72656 2.20166ZM7.5 4.04004L10.5 5.04053V13.96L7.5 12.9595V4.04004ZM6 4.10742V12.9917L3.75 13.8926V5.0083L6 4.10742ZM14.25 4.10742V12.9917L12 13.8926V5.0083L14.25 4.10742Z" fill="#00BCE4"/>
        </svg>
    </symbol>
    <symbol xmlns="http://www.w3.org/2000/svg" viewBox="0 0 25 24" id="island-grey">
        <svg width="25" height="24" viewBox="0 0 25 24" fill="none" xmlns="http://www.w3.org/2000/svg">
            <path d="M15.6932 4.54758C14.9556 4.55857 14.274 4.6978 13.6864 4.89914C12.5589 5.28543 11.7322 5.87749 11.3475 6.18495C10.8498 6.22282 9.81828 6.35814 8.7124 6.86854C7.18107 7.57531 5.47233 9.09707 5.01123 11.8637L6.65511 12.1371C7.02735 9.90369 8.23527 8.92545 9.41227 8.38221C9.45969 8.36033 9.50196 8.35193 9.54899 8.33176C8.90876 9.50456 8.33317 11.2263 8.33317 13.667H9.99984C9.99984 11.3059 10.5817 9.80234 11.131 8.88677C11.2942 8.61485 11.4424 8.41429 11.5786 8.24549C11.8476 8.65054 12.1951 9.25172 12.5682 10.1384C13.356 12.0106 14.1665 15.0179 14.1665 19.5004H15.8332C15.8332 14.8162 14.9802 11.5767 14.103 9.49224C13.8121 8.80081 13.524 8.27243 13.2518 7.81743C13.4501 7.84132 13.6498 7.86471 13.8752 7.91672C15.059 8.18992 16.4863 8.8746 17.6187 10.7618L19.0477 9.90565C17.7695 7.77526 16.0249 6.78551 14.5571 6.37701C15.7073 6.05329 17.0981 6.04598 18.6701 7.21197L19.6629 5.87245C18.5781 5.06783 17.4755 4.69096 16.4484 4.58176C16.1916 4.55446 15.9391 4.54391 15.6932 4.54758ZM4.99984 17.8337C4.77882 17.8337 4.56686 17.9215 4.41058 18.0778C4.2543 18.2341 4.1665 18.446 4.1665 18.667C4.1665 18.8881 4.2543 19.1 4.41058 19.2563C4.56686 19.4126 4.77882 19.5004 4.99984 19.5004C5.22085 19.5004 5.43281 19.4126 5.58909 19.2563C5.74537 19.1 5.83317 18.8881 5.83317 18.667C5.83317 18.446 5.74537 18.2341 5.58909 18.0778C5.43281 17.9215 5.22085 17.8337 4.99984 17.8337ZM7.49984 17.8337C7.27882 17.8337 7.06686 17.9215 6.91058 18.0778C6.7543 18.2341 6.6665 18.446 6.6665 18.667C6.6665 18.8881 6.7543 19.1 6.91058 19.2563C7.06686 19.4126 7.27882 19.5004 7.49984 19.5004C7.72085 19.5004 7.93281 19.4126 8.08909 19.2563C8.24537 19.1 8.33317 18.8881 8.33317 18.667C8.33317 18.446 8.24537 18.2341 8.08909 18.0778C7.93281 17.9215 7.72085 17.8337 7.49984 17.8337ZM9.99984 17.8337C9.77882 17.8337 9.56686 17.9215 9.41058 18.0778C9.2543 18.2341 9.1665 18.446 9.1665 18.667C9.1665 18.8881 9.2543 19.1 9.41058 19.2563C9.56686 19.4126 9.77882 19.5004 9.99984 19.5004C10.2209 19.5004 10.4328 19.4126 10.5891 19.2563C10.7454 19.1 10.8332 18.8881 10.8332 18.667C10.8332 18.446 10.7454 18.2341 10.5891 18.0778C10.4328 17.9215 10.2209 17.8337 9.99984 17.8337ZM12.4998 17.8337C12.2788 17.8337 12.0669 17.9215 11.9106 18.0778C11.7543 18.2341 11.6665 18.446 11.6665 18.667C11.6665 18.8881 11.7543 19.1 11.9106 19.2563C12.0669 19.4126 12.2788 19.5004 12.4998 19.5004C12.7209 19.5004 12.9328 19.4126 13.0891 19.2563C13.2454 19.1 13.3332 18.8881 13.3332 18.667C13.3332 18.446 13.2454 18.2341 13.0891 18.0778C12.9328 17.9215 12.7209 17.8337 12.4998 17.8337ZM17.4998 17.8337C17.2788 17.8337 17.0669 17.9215 16.9106 18.0778C16.7543 18.2341 16.6665 18.446 16.6665 18.667C16.6665 18.8881 16.7543 19.1 16.9106 19.2563C17.0669 19.4126 17.2788 19.5004 17.4998 19.5004C17.7209 19.5004 17.9328 19.4126 18.0891 19.2563C18.2454 19.1 18.3332 18.8881 18.3332 18.667C18.3332 18.446 18.2454 18.2341 18.0891 18.0778C17.9328 17.9215 17.7209 17.8337 17.4998 17.8337ZM19.9998 17.8337C19.7788 17.8337 19.5669 17.9215 19.4106 18.0778C19.2543 18.2341 19.1665 18.446 19.1665 18.667C19.1665 18.8881 19.2543 19.1 19.4106 19.2563C19.5669 19.4126 19.7788 19.5004 19.9998 19.5004C20.2208 19.5004 20.4328 19.4126 20.5891 19.2563C20.7454 19.1 20.8332 18.8881 20.8332 18.667C20.8332 18.446 20.7454 18.2341 20.5891 18.0778C20.4328 17.9215 20.2208 17.8337 19.9998 17.8337Z" fill="#8796AD"/>
        </svg>
    </symbol>

    <symbol xmlns="http://www.w3.org/2000/svg" viewBox="0 0 18 18" id="water-transportation">
        <svg width="18" height="18" viewBox="0 0 18 18" fill="none" xmlns="http://www.w3.org/2000/svg">
            <path d="M8.25 1.5V2.25H6.75C6.55109 2.25002 6.36034 2.32904 6.21969 2.46969C6.07904 2.61034 6.00002 2.80109 6 3V3.75H4.5C4.30109 3.75002 4.11034 3.82904 3.96969 3.96969C3.82904 4.11034 3.75002 4.30109 3.75 4.5V7.41064L3.0835 7.59082L3.12305 7.58203C1.76998 7.8738 1.08211 9.4589 1.79443 10.6465L3 12.6562V14.2354C2.93786 14.2412 2.87748 14.25 2.8125 14.25C2.39018 14.25 2.02084 14.1187 1.79443 13.9541C1.56803 13.7895 1.5 13.6359 1.5 13.5H0C0 14.1929 0.392568 14.7888 0.912598 15.167C1.43263 15.5452 2.09557 15.75 2.8125 15.75C3.52943 15.75 4.19237 15.5452 4.7124 15.167C4.77086 15.1245 4.82014 15.0698 4.875 15.022C4.92986 15.0698 4.97914 15.1245 5.0376 15.167C5.55763 15.5452 6.22057 15.75 6.9375 15.75C7.65443 15.75 8.31737 15.5452 8.8374 15.167C8.89586 15.1245 8.94514 15.0698 9 15.022C9.05486 15.0698 9.10414 15.1245 9.1626 15.167C9.68263 15.5452 10.3456 15.75 11.0625 15.75C11.7794 15.75 12.4424 15.5452 12.9624 15.167C13.0209 15.1245 13.0701 15.0698 13.125 15.022C13.1799 15.0698 13.2291 15.1245 13.2876 15.167C13.8076 15.5452 14.4706 15.75 15.1875 15.75C15.9044 15.75 16.5674 15.5452 17.0874 15.167C17.6074 14.7888 18 14.1929 18 13.5H16.5C16.5 13.6359 16.432 13.7895 16.2056 13.9541C15.9792 14.1187 15.6098 14.25 15.1875 14.25C15.1225 14.25 15.0621 14.2412 15 14.2354V12.6577L16.207 10.6465H16.2056C16.9184 9.45914 16.2319 7.87535 14.8784 7.5835L14.9165 7.59229L14.25 7.41064V4.5C14.25 4.30109 14.171 4.11034 14.0303 3.96969C13.8897 3.82904 13.6989 3.75002 13.5 3.75H12V3C12 2.80109 11.921 2.61034 11.7803 2.46969C11.6397 2.32904 11.4489 2.25002 11.25 2.25H9.75V1.5H8.25ZM7.5 3.75H10.5V4.5C10.5 4.69891 10.579 4.88966 10.7197 5.03031C10.8603 5.17096 11.0511 5.24998 11.25 5.25H12.75V7.00342L9 5.98535L5.25 7.00342V5.25H6.75C6.94891 5.24998 7.13966 5.17096 7.28031 5.03031C7.42096 4.88966 7.49998 4.69891 7.5 4.5V3.75ZM9 7.53955L14.543 9.04541L14.562 9.0498C14.9545 9.13445 15.1275 9.53036 14.9209 9.87451L13.5 12.2417V13.5H12.375C12.375 13.6359 12.307 13.7895 12.0806 13.9541C11.8542 14.1187 11.4848 14.25 11.0625 14.25C10.6402 14.25 10.2708 14.1187 10.0444 13.9541C9.81803 13.7895 9.75 13.6359 9.75 13.5H8.25C8.25 13.6359 8.18198 13.7895 7.95557 13.9541C7.72916 14.1187 7.35982 14.25 6.9375 14.25C6.51518 14.25 6.14584 14.1187 5.91943 13.9541C5.69303 13.7895 5.625 13.6359 5.625 13.5H4.5V12.2417L3.08057 9.87451C2.87339 9.5291 3.04505 9.13307 3.43799 9.04834L3.4585 9.04395L9 7.53955ZM6 9.75C5.55 9.75 5.25 10.1003 5.25 10.5C5.25 10.8997 5.55 11.25 6 11.25C6.45 11.25 6.75 10.8997 6.75 10.5C6.75 10.1003 6.45 9.75 6 9.75ZM12 9.75C11.55 9.75 11.25 10.1003 11.25 10.5C11.25 10.8997 11.55 11.25 12 11.25C12.45 11.25 12.75 10.8997 12.75 10.5C12.75 10.1003 12.45 9.75 12 9.75Z" fill="#00BCE4"/>
        </svg>
    </symbol>
    <symbol xmlns="http://www.w3.org/2000/svg" viewBox="0 0 18 18" id="ereader">
        <svg width="18" height="18" viewBox="0 0 18 18" fill="none" xmlns="http://www.w3.org/2000/svg">
            <path d="M2.25 3C1.4302 3 0.75 3.6802 0.75 4.5V13.5C0.75 14.3198 1.4302 15 2.25 15H15.75C16.5698 15 17.25 14.3198 17.25 13.5V4.5C17.25 3.6802 16.5698 3 15.75 3H2.25ZM2.25 4.5H8.25V13.5H2.25V4.5ZM9.75 4.5H15.75V13.5H9.75V4.5ZM11.25 6V7.5H14.25V6H11.25ZM11.25 8.25V9.75H14.25V8.25H11.25ZM11.25 10.5V12H14.25V10.5H11.25Z" fill="#00BCE4"/>
        </svg>
    </symbol>
    <symbol xmlns="http://www.w3.org/2000/svg" viewBox="0 0 20 20" id="epanel">
        <svg width="20" height="20" viewBox="0 0 20 20" fill="none" xmlns="http://www.w3.org/2000/svg">
            <path d="M5 0.833374V2.50004H4.16667C3.25 2.50004 2.5 3.25004 2.5 4.16671V15.8334C2.5 16.75 3.25 17.5 4.16667 17.5H15.8333C16.75 17.5 17.5 16.75 17.5 15.8334V4.16671C17.5 3.25004 16.75 2.50004 15.8333 2.50004H15V0.833374H13.3333V2.50004H6.66667V0.833374H5ZM4.16667 4.16671H5H6.66667H13.3333H15H15.8333V5.83337H4.16667V4.16671ZM4.16667 7.50004H15.8333V15.8334H4.16667V7.50004Z" fill="#00BCE4"/>
        </svg>
    </symbol>
    <symbol xmlns="http://www.w3.org/2000/svg" viewBox="0 0 20 20" id="transport">
        <svg width="20" height="20" viewBox="0 0 20 20" fill="none" xmlns="http://www.w3.org/2000/svg">
        <path d="M3.80534 3C3.22161 3 2.67501 3.30827 2.37467 3.81217L0.118815 7.57194C0.0412103 7.70125 0.000146381 7.84919 0 8L0 13.8333C0 14.532 0.446273 15.1361 1.06445 15.3812C1.50954 16.4266 2.54928 17.1667 3.75 17.1667C4.90263 17.1667 5.89808 16.4794 6.37044 15.5H11.9629C12.4352 16.4794 13.4307 17.1667 14.5833 17.1667C15.8204 17.1667 16.8788 16.3776 17.2998 15.2819L18.7061 14.5788C18.8445 14.5095 18.9609 14.4031 19.0422 14.2715C19.1236 14.1398 19.1667 13.9881 19.1667 13.8333V9.51693C19.1667 8.72809 18.6003 8.03811 17.8271 7.88281L14.6908 7.25456L12.6253 3.81217C12.325 3.30827 11.7784 3 11.1947 3H3.80534ZM3.80534 4.66667H6.66667V7.16667H2.30469L3.80534 4.66667ZM8.33333 4.66667H11.1947L12.6953 7.16667H8.33333V4.66667ZM1.66667 8.83333H14.0853L17.5 9.51693V13.319L17.3535 13.3923C16.982 12.2079 15.884 11.3333 14.5833 11.3333C13.1251 11.3333 11.9151 12.4288 11.709 13.8333H6.62435C6.41819 12.4288 5.20828 11.3333 3.75 11.3333C2.93591 11.3333 2.19775 11.6755 1.66667 12.2204V8.83333ZM3.75 13C4.45023 13 5 13.5498 5 14.25C5 14.9502 4.45023 15.5 3.75 15.5C3.04977 15.5 2.5 14.9502 2.5 14.25C2.5 13.5498 3.04977 13 3.75 13ZM14.5833 13C15.2836 13 15.8333 13.5498 15.8333 14.25C15.8333 14.9502 15.2836 15.5 14.5833 15.5C13.8831 15.5 13.3333 14.9502 13.3333 14.25C13.3333 13.5498 13.8831 13 14.5833 13Z" fill="#00BCE4"/>
        </svg>
    </symbol>
    <symbol xmlns="http://www.w3.org/2000/svg" viewBox="0 0 20 20" id="landmark">
        <svg width="20" height="20" viewBox="0 0 20 20" fill="none" xmlns="http://www.w3.org/2000/svg">
            <path d="M10.082 2L4.39681 4.78646L5.12923 6.28385L5.90885 5.90137V9.46745L3.27051 11.0576C3.0621 11.0926 2.87476 11.2055 2.74642 11.3734L1 12.4248L1.85938 13.8538L2.57552 13.4225V17.931H9.24219V15.431H10.9089V17.931H17.5755V13.3265L18.2982 13.7529L19.1445 12.3174L14.2422 9.4235V5.99089L15.0088 6.38151L15.7673 4.89714L10.082 2ZM10.069 3.86198L12.5755 5.13965V8.4388L10.0706 6.96094L7.57552 8.46322V5.08431L10.069 3.86198ZM10.0804 8.90104L12.5755 10.374V10.431H12.6715L15.9089 12.3418V16.2643H12.5755V13.7643H7.57552V16.2643H4.24219V12.4183L7.54134 10.431H7.57552V10.4098L10.0804 8.90104Z" fill="#00BCE4"/>
        </svg>
    </symbol>
    <symbol xmlns="http://www.w3.org/2000/svg" viewBox="0 0 20 20" id="ballon">
        <svg width="20" height="20" viewBox="0 0 20 20" fill="none" xmlns="http://www.w3.org/2000/svg">
            <path d="M8.14941 1.90759C5.36608 2.60759 3.33333 4.86736 3.33333 7.54236C3.33333 10.9174 7.00768 13.8668 8.08268 14.6501C7.94935 14.2501 7.80768 13.7752 7.66602 13.2585C7.53268 12.8002 7.40833 12.3008 7.29167 11.7758C6.95 10.2674 6.66667 8.52563 6.66667 6.85063C6.66667 5.85063 6.79954 4.9419 7.03288 4.15857C7.14954 3.7419 7.29245 3.34952 7.46745 3.00785C7.65912 2.58285 7.89108 2.21593 8.14941 1.90759ZM11.8831 1.90759C12.1415 2.21593 12.3667 2.58266 12.5667 3.01599C12.7334 3.36599 12.8751 3.74985 12.9834 4.17485C13.2084 4.94985 13.3333 5.85063 13.3333 6.85063C13.3333 8.51729 13.0583 10.2577 12.7083 11.766C12.6 12.291 12.4671 12.7837 12.3421 13.2504C12.2005 13.767 12.0588 14.242 11.9255 14.642C13.0088 13.8503 16.6667 10.909 16.6667 7.54236C16.6667 4.87569 14.6498 2.62426 11.8831 1.90759ZM10 2.50004C9.84167 2.51671 9.47578 2.80011 9.13412 3.40011C8.71745 4.09177 8.33333 5.20896 8.33333 6.85063C8.33333 9.13396 8.91712 11.6084 9.42546 13.3334C9.50879 13.6417 9.59948 13.9167 9.67448 14.1667C9.78281 14.5 9.88268 14.7834 9.95768 15H10.0423C10.1173 14.7834 10.2172 14.5 10.3255 14.1667C10.4005 13.9167 10.4912 13.6334 10.5745 13.3334C11.0829 11.6167 11.6667 9.13396 11.6667 6.85063C11.6667 5.20063 11.2921 4.08344 10.8838 3.40011C10.5338 2.79177 10.1583 2.51671 10 2.50004ZM9.16667 16.6667C8.70667 16.6667 8.33333 17.04 8.33333 17.5V18.3334C8.33333 18.7934 8.70667 19.1667 9.16667 19.1667H10.8333C11.2933 19.1667 11.6667 18.7934 11.6667 18.3334V17.5C11.6667 17.04 11.2933 16.6667 10.8333 16.6667H9.16667Z" fill="#00BCE4"/>
        </svg>
    </symbol>
    <symbol xmlns="http://www.w3.org/2000/svg" viewBox="0 0 20 20" id="shop">
        <svg width="20" height="20" viewBox="0 0 20 20" fill="none" xmlns="http://www.w3.org/2000/svg">
        <path d="M4.16666 2.49996C4.05624 2.4984 3.9466 2.5188 3.84413 2.55998C3.74165 2.60116 3.64839 2.66229 3.56975 2.73983C3.4911 2.81736 3.42866 2.90976 3.38603 3.01164C3.34341 3.11352 3.32146 3.22286 3.32146 3.33329C3.32146 3.44373 3.34341 3.55307 3.38603 3.65495C3.42866 3.75683 3.4911 3.84922 3.56975 3.92676C3.64839 4.0043 3.74165 4.06543 3.84413 4.10661C3.9466 4.14779 4.05624 4.16819 4.16666 4.16663H15.8333C15.9438 4.16819 16.0534 4.14779 16.1559 4.10661C16.2583 4.06543 16.3516 4.0043 16.4302 3.92676C16.5089 3.84922 16.5713 3.75683 16.614 3.65495C16.6566 3.55307 16.6785 3.44373 16.6785 3.33329C16.6785 3.22286 16.6566 3.11352 16.614 3.01164C16.5713 2.90976 16.5089 2.81736 16.4302 2.73983C16.3516 2.66229 16.2583 2.60116 16.1559 2.55998C16.0534 2.5188 15.9438 2.4984 15.8333 2.49996H4.16666ZM3.93392 5.83329C3.57475 5.83329 3.25623 6.06212 3.1429 6.40296L1.70898 10.7047C1.68065 10.7897 1.66666 10.8792 1.66666 10.9684V11.6666C1.66666 12.1266 2.04 12.5 2.5 12.5V16.6666C2.50002 16.8876 2.58782 17.0996 2.7441 17.2559C2.90038 17.4121 3.11232 17.4999 3.33333 17.5H10C10.221 17.4999 10.433 17.4121 10.5892 17.2559C10.7455 17.0996 10.8333 16.8876 10.8333 16.6666V12.5H15.8333V16.6666C15.8318 16.7771 15.8522 16.8867 15.8933 16.9892C15.9345 17.0916 15.9957 17.1849 16.0732 17.2635C16.1507 17.3422 16.2431 17.4046 16.345 17.4473C16.4469 17.4899 16.5562 17.5118 16.6667 17.5118C16.7771 17.5118 16.8864 17.4899 16.9883 17.4473C17.0902 17.4046 17.1826 17.3422 17.2601 17.2635C17.3377 17.1849 17.3988 17.0916 17.44 16.9892C17.4812 16.8867 17.5016 16.7771 17.5 16.6666V12.5C17.96 12.5 18.3333 12.1266 18.3333 11.6666V10.9684C18.3333 10.8792 18.3193 10.7897 18.291 10.7047L16.8571 6.40296C16.7438 6.06212 16.4252 5.83329 16.0661 5.83329H3.93392ZM4.16666 12.5H9.16666V15.8333H4.16666V12.5Z" fill="#00BCE4"/>
        </svg>
    </symbol>
    <symbol xmlns="http://www.w3.org/2000/svg" viewBox="0 0 20 20" id="plane">
        <svg width="20" height="20" viewBox="0 0 20 20" fill="none" xmlns="http://www.w3.org/2000/svg">
        <path d="M16.6667 8.33329H12.5L8.27667 2.07579C8.1175 1.82163 7.83833 1.66663 7.5375 1.66663C6.95 1.66663 6.53083 2.23579 6.70583 2.79663L8.74167 8.33329H4.16667C4.16667 8.33329 4.16667 8.33329 3.01667 6.91663C2.89167 6.76663 2.78333 6.66663 2.59167 6.66663H2.08333C1.80833 6.66663 1.61667 6.92496 1.68333 7.18329L2.5 9.99996L1.68333 12.8166C1.61667 13.075 1.80833 13.3333 2.08333 13.3333H2.59167C2.78333 13.3333 2.89167 13.2333 3.01667 13.0833C4.16667 11.6666 4.16667 11.6666 4.16667 11.6666H8.74167L6.7075 17.2033C6.5325 17.7641 6.95167 18.3333 7.53917 18.3333C7.84 18.3333 8.11917 18.1783 8.27833 17.9241L12.5 11.6666H16.6667C17.5917 11.6666 18.3333 10.9166 18.3333 9.99996C18.3333 9.08329 17.5917 8.33329 16.6667 8.33329Z" fill="#00BCE4"/>
        </svg>
    </symbol>
    <symbol xmlns="http://www.w3.org/2000/svg" viewBox="0 0 20 20" id="traveler">
        <svg width="20" height="20" viewBox="0 0 20 20" fill="none" xmlns="http://www.w3.org/2000/svg">
        <path d="M13.3333 1.66663C12.8913 1.66663 12.4674 1.84222 12.1548 2.15478C11.8423 2.46734 11.6667 2.89127 11.6667 3.33329C11.6667 3.77532 11.8423 4.19924 12.1548 4.5118C12.4674 4.82436 12.8913 4.99996 13.3333 4.99996C13.7754 4.99996 14.1993 4.82436 14.5118 4.5118C14.8244 4.19924 15 3.77532 15 3.33329C15 2.89127 14.8244 2.46734 14.5118 2.15478C14.1993 1.84222 13.7754 1.66663 13.3333 1.66663ZM11.4697 5.83329L7.653 7.74247L7.23796 8.98596L7.23633 8.98433L6.07585 12.3811L4.30176 11.6992C3.87009 11.54 3.39076 11.7615 3.23242 12.194L1.71712 16.1962C1.55796 16.6279 1.77942 17.1073 2.21192 17.2656L2.50977 17.4072C2.55977 16.0697 3.65084 15 5 15C5.60667 15 6.15604 15.2251 6.58854 15.5843L8.52214 10.2669L8.52377 10.2636L9.01367 8.92411L10.4932 8.18518L8.55794 17.3291C8.44878 17.8466 8.84341 18.3333 9.37175 18.3333H9.375C9.76834 18.3333 10.108 18.0583 10.1888 17.6741L11.1995 12.8938C11.5987 13.368 12.2084 14.1366 12.4984 14.4466V17.5032C12.4992 17.9615 12.8725 18.3333 13.3317 18.3333H13.335C13.7941 18.3333 14.1667 17.9608 14.1667 17.5016V13.9143L13.1885 12.4479L13.8818 9.53446C14.1185 9.95446 14.403 10.3169 14.7347 10.6136C15.238 11.0636 15.8193 11.3748 16.4535 11.5364C16.9826 11.6723 17.5 11.2733 17.5 10.7275C17.5 10.335 17.2184 10.017 16.8392 9.91695C16.475 9.82112 16.1472 9.64087 15.8464 9.3717C15.4239 8.9942 15.1111 8.40922 14.9186 7.63505C14.562 6.20922 13.1808 5.83329 12.5 5.83329H11.4697ZM5 16.6666C4.77899 16.6666 4.56703 16.7544 4.41075 16.9107C4.25447 17.067 4.16667 17.2789 4.16667 17.5C4.16667 17.721 4.25447 17.9329 4.41075 18.0892C4.56703 18.2455 4.77899 18.3333 5 18.3333C5.22102 18.3333 5.43298 18.2455 5.58926 18.0892C5.74554 17.9329 5.83333 17.721 5.83333 17.5C5.83333 17.2789 5.74554 17.067 5.58926 16.9107C5.43298 16.7544 5.22102 16.6666 5 16.6666Z" fill="#00BCE4"/>
        </svg>
    </symbol>
    <symbol xmlns="http://www.w3.org/2000/svg" viewBox="0 0 24 24" id="user">
        <svg width="24" height="24" viewBox="0 0 24 24" fill="none" xmlns="http://www.w3.org/2000/svg">
            <path d="M12 3C10.9391 3 9.92172 3.42143 9.17157 4.17157C8.42143 4.92172 8 5.93913 8 7C8 8.06087 8.42143 9.07828 9.17157 9.82843C9.92172 10.5786 10.9391 11 12 11C13.0609 11 14.0783 10.5786 14.8284 9.82843C15.5786 9.07828 16 8.06087 16 7C16 5.93913 15.5786 4.92172 14.8284 4.17157C14.0783 3.42143 13.0609 3 12 3ZM12 14C8.996 14 3 15.508 3 18.5V20C3 20.552 3.448 21 4 21H20C20.552 21 21 20.552 21 20V18.5C21 15.508 15.004 14 12 14Z" fill="#8796AD"/>
        </svg>
    </symbol>
    <symbol xmlns="http://www.w3.org/2000/svg" viewBox="0 0 24 24" id="close">
        <svg width="24" height="24" viewBox="0 0 24 24" fill="none" xmlns="http://www.w3.org/2000/svg">
            <path d="M18.3002 5.71069C18.1134 5.52344 17.8597 5.4182 17.5952 5.4182C17.3307 5.4182 17.077 5.52344 16.8902 5.71069L12.0002 10.5907L7.11021 5.70069C6.92338 5.51344 6.66973 5.4082 6.40521 5.4082C6.1407 5.4082 5.88705 5.51344 5.70021 5.70069C5.31021 6.09069 5.31021 6.72069 5.70021 7.11069L10.5902 12.0007L5.70021 16.8907C5.31021 17.2807 5.31021 17.9107 5.70021 18.3007C6.09021 18.6907 6.72021 18.6907 7.11021 18.3007L12.0002 13.4107L16.8902 18.3007C17.2802 18.6907 17.9102 18.6907 18.3002 18.3007C18.6902 17.9107 18.6902 17.2807 18.3002 16.8907L13.4102 12.0007L18.3002 7.11069C18.6802 6.73069 18.6802 6.09069 18.3002 5.71069Z" fill="#8796AD"/>
        </svg>
    </symbol>
    <symbol xmlns="http://www.w3.org/2000/svg" viewBox="0 0 256 256" id="email">
        <svg xmlns="http://www.w3.org/2000/svg" xmlns:xlink="http://www.w3.org/1999/xlink" version="1.1" width="256" height="256" viewBox="0 0 256 256" xml:space="preserve">
            <g style="stroke: none; stroke-width: 0; stroke-dasharray: none; stroke-linecap: butt; stroke-linejoin: miter; stroke-miterlimit: 10; fill: none; fill-rule: nonzero; opacity: 1;" transform="translate(18.12918287937744 18.12918287937741) scale(2.43 2.43)" >
	            <path d="M 75.546 78.738 H 14.455 C 6.484 78.738 0 72.254 0 64.283 V 25.716 c 0 -7.97 6.485 -14.455 14.455 -14.455 h 61.091 c 7.97 0 14.454 6.485 14.454 14.455 v 38.567 C 90 72.254 83.516 78.738 75.546 78.738 z M 14.455 15.488 c -5.64 0 -10.228 4.588 -10.228 10.228 v 38.567 c 0 5.64 4.588 10.229 10.228 10.229 h 61.091 c 5.64 0 10.228 -4.589 10.228 -10.229 V 25.716 c 0 -5.64 -4.588 -10.228 -10.228 -10.228 H 14.455 z" style="stroke: none; stroke-width: 1; stroke-dasharray: none; stroke-linecap: butt; stroke-linejoin: miter; stroke-miterlimit: 10; fill: rgb(0,188,228); fill-rule: nonzero; opacity: 1;" transform=" matrix(1 0 0 1 0 0) " stroke-linecap="round" />
                <path d="M 11.044 25.917 C 21.848 36.445 32.652 46.972 43.456 57.5 c 2.014 1.962 5.105 -1.122 3.088 -3.088 C 35.74 43.885 24.936 33.357 14.132 22.83 C 12.118 20.867 9.027 23.952 11.044 25.917 L 11.044 25.917 z" style="stroke: none; stroke-width: 1; stroke-dasharray: none; stroke-linecap: butt; stroke-linejoin: miter; stroke-miterlimit: 10; fill: rgb(0,188,228); fill-rule: nonzero; opacity: 1;" transform=" matrix(1 0 0 1 0 0) " stroke-linecap="round" />
                <path d="M 46.544 57.5 c 10.804 -10.527 21.608 -21.055 32.412 -31.582 c 2.016 -1.965 -1.073 -5.051 -3.088 -3.088 C 65.064 33.357 54.26 43.885 43.456 54.412 C 41.44 56.377 44.529 59.463 46.544 57.5 L 46.544 57.5 z" style="stroke: none; stroke-width: 1; stroke-dasharray: none; stroke-linecap: butt; stroke-linejoin: miter; stroke-miterlimit: 10; fill: rgb(0,188,228); fill-rule: nonzero; opacity: 1;" transform=" matrix(1 0 0 1 0 0) " stroke-linecap="round" />
                <path d="M 78.837 64.952 c -7.189 -6.818 -14.379 -13.635 -21.568 -20.453 c -2.039 -1.933 -5.132 1.149 -3.088 3.088 c 7.189 6.818 14.379 13.635 21.568 20.453 C 77.788 69.973 80.881 66.89 78.837 64.952 L 78.837 64.952 z" style="stroke: none; stroke-width: 1; stroke-dasharray: none; stroke-linecap: butt; stroke-linejoin: miter; stroke-miterlimit: 10; fill: rgb(0,188,228); fill-rule: nonzero; opacity: 1;" transform=" matrix(1 0 0 1 0 0) " stroke-linecap="round" />
                <path d="M 14.446 68.039 c 7.189 -6.818 14.379 -13.635 21.568 -20.453 c 2.043 -1.938 -1.048 -5.022 -3.088 -3.088 c -7.189 6.818 -14.379 13.635 -21.568 20.453 C 9.315 66.889 12.406 69.974 14.446 68.039 L 14.446 68.039 z" style="stroke: none; stroke-width: 1; stroke-dasharray: none; stroke-linecap: butt; stroke-linejoin: miter; stroke-miterlimit: 10; fill: rgb(0,188,228); fill-rule: nonzero; opacity: 1;" transform=" matrix(1 0 0 1 0 0) " stroke-linecap="round" />
            </g>
        </svg>
    </symbol>
</svg>