<?xml version="1.0" standalone="no"?>
<!DOCTYPE svg PUBLIC "-//W3C//DTD SVG 1.1//EN" "http://www.w3.org/Graphics/SVG/1.1/DTD/svg11.dtd" >
<svg xmlns="http://www.w3.org/2000/svg" xmlns:xlink="http://www.w3.org/1999/xlink" version="1.1">
<metadata>
Created by FontForge 20170731 at Mon Feb 10 19:46:37 2003
 By Aleksey,,,
Copyright (c) Thirstype, Inc., 2003. All rights reserved.
</metadata>
<defs>
<font id="ApexSansBoldT" horiz-adv-x="600" >
  <font-face 
    font-family="ApexSansBoldT"
    font-weight="400"
    font-stretch="normal"
    units-per-em="1000"
    panose-1="2 0 5 3 2 0 0 2 0 4"
    ascent="750"
    descent="-250"
    x-height="500"
    cap-height="750"
    bbox="-54 -266 1358 1016"
    underline-thickness="50"
    underline-position="-175"
    unicode-range="U+0020-FFE6"
  />
<missing-glyph horiz-adv-x="200" 
 />
    <glyph glyph-name=".notdef" horiz-adv-x="200" 
 />
    <glyph glyph-name=".null" unicode="&#xffe6;" horiz-adv-x="0" 
 />
    <glyph glyph-name="nonmarkingreturn" unicode="&#xe000;" horiz-adv-x="500" 
 />
    <glyph glyph-name="space" unicode=" " horiz-adv-x="200" 
 />
    <glyph glyph-name="exclam" unicode="!" horiz-adv-x="245" 
d="M167 210l36 540h-162l36 -540h90zM41 68q0 -34 23.5 -57.5t57.5 -23.5t58 23.5t24 57.5t-24 58t-58 24t-57.5 -24t-23.5 -58z" />
    <glyph glyph-name="quotedbl" unicode="&#x22;" horiz-adv-x="430" 
d="M167 500l31 250h-166l31 -250h104zM367 500l31 250h-166l31 -250h104z" />
    <glyph glyph-name="numbersign" unicode="#" horiz-adv-x="585" 
d="M222 0h135l42 109h84l36 127h-73l13 29h83l36 126h-71l42 109h-136l-42 -109h-53l42 109h-136l-42 -109h-80l-36 -126h69l-12 -29h-80l-36 -127h68l-42 -109h135l42 109h52zM270 265h53l-12 -29h-53z" />
    <glyph glyph-name="dollar" unicode="$" 
d="M193 475q0 24 30 37.5t85 13.5q22 0 48.5 -1.5t54.5 -4.5t54.5 -8.5t47.5 -13.5v123q-19 8 -42 13.5t-47 8.5l41 107h-141l-35 -100q-109 -4 -166.5 -51.5t-57.5 -130.5q0 -43 15.5 -69.5t45.5 -42t72.5 -23t96.5 -12.5q22 -2 42 -5t35 -7.5t24 -11.5t9 -16
q0 -29 -31.5 -43t-91.5 -14q-22 0 -50.5 2t-57.5 5.5t-55.5 9.5t-44.5 13v-127q14 -7 39 -12t53 -8l-39 -107h141l34 99q115 5 174 55t59 128q0 46 -15 75t-44 46.5t-71.5 26t-97.5 13.5q-22 2 -43 3.5t-36.5 5t-25 9t-9.5 14.5z" />
    <glyph glyph-name="percent" unicode="%" horiz-adv-x="993" 
d="M758 393q-97 0 -140 -52t-43 -153t43 -152.5t140 -51.5q99 0 142 51.5t43 152.5t-43 153t-142 52zM235 357q97 0 140 52t43 153t-43 152.5t-140 51.5q-99 0 -142 -51.5t-43 -152.5t43 -153t142 -52zM308 0l532 750h-155l-532 -750h155zM758 267q30 0 43 -17.5t13 -61.5
t-13 -61.5t-43 -17.5q-29 0 -42 17.5t-13 61.5t13 61.5t42 17.5zM235 483q-30 0 -43 17.5t-13 61.5t13 61.5t43 17.5q29 0 42 -17.5t13 -61.5t-13 -61.5t-42 -17.5z" />
    <glyph glyph-name="ampersand" unicode="&#x26;" horiz-adv-x="754" 
d="M526 560q4 9 7 24.5t3 32.5q0 31 -8 58t-27.5 47.5t-53.5 32t-86 11.5q-57 0 -95 -19.5t-61.5 -50t-33.5 -67t-10 -70.5q0 -27 3 -55.5t10 -57.5q-57 -32 -93 -84t-36 -124q0 -69 22 -117.5t61 -78.5t93 -44t118 -14q43 0 88 9.5t88 29.5q45 -19 96 -29t108 -10v135
q-40 0 -75 6q24 34 38.5 74.5t14.5 90.5q0 65 -16 108t-44.5 69.5t-67.5 37.5t-85 11q-12 0 -26 -1t-28 -3.5t-26.5 -5.5t-20.5 -6v-128q8 3 20 5.5t25.5 5t27.5 3.5t26 1t25.5 -3.5t25 -14t18.5 -29.5t7 -50q0 -37 -13.5 -65t-35.5 -48q-56 35 -95.5 84.5t-65 102.5
t-37 104.5t-11.5 90.5q0 12 2 25.5t9 25t19 18.5t31 7q25 0 33 -13.5t8 -24.5q0 -13 -1.5 -21t-4.5 -16h130zM339 115q-33 -2 -61.5 5t-49.5 22.5t-33 39.5t-12 56q0 24 10 41.5t27 31.5q26 -54 62 -103t83 -91q-7 -1 -13.5 -1.5t-12.5 -0.5z" />
    <glyph glyph-name="quotesingle" unicode="'" horiz-adv-x="230" 
d="M167 500l31 250h-166l31 -250h104z" />
    <glyph glyph-name="parenleft" unicode="(" horiz-adv-x="368" 
d="M328 -206q-19 28 -41 76t-41 113t-31.5 146t-12.5 176t12.5 176t31.5 146t41 113t41 76h-143q-19 -28 -41 -76t-40.5 -113t-31 -146t-12.5 -176t12.5 -176t31 -146t40.5 -113t41 -76h143z" />
    <glyph glyph-name="parenright" unicode=")" horiz-adv-x="368" 
d="M40 -206q19 28 41 76t41 113t31.5 146t12.5 176t-12.5 176t-31.5 146t-41 113t-41 76h143q19 -28 41 -76t40.5 -113t31 -146t12.5 -176t-12.5 -176t-31 -146t-40.5 -113t-41 -76h-143z" />
    <glyph glyph-name="asterisk" unicode="*" horiz-adv-x="445" 
d="M299 750h-150l15 -110l-100 48l-46 -142l108 -20l-72 -79l118 -89l52 98l52 -95l123 84l-77 81l105 20l-40 143l-104 -50z" />
    <glyph glyph-name="plus" unicode="+" horiz-adv-x="520" 
d="M324 136v141h141v128h-141v141h-128v-141h-141v-128h141v-141h128z" />
    <glyph glyph-name="comma" unicode="," horiz-adv-x="220" 
d="M117 -114l65 140q4 8 7 18t3 21q0 34 -24 58t-58 24t-57.5 -24t-23.5 -58q0 -41 32 -65l-25 -114h81z" />
    <glyph glyph-name="hyphen" unicode="-" horiz-adv-x="370" 
d="M329 405h-288v-128h288v128z" />
    <glyph glyph-name="period" unicode="." horiz-adv-x="220" 
d="M29 65q0 -34 23.5 -57.5t57.5 -23.5t58 23.5t24 57.5t-24 58t-58 24t-57.5 -24t-23.5 -58z" />
    <glyph glyph-name="slash" unicode="/" horiz-adv-x="498" 
d="M147 -206l351 1022h-147l-351 -1022h147z" />
    <glyph glyph-name="zero" unicode="0" 
d="M300 -16q70 0 117.5 18t77 62t42.5 120t13 191q0 116 -13 191.5t-42.5 119.5t-77 62t-117.5 18t-117.5 -18t-77 -62t-42.5 -119.5t-13 -191.5q0 -115 13 -191t42.5 -120t77 -62t117.5 -18zM300 641q35 0 57.5 -12.5t36 -42.5t18.5 -81.5t5 -129.5q0 -79 -5 -130.5
t-18.5 -81.5t-36 -42t-57.5 -12t-57.5 12t-36 42t-18.5 81.5t-5 130.5q0 78 5 129.5t18.5 81.5t36 42.5t57.5 12.5z" />
    <glyph glyph-name="one" unicode="1" 
d="M85 0h425v119h-145v647h-67l-208 -58v-82l139 6v-513h-144v-119z" />
    <glyph glyph-name="two" unicode="2" 
d="M398 554q0 -20 -7 -36.5t-24 -36.5l-318 -391v-90h492v128h-313l213 236q44 48 67.5 93.5t23.5 96.5q0 33 -8 70t-33.5 68.5t-74 52.5t-128.5 21q-60 0 -109.5 -12t-88.5 -29v-132q35 15 62.5 24t50.5 14.5t44 7.5t42 2q34 0 55.5 -7t33.5 -19t16 -27.5t4 -33.5z" />
    <glyph glyph-name="three" unicode="3" 
d="M258 637q38 0 62 -8t38.5 -20.5t20 -29t5.5 -34.5q0 -15 -3.5 -31.5t-14 -29.5t-29 -21.5t-48.5 -8.5h-137v-132h137q68 0 92.5 -24.5t24.5 -73.5q0 -20 -6.5 -40t-23 -35.5t-43.5 -25.5t-68 -10q-25 0 -54.5 3t-58 8t-55 12t-46.5 14v-132q18 -9 42.5 -15t53 -10.5
t59 -6.5t59.5 -2q80 0 133.5 20t86 53.5t46.5 77t14 89.5q0 24 -4.5 48.5t-14 47.5t-24 43t-34.5 35q27 28 41 69.5t14 77.5q0 44 -12 84t-42.5 70.5t-81.5 48.5t-129 18q-19 0 -47 -1.5t-57.5 -5t-57 -8.5t-45.5 -12v-137q21 8 48.5 14.5t56 11t55.5 7t47 2.5z" />
    <glyph glyph-name="four" unicode="4" 
d="M33 167h294v-167h130v167h110v126h-110v473h-94l-330 -518v-81zM197 293l130 205v-205h-130z" />
    <glyph glyph-name="five" unicode="5" 
d="M246 -16q51 0 103.5 7.5t94.5 33.5t69 76t27 135q0 77 -23 121.5t-61 67t-86 28t-99 5.5h-32t-35 -1v167h323v126h-453v-421h177q27 0 54.5 -0.5t50 -9t36.5 -27.5t14 -56q0 -41 -14 -65.5t-36.5 -37t-51 -16.5t-57.5 -4q-27 0 -54.5 2.5t-53 7.5t-48 12t-37.5 15v-132
q29 -14 76 -24t116 -10z" />
    <glyph glyph-name="six" unicode="6" 
d="M520 742q-37 11 -84.5 17.5t-104.5 6.5q-85 0 -137.5 -36t-82 -96.5t-40 -140t-10.5 -166.5q0 -77 8 -140.5t33.5 -108.5t74.5 -69.5t130 -24.5q75 0 120.5 24t70.5 60t33 79t8 81t-6.5 81t-30.5 79.5t-70 60.5t-125 24q-37 0 -65.5 -10t-48.5 -24q0 38 8 74t24.5 64
t42.5 45t63 17q60 0 109 -10t80 -22v135zM197 228q0 18 4 39t16 39t33.5 29.5t56.5 11.5t55 -12.5t30 -30.5t12.5 -38.5t2.5 -37.5q0 -16 -3 -37t-13.5 -39t-30.5 -30.5t-53 -12.5q-35 0 -56.5 11t-33.5 28.5t-16 38.5t-4 41z" />
    <glyph glyph-name="seven" unicode="7" 
d="M270 0l289 664v86h-519v-125h372l-288 -625h146z" />
    <glyph glyph-name="eight" unicode="8" 
d="M300 -16q71 0 119.5 19.5t78.5 51.5t43.5 74t13.5 87q0 23 -5 49.5t-15 51t-25 46t-36 34.5q13 13 24 31t18.5 38t12 40.5t4.5 38.5q0 42 -12 81.5t-39.5 70.5t-72 50t-109.5 19t-109.5 -19t-72 -50t-39.5 -70.5t-12 -81.5q0 -18 4.5 -38.5t12 -40.5t18.5 -38t24 -31
q-21 -13 -36 -34.5t-25 -46t-15 -51t-5 -49.5q0 -45 13.5 -87t43.5 -74t78.5 -51.5t119.5 -19.5zM300 325q59 0 89 -30.5t30 -78.5q0 -17 -5.5 -36t-19 -34.5t-36.5 -26t-58 -10.5t-58 10.5t-36.5 26t-19 34.5t-5.5 36q0 48 30 78.5t89 30.5zM300 449q-27 0 -45.5 9.5
t-30 24t-17 31t-5.5 31.5t4 32t14.5 31.5t30 23.5t49.5 9t49.5 -9t30 -23.5t14.5 -31.5t4 -32t-5.5 -31.5t-17 -31t-30 -24t-45.5 -9.5z" />
    <glyph glyph-name="nine" unicode="9" 
d="M80 8q37 -11 84.5 -17.5t104.5 -6.5q85 0 137.5 36t82 96.5t40 140t10.5 166.5q0 77 -8 140.5t-33.5 108.5t-74.5 69.5t-130 24.5q-75 0 -120.5 -24t-70.5 -60t-33 -79t-8 -81t6.5 -81t30.5 -79.5t70 -60.5t125 -24q37 0 65.5 10t48.5 24q0 -38 -8 -74t-24.5 -64
t-42.5 -45t-63 -17q-60 0 -109 10t-80 22v-135zM403 522q0 -18 -4 -39t-16 -39t-33.5 -29.5t-56.5 -11.5t-55 12.5t-30 30.5t-12.5 38.5t-2.5 37.5t3.5 37.5t14 38.5t30 30.5t52.5 12.5q35 0 56.5 -11t33.5 -28.5t16 -38.5t4 -41z" />
    <glyph glyph-name="colon" unicode=":" horiz-adv-x="220" 
d="M29 65q0 -34 23.5 -57.5t57.5 -23.5t58 23.5t24 57.5t-24 58t-58 24t-57.5 -24t-23.5 -58zM29 375q0 -34 23.5 -57.5t57.5 -23.5t58 23.5t24 57.5t-24 58t-58 24t-57.5 -24t-23.5 -58z" />
    <glyph glyph-name="semicolon" unicode=";" horiz-adv-x="220" 
d="M117 -114l65 140q4 8 7 18t3 21q0 34 -24 58t-58 24t-57.5 -24t-23.5 -58q0 -41 32 -65l-25 -114h81zM29 375q0 -34 23.5 -57.5t57.5 -23.5t58 23.5t24 57.5t-24 58t-58 24t-57.5 -24t-23.5 -58z" />
    <glyph glyph-name="semicolon" unicode="&#x37e;" horiz-adv-x="220" 
d="M117 -114l65 140q4 8 7 18t3 21q0 34 -24 58t-58 24t-57.5 -24t-23.5 -58q0 -41 32 -65l-25 -114h81zM29 375q0 -34 23.5 -57.5t57.5 -23.5t58 23.5t24 57.5t-24 58t-58 24t-57.5 -24t-23.5 -58z" />
    <glyph glyph-name="less" unicode="&#x3c;" horiz-adv-x="365" 
d="M324 240l-132 101l132 100v141l-288 -193v-96l288 -193v140z" />
    <glyph glyph-name="equal" unicode="=" horiz-adv-x="520" 
d="M465 482h-410v-129h410v129zM465 329h-410v-129h410v129z" />
    <glyph glyph-name="greater" unicode="&#x3e;" horiz-adv-x="365" 
d="M41 100l288 193v96l-288 193v-141q25 -18 56 -41.5t57 -43.5q5 -4 9.5 -7.5t9.5 -7.5l-132 -100v-141z" />
    <glyph glyph-name="question" unicode="?" horiz-adv-x="500" 
d="M237 459q-37 -14 -61.5 -31t-38.5 -36.5t-19.5 -41t-5.5 -44.5q0 -18 3.5 -44.5t9.5 -51.5h102q-3 54 4 85.5t38 43.5q41 17 74 33t56.5 39t36.5 56.5t13 84.5q0 40 -9 78t-36 67.5t-75.5 47.5t-128.5 18q-17 0 -40 -2.5t-46.5 -7t-45.5 -10.5t-37 -12v-130
q35 12 81.5 23.5t88.5 11.5q37 0 59.5 -6t35 -17.5t16.5 -27t4 -34.5q0 -21 -6.5 -36t-17.5 -25.5t-25 -17.5t-30 -13zM103 68q0 -34 23.5 -57.5t57.5 -23.5t58 23.5t24 57.5t-24 58t-58 24t-57.5 -24t-23.5 -58z" />
    <glyph glyph-name="at" unicode="@" horiz-adv-x="1012" 
d="M683 0q77 0 129 23.5t83.5 67t45 105t13.5 136.5q0 87 -16.5 165t-64.5 137t-134.5 94t-227.5 35q-94 0 -166 -20.5t-124.5 -57t-87.5 -85.5t-56 -106t-30 -119.5t-9 -124.5t9 -124.5t30 -119.5t56 -106t87.5 -85.5t124.5 -57t166 -20.5q74 0 140 11t121 31l-1 145
q-57 -28 -122.5 -43.5t-137.5 -15.5q-101 0 -166.5 34.5t-103.5 89.5t-52.5 123.5t-14.5 137.5t14.5 137.5t52.5 123.5t103.5 89.5t166.5 34.5t161.5 -24.5t92.5 -66t42.5 -96.5t10.5 -116q0 -45 -5.5 -80.5t-18.5 -61.5t-34.5 -42t-53.5 -21v373h-94l-6 -17
q-29 14 -57.5 22t-60.5 8q-64 0 -106.5 -19t-68 -53.5t-35.5 -83t-10 -107.5t10 -107.5t35.5 -83t68 -53.5t106.5 -19q32 0 60.5 8t57.5 22l8 -17h69zM575 128q-17 -7 -38 -11.5t-49 -4.5t-45 11.5t-26 30.5t-12 44t-3 52t3 52t12 44t26 30.5t45 11.5q26 0 48 -5t39 -11
v-244z" />
    <glyph glyph-name="A" unicode="A" horiz-adv-x="679" 
d="M175 0l60 190h207l63 -190h149l-266 766h-96l-267 -766h150zM401 321h-124l63 196z" />
    <glyph glyph-name="B" unicode="B" horiz-adv-x="633" 
d="M70 0h258q74 0 124.5 17.5t82 48t45 72t13.5 88.5q0 51 -18.5 96t-60.5 74q29 29 42.5 65.5t13.5 74.5q0 44 -12.5 83t-41.5 68t-76.5 46t-116.5 17h-253v-750zM209 321h125q63 0 88.5 -23t25.5 -72q0 -17 -4.5 -34t-17.5 -30t-35.5 -21t-58.5 -8h-123v188zM424 536
q0 -15 -4 -29.5t-14 -26.5t-27.5 -19t-44.5 -7h-125v163h117q32 0 51 -7t29.5 -18t14 -26t3.5 -30z" />
    <glyph glyph-name="C" unicode="C" horiz-adv-x="628" 
d="M55 375q0 -80 15 -151t50.5 -124.5t94 -84.5t145.5 -31q66 0 120.5 10.5t92.5 27.5v143q-35 -14 -64 -23.5t-54.5 -15t-48.5 -7.5t-46 -2q-45 0 -76.5 20t-50.5 55t-27.5 82t-8.5 101t8.5 101t27.5 82t50.5 55t76.5 20q23 0 46 -2t48.5 -7.5t54.5 -15t64 -23.5v143
q-38 17 -92.5 27.5t-120.5 10.5q-87 0 -145.5 -31t-94 -84.5t-50.5 -124.5t-15 -151z" />
    <glyph glyph-name="D" unicode="D" horiz-adv-x="669" 
d="M292 0q94 0 156 28.5t99 79t52 119t15 148.5t-15 148.5t-52 119t-99 79t-156 28.5h-222v-750h222zM208 617h87q51 0 84.5 -18t54 -50t29 -76.5t8.5 -97.5t-8.5 -97.5t-29 -76.5t-54 -50t-84.5 -18h-87v484z" />
    <glyph glyph-name="E" unicode="E" horiz-adv-x="592" 
d="M506 454h-298v163h329v133h-467v-750h467v133h-329v188h298v133z" />
    <glyph glyph-name="F" unicode="F" horiz-adv-x="564" 
d="M497 454h-288v163h320v133h-459v-750h139v321h288v133z" />
    <glyph glyph-name="G" unicode="G" horiz-adv-x="674" 
d="M360 -16q76 0 136.5 14.5t107.5 35.5v395h-278v-133h140v-170q-23 -5 -51.5 -7t-54.5 -2q-46 0 -77 20t-50.5 55t-28 82t-8.5 101t8.5 101t28 82t50.5 55t77 20q24 0 48.5 -2.5t51.5 -8.5t58 -16.5t69 -26.5v142q-38 18 -95 31.5t-132 13.5q-87 0 -145.5 -31t-94 -84.5
t-50.5 -124.5t-15 -151t15 -151t50.5 -124.5t94 -84.5t145.5 -31z" />
    <glyph glyph-name="H" unicode="H" horiz-adv-x="676" 
d="M606 0v750h-138v-296h-260v296h-138v-750h138v321h260v-321h138z" />
    <glyph glyph-name="I" unicode="I" horiz-adv-x="299" 
d="M219 0v750h-139v-750h139z" />
    <glyph glyph-name="J" unicode="J" horiz-adv-x="410" 
d="M30 1q9 -3 22.5 -6.5t28 -5.5t28 -3.5t22.5 -1.5q104 0 151.5 45.5t47.5 127.5v593h-138v-594q0 -23 -17 -31.5t-44 -8.5q-21 0 -43 3.5t-58 13.5v-132z" />
    <glyph glyph-name="K" unicode="K" horiz-adv-x="649" 
d="M225 299l229 -299h180l-319 405l296 345h-182l-223 -285v285h-136v-750h136v274z" />
    <glyph glyph-name="L" unicode="L" horiz-adv-x="554" 
d="M207 750h-137v-750h449v133h-312v617z" />
    <glyph glyph-name="M" unicode="M" horiz-adv-x="838" 
d="M637 482l-5 -482h136v750h-152l-197 -459l-197 459h-152v-750h136l-5 479l168 -384h100z" />
    <glyph glyph-name="N" unicode="N" horiz-adv-x="684" 
d="M614 0v750h-135l2 -470l-303 470h-108v-750h135l-2 470l303 -470h108z" />
    <glyph glyph-name="O" unicode="O" horiz-adv-x="692" 
d="M637 375q0 74 -9.5 144t-40 125t-88 88.5t-153.5 33.5t-153.5 -33.5t-88 -88.5t-40 -125t-9.5 -144q0 -73 9.5 -143.5t40 -125.5t88 -88.5t153.5 -33.5t153.5 33.5t88 88.5t40 125.5t9.5 143.5zM495 375q0 -51 -5 -98t-20.5 -82.5t-45 -56.5t-78.5 -21t-78 21t-45 56.5
t-21 82.5t-5 98t5 98t21 82.5t45 56.5t78 21t78.5 -21t45 -56.5t20.5 -82.5t5 -98z" />
    <glyph glyph-name="P" unicode="P" 
d="M209 271h107q74 0 124 20t81.5 53t45 76.5t13.5 90.5t-13.5 90t-45 76t-81.5 53t-124 20h-246v-750h139v271zM209 617h109q36 0 58.5 -10t35 -25t17 -34t4.5 -37t-4.5 -37t-17 -34.5t-35 -25.5t-58.5 -10h-109v213z" />
    <glyph glyph-name="Q" unicode="Q" horiz-adv-x="692" 
d="M637 375q0 74 -9.5 144t-40 125t-88 88.5t-153.5 33.5t-153.5 -33.5t-88 -88.5t-40 -125t-9.5 -144q0 -63 6.5 -124.5t27.5 -113t59.5 -89t101.5 -53.5l487 -125v130l-210 36v1q35 26 56.5 63t33.5 81.5t16 93.5t4 100zM495 375q0 -51 -5 -98t-20.5 -82.5t-45 -56.5
t-78.5 -21t-78 21t-45 56.5t-21 82.5t-5 98t5 98t21 82.5t45 56.5t78 21t78.5 -21t45 -56.5t20.5 -82.5t5 -98z" />
    <glyph glyph-name="R" unicode="R" horiz-adv-x="654" 
d="M208 296h119l145 -296h167q-12 22 -26.5 50.5t-30.5 58.5t-31.5 60.5t-29.5 55.5t-27.5 49.5t-24.5 48.5q62 28 86 79t24 122q0 52 -13 94t-43 71t-80 45t-124 16h-249v-750h138v296zM208 617h124q33 0 53 -7t30.5 -20t14 -29.5t3.5 -36.5t-3.5 -37.5t-14 -30t-30.5 -20
t-53 -7.5h-124v188z" />
    <glyph glyph-name="S" unicode="S" horiz-adv-x="617" 
d="M323 454q-32 4 -57 8.5t-42 13t-25.5 22t-8.5 36.5q0 19 5 37t19 31.5t38.5 22t63.5 8.5q23 0 46 -2t48.5 -8t54.5 -16.5t65 -27.5v143q-40 18 -94 31t-120 13q-83 0 -135 -23t-81 -57.5t-39.5 -75t-10.5 -75.5q0 -51 13.5 -87.5t43.5 -61.5t77.5 -40.5t116.5 -24.5
q34 -4 57.5 -10t38.5 -15.5t21.5 -25t6.5 -38.5t-7 -44t-24 -36.5t-45 -25t-71 -9.5q-40 0 -76.5 6t-66.5 14.5t-51.5 17.5t-33.5 16v-139q18 -9 46 -17.5t60 -15.5t64 -11t57 -4q87 0 143.5 23.5t89 59.5t45 80t12.5 85q0 57 -15.5 95.5t-46 64t-76.5 40t-106 22.5z" />
    <glyph glyph-name="T" unicode="T" horiz-adv-x="585" 
d="M550 617v133h-515v-133h188v-617h139v617h188z" />
    <glyph glyph-name="U" unicode="U" horiz-adv-x="684" 
d="M342 118q-18 0 -42 3.5t-45.5 17.5t-36.5 41.5t-15 74.5v495h-138v-507q0 -56 14 -96.5t37 -69.5t52.5 -47t60 -28.5t60.5 -14t53 -3.5q24 0 53.5 3.5t60 14t60 28.5t52.5 47t37 69.5t14 96.5v507h-138v-495q0 -47 -15 -74.5t-36.5 -41.5t-45.5 -17.5t-42 -3.5z" />
    <glyph glyph-name="V" unicode="V" horiz-adv-x="679" 
d="M340 218l-165 532h-150l266 -766h97l266 766h-150z" />
    <glyph glyph-name="W" unicode="W" horiz-adv-x="884" 
d="M259 249l-87 501h-147l164 -766h123l130 521l128 -521h124l165 766h-147l-87 -499l-122 499h-123z" />
    <glyph glyph-name="X" unicode="X" horiz-adv-x="702" 
d="M351 485l-159 265h-167l243 -370l-248 -380h170l161 269l161 -269h170l-248 379l243 371h-167z" />
    <glyph glyph-name="Y" unicode="Y" horiz-adv-x="732" 
d="M707 750h-164l-177 -318l-177 318h-164l272 -443v-307h138v307z" />
    <glyph glyph-name="Z" unicode="Z" horiz-adv-x="624" 
d="M589 0v133h-365l352 528v89h-523v-133h334l-352 -528v-89h554z" />
    <glyph glyph-name="bracketleft" unicode="[" horiz-adv-x="306" 
d="M207 683h64v133h-201v-1022h201v133h-64v756z" />
    <glyph glyph-name="backslash" unicode="\" horiz-adv-x="498" 
d="M351 -206l-351 1022h147l351 -1022h-147z" />
    <glyph glyph-name="bracketright" unicode="]" horiz-adv-x="306" 
d="M99 683h-64v133h201v-1022h-201v133h64v756z" />
    <glyph glyph-name="asciicircum" unicode="^" horiz-adv-x="540" 
d="M328 750l185 -250h-123l-110 99l-110 -99h-123l185 250h96z" />
    <glyph glyph-name="underscore" unicode="_" horiz-adv-x="320" 
d="M320 -122h-320v-128h320v128z" />
    <glyph glyph-name="grave" unicode="`" horiz-adv-x="540" 
d="M203 575h86l-80 175h-151z" />
    <glyph glyph-name="a" unicode="a" horiz-adv-x="520" 
d="M239 333q-52 -3 -88.5 -18t-58.5 -38t-32 -52t-10 -62q0 -35 9.5 -67.5t31.5 -57t58 -39.5t90 -15q27 0 60 8.5t60 22.5l8 -15h93v333q0 41 -9 75t-31.5 58t-61 37t-97.5 13q-35 0 -83.5 -5.5t-92.5 -24.5v-127q41 14 89.5 23t86.5 9q36 0 51.5 -13t15.5 -39zM328 224
v-91q-15 -8 -40.5 -16t-46.5 -8q-19 0 -30.5 5t-17.5 13t-8 17.5t-2 18.5q0 19 12 35t47 19z" />
    <glyph glyph-name="b" unicode="b" horiz-adv-x="568" 
d="M65 0h93l7 18q27 -16 62 -25t64 -9q66 0 110 17.5t70 51.5t36.5 83.5t10.5 113.5q0 65 -10.5 114.5t-36.5 83t-70 51t-110 17.5q-21 0 -48 -5.5t-47 -13.5v253h-131v-750zM196 372q17 7 41.5 13t51.5 6q30 0 48.5 -10.5t29 -29.5t14 -45t3.5 -56t-3.5 -56t-14 -45
t-29 -29.5t-48.5 -10.5q-27 0 -51.5 6t-41.5 13v244z" />
    <glyph glyph-name="c" unicode="c" horiz-adv-x="490" 
d="M184 250q0 28 3.5 53.5t13.5 45t28 31t47 11.5q42 0 81.5 -8t82.5 -24v126q-42 20 -86.5 25.5t-77.5 5.5q-64 0 -107.5 -19.5t-69.5 -54.5t-37.5 -84t-11.5 -108t11.5 -108t37.5 -84t69.5 -54.5t107.5 -19.5q33 0 77.5 5.5t86.5 25.5v126q-43 -16 -82.5 -24t-81.5 -8
q-29 0 -47 11.5t-28 31t-13.5 45t-3.5 53.5z" />
    <glyph glyph-name="d" unicode="d" horiz-adv-x="568" 
d="M503 0h-93l-7 18q-27 -16 -62 -25t-64 -9q-66 0 -110 17.5t-70 51.5t-36.5 83.5t-10.5 113.5q0 65 10.5 114.5t36.5 83t70 51t110 17.5q21 0 48 -5.5t47 -13.5v253h131v-750zM372 372q-17 7 -41.5 13t-51.5 6q-30 0 -48.5 -10.5t-29 -29.5t-14 -45t-3.5 -56t3.5 -56
t14 -45t29 -29.5t48.5 -10.5q27 0 51.5 6t41.5 13v244z" />
    <glyph glyph-name="e" unicode="e" horiz-adv-x="530" 
d="M480 187v63q0 53 -6.5 101t-28 84.5t-61.5 58.5t-108 22q-64 0 -107.5 -19.5t-69.5 -54.5t-37.5 -84t-11.5 -108t11.5 -108t37.5 -84t69.5 -54.5t107.5 -19.5q18 0 40.5 1.5t46.5 5t48 10t44 16.5v130q-46 -20 -90.5 -29t-88.5 -9q-45 0 -65 23t-22 55h291zM276 391
q20 0 33 -7t20.5 -18.5t10.5 -26.5t4 -32h-156q6 36 25 60t63 24z" />
    <glyph glyph-name="f" unicode="f" horiz-adv-x="425" 
d="M404 752q-27 8 -54.5 11t-41.5 3q-101 0 -146 -43t-45 -123v-104l-87 -24v-91h87v-381h131v381h137v119h-137v100q0 22 17 31.5t43 9.5q18 0 43 -3t53 -11v125z" />
    <glyph glyph-name="g" unicode="g" horiz-adv-x="550" 
d="M467 317q0 43 -9 77l55 15v91h-152q-21 8 -47 12t-58 4q-59 0 -99 -14t-65 -40t-35.5 -63t-10.5 -82q0 -56 16 -98t54 -68q-14 -14 -23 -32.5t-9 -41.5q0 -33 12 -54v-1q-33 -19 -56.5 -50t-23.5 -73q0 -45 16.5 -76.5t47.5 -51t74.5 -28.5t97.5 -9q53 0 101 10.5
t85.5 32.5t59.5 56.5t22 83.5q0 73 -36.5 106t-110.5 41l-139 16q-19 3 -19 16q0 7 3 12t13 10h25q60 0 100 14t65 40t35.5 63t10.5 82zM174 317q0 17 3 31t12 23.5t25 15t42 5.5t42 -5.5t25 -15t12.5 -23.5t3.5 -31t-3.5 -31t-12.5 -23.5t-25 -15t-42 -5.5t-42 5.5t-25 15
t-12 23.5t-3 31zM343 -52q21 -2 31 -9t10 -22q0 -17 -11 -28t-29.5 -18t-42.5 -9.5t-49 -2.5q-49 0 -75 8.5t-26 35.5q0 34 49 62z" />
    <glyph glyph-name="h" unicode="h" horiz-adv-x="561" 
d="M368 0h133v330q0 45 -10 79.5t-33.5 58t-62 36t-94.5 12.5q-24 0 -52 -6t-52 -15v255h-132v-750h132v369q6 2 16.5 6t25 7.5t30.5 6t32 2.5q35 0 51 -17t16 -44v-330z" />
    <glyph glyph-name="i" unicode="i" horiz-adv-x="300" 
d="M239 -16v125q-20 0 -28 7t-8 21v363h-131v-385q0 -73 33 -102t98 -29h36zM58 658q0 -34 23.5 -57.5t57.5 -23.5t58 23.5t24 57.5t-24 58t-58 24t-57.5 -24t-23.5 -58z" />
    <glyph glyph-name="j" unicode="j" horiz-adv-x="279" 
d="M-38 -266q51 0 95 12.5t77 36t51.5 58t18.5 78.5v581h-132v-578q0 -16 -10 -28t-25.5 -20.5t-35.5 -13t-39 -4.5v-122zM58 658q0 -34 23.5 -57.5t57.5 -23.5t58 23.5t24 57.5t-24 58t-58 24t-57.5 -24t-23.5 -58z" />
    <glyph glyph-name="k" unicode="k" horiz-adv-x="545" 
d="M332 502l-136 -146v394h-131v-750h131v186l13 13l148 -199h178l-236 287l225 215h-192z" />
    <glyph glyph-name="l" unicode="l" horiz-adv-x="300" 
d="M239 -16v125q-20 0 -28 7t-8 21v613h-131v-635q0 -73 33 -102t98 -29h36z" />
    <glyph glyph-name="m" unicode="m" horiz-adv-x="818" 
d="M288 516q-27 0 -60 -9t-61 -24l-8 17h-94v-500h133v371q17 7 38.5 13.5t51.5 6.5q26 0 41.5 -13t15.5 -41v-337h133v371q13 5 34.5 12.5t55.5 7.5q26 0 41.5 -13t15.5 -41v-337h133v342q0 80 -44.5 127t-145.5 47q-32 0 -71 -12t-70 -32q-20 20 -52 32t-87 12z" />
    <glyph glyph-name="n" unicode="n" horiz-adv-x="562" 
d="M369 0h133v330q0 45 -10 79.5t-33.5 58t-62 36t-94.5 12.5q-16 0 -35 -3t-37.5 -7.5t-35 -10.5t-28.5 -11l-8 16h-93v-500h133v369q6 2 16.5 6t25 7.5t30.5 6t32 2.5q35 0 51 -17t16 -44v-330z" />
    <glyph glyph-name="o" unicode="o" horiz-adv-x="550" 
d="M500 250q0 59 -9 107.5t-34 84t-69 55t-113 19.5t-112.5 -19.5t-68.5 -55t-34.5 -84t-9.5 -107.5q0 -58 9.5 -107t34.5 -84.5t68.5 -55t112.5 -19.5t113 19.5t69 55t34 84.5t9 107zM368 250q0 -29 -3 -55t-12.5 -45t-28 -30t-49.5 -11t-49.5 11t-28.5 30t-12.5 45
t-2.5 55t2.5 55t12.5 45t28.5 30t49.5 11t49.5 -11t28 -30t12.5 -45t3 -55z" />
    <glyph glyph-name="p" unicode="p" horiz-adv-x="568" 
d="M65 500h93l7 -18q27 16 62 25t64 9q66 0 110 -17.5t70 -51.5t36.5 -83.5t10.5 -113.5t-10.5 -114t-36.5 -83.5t-70 -51t-110 -17.5q-21 0 -48 5.5t-47 13.5v-253h-131v750zM196 128q17 -7 41.5 -13t51.5 -6q30 0 48.5 10.5t29 29.5t14 45t3.5 56t-3.5 56t-14 45t-29 29.5
t-48.5 10.5q-27 0 -51.5 -6t-41.5 -13v-244z" />
    <glyph glyph-name="q" unicode="q" horiz-adv-x="568" 
d="M503 500h-93l-7 -18q-27 16 -62 25t-64 9q-66 0 -110 -17.5t-70 -51.5t-36.5 -83.5t-10.5 -113.5t10.5 -114t36.5 -83.5t70 -51t110 -17.5q21 0 48 5.5t47 13.5v-253h131v750zM372 128q-17 -7 -41.5 -13t-51.5 -6q-30 0 -48.5 10.5t-29 29.5t-14 45t-3.5 56t3.5 56t14 45
t29 29.5t48.5 10.5q27 0 51.5 -6t41.5 -13v-244z" />
    <glyph glyph-name="r" unicode="r" horiz-adv-x="414" 
d="M374 505q-7 3 -29 7t-58 4q-31 0 -62.5 -8.5t-58.5 -24.5l-7 17h-94v-500h133v372q14 7 37 13t52 6q23 0 47 -5t40 -12v131z" />
    <glyph glyph-name="s" unicode="s" horiz-adv-x="490" 
d="M184 348q0 17 13 30t55 13q40 0 79.5 -10t81.5 -24v126q-45 20 -85.5 26.5t-75.5 6.5q-55 0 -93 -15.5t-61 -40t-33 -54.5t-10 -59t8 -54.5t28.5 -45t56 -33t90.5 -18.5q41 -4 54 -14.5t13 -25.5q0 -17 -16.5 -32t-62.5 -15q-42 0 -86.5 11.5t-79.5 24.5v-130
q16 -6 37 -11.5t43.5 -10t44.5 -7t40 -2.5q60 0 100 15.5t64.5 40t35 56t10.5 62.5q0 35 -7.5 62.5t-28 47.5t-56 32.5t-91.5 17.5q-43 4 -55.5 11.5t-12.5 18.5z" />
    <glyph glyph-name="t" unicode="t" horiz-adv-x="425" 
d="M366 115q-14 -2 -35.5 -4t-34.5 -2q-22 0 -35 6.5t-13 24.5v241h138v119h-138v149l-131 -36v-117l-87 -25v-90h87v-248q0 -39 15 -67t39 -46.5t55 -27t63 -8.5q6 0 25.5 0.5t51.5 8.5v122z" />
    <glyph glyph-name="u" unicode="u" horiz-adv-x="562" 
d="M193 500h-133v-330q0 -45 10 -79.5t33.5 -58t62 -36t94.5 -12.5q17 0 35.5 3t37 7.5t35 10.5t28.5 11l8 -16h93v500h-133v-369q-6 -2 -16.5 -6t-25 -7.5t-30.5 -6t-32 -2.5q-35 0 -51 17t-16 44v330z" />
    <glyph glyph-name="v" unicode="v" horiz-adv-x="525" 
d="M263 192l-99 308h-144l196 -516h93l196 516h-145z" />
    <glyph glyph-name="w" unicode="w" horiz-adv-x="709" 
d="M414 500h-119l-74 -266l-58 266h-140l144 -516h102l86 314l85 -314h102l144 516h-138l-58 -266z" />
    <glyph glyph-name="x" unicode="x" horiz-adv-x="552" 
d="M276 156l102 -156h162l-186 257l177 244h-161l-94 -147l-95 147h-160l177 -244l-186 -257h161z" />
    <glyph glyph-name="y" unicode="y" horiz-adv-x="527" 
d="M20 500l179 -461l-126 -289h146l288 750h-147l-96 -297l-96 297h-148z" />
    <glyph glyph-name="z" unicode="z" horiz-adv-x="480" 
d="M445 0v125h-232l223 288v87h-388v-125h211l-224 -288v-87h410z" />
    <glyph glyph-name="braceleft" unicode="{" horiz-adv-x="284" 
d="M23 374v-138h39q4 0 7 -2t2 -10l-16 -290q-2 -38 7.5 -64.5t28.5 -43.5t46 -24.5t60 -7.5h52v133h-43q-4 0 -7.5 2t-2.5 9l17 291q1 22 -6.5 41t-19.5 35q12 16 19.5 34.5t6.5 41.5l-17 291q-1 7 2.5 9t7.5 2h43v133h-52q-33 0 -60 -7.5t-46 -24.5t-28.5 -43.5
t-7.5 -64.5l16 -290q1 -8 -2 -10t-7 -2h-39z" />
    <glyph glyph-name="bar" unicode="|" horiz-adv-x="299" 
d="M217 816h-135v-1022h135v1022z" />
    <glyph glyph-name="braceright" unicode="}" horiz-adv-x="284" 
d="M261 374v-138h-39q-4 0 -7 -2t-2 -10l16 -290q2 -38 -7.5 -64.5t-28.5 -43.5t-46 -24.5t-60 -7.5h-52v133h43q4 0 7.5 2t2.5 9l-17 291q-2 22 5.5 41t20.5 35q-13 16 -20.5 34.5t-5.5 41.5l17 291q1 7 -2.5 9t-7.5 2h-43v133h52q33 0 60 -7.5t46 -24.5t28.5 -43.5
t7.5 -64.5l-16 -290q-1 -12 6 -12h42z" />
    <glyph glyph-name="asciitilde" unicode="~" horiz-adv-x="370" 
d="M335 427q-12 12 -33.5 23t-47.5 11q-28 0 -47 -9.5t-34 -20.5t-29.5 -20.5t-33.5 -9.5q-21 0 -38.5 5.5t-36.5 19.5v-122q12 -12 33.5 -23t47.5 -11q28 0 47 9.5t34 20.5t29.5 20.5t33.5 9.5q21 0 38.5 -5.5t36.5 -19.5v122z" />
    <glyph glyph-name="exclamdown" unicode="&#xa1;" horiz-adv-x="240" 
d="M164 290l36 -540h-162l36 540h90zM38 432q0 34 23.5 57.5t57.5 23.5t58 -23.5t24 -57.5t-24 -58t-58 -24t-57.5 24t-23.5 58z" />
    <glyph glyph-name="cent" unicode="&#xa2;" 
d="M55 375q0 -100 39 -163t112 -91l-44 -121h141l34 99h4q18 0 44 1.5t54 5.5t56.5 10.5t50.5 15.5v125q-21 -8 -47.5 -14.5t-54 -10.5t-54.5 -6t-50 -2q-33 0 -61 8t-49 26t-33 46.5t-12 70.5t12 70.5t33 46.5t49 26t61 8q23 0 50 -2t54.5 -6t54 -10.5t47.5 -14.5v125
q-38 15 -88 23l42 109h-141l-34 -99q-129 -5 -199.5 -73.5t-70.5 -202.5z" />
    <glyph glyph-name="sterling" unicode="&#xa3;" 
d="M249 561q0 35 23 57t74 22q20 0 45.5 -2.5t52 -7t51 -10.5t43.5 -14v125q-22 10 -48 16.5t-52.5 10.5t-50.5 6t-41 2q-62 0 -105.5 -14.5t-71.5 -41t-40.5 -64t-12.5 -82.5v-110h-71v-124h71v-205h-71v-125h511v125h-307v205h229v124h-229v107z" />
    <glyph glyph-name="yen" unicode="&#xa5;" 
d="M198 355h-156v-129h189v-226h138v226h189v129h-157l19 40h138v129h-76l109 226h-161l-130 -308l-130 308h-161l108 -226h-75v-129h137z" />
    <glyph glyph-name="brokenbar" unicode="&#xa6;" horiz-adv-x="299" 
d="M82 326h135v490h-135v-490zM82 -206h135v490h-135v-490z" />
    <glyph glyph-name="section" unicode="&#xa7;" horiz-adv-x="700" 
d="M408 448q-34 5 -60.5 11t-44.5 15t-27 24t-9 38q0 20 5.5 37t20.5 30t41 20t66 7q25 0 49 -2t50.5 -7.5t56.5 -15.5t66 -27v147q-42 18 -97.5 29.5t-123.5 11.5q-86 0 -140 -22.5t-84.5 -56.5t-41.5 -74t-11 -76q0 -52 12 -88q-50 -39 -69 -87t-19 -91q0 -54 11.5 -90.5
t39 -61.5t74.5 -40.5t119 -26.5q35 -5 61 -11t44 -15t27 -24t9 -38q0 -20 -5.5 -37t-20.5 -30t-40.5 -20t-66.5 -7q-25 0 -49 2t-50.5 7.5t-56.5 15.5t-66 27v-147q42 -18 97.5 -29.5t123.5 -11.5q86 0 140 22.5t84.5 56.5t41.5 74t11 76q0 52 -12 88q25 19 42 41t27 45.5
t14.5 46.5t4.5 45q0 54 -11.5 90.5t-39 61.5t-74.5 40.5t-119 26.5zM315 187q-30 5 -53 10.5t-38.5 14t-23.5 22.5t-8 36q0 47 49 79q29 -11 64 -19.5t80 -16.5q30 -5 53 -10.5t38.5 -14t23.5 -22.5t8 -36q0 -49 -49 -79q-29 11 -64.5 19.5t-79.5 16.5z" />
    <glyph glyph-name="dieresis" unicode="&#xa8;" horiz-adv-x="540" 
d="M87 658q0 -34 23.5 -57.5t57.5 -23.5t58 23.5t24 57.5t-24 58t-58 24t-57.5 -24t-23.5 -58zM310 658q0 -34 23.5 -57.5t57.5 -23.5t58 23.5t24 57.5t-24 58t-58 24t-57.5 -24t-23.5 -58z" />
    <glyph glyph-name="copyright" unicode="&#xa9;" horiz-adv-x="680" 
d="M340 -16q54 0 103.5 11t86.5 40t59 81t22 134t-22 134t-59 81t-86.5 40t-103.5 11t-103.5 -11t-86.5 -40t-59 -81t-22 -134t22 -134t59 -81t86.5 -40t103.5 -11zM340 77q-38 0 -69.5 6t-54.5 24.5t-36 52.5t-13 90t13 90t36 52.5t54.5 24.5t69.5 6t69.5 -6t54.5 -24.5
t36 -52.5t13 -90t-13 -90t-36 -52.5t-54.5 -24.5t-69.5 -6zM345 197q-24 0 -36 11.5t-12 41.5t12 41.5t36 11.5q20 0 44 -4t44 -9v94q-22 5 -48 8.5t-45 3.5q-67 0 -102 -32t-35 -114t35 -114t102 -32q19 0 45 3.5t48 8.5v94q-20 -5 -44 -9t-44 -4z" />
    <glyph glyph-name="ordfeminine" unicode="&#xaa;" horiz-adv-x="400" 
d="M36 501q0 -66 33 -100t110 -34q19 0 44.5 7t39.5 15l7 -14h81v249q0 32 -6.5 58t-23.5 45t-46.5 29t-76.5 10q-25 0 -59 -4.5t-69 -18.5v-111q38 14 70.5 19.5t57.5 5.5q20 0 28 -6t10 -20l-50 -5q-75 -8 -112.5 -37.5t-37.5 -87.5zM236 536v-50q-11 -4 -27.5 -7
t-27.5 -3q-17 0 -23 8t-6 20q0 23 37 27z" />
    <glyph glyph-name="guillemotleft" unicode="&#xab;" horiz-adv-x="495" 
d="M55 296l190 150v-117l-79 -79l79 -79v-118l-190 151v92zM245 296l190 150v-117l-79 -79l79 -79v-118l-190 151v92z" />
    <glyph glyph-name="logicalnot" unicode="&#xac;" horiz-adv-x="660" 
d="M80 0v500h500v-500h-500z" />
    <glyph glyph-name="registered" unicode="&#xae;" horiz-adv-x="344" 
d="M172 766q-28 0 -54 -5.5t-45.5 -21.5t-31.5 -43t-12 -71q0 -43 12 -70.5t31.5 -43t45.5 -21.5t54 -6t54 6t45.5 21.5t31.5 43t12 70.5q0 44 -12 71t-31.5 43t-45.5 21.5t-54 5.5zM172 723q21 0 39 -3.5t30.5 -14t20 -29.5t7.5 -51t-7.5 -51t-20 -29.5t-30.5 -14t-39 -3.5
t-39 3.5t-30.5 14t-20 29.5t-7.5 51t7.5 51t20 29.5t30.5 14t39 3.5zM175 598l21 -52h47l-28 62q19 13 19 45q0 22 -11.5 36.5t-43.5 14.5h-69v-158h41v52h24zM189 653q0 -7 -2 -10.5t-10 -3.5h-26v24h26q8 0 10 -2.5t2 -7.5z" />
    <glyph glyph-name="macron" unicode="&#xaf;" horiz-adv-x="602" 
d="M437 750h-274v-128h274v128z" />
    <glyph glyph-name="degree" unicode="&#xb0;" horiz-adv-x="366" 
d="M183 484q-26 0 -52 6.5t-46.5 23t-33 43.5t-12.5 68t12.5 68.5t33 43.5t46.5 22.5t52 6.5t52 -6.5t46.5 -22.5t33 -43.5t12.5 -68.5t-12.5 -68t-33 -43.5t-46.5 -23t-52 -6.5zM183 668q-20 0 -31 -9.5t-11 -33.5t11 -33.5t31 -9.5t31 9.5t11 33.5t-11 33.5t-31 9.5z" />
    <glyph glyph-name="plusminus" unicode="&#xb1;" horiz-adv-x="520" 
d="M324 166v141h141v128h-141v141h-128v-141h-141v-128h141v-141h128zM55 0h410v128h-410v-128z" />
    <glyph glyph-name="acute" unicode="&#xb4;" horiz-adv-x="540" 
d="M203 575l80 175h151l-145 -175h-86z" />
    <glyph glyph-name="mu" unicode="&#xb5;" horiz-adv-x="562" 
d="M60 500v-750h133v240q29 -6 67 -6q17 0 35.5 3t37 7.5t35 10.5t28.5 11l8 -16h93v500h-133v-369q-6 -2 -16.5 -6t-25 -7.5t-30.5 -6t-32 -2.5q-34 0 -49.5 15t-17.5 40v336h-133z" />
    <glyph glyph-name="mu" unicode="&#x3bc;" horiz-adv-x="562" 
d="M60 500v-750h133v240q29 -6 67 -6q17 0 35.5 3t37 7.5t35 10.5t28.5 11l8 -16h93v500h-133v-369q-6 -2 -16.5 -6t-25 -7.5t-30.5 -6t-32 -2.5q-34 0 -49.5 15t-17.5 40v336h-133z" />
    <glyph glyph-name="paragraph" unicode="&#xb6;" horiz-adv-x="610" 
d="M225 0v276q-54 9 -91 31.5t-60 54t-33.5 70t-10.5 79.5q0 47 13.5 90t45 76t82 53t123.5 20h246v-750h-139v271h-37v-271h-139zM401 617h-37v-213h37v213zM177 511q0 -26 9.5 -52t38.5 -41v185q-29 -15 -38.5 -41t-9.5 -51z" />
    <glyph glyph-name="periodcentered" unicode="&#xb7;" horiz-adv-x="220" 
d="M29 375q0 -34 23.5 -57.5t57.5 -23.5t58 23.5t24 57.5t-24 58t-58 24t-57.5 -24t-23.5 -58z" />
    <glyph glyph-name="periodcentered" unicode="&#x22c5;" horiz-adv-x="220" 
d="M29 375q0 -34 23.5 -57.5t57.5 -23.5t58 23.5t24 57.5t-24 58t-58 24t-57.5 -24t-23.5 -58z" />
    <glyph glyph-name="cedilla" unicode="&#xb8;" horiz-adv-x="602" 
d="M330 -185q9 9 18.5 22.5t12.5 29.5t-4 32t-32 30q-13 8 -17.5 17t-3 18t7 18t12.5 18h-91q-7 -9 -15.5 -22.5t-12 -28.5t1.5 -29.5t25 -25.5q10 -6 11.5 -15.5t-3 -21t-13.5 -22.5t-19 -20h122z" />
    <glyph glyph-name="ordmasculine" unicode="&#xba;" horiz-adv-x="469" 
d="M55 567q0 -99 42 -149.5t136 -50.5t139 50.5t45 149.5q0 98 -45 148.5t-139 50.5t-136 -50.5t-42 -148.5zM168 567q0 48 15 68t50 20q36 0 53.5 -20t17.5 -68t-17.5 -68.5t-53.5 -20.5q-35 0 -50 20t-15 69z" />
    <glyph glyph-name="guillemotright" unicode="&#xbb;" horiz-adv-x="495" 
d="M440 296l-190 150v-117l78 -79l-78 -79v-118l190 151v92zM250 296l-190 150v-117l78 -79l-78 -79v-118l190 151v92z" />
    <glyph glyph-name="questiondown" unicode="&#xbf;" horiz-adv-x="500" 
d="M244 41q38 14 62 31t38 36.5t19.5 41t5.5 44.5q0 18 -3.5 43t-8.5 51h-102q0 -54 -6 -84.5t-37 -42.5q-41 -17 -74 -33t-56.5 -39t-36.5 -56.5t-13 -84.5q0 -40 9 -78t36 -67.5t76 -47.5t128 -18q17 0 40 2.5t46.5 7t45.5 10.5t37 12v130q-35 -12 -81.5 -23.5
t-88.5 -11.5q-37 0 -59.5 6t-35 17.5t-16.5 27t-4 34.5q0 21 6.5 36t17.5 25.5t25 17.5t30 13zM378 432q0 34 -23.5 57.5t-57.5 23.5t-58 -23.5t-24 -57.5t24 -58t58 -24t57.5 24t23.5 58z" />
    <glyph glyph-name="Agrave" unicode="&#xc0;" horiz-adv-x="679" 
d="M175 0l60 190h207l63 -190h149l-266 766h-96l-267 -766h150zM384 825l-80 175h-151l145 -175h86zM401 321h-124l63 196z" />
    <glyph glyph-name="Aacute" unicode="&#xc1;" horiz-adv-x="679" 
d="M175 0l60 190h207l63 -190h149l-266 766h-96l-267 -766h150zM296 825l80 175h151l-145 -175h-86zM401 321h-124l63 196z" />
    <glyph glyph-name="Acircumflex" unicode="&#xc2;" horiz-adv-x="679" 
d="M175 0l60 190h207l63 -190h149l-266 766h-96l-267 -766h150zM518 825l-125 175h-106l-125 -175h96l82 64l82 -64h96zM401 321h-124l63 196z" />
    <glyph glyph-name="Atilde" unicode="&#xc3;" horiz-adv-x="679" 
d="M175 0l60 190h207l63 -190h149l-266 766h-96l-267 -766h150zM490 974q-12 12 -33.5 23t-47.5 11q-28 0 -47 -9.5t-34 -20.5t-29.5 -20.5t-33.5 -9.5q-21 0 -38.5 5.5t-36.5 19.5v-122q12 -12 33.5 -23t47.5 -11q28 0 47 9.5t34 20.5t29.5 20.5t33.5 9.5q21 0 38.5 -5.5
t36.5 -19.5v122zM401 321h-124l63 196z" />
    <glyph glyph-name="Adieresis" unicode="&#xc4;" horiz-adv-x="679" 
d="M175 0l60 190h207l63 -190h149l-266 766h-96l-267 -766h150zM370 908q0 -34 23.5 -57.5t57.5 -23.5t58 23.5t24 57.5t-24 58t-58 24t-57.5 -24t-23.5 -58zM147 908q0 -34 23.5 -57.5t57.5 -23.5t58 23.5t24 57.5t-24 58t-58 24t-57.5 -24t-23.5 -58zM401 321h-124l63 196
z" />
    <glyph glyph-name="Aring" unicode="&#xc5;" horiz-adv-x="679" 
d="M175 0l60 190h207l63 -190h149l-266 766h-96l-267 -766h150zM444 912q0 54 -28.5 79t-75.5 25q-48 0 -76.5 -25t-28.5 -79t28.5 -78.5t76.5 -24.5q47 0 75.5 24.5t28.5 78.5zM401 321h-124l63 196zM376 912q0 -20 -9.5 -27.5t-26.5 -7.5q-18 0 -27 7.5t-9 27.5q0 21 9 29
t27 8q17 0 26.5 -8t9.5 -29z" />
    <glyph glyph-name="AE" unicode="&#xc6;" horiz-adv-x="1076" 
d="M990 454h-298v163h329v133h-523l-493 -750h158l203 321h188v-321h467v133h-329v188h298v133zM450 454l104 164v-164h-104z" />
    <glyph glyph-name="Ccedilla" unicode="&#xc7;" horiz-adv-x="628" 
d="M410 -185q9 9 18.5 22.5t12.5 29.5t-4 32t-32 30q-21 13 -21 28q0 14 8 28q56 2 101.5 12t79.5 25v143q-35 -14 -64 -23.5t-54.5 -15t-48.5 -7.5t-46 -2q-45 0 -76.5 20t-50.5 55t-27.5 82t-8.5 101t8.5 101t27.5 82t50.5 55t76.5 20q23 0 46 -2t48.5 -7.5t54.5 -15
t64 -23.5v143q-38 17 -92.5 27.5t-120.5 10.5q-87 0 -145.5 -31t-94 -84.5t-50.5 -124.5t-15 -151q0 -73 12.5 -139t41.5 -117.5t76.5 -86t117.5 -44.5q-7 -10 -13 -22.5t-6.5 -25t5.5 -25t23 -21.5q10 -6 11.5 -15.5t-3 -21t-13.5 -22.5t-19 -20h122z" />
    <glyph glyph-name="Egrave" unicode="&#xc8;" horiz-adv-x="592" 
d="M506 454h-298v163h329v133h-467v-750h467v133h-329v188h298v133zM348 825l-80 175h-151l145 -175h86z" />
    <glyph glyph-name="Eacute" unicode="&#xc9;" horiz-adv-x="592" 
d="M506 454h-298v163h329v133h-467v-750h467v133h-329v188h298v133zM260 825l80 175h151l-145 -175h-86z" />
    <glyph glyph-name="Ecircumflex" unicode="&#xca;" horiz-adv-x="592" 
d="M506 454h-298v163h329v133h-467v-750h467v133h-329v188h298v133zM482 825l-125 175h-106l-125 -175h96l82 64l82 -64h96z" />
    <glyph glyph-name="Edieresis" unicode="&#xcb;" horiz-adv-x="592" 
d="M506 454h-298v163h329v133h-467v-750h467v133h-329v188h298v133zM334 908q0 -34 23.5 -57.5t57.5 -23.5t58 23.5t24 57.5t-24 58t-58 24t-57.5 -24t-23.5 -58zM111 908q0 -34 23.5 -57.5t57.5 -23.5t58 23.5t24 57.5t-24 58t-58 24t-57.5 -24t-23.5 -58z" />
    <glyph glyph-name="Igrave" unicode="&#xcc;" horiz-adv-x="299" 
d="M219 0v750h-139v-750h139zM194 825l-80 175h-151l145 -175h86z" />
    <glyph glyph-name="Iacute" unicode="&#xcd;" horiz-adv-x="299" 
d="M219 0v750h-139v-750h139zM106 825l80 175h151l-145 -175h-86z" />
    <glyph glyph-name="Icircumflex" unicode="&#xce;" horiz-adv-x="299" 
d="M219 0v750h-139v-750h139zM328 825l-125 175h-106l-125 -175h96l82 64l82 -64h96z" />
    <glyph glyph-name="Idieresis" unicode="&#xcf;" horiz-adv-x="299" 
d="M219 0v750h-139v-750h139zM180 908q0 -34 23.5 -57.5t57.5 -23.5t58 23.5t24 57.5t-24 58t-58 24t-57.5 -24t-23.5 -58zM-43 908q0 -34 23.5 -57.5t57.5 -23.5t58 23.5t24 57.5t-24 58t-58 24t-57.5 -24t-23.5 -58z" />
    <glyph glyph-name="Eth" unicode="&#xd0;" horiz-adv-x="669" 
d="M292 0q94 0 156 28.5t99 79t52 119t15 148.5t-15 148.5t-52 119t-99 79t-156 28.5h-222v-341l-67 -43v-157l67 43v-252h222zM274 384v157l-66 -43v119h87q51 0 84.5 -18t54 -50t29 -76.5t8.5 -97.5t-8.5 -97.5t-29 -76.5t-54 -50t-84.5 -18h-87v208z" />
    <glyph glyph-name="Ntilde" unicode="&#xd1;" horiz-adv-x="684" 
d="M614 0v750h-135l2 -470l-303 470h-108v-750h135l-2 470l303 -470h108zM492 974q-12 12 -33.5 23t-47.5 11q-28 0 -47 -9.5t-34 -20.5t-29.5 -20.5t-33.5 -9.5q-21 0 -38.5 5.5t-36.5 19.5v-122q12 -12 33.5 -23t47.5 -11q28 0 47 9.5t34 20.5t29.5 20.5t33.5 9.5
q21 0 38.5 -5.5t36.5 -19.5v122z" />
    <glyph glyph-name="Ograve" unicode="&#xd2;" horiz-adv-x="692" 
d="M637 375q0 74 -9.5 144t-40 125t-88 88.5t-153.5 33.5t-153.5 -33.5t-88 -88.5t-40 -125t-9.5 -144q0 -73 9.5 -143.5t40 -125.5t88 -88.5t153.5 -33.5t153.5 33.5t88 88.5t40 125.5t9.5 143.5zM495 375q0 -51 -5 -98t-20.5 -82.5t-45 -56.5t-78.5 -21t-78 21t-45 56.5
t-21 82.5t-5 98t5 98t21 82.5t45 56.5t78 21t78.5 -21t45 -56.5t20.5 -82.5t5 -98zM390 825l-80 175h-151l145 -175h86z" />
    <glyph glyph-name="Oacute" unicode="&#xd3;" horiz-adv-x="692" 
d="M637 375q0 74 -9.5 144t-40 125t-88 88.5t-153.5 33.5t-153.5 -33.5t-88 -88.5t-40 -125t-9.5 -144q0 -73 9.5 -143.5t40 -125.5t88 -88.5t153.5 -33.5t153.5 33.5t88 88.5t40 125.5t9.5 143.5zM495 375q0 -51 -5 -98t-20.5 -82.5t-45 -56.5t-78.5 -21t-78 21t-45 56.5
t-21 82.5t-5 98t5 98t21 82.5t45 56.5t78 21t78.5 -21t45 -56.5t20.5 -82.5t5 -98zM302 825l80 175h151l-145 -175h-86z" />
    <glyph glyph-name="Ocircumflex" unicode="&#xd4;" horiz-adv-x="692" 
d="M637 375q0 74 -9.5 144t-40 125t-88 88.5t-153.5 33.5t-153.5 -33.5t-88 -88.5t-40 -125t-9.5 -144q0 -73 9.5 -143.5t40 -125.5t88 -88.5t153.5 -33.5t153.5 33.5t88 88.5t40 125.5t9.5 143.5zM495 375q0 -51 -5 -98t-20.5 -82.5t-45 -56.5t-78.5 -21t-78 21t-45 56.5
t-21 82.5t-5 98t5 98t21 82.5t45 56.5t78 21t78.5 -21t45 -56.5t20.5 -82.5t5 -98zM524 825l-125 175h-106l-125 -175h96l82 64l82 -64h96z" />
    <glyph glyph-name="Otilde" unicode="&#xd5;" horiz-adv-x="692" 
d="M637 375q0 74 -9.5 144t-40 125t-88 88.5t-153.5 33.5t-153.5 -33.5t-88 -88.5t-40 -125t-9.5 -144q0 -73 9.5 -143.5t40 -125.5t88 -88.5t153.5 -33.5t153.5 33.5t88 88.5t40 125.5t9.5 143.5zM495 375q0 -51 -5 -98t-20.5 -82.5t-45 -56.5t-78.5 -21t-78 21t-45 56.5
t-21 82.5t-5 98t5 98t21 82.5t45 56.5t78 21t78.5 -21t45 -56.5t20.5 -82.5t5 -98zM496 974q-12 12 -33.5 23t-47.5 11q-28 0 -47 -9.5t-34 -20.5t-29.5 -20.5t-33.5 -9.5q-21 0 -38.5 5.5t-36.5 19.5v-122q12 -12 33.5 -23t47.5 -11q28 0 47 9.5t34 20.5t29.5 20.5
t33.5 9.5q21 0 38.5 -5.5t36.5 -19.5v122z" />
    <glyph glyph-name="Odieresis" unicode="&#xd6;" horiz-adv-x="692" 
d="M637 375q0 74 -9.5 144t-40 125t-88 88.5t-153.5 33.5t-153.5 -33.5t-88 -88.5t-40 -125t-9.5 -144q0 -73 9.5 -143.5t40 -125.5t88 -88.5t153.5 -33.5t153.5 33.5t88 88.5t40 125.5t9.5 143.5zM495 375q0 -51 -5 -98t-20.5 -82.5t-45 -56.5t-78.5 -21t-78 21t-45 56.5
t-21 82.5t-5 98t5 98t21 82.5t45 56.5t78 21t78.5 -21t45 -56.5t20.5 -82.5t5 -98zM153 908q0 -34 23.5 -57.5t57.5 -23.5t58 23.5t24 57.5t-24 58t-58 24t-57.5 -24t-23.5 -58zM376 908q0 -34 23.5 -57.5t57.5 -23.5t58 23.5t24 57.5t-24 58t-58 24t-57.5 -24t-23.5 -58z
" />
    <glyph glyph-name="multiply" unicode="&#xd7;" horiz-adv-x="520" 
d="M160 151l100 100l100 -100l90 90l-100 100l100 100l-90 90l-100 -100l-100 100l-90 -90l100 -100l-100 -100z" />
    <glyph glyph-name="Oslash" unicode="&#xd8;" horiz-adv-x="692" 
d="M651 750h-166l-5 -8q-27 11 -60 17.5t-74 6.5q-96 0 -153.5 -33.5t-88 -88.5t-40 -125t-9.5 -144q0 -75 9.5 -146t41.5 -127l-59 -102h166l3 6q26 -11 58.5 -16.5t71.5 -5.5q96 0 153.5 33.5t88 88.5t40 125.5t9.5 143.5t-9.5 143t-39.5 125zM197 375q0 51 5 98t21 82.5
t45 56.5t78 21q35 0 63 -13l-206 -353q-4 25 -5 52t-1 56zM495 375q0 -51 -5 -98t-20.5 -82.5t-45 -56.5t-78.5 -21q-35 0 -59 10l203 347q3 -23 4 -48t1 -51z" />
    <glyph glyph-name="Ugrave" unicode="&#xd9;" horiz-adv-x="684" 
d="M342 118q-18 0 -42 3.5t-45.5 17.5t-36.5 41.5t-15 74.5v495h-138v-507q0 -56 14 -96.5t37 -69.5t52.5 -47t60 -28.5t60.5 -14t53 -3.5q24 0 53.5 3.5t60 14t60 28.5t52.5 47t37 69.5t14 96.5v507h-138v-495q0 -47 -15 -74.5t-36.5 -41.5t-45.5 -17.5t-42 -3.5zM386 825
l-80 175h-151l145 -175h86z" />
    <glyph glyph-name="Uacute" unicode="&#xda;" horiz-adv-x="684" 
d="M342 118q-18 0 -42 3.5t-45.5 17.5t-36.5 41.5t-15 74.5v495h-138v-507q0 -56 14 -96.5t37 -69.5t52.5 -47t60 -28.5t60.5 -14t53 -3.5q24 0 53.5 3.5t60 14t60 28.5t52.5 47t37 69.5t14 96.5v507h-138v-495q0 -47 -15 -74.5t-36.5 -41.5t-45.5 -17.5t-42 -3.5zM298 825
l80 175h151l-145 -175h-86z" />
    <glyph glyph-name="Ucircumflex" unicode="&#xdb;" horiz-adv-x="684" 
d="M342 118q-18 0 -42 3.5t-45.5 17.5t-36.5 41.5t-15 74.5v495h-138v-507q0 -56 14 -96.5t37 -69.5t52.5 -47t60 -28.5t60.5 -14t53 -3.5q24 0 53.5 3.5t60 14t60 28.5t52.5 47t37 69.5t14 96.5v507h-138v-495q0 -47 -15 -74.5t-36.5 -41.5t-45.5 -17.5t-42 -3.5zM520 825
l-125 175h-106l-125 -175h96l82 64l82 -64h96z" />
    <glyph glyph-name="Udieresis" unicode="&#xdc;" horiz-adv-x="684" 
d="M342 118q-18 0 -42 3.5t-45.5 17.5t-36.5 41.5t-15 74.5v495h-138v-507q0 -56 14 -96.5t37 -69.5t52.5 -47t60 -28.5t60.5 -14t53 -3.5q24 0 53.5 3.5t60 14t60 28.5t52.5 47t37 69.5t14 96.5v507h-138v-495q0 -47 -15 -74.5t-36.5 -41.5t-45.5 -17.5t-42 -3.5zM149 908
q0 -34 23.5 -57.5t57.5 -23.5t58 23.5t24 57.5t-24 58t-58 24t-57.5 -24t-23.5 -58zM372 908q0 -34 23.5 -57.5t57.5 -23.5t58 23.5t24 57.5t-24 58t-58 24t-57.5 -24t-23.5 -58z" />
    <glyph glyph-name="Yacute" unicode="&#xdd;" horiz-adv-x="732" 
d="M707 750h-164l-177 -318l-177 318h-164l272 -443v-307h138v307zM322 825l80 175h151l-145 -175h-86z" />
    <glyph glyph-name="Thorn" unicode="&#xde;" horiz-adv-x="610" 
d="M209 135h107q74 0 124 20t81.5 53t45 76.5t13.5 90.5t-13.5 90t-45 76t-81.5 53t-124 20h-107v136h-139v-750h139v135zM209 481h109q36 0 58.5 -10t35 -25t17 -34t4.5 -37t-4.5 -37t-17 -34.5t-35 -25.5t-58.5 -10h-109v213z" />
    <glyph glyph-name="germandbls" unicode="&#xdf;" horiz-adv-x="675" 
d="M321 637q30 0 52 -6t36.5 -16t21 -22t6.5 -23q0 -15 -7.5 -31t-30.5 -23q-42 -11 -70 -25.5t-45 -33.5t-24 -43.5t-7 -55.5q0 -29 8.5 -54t29.5 -44.5t56.5 -33t89.5 -19.5q41 -4 53 -15.5t12 -28.5q0 -8 -3.5 -16.5t-12.5 -15t-24 -11t-38 -4.5q-42 0 -86 11t-79 24
v-127q15 -7 36.5 -13t44 -10.5t44.5 -7.5t39 -3q59 0 99.5 15.5t65 40t35 56t10.5 62.5q0 35 -8 62.5t-28.5 48t-56.5 34t-92 20.5q-40 4 -53 11t-13 18q0 14 11 23.5t37 16.5q39 10 65 25t42 36t23.5 48t7.5 62q0 38 -12.5 73t-41.5 62t-76.5 43t-116.5 16t-116.5 -16
t-76 -43t-41 -62t-12.5 -73v-569h130v570q0 11 7 23t21 22t36 16t52 6z" />
    <glyph glyph-name="agrave" unicode="&#xe0;" horiz-adv-x="520" 
d="M239 333q-52 -3 -88.5 -18t-58.5 -38t-32 -52t-10 -62q0 -35 9.5 -67.5t31.5 -57t58 -39.5t90 -15q27 0 60 8.5t60 22.5l8 -15h93v333q0 41 -9 75t-31.5 58t-61 37t-97.5 13q-35 0 -83.5 -5.5t-92.5 -24.5v-127q41 14 89.5 23t86.5 9q36 0 51.5 -13t15.5 -39zM303 575
l-80 175h-151l145 -175h86zM328 224v-91q-15 -8 -40.5 -16t-46.5 -8q-19 0 -30.5 5t-17.5 13t-8 17.5t-2 18.5q0 19 12 35t47 19z" />
    <glyph glyph-name="aacute" unicode="&#xe1;" horiz-adv-x="520" 
d="M239 333q-52 -3 -88.5 -18t-58.5 -38t-32 -52t-10 -62q0 -35 9.5 -67.5t31.5 -57t58 -39.5t90 -15q27 0 60 8.5t60 22.5l8 -15h93v333q0 41 -9 75t-31.5 58t-61 37t-97.5 13q-35 0 -83.5 -5.5t-92.5 -24.5v-127q41 14 89.5 23t86.5 9q36 0 51.5 -13t15.5 -39zM217 575
l80 175h151l-145 -175h-86zM328 224v-91q-15 -8 -40.5 -16t-46.5 -8q-19 0 -30.5 5t-17.5 13t-8 17.5t-2 18.5q0 19 12 35t47 19z" />
    <glyph glyph-name="acircumflex" unicode="&#xe2;" horiz-adv-x="520" 
d="M239 333q-52 -3 -88.5 -18t-58.5 -38t-32 -52t-10 -62q0 -35 9.5 -67.5t31.5 -57t58 -39.5t90 -15q27 0 60 8.5t60 22.5l8 -15h93v333q0 41 -9 75t-31.5 58t-61 37t-97.5 13q-35 0 -83.5 -5.5t-92.5 -24.5v-127q41 14 89.5 23t86.5 9q36 0 51.5 -13t15.5 -39zM439 575
l-125 175h-106l-125 -175h96l82 64l82 -64h96zM328 224v-91q-15 -8 -40.5 -16t-46.5 -8q-19 0 -30.5 5t-17.5 13t-8 17.5t-2 18.5q0 19 12 35t47 19z" />
    <glyph glyph-name="atilde" unicode="&#xe3;" horiz-adv-x="520" 
d="M239 333q-52 -3 -88.5 -18t-58.5 -38t-32 -52t-10 -62q0 -35 9.5 -67.5t31.5 -57t58 -39.5t90 -15q27 0 60 8.5t60 22.5l8 -15h93v333q0 41 -9 75t-31.5 58t-61 37t-97.5 13q-35 0 -83.5 -5.5t-92.5 -24.5v-127q41 14 89.5 23t86.5 9q36 0 51.5 -13t15.5 -39zM411 724
q-12 12 -33.5 23t-47.5 11q-28 0 -47 -9.5t-34 -20.5t-29.5 -20.5t-33.5 -9.5q-21 0 -38.5 5.5t-36.5 19.5v-122q12 -12 33.5 -23t47.5 -11q28 0 47 9.5t34 20.5t29.5 20.5t33.5 9.5q21 0 38.5 -5.5t36.5 -19.5v122zM328 224v-91q-15 -8 -40.5 -16t-46.5 -8q-19 0 -30.5 5
t-17.5 13t-8 17.5t-2 18.5q0 19 12 35t47 19z" />
    <glyph glyph-name="adieresis" unicode="&#xe4;" horiz-adv-x="520" 
d="M239 333q-52 -3 -88.5 -18t-58.5 -38t-32 -52t-10 -62q0 -35 9.5 -67.5t31.5 -57t58 -39.5t90 -15q27 0 60 8.5t60 22.5l8 -15h93v333q0 41 -9 75t-31.5 58t-61 37t-97.5 13q-35 0 -83.5 -5.5t-92.5 -24.5v-127q41 14 89.5 23t86.5 9q36 0 51.5 -13t15.5 -39zM291 658
q0 -34 23.5 -57.5t57.5 -23.5t58 23.5t24 57.5t-24 58t-58 24t-57.5 -24t-23.5 -58zM68 658q0 -34 23.5 -57.5t57.5 -23.5t58 23.5t24 57.5t-24 58t-58 24t-57.5 -24t-23.5 -58zM328 224v-91q-15 -8 -40.5 -16t-46.5 -8q-19 0 -30.5 5t-17.5 13t-8 17.5t-2 18.5q0 19 12 35
t47 19z" />
    <glyph glyph-name="aring" unicode="&#xe5;" horiz-adv-x="520" 
d="M239 333q-52 -3 -88.5 -18t-58.5 -38t-32 -52t-10 -62q0 -35 9.5 -67.5t31.5 -57t58 -39.5t90 -15q27 0 60 8.5t60 22.5l8 -15h93v333q0 41 -9 75t-31.5 58t-61 37t-97.5 13q-35 0 -83.5 -5.5t-92.5 -24.5v-127q41 14 89.5 23t86.5 9q36 0 51.5 -13t15.5 -39zM365 662
q0 54 -28.5 79t-75.5 25q-48 0 -76.5 -25t-28.5 -79t28.5 -78.5t76.5 -24.5q47 0 75.5 24.5t28.5 78.5zM328 224v-91q-15 -8 -40.5 -16t-46.5 -8q-19 0 -30.5 5t-17.5 13t-8 17.5t-2 18.5q0 19 12 35t47 19zM297 662q0 -20 -9.5 -27.5t-26.5 -7.5q-18 0 -27 7.5t-9 27.5
q0 21 9 29t27 8q17 0 26.5 -8t9.5 -29z" />
    <glyph glyph-name="ae" unicode="&#xe6;" horiz-adv-x="815" 
d="M413 475q-24 24 -60.5 32.5t-93.5 8.5q-18 0 -39.5 -1.5t-45 -5t-46.5 -9t-43 -14.5v-127q20 7 42.5 12.5t45.5 10t45 7t41 2.5q42 0 59.5 -13t17.5 -42v-24h-90q-59 0 -97 -12.5t-60 -33.5t-30.5 -49.5t-8.5 -60.5q0 -35 11.5 -66.5t35.5 -55t61.5 -37t90.5 -13.5
q38 0 80.5 10.5t77.5 33.5l1 1q53 -45 153 -45q35 0 83 5.5t96 27.5v130q-28 -12 -51 -19t-44.5 -11.5t-41.5 -6t-42 -1.5q-38 0 -62 20t-25 58h291v63q0 53 -6.5 101t-28 84.5t-61.5 58.5t-108 22q-95 0 -148 -41zM251 108q-21 0 -34 4.5t-20.5 11.5t-10.5 15.5t-3 16.5
q0 16 12 25.5t46 9.5h97q3 -28 9 -52q-17 -13 -42.5 -22t-53.5 -9zM561 391q20 0 33 -7t20.5 -18.5t10.5 -26.5t4 -32h-156q6 36 25 60t63 24z" />
    <glyph glyph-name="ccedilla" unicode="&#xe7;" horiz-adv-x="490" 
d="M326 -185q9 9 18.5 22.5t12.5 29.5t-4 32t-32 30q-22 13 -21.5 27.5t9.5 28.5q30 2 64.5 8.5t66.5 21.5v126q-43 -16 -82.5 -24t-81.5 -8q-29 0 -47 11.5t-28 31t-13.5 45t-3.5 53.5t3.5 53.5t13.5 45t28 31t47 11.5q42 0 81.5 -8t82.5 -24v126q-42 20 -86.5 25.5
t-77.5 5.5q-64 0 -107.5 -19.5t-69.5 -54.5t-37.5 -84t-11.5 -108q0 -52 8.5 -96.5t28.5 -78.5t52.5 -56t80.5 -30q-7 -10 -13.5 -22.5t-7.5 -25.5t5 -25.5t24 -21.5q10 -6 11.5 -15.5t-3 -21t-13.5 -22.5t-19 -20h122z" />
    <glyph glyph-name="egrave" unicode="&#xe8;" horiz-adv-x="530" 
d="M480 187v63q0 53 -6.5 101t-28 84.5t-61.5 58.5t-108 22q-64 0 -107.5 -19.5t-69.5 -54.5t-37.5 -84t-11.5 -108t11.5 -108t37.5 -84t69.5 -54.5t107.5 -19.5q18 0 40.5 1.5t46.5 5t48 10t44 16.5v130q-46 -20 -90.5 -29t-88.5 -9q-45 0 -65 23t-22 55h291zM318 575
l-80 175h-151l145 -175h86zM276 391q20 0 33 -7t20.5 -18.5t10.5 -26.5t4 -32h-156q6 36 25 60t63 24z" />
    <glyph glyph-name="eacute" unicode="&#xe9;" horiz-adv-x="530" 
d="M480 187v63q0 53 -6.5 101t-28 84.5t-61.5 58.5t-108 22q-64 0 -107.5 -19.5t-69.5 -54.5t-37.5 -84t-11.5 -108t11.5 -108t37.5 -84t69.5 -54.5t107.5 -19.5q18 0 40.5 1.5t46.5 5t48 10t44 16.5v130q-46 -20 -90.5 -29t-88.5 -9q-45 0 -65 23t-22 55h291zM232 575
l80 175h151l-145 -175h-86zM276 391q20 0 33 -7t20.5 -18.5t10.5 -26.5t4 -32h-156q6 36 25 60t63 24z" />
    <glyph glyph-name="ecircumflex" unicode="&#xea;" horiz-adv-x="530" 
d="M480 187v63q0 53 -6.5 101t-28 84.5t-61.5 58.5t-108 22q-64 0 -107.5 -19.5t-69.5 -54.5t-37.5 -84t-11.5 -108t11.5 -108t37.5 -84t69.5 -54.5t107.5 -19.5q18 0 40.5 1.5t46.5 5t48 10t44 16.5v130q-46 -20 -90.5 -29t-88.5 -9q-45 0 -65 23t-22 55h291zM454 575
l-125 175h-106l-125 -175h96l82 64l82 -64h96zM276 391q20 0 33 -7t20.5 -18.5t10.5 -26.5t4 -32h-156q6 36 25 60t63 24z" />
    <glyph glyph-name="edieresis" unicode="&#xeb;" horiz-adv-x="530" 
d="M480 187v63q0 53 -6.5 101t-28 84.5t-61.5 58.5t-108 22q-64 0 -107.5 -19.5t-69.5 -54.5t-37.5 -84t-11.5 -108t11.5 -108t37.5 -84t69.5 -54.5t107.5 -19.5q18 0 40.5 1.5t46.5 5t48 10t44 16.5v130q-46 -20 -90.5 -29t-88.5 -9q-45 0 -65 23t-22 55h291zM306 658
q0 -34 23.5 -57.5t57.5 -23.5t58 23.5t24 57.5t-24 58t-58 24t-57.5 -24t-23.5 -58zM83 658q0 -34 23.5 -57.5t57.5 -23.5t58 23.5t24 57.5t-24 58t-58 24t-57.5 -24t-23.5 -58zM276 391q20 0 33 -7t20.5 -18.5t10.5 -26.5t4 -32h-156q6 36 25 60t63 24z" />
    <glyph glyph-name="igrave" unicode="&#xec;" horiz-adv-x="300" 
d="M239 -16v125q-20 0 -28 7t-8 21v363h-131v-385q0 -73 33 -102t98 -29h36zM181 575l-80 175h-151l145 -175h86z" />
    <glyph glyph-name="iacute" unicode="&#xed;" horiz-adv-x="300" 
d="M239 -16v125q-20 0 -28 7t-8 21v363h-131v-385q0 -73 33 -102t98 -29h36zM95 575l80 175h151l-145 -175h-86z" />
    <glyph glyph-name="icircumflex" unicode="&#xee;" horiz-adv-x="300" 
d="M239 -16v125q-20 0 -28 7t-8 21v363h-131v-385q0 -73 33 -102t98 -29h36zM317 575l-125 175h-106l-125 -175h96l82 64l82 -64h96z" />
    <glyph glyph-name="idieresis" unicode="&#xef;" horiz-adv-x="300" 
d="M239 -16v125q-20 0 -28 7t-8 21v363h-131v-385q0 -73 33 -102t98 -29h36zM169 658q0 -34 23.5 -57.5t57.5 -23.5t58 23.5t24 57.5t-24 58t-58 24t-57.5 -24t-23.5 -58zM-54 658q0 -34 23.5 -57.5t57.5 -23.5t58 23.5t24 57.5t-24 58t-58 24t-57.5 -24t-23.5 -58z" />
    <glyph glyph-name="eth" unicode="&#xf0;" horiz-adv-x="560" 
d="M492 657v157l-120 -78q-51 30 -132 30q-62 0 -103 -10.5t-65 -23.5v-132q32 14 70.5 25t78.5 13v-125q-55 -6 -91 -28t-57.5 -56.5t-30.5 -79.5t-9 -99q0 -59 11 -108t37.5 -84t71 -54.5t112.5 -19.5q69 0 114 19.5t71.5 54.5t37 84t10.5 108q0 128 -8 223.5t-34 159.5z
M363 250q0 -30 -4 -55.5t-14.5 -44.5t-30 -30t-49.5 -11q-31 0 -50 11t-29.5 30t-14.5 44.5t-4 55.5t4 56t14.5 44.5t29.5 29.5t50 11q30 0 49.5 -11t30 -29.5t14.5 -44.5t4 -56zM353 498q-4 3 -13.5 6t-21 5.5t-23.5 4t-22 2.5l71 45q9 -27 9 -63z" />
    <glyph glyph-name="ntilde" unicode="&#xf1;" horiz-adv-x="562" 
d="M369 0h133v330q0 45 -10 79.5t-33.5 58t-62 36t-94.5 12.5q-16 0 -35 -3t-37.5 -7.5t-35 -10.5t-28.5 -11l-8 16h-93v-500h133v369q6 2 16.5 6t25 7.5t30.5 6t32 2.5q35 0 51 -17t16 -44v-330zM434 724q-12 12 -33.5 23t-47.5 11q-28 0 -47 -9.5t-34 -20.5t-29.5 -20.5
t-33.5 -9.5q-21 0 -38.5 5.5t-36.5 19.5v-122q12 -12 33.5 -23t47.5 -11q28 0 47 9.5t34 20.5t29.5 20.5t33.5 9.5q21 0 38.5 -5.5t36.5 -19.5v122z" />
    <glyph glyph-name="ograve" unicode="&#xf2;" horiz-adv-x="550" 
d="M500 250q0 59 -9 107.5t-34 84t-69 55t-113 19.5t-112.5 -19.5t-68.5 -55t-34.5 -84t-9.5 -107.5q0 -58 9.5 -107t34.5 -84.5t68.5 -55t112.5 -19.5t113 19.5t69 55t34 84.5t9 107zM368 250q0 -29 -3 -55t-12.5 -45t-28 -30t-49.5 -11t-49.5 11t-28.5 30t-12.5 45
t-2.5 55t2.5 55t12.5 45t28.5 30t49.5 11t49.5 -11t28 -30t12.5 -45t3 -55zM317 575l-80 175h-151l145 -175h86z" />
    <glyph glyph-name="oacute" unicode="&#xf3;" horiz-adv-x="550" 
d="M500 250q0 59 -9 107.5t-34 84t-69 55t-113 19.5t-112.5 -19.5t-68.5 -55t-34.5 -84t-9.5 -107.5q0 -58 9.5 -107t34.5 -84.5t68.5 -55t112.5 -19.5t113 19.5t69 55t34 84.5t9 107zM368 250q0 -29 -3 -55t-12.5 -45t-28 -30t-49.5 -11t-49.5 11t-28.5 30t-12.5 45
t-2.5 55t2.5 55t12.5 45t28.5 30t49.5 11t49.5 -11t28 -30t12.5 -45t3 -55zM231 575l80 175h151l-145 -175h-86z" />
    <glyph glyph-name="ocircumflex" unicode="&#xf4;" horiz-adv-x="550" 
d="M500 250q0 59 -9 107.5t-34 84t-69 55t-113 19.5t-112.5 -19.5t-68.5 -55t-34.5 -84t-9.5 -107.5q0 -58 9.5 -107t34.5 -84.5t68.5 -55t112.5 -19.5t113 19.5t69 55t34 84.5t9 107zM368 250q0 -29 -3 -55t-12.5 -45t-28 -30t-49.5 -11t-49.5 11t-28.5 30t-12.5 45
t-2.5 55t2.5 55t12.5 45t28.5 30t49.5 11t49.5 -11t28 -30t12.5 -45t3 -55zM453 575l-125 175h-106l-125 -175h96l82 64l82 -64h96z" />
    <glyph glyph-name="otilde" unicode="&#xf5;" horiz-adv-x="550" 
d="M500 250q0 59 -9 107.5t-34 84t-69 55t-113 19.5t-112.5 -19.5t-68.5 -55t-34.5 -84t-9.5 -107.5q0 -58 9.5 -107t34.5 -84.5t68.5 -55t112.5 -19.5t113 19.5t69 55t34 84.5t9 107zM368 250q0 -29 -3 -55t-12.5 -45t-28 -30t-49.5 -11t-49.5 11t-28.5 30t-12.5 45
t-2.5 55t2.5 55t12.5 45t28.5 30t49.5 11t49.5 -11t28 -30t12.5 -45t3 -55zM425 724q-12 12 -33.5 23t-47.5 11q-28 0 -47 -9.5t-34 -20.5t-29.5 -20.5t-33.5 -9.5q-21 0 -38.5 5.5t-36.5 19.5v-122q12 -12 33.5 -23t47.5 -11q28 0 47 9.5t34 20.5t29.5 20.5t33.5 9.5
q21 0 38.5 -5.5t36.5 -19.5v122z" />
    <glyph glyph-name="odieresis" unicode="&#xf6;" horiz-adv-x="550" 
d="M500 250q0 59 -9 107.5t-34 84t-69 55t-113 19.5t-112.5 -19.5t-68.5 -55t-34.5 -84t-9.5 -107.5q0 -58 9.5 -107t34.5 -84.5t68.5 -55t112.5 -19.5t113 19.5t69 55t34 84.5t9 107zM368 250q0 -29 -3 -55t-12.5 -45t-28 -30t-49.5 -11t-49.5 11t-28.5 30t-12.5 45
t-2.5 55t2.5 55t12.5 45t28.5 30t49.5 11t49.5 -11t28 -30t12.5 -45t3 -55zM82 658q0 -34 23.5 -57.5t57.5 -23.5t58 23.5t24 57.5t-24 58t-58 24t-57.5 -24t-23.5 -58zM305 658q0 -34 23.5 -57.5t57.5 -23.5t58 23.5t24 57.5t-24 58t-58 24t-57.5 -24t-23.5 -58z" />
    <glyph glyph-name="divide" unicode="&#xf7;" horiz-adv-x="520" 
d="M55 277h410v128h-410v-128zM179 165q0 -34 23.5 -57.5t57.5 -23.5t58 23.5t24 57.5t-24 58t-58 24t-57.5 -24t-23.5 -58zM179 517q0 34 23.5 57.5t57.5 23.5t58 -23.5t24 -57.5t-24 -58t-58 -24t-57.5 24t-23.5 58z" />
    <glyph glyph-name="oslash" unicode="&#xf8;" horiz-adv-x="550" 
d="M510 500h-134q-21 8 -47 12t-57 4q-69 0 -112.5 -19.5t-68.5 -55t-34.5 -84t-9.5 -107.5q0 -55 8 -101t29 -81l-44 -68h129q21 -8 46.5 -12t56.5 -4q69 0 113 19.5t69 55t34 84.5t9 107q0 53 -7.5 98t-27.5 80zM179 250q0 29 2.5 55t12.5 45t28.5 30t49.5 11
q6 0 12.5 -0.5t11.5 -1.5l-116 -176q-1 9 -1 18v19zM365 250q0 -29 -3 -55t-12.5 -45t-28 -30t-49.5 -11h-10q-4 0 -9 1l111 168q1 -7 1 -14v-14z" />
    <glyph glyph-name="ugrave" unicode="&#xf9;" horiz-adv-x="562" 
d="M193 500h-133v-330q0 -45 10 -79.5t33.5 -58t62 -36t94.5 -12.5q17 0 35.5 3t37 7.5t35 10.5t28.5 11l8 -16h93v500h-133v-369q-6 -2 -16.5 -6t-25 -7.5t-30.5 -6t-32 -2.5q-35 0 -51 17t-16 44v330zM321 575l-80 175h-151l145 -175h86z" />
    <glyph glyph-name="uacute" unicode="&#xfa;" horiz-adv-x="562" 
d="M193 500h-133v-330q0 -45 10 -79.5t33.5 -58t62 -36t94.5 -12.5q17 0 35.5 3t37 7.5t35 10.5t28.5 11l8 -16h93v500h-133v-369q-6 -2 -16.5 -6t-25 -7.5t-30.5 -6t-32 -2.5q-35 0 -51 17t-16 44v330zM235 575l80 175h151l-145 -175h-86z" />
    <glyph glyph-name="ucircumflex" unicode="&#xfb;" horiz-adv-x="562" 
d="M193 500h-133v-330q0 -45 10 -79.5t33.5 -58t62 -36t94.5 -12.5q17 0 35.5 3t37 7.5t35 10.5t28.5 11l8 -16h93v500h-133v-369q-6 -2 -16.5 -6t-25 -7.5t-30.5 -6t-32 -2.5q-35 0 -51 17t-16 44v330zM457 575l-125 175h-106l-125 -175h96l82 64l82 -64h96z" />
    <glyph glyph-name="udieresis" unicode="&#xfc;" horiz-adv-x="562" 
d="M193 500h-133v-330q0 -45 10 -79.5t33.5 -58t62 -36t94.5 -12.5q17 0 35.5 3t37 7.5t35 10.5t28.5 11l8 -16h93v500h-133v-369q-6 -2 -16.5 -6t-25 -7.5t-30.5 -6t-32 -2.5q-35 0 -51 17t-16 44v330zM309 658q0 -34 23.5 -57.5t57.5 -23.5t58 23.5t24 57.5t-24 58t-58 24
t-57.5 -24t-23.5 -58zM86 658q0 -34 23.5 -57.5t57.5 -23.5t58 23.5t24 57.5t-24 58t-58 24t-57.5 -24t-23.5 -58z" />
    <glyph glyph-name="yacute" unicode="&#xfd;" horiz-adv-x="527" 
d="M20 500l179 -461l-126 -289h146l288 750h-147l-96 -297l-96 297h-148zM220 575l80 175h151l-145 -175h-86z" />
    <glyph glyph-name="thorn" unicode="&#xfe;" horiz-adv-x="568" 
d="M196 750v-253q49 19 95 19q66 0 110 -17.5t70 -51.5t36.5 -83.5t10.5 -113.5t-10.5 -114t-36.5 -83.5t-70 -51t-110 -17.5q-21 0 -48 5.5t-47 13.5v-253h-131v1000h131zM196 128q17 -7 41.5 -13t51.5 -6q30 0 48.5 10.5t29 29.5t14 45t3.5 56t-3.5 56t-14 45t-29 29.5
t-48.5 10.5q-27 0 -51.5 -6t-41.5 -13v-244z" />
    <glyph glyph-name="ydieresis" unicode="&#xff;" horiz-adv-x="527" 
d="M20 500l179 -461l-126 -289h146l288 750h-147l-96 -297l-96 297h-148zM294 658q0 -34 23.5 -57.5t57.5 -23.5t58 23.5t24 57.5t-24 58t-58 24t-57.5 -24t-23.5 -58zM71 658q0 -34 23.5 -57.5t57.5 -23.5t58 23.5t24 57.5t-24 58t-58 24t-57.5 -24t-23.5 -58z" />
    <glyph glyph-name="dotlessi" unicode="&#x131;" horiz-adv-x="300" 
d="M239 -16v125q-20 0 -28 7t-8 21v363h-131v-385q0 -73 33 -102t98 -29h36z" />
    <glyph glyph-name="Lslash" unicode="&#x141;" horiz-adv-x="554" 
d="M274 384v157l-67 -43v252h-137v-341l-67 -43v-157l67 43v-252h449v133h-312v208z" />
    <glyph glyph-name="lslash" unicode="&#x142;" horiz-adv-x="300" 
d="M273 384v157l-70 -46v255h-131v-339l-70 -45v-157l70 45v-139q0 -73 33 -102t98 -29h36v125q-20 0 -28 7t-8 21v201z" />
    <glyph glyph-name="OE" unicode="&#x152;" horiz-adv-x="892" 
d="M806 321h-258v-188h289v-133h-460q-94 0 -156 28.5t-99 79t-52 119t-15 148.5t15 148.5t52 119t99 79t156 28.5h460v-133h-289v-163h258v-133zM410 617h-36q-51 0 -84.5 -18t-54 -50t-29 -76.5t-8.5 -97.5t8.5 -97.5t29 -76.5t54 -50t84.5 -18h36v484z" />
    <glyph glyph-name="oe" unicode="&#x153;" horiz-adv-x="848" 
d="M798 187v63q0 53 -6.5 101t-28 84.5t-61.5 58.5t-108 22q-54 0 -92.5 -13t-64.5 -38q-26 24 -65.5 37.5t-96.5 13.5q-69 0 -112.5 -19.5t-68.5 -55t-34.5 -84t-9.5 -107.5q0 -58 9.5 -107t34.5 -84.5t68.5 -55t112.5 -19.5q57 0 96.5 13t65.5 38q26 -25 64.5 -38
t92.5 -13q18 0 40.5 1.5t46.5 5t48 10t44 16.5v130q-46 -20 -90.5 -29t-88.5 -9q-45 0 -65 23t-22 55h291zM368 250q0 -29 -3 -55t-12.5 -45t-28 -30t-49.5 -11t-49.5 11t-28.5 30t-12.5 45t-2.5 55t2.5 55t12.5 45t28.5 30t49.5 11q29 0 47 -10t28 -27.5t14 -41t4 -50.5
v-12zM594 391q20 0 33 -7t20.5 -18.5t10.5 -26.5t4 -32h-156q6 36 25 60t63 24z" />
    <glyph glyph-name="Scaron" unicode="&#x160;" horiz-adv-x="617" 
d="M323 454q-32 4 -57 8.5t-42 13t-25.5 22t-8.5 36.5q0 19 5 37t19 31.5t38.5 22t63.5 8.5q23 0 46 -2t48.5 -8t54.5 -16.5t65 -27.5v143q-40 18 -94 31t-120 13q-83 0 -135 -23t-81 -57.5t-39.5 -75t-10.5 -75.5q0 -51 13.5 -87.5t43.5 -61.5t77.5 -40.5t116.5 -24.5
q34 -4 57.5 -10t38.5 -15.5t21.5 -25t6.5 -38.5t-7 -44t-24 -36.5t-45 -25t-71 -9.5q-40 0 -76.5 6t-66.5 14.5t-51.5 17.5t-33.5 16v-139q18 -9 46 -17.5t60 -15.5t64 -11t57 -4q87 0 143.5 23.5t89 59.5t45 80t12.5 85q0 57 -15.5 95.5t-46 64t-76.5 40t-106 22.5z
M490 1000l-125 -175h-106l-125 175h96l82 -64l82 64h96z" />
    <glyph glyph-name="scaron" unicode="&#x161;" horiz-adv-x="490" 
d="M184 348q0 17 13 30t55 13q40 0 79.5 -10t81.5 -24v126q-45 20 -85.5 26.5t-75.5 6.5q-55 0 -93 -15.5t-61 -40t-33 -54.5t-10 -59t8 -54.5t28.5 -45t56 -33t90.5 -18.5q41 -4 54 -14.5t13 -25.5q0 -17 -16.5 -32t-62.5 -15q-42 0 -86.5 11.5t-79.5 24.5v-130
q16 -6 37 -11.5t43.5 -10t44.5 -7t40 -2.5q60 0 100 15.5t64.5 40t35 56t10.5 62.5q0 35 -7.5 62.5t-28 47.5t-56 32.5t-91.5 17.5q-43 4 -55.5 11.5t-12.5 18.5zM423 750l-125 -175h-106l-125 175h96l82 -64l82 64h96z" />
    <glyph glyph-name="Ydieresis" unicode="&#x178;" horiz-adv-x="732" 
d="M707 750h-164l-177 -318l-177 318h-164l272 -443v-307h138v307zM173 908q0 -34 23.5 -57.5t57.5 -23.5t58 23.5t24 57.5t-24 58t-58 24t-57.5 -24t-23.5 -58zM396 908q0 -34 23.5 -57.5t57.5 -23.5t58 23.5t24 57.5t-24 58t-58 24t-57.5 -24t-23.5 -58z" />
    <glyph glyph-name="Zcaron" unicode="&#x17d;" horiz-adv-x="624" 
d="M589 0v133h-365l352 528v89h-523v-133h334l-352 -528v-89h554zM484 1000l-125 -175h-106l-125 175h96l82 -64l82 64h96z" />
    <glyph glyph-name="zcaron" unicode="&#x17e;" horiz-adv-x="480" 
d="M445 0v125h-232l223 288v87h-388v-125h211l-224 -288v-87h410zM414 750l-125 -175h-106l-125 175h96l82 -64l82 64h96z" />
    <glyph glyph-name="florin" unicode="&#x192;" 
d="M364 766q-112 0 -167 -48t-55 -161v-107l-87 -24v-91h87v-335h130v335h206v119h-206v100q0 23 7.5 39.5t20 27t29 15t35.5 4.5q42 0 91.5 -7.5t95.5 -23.5v126q-18 8 -43 14t-51 9.5t-50.5 5.5t-42.5 2z" />
    <glyph glyph-name="circumflex" unicode="&#x2c6;" horiz-adv-x="540" 
d="M458 575l-125 175h-106l-125 -175h96l82 64l82 -64h96z" />
    <glyph glyph-name="caron" unicode="&#x2c7;" horiz-adv-x="540" 
d="M458 750l-125 -175h-106l-125 175h96l82 -64l82 64h96z" />
    <glyph glyph-name="breve" unicode="&#x2d8;" horiz-adv-x="602" 
d="M280 559q83 0 124.5 48.5t43.5 142.5h-87q-1 -27 -4.5 -43t-12.5 -24.5t-24.5 -11.5t-39.5 -3t-39.5 3t-24.5 11.5t-12.5 24.5t-4.5 43h-87q2 -94 43.5 -142.5t124.5 -48.5z" />
    <glyph glyph-name="dotaccent" unicode="&#x2d9;" horiz-adv-x="540" 
d="M199 658q0 -34 23.5 -57.5t57.5 -23.5t58 23.5t24 57.5t-24 58t-58 24t-57.5 -24t-23.5 -58z" />
    <glyph glyph-name="ring" unicode="&#x2da;" horiz-adv-x="602" 
d="M384 662q0 54 -28.5 79t-75.5 25q-48 0 -76.5 -25t-28.5 -79t28.5 -78.5t76.5 -24.5q47 0 75.5 24.5t28.5 78.5zM316 662q0 -20 -9.5 -27.5t-26.5 -7.5q-18 0 -27 7.5t-9 27.5q0 21 9 29t27 8q17 0 26.5 -8t9.5 -29z" />
    <glyph glyph-name="ogonek" unicode="&#x2db;" horiz-adv-x="602" 
d="M404 -185q-11 8 -23 26.5t-15 44.5q-5 42 6.5 74t28.5 40v33q-24 -6 -50 -20t-47.5 -33.5t-35 -43t-13.5 -49.5q0 -29 11 -46.5t21 -25.5h117z" />
    <glyph glyph-name="tilde" unicode="&#x2dc;" horiz-adv-x="602" 
d="M430 724q-12 12 -33.5 23t-47.5 11q-28 0 -47 -9.5t-34 -20.5t-29.5 -20.5t-33.5 -9.5q-21 0 -38.5 5.5t-36.5 19.5v-122q12 -12 33.5 -23t47.5 -11q28 0 47 9.5t34 20.5t29.5 20.5t33.5 9.5q21 0 38.5 -5.5t36.5 -19.5v122z" />
    <glyph glyph-name="hungarumlaut" unicode="&#x2dd;" horiz-adv-x="540" 
d="M143 575l80 175h151l-145 -175h-86zM310 575l80 175h151l-145 -175h-86z" />
    <glyph glyph-name="Delta" unicode="&#x394;" horiz-adv-x="660" 
d="M64 250q0 -55 21 -103.5t57 -84.5t84.5 -57t103.5 -21t103.5 21t84.5 57t57 84.5t21 103.5t-21 103.5t-57 84.5t-84.5 57t-103.5 21t-103.5 -21t-84.5 -57t-57 -84.5t-21 -103.5z" />
    <glyph glyph-name="Omega" unicode="&#x3a9;" horiz-adv-x="396" 
d="M229 478q-35 0 -50 20t-15 69q0 48 15 68t50 20q27 0 57 -5t62 -13v112q-38 10 -67.5 13.5t-51.5 3.5q-96 0 -137.5 -50.5t-41.5 -148.5t41.5 -149t137.5 -51q22 0 51.5 3.5t67.5 13.5v112q-32 -8 -62 -13t-57 -5z" />
    <glyph glyph-name="pi" unicode="&#x3c0;" horiz-adv-x="680" 
d="M340 -16q54 0 103.5 11t86.5 40t59 81t22 134t-22 134t-59 81t-86.5 40t-103.5 11t-103.5 -11t-86.5 -40t-59 -81t-22 -134t22 -134t59 -81t86.5 -40t103.5 -11zM340 77q-38 0 -69.5 6t-54.5 24.5t-36 52.5t-13 90t13 90t36 52.5t54.5 24.5t69.5 6t69.5 -6t54.5 -24.5
t36 -52.5t13 -90t-13 -90t-36 -52.5t-54.5 -24.5t-69.5 -6zM363 188q29 0 48.5 8.5t32.5 22.5t18.5 32t5.5 38q0 21 -5.5 39.5t-18 32.5t-32.5 22t-49 8h-133v-282h92v79h41zM322 301h39q8 0 11 -4t3 -9t-3 -9t-11 -4h-39v26z" />
    <glyph glyph-name="endash" unicode="&#x2013;" horiz-adv-x="576" 
d="M535 405h-494v-128h494v128z" />
    <glyph glyph-name="emdash" unicode="&#x2014;" horiz-adv-x="762" 
d="M721 405h-680v-128h680v128z" />
    <glyph glyph-name="quoteleft" unicode="&#x2018;" horiz-adv-x="220" 
d="M103 750l-16 -17.5t-35 -49.5t-36 -78.5t-18 -104.5h155q-7 56 -3.5 102t10.5 79t14.5 51l7.5 18h-79z" />
    <glyph glyph-name="quoteright" unicode="&#x2019;" horiz-adv-x="220" 
d="M117 500l16 17.5t35 49.5t36 78.5t18 104.5h-155q8 -56 4 -102t-11 -79t-14.5 -51l-7.5 -18h79z" />
    <glyph glyph-name="quotesinglbase" unicode="&#x201a;" horiz-adv-x="220" 
d="M117 -160l16 17.5t35 49.5t36 78.5t18 104.5h-155q8 -56 4 -102t-11 -79t-14.5 -51l-7.5 -18h79z" />
    <glyph glyph-name="quotedblleft" unicode="&#x201c;" horiz-adv-x="420" 
d="M303 750l-11 -11q-10 -11 -25.5 -32.5t-30.5 -51.5q-2 -6 -5 -12t-5 -12q-2 -5 -3.5 -9t-3.5 -9l-6 -18q-5 -17 -8.5 -34.5t-5.5 -37.5q0 -3 -0.5 -6t-0.5 -6v-11h155q-1 3 -1 5q0 3 -1 6q-1 5 -1 10q0 6 -1 12q0 5 -0.5 10.5t-0.5 10.5v20v14q0 7 1 14v9q1 7 1.5 13
t1.5 13q1 4 1 8t1 8t1.5 7t1.5 7q3 15 6 27q1 5 2 8.5t2 7.5q1 2 1 3t1 2q2 8 4 13.5t4 9.5q0 3 2 5q1 2 1 3t1 2q0 1 0.5 1.5l0.5 0.5h-79zM103 750l-5 -5l-2.5 -2.5l-3.5 -3.5q-11 -14 -30 -41t-36 -67q-3 -7 -5.5 -13.5t-4.5 -13.5q-4 -11 -7.5 -23.5t-5.5 -25.5l-3 -21
v-11q-1 -4 -1 -12q0 -3 -0.5 -5.5t-0.5 -5.5h155q-3 20 -4 38t-1 36v19t1 18q1 7 1.5 13t1.5 13q2 8 2.5 15.5t2.5 14.5q2 10 3 14q2 8 3.5 15.5t3.5 13.5q1 2 1 3t1 2q1 2 1.5 4.5t1.5 4.5q2 5 2.5 8.5t2.5 5.5q0 3 2 5l2 6l1 1h-79z" />
    <glyph glyph-name="quotedblright" unicode="&#x201d;" horiz-adv-x="420" 
d="M117 500l16 17.5t35 49.5t36 78.5t18 104.5h-155q8 -56 4 -102t-11 -79t-14.5 -51l-7.5 -18h79zM317 500l16 17.5t35 49.5t36 78.5t18 104.5h-155q8 -56 4 -102t-11 -79t-14.5 -51l-7.5 -18h79z" />
    <glyph glyph-name="quotedblbase" unicode="&#x201e;" horiz-adv-x="420" 
d="M117 -160l16 17.5t35 49.5t36 78.5t18 104.5h-155q8 -56 4 -102t-11 -79t-14.5 -51l-7.5 -18h79zM317 -160l16 17.5t35 49.5t36 78.5t18 104.5h-155q8 -56 4 -102t-11 -79t-14.5 -51l-7.5 -18h79z" />
    <glyph glyph-name="dagger" unicode="&#x2020;" horiz-adv-x="406" 
d="M278 750h-150l17 -126l-125 18v-150l126 18l-28 -221h170l-28 221l126 -18v150l-126 -18z" />
    <glyph glyph-name="daggerdbl" unicode="&#x2021;" horiz-adv-x="434" 
d="M298 750h-162l19 -135l-135 19v-161l135 19l-4 -32l4 -30l-135 19v-162l136 20l-30 -237h182l-30 237l136 -20v162l-135 -19l4 30l-5 32l136 -19v161l-136 -19z" />
    <glyph glyph-name="bullet" unicode="&#x2022;" horiz-adv-x="400" 
d="M65 375q0 -28 10.5 -52.5t29 -43t43 -29t52.5 -10.5t52.5 10.5t43 29t29 43t10.5 52.5t-10.5 52.5t-29 43t-43 29t-52.5 10.5t-52.5 -10.5t-43 -29t-29 -43t-10.5 -52.5z" />
    <glyph glyph-name="ellipsis" unicode="&#x2026;" horiz-adv-x="990" 
d="M84 68q0 -34 23.5 -57.5t57.5 -23.5t58 23.5t24 57.5t-24 58t-58 24t-57.5 -24t-23.5 -58zM414 68q0 -34 23.5 -57.5t57.5 -23.5t58 23.5t24 57.5t-24 58t-58 24t-57.5 -24t-23.5 -58zM744 68q0 -34 23.5 -57.5t57.5 -23.5t58 23.5t24 57.5t-24 58t-58 24t-57.5 -24
t-23.5 -58z" />
    <glyph glyph-name="perthousand" unicode="&#x2030;" horiz-adv-x="1408" 
d="M758 393q-97 0 -140 -52t-43 -153t43 -152.5t140 -51.5q99 0 142 51.5t43 152.5t-43 153t-142 52zM1173 393q-97 0 -140 -52t-43 -153t43 -152.5t140 -51.5q99 0 142 51.5t43 152.5t-43 153t-142 52zM235 357q97 0 140 52t43 153t-43 152.5t-140 51.5q-99 0 -142 -51.5
t-43 -152.5t43 -153t142 -52zM308 0l532 750h-155l-532 -750h155zM1173 267q30 0 43 -17.5t13 -61.5t-13 -61.5t-43 -17.5q-29 0 -42 17.5t-13 61.5t13 61.5t42 17.5zM235 483q-30 0 -43 17.5t-13 61.5t13 61.5t43 17.5q29 0 42 -17.5t13 -61.5t-13 -61.5t-42 -17.5z
M758 267q30 0 43 -17.5t13 -61.5t-13 -61.5t-43 -17.5q-29 0 -42 17.5t-13 61.5t13 61.5t42 17.5z" />
    <glyph glyph-name="guilsinglleft" unicode="&#x2039;" horiz-adv-x="305" 
d="M55 296l190 150v-117l-79 -79l79 -79v-118l-190 151v92z" />
    <glyph glyph-name="guilsinglright" unicode="&#x203a;" horiz-adv-x="305" 
d="M250 296l-190 150v-117l78 -79l-78 -79v-118l190 151v92z" />
    <glyph glyph-name="Euro" unicode="&#x20ac;" 
d="M473 524l-44 -129h-206v-40h193l-44 -129h-134q9 -35 23 -57.5t32 -36t40 -18.5t47 -5q43 0 87.5 10t87.5 24v-126q-45 -19 -92.5 -26t-82.5 -7q-57 0 -103.5 11t-82 38.5t-59 74.5t-35.5 118h-68v129h58v40h-58v129h68q12 71 35.5 118t59 74.5t82 38.5t103.5 11
q35 0 82.5 -7t92.5 -26v-126q-43 14 -87.5 24t-87.5 10q-25 0 -47 -5.5t-40 -18.5t-32 -35.5t-23 -57.5h235z" />
    <glyph glyph-name="trademark" unicode="&#x2122;" horiz-adv-x="605" 
d="M430 520l64 128l-2 -148h68v250h-79l-71 -136l-71 136h-79v-250h68l-2 148l64 -128h40zM230 684v66h-205v-66h67v-184h72v184h66z" />
    <glyph glyph-name="partialdiff" unicode="&#x2202;" horiz-adv-x="575" 
d="M520 250q0 131 -8.5 227.5t-35.5 161t-78 96t-136 31.5q-62 0 -103 -10.5t-65 -23.5v-132q35 17 79.5 28t88.5 11q24 0 44.5 -8t35.5 -25.5t24 -44t9 -63.5q-5 3 -15.5 6.5t-23.5 6t-26 4t-23 1.5q-68 0 -112.5 -19.5t-71 -54.5t-37.5 -84t-11 -108t11 -108t37.5 -84
t71 -54.5t112.5 -19.5q69 0 114 19.5t71.5 54.5t37 84t10.5 108zM385 250q0 -30 -4 -55.5t-14.5 -44.5t-30 -30t-49.5 -11q-31 0 -50 11t-29.5 30t-14.5 44.5t-4 55.5t4 56t14.5 44.5t29.5 29.5t50 11q30 0 49.5 -11t30 -29.5t14.5 -44.5t4 -56z" />
    <glyph glyph-name="product" unicode="&#x220f;" horiz-adv-x="680" 
d="M340 -16q54 0 103.5 11t86.5 40t59 81t22 134t-22 134t-59 81t-86.5 40t-103.5 11t-103.5 -11t-86.5 -40t-59 -81t-22 -134t22 -134t59 -81t86.5 -40t103.5 -11zM340 77q-38 0 -69.5 6t-54.5 24.5t-36 52.5t-13 90t13 90t36 52.5t54.5 24.5t69.5 6t69.5 -6t54.5 -24.5
t36 -52.5t13 -90q0 -51 -10.5 -83t-29.5 -52q-12 23 -26 51t-26 51q17 14 23 33t6 44q0 41 -23 69t-82 28h-124v-282h91v86h22l42 -86h90q-23 -20 -55.5 -26t-70.5 -6zM312 301h34q9 0 9 -8t-9 -8h-34v16z" />
    <glyph glyph-name="summation" unicode="&#x2211;" horiz-adv-x="910" 
d="M64 375q0 -81 30.5 -152t84 -124.5t124.5 -84t152 -30.5t152 30.5t124.5 84t84 124.5t30.5 152t-30.5 152t-84 124.5t-124.5 84t-152 30.5t-152 -30.5t-124.5 -84t-84 -124.5t-30.5 -152z" />
    <glyph glyph-name="minus" unicode="&#x2212;" horiz-adv-x="520" 
d="M55 277h410v128h-410v-128z" />
    <glyph glyph-name="fraction" unicode="&#x2215;" horiz-adv-x="587" 
d="M105 0l532 750h-155l-532 -750h155z" />
    <glyph glyph-name="radical" unicode="&#x221a;" horiz-adv-x="660" 
d="M80 0h500v500h-500v-500zM443 367v-234h-226v234h226z" />
    <glyph glyph-name="infinity" unicode="&#x221e;" horiz-adv-x="615" 
d="M440 520l64 128l-2 -148h68v250h-79l-71 -136l-71 136h-79v-250h68l-2 148l64 -128h40zM93 674q0 9 8.5 14t32.5 5q20 0 42 -5t45 -12v63q-23 11 -46 14t-40 3q-59 0 -83.5 -23t-24.5 -60q0 -38 21.5 -54.5t78.5 -21.5q21 -2 30 -6.5t9 -12.5q0 -10 -9.5 -15.5
t-35.5 -5.5q-20 0 -45 5t-45 12v-63q8 -4 20 -7t24.5 -5.5t24 -3.5t20.5 -1q62 0 87.5 25t25.5 60q0 19 -3.5 32.5t-14 22.5t-29 15t-48.5 9q-45 5 -45 16z" />
    <glyph glyph-name="integral" unicode="&#x222b;" horiz-adv-x="910" 
d="M80 0h750v750h-750v-750zM693 617v-484h-476v484h476z" />
    <glyph glyph-name="approxequal" unicode="&#x2248;" horiz-adv-x="660" 
d="M80 0h500v500h-500v-500zM443 367v-234h-226v234h226zM257 173h146v154h-146v-154z" />
    <glyph glyph-name="notequal" unicode="&#x2260;" horiz-adv-x="910" 
d="M830 0v750h-750v-750h750z" />
    <glyph glyph-name="lessequal" unicode="&#x2264;" horiz-adv-x="860" 
d="M800 311h-498l22 -12l233 -150v-165l-507 360v62l507 360v-165l-233 -150l-22 -12h498v-128z" />
    <glyph glyph-name="greaterequal" unicode="&#x2265;" horiz-adv-x="860" 
d="M60 311h498l-22 -12l-233 -150v-165l507 360v62l-507 360v-165l233 -150l22 -12h-498v-128z" />
    <glyph glyph-name="lozenge" unicode="&#x25ca;" horiz-adv-x="910" 
d="M80 0h750v750h-750v-750zM693 617v-484h-476v484h476zM355 185l100 100l100 -100l90 90l-100 100l100 100l-90 90l-100 -100l-100 100l-90 -90l100 -100l-100 -100z" />
    <glyph glyph-name="apple" unicode="&#xf8ff;" horiz-adv-x="910" 
d="M80 750h12l297 -206q-5 -6 -6 -10l-303 144v72zM818 750h12v-72l-291 -138l-7 12zM80 655l300 -125q-2 -4 -6 -10l-294 69v66zM830 655v-66l-279 -66q-3 3 -7 11l-1 1zM218 750l180 -191q-2 -2 -3 -5t-3 -5l-262 201h88zM80 569l290 -54q-5 -8 -10 -12l-280 7v59zM80 490
l274 7q-15 -13 -28 -21l-246 -46v60zM692 750h88l-252 -193l-7 11zM830 569v-59l-264 -7q-3 4 -6 7t-6 7zM830 490v-60l-232 44q-7 5 -13 10.5t-13 11.5zM830 410v-65l-176 73q-8 13 -18 23t-22 20zM302 750l107 -176q-2 -3 -4 -5.5t-4 -5.5l-159 187h60zM608 750h60
l-151 -176l-8 13zM80 410l214 51q-26 -10 -51 -17.5t-47 -21.5t-38.5 -28.5t-29.5 -28.5l-48 -20v65zM367 750l56 -160q-3 -3 -5.5 -6t-4.5 -5l-93 171h47zM830 321v-21q-25 6 -53 15t-52 21t-41.5 27t-20.5 31q-2 4 -2 7zM543 750h47l-85 -157l-11 16zM422 750l18 -145
q-8 -6 -13 -11l-46 156h41zM488 750h41l-40 -133l-6 9q-8 -2 -12 -4zM435 750h39l-11 -131q-5 -2 -8.5 -4.5t-8.5 -4.5zM80 321l21 10q-10 -13 -15 -23.5t-6 -15.5v29z" />
    <glyph glyph-name="fi" unicode="&#xfb01;" horiz-adv-x="725" 
d="M404 752q-27 8 -54.5 11t-41.5 3q-101 0 -146 -43t-45 -123v-104l-87 -24v-91h87v-381h131v381h137v119h-137v100q0 22 17 31.5t43 9.5q18 0 43 -3t53 -11v125zM664 -16v125q-20 0 -28 7t-8 21v363h-131v-385q0 -73 33 -102t98 -29h36zM483 658q0 -34 23.5 -57.5
t57.5 -23.5t58 23.5t24 57.5t-24 58t-58 24t-57.5 -24t-23.5 -58z" />
    <glyph glyph-name="fl" unicode="&#xfb02;" horiz-adv-x="725" 
d="M404 752q-27 8 -54.5 11t-41.5 3q-101 0 -146 -43t-45 -123v-104l-87 -24v-91h87v-381h131v381h137v119h-137v100q0 22 17 31.5t43 9.5q18 0 43 -3t53 -11v125zM664 -16v125q-20 0 -28 7t-8 21v613h-131v-635q0 -73 33 -102t98 -29h36z" />
    </font>
</defs>
</svg>
